M48
;GenerationSoftware,Autodesk,EAGLE,9.6.2*%
;CreationDate,2022-08-09T21:09:59Z*%
FMAT,2
ICI,OFF
METRIC,TZ,000.000
T7C0.600
T6C0.780
T5C0.900
T4C1.000
T3C1.200
T2C1.300
T1C2.800
%
G90
M71
T1
X61500Y3500
X3500Y3500
X3500Y26500
X61500Y26500
T2
X5500Y8100
X5500Y20900
T3
X37660Y-6000
X32580Y-6000
X27500Y-6000
X42740Y-6000
T4
X12000Y-9700
X9000Y-5000
X15000Y-5000
X8930Y21090
X8930Y7910
T5
X13450Y25230
X38850Y27770
X8370Y25230
X8370Y27770
X10910Y25230
X10910Y27770
X13450Y27770
X15990Y25230
X15990Y27770
X18530Y25230
X18530Y27770
X21070Y25230
X21070Y27770
X23610Y25230
X23610Y27770
X26150Y25230
X26150Y27770
X28690Y25230
X28690Y27770
X31230Y25230
X31230Y27770
X33770Y25230
X33770Y27770
X36310Y25230
X36310Y27770
X38850Y25230
X9820Y11950
X41390Y25230
X41390Y27770
X43930Y25230
X43930Y27770
X46470Y25230
X46470Y27770
X49010Y25230
X49010Y27770
X51550Y25230
X51550Y27770
X54090Y25230
X54090Y27770
X56630Y25230
X56630Y27770
X9820Y18070
X8040Y17050
X9820Y16030
X9820Y13990
X8040Y15010
X8040Y12970
X8040Y10930
T6
X53470Y13310
X45530Y13310
X45530Y10770
X45530Y8230
X45530Y5690
X53470Y5690
X53470Y8230
X53470Y10770
T7
X38000Y18000
X27500Y11500
X4000Y-6500
X49500Y9000
X14000Y3000
X25500Y19000
X38000Y21500
X21000Y16500
X59000Y-6500
X52000Y-8500
X22000Y3000
X17500Y3000
M30