G04 EAGLE Gerber RS-274X export*
G75*
%MOMM*%
%FSLAX34Y34*%
%LPD*%
%INTop Copper*%
%IPPOS*%
%AMOC8*
5,1,8,0,0,1.08239X$1,22.5*%
G01*
%ADD10C,1.700000*%
%ADD11C,1.950000*%
%ADD12C,1.408000*%
%ADD13R,1.408000X1.408000*%
%ADD14C,1.879600*%
%ADD15C,0.254000*%
%ADD16C,0.800100*%

G36*
X245038Y78826D02*
X245038Y78826D01*
X245157Y78833D01*
X245195Y78846D01*
X245236Y78851D01*
X245346Y78894D01*
X245459Y78931D01*
X245494Y78953D01*
X245531Y78968D01*
X245627Y79037D01*
X245728Y79101D01*
X245756Y79131D01*
X245789Y79154D01*
X245865Y79246D01*
X245946Y79333D01*
X245966Y79368D01*
X245991Y79399D01*
X246042Y79507D01*
X246100Y79611D01*
X246110Y79651D01*
X246127Y79687D01*
X246149Y79804D01*
X246179Y79919D01*
X246183Y79979D01*
X246187Y79999D01*
X246185Y80020D01*
X246189Y80080D01*
X246189Y294920D01*
X246174Y295038D01*
X246167Y295157D01*
X246154Y295195D01*
X246149Y295236D01*
X246106Y295346D01*
X246069Y295459D01*
X246047Y295494D01*
X246032Y295531D01*
X245963Y295627D01*
X245899Y295728D01*
X245869Y295756D01*
X245846Y295789D01*
X245754Y295865D01*
X245667Y295946D01*
X245632Y295966D01*
X245601Y295991D01*
X245493Y296042D01*
X245389Y296100D01*
X245349Y296110D01*
X245313Y296127D01*
X245196Y296149D01*
X245081Y296179D01*
X245021Y296183D01*
X245001Y296187D01*
X244980Y296185D01*
X244920Y296189D01*
X-4920Y296189D01*
X-5038Y296174D01*
X-5157Y296167D01*
X-5195Y296154D01*
X-5236Y296149D01*
X-5346Y296106D01*
X-5459Y296069D01*
X-5494Y296047D01*
X-5531Y296032D01*
X-5627Y295963D01*
X-5728Y295899D01*
X-5756Y295869D01*
X-5789Y295846D01*
X-5865Y295754D01*
X-5946Y295667D01*
X-5966Y295632D01*
X-5991Y295601D01*
X-6042Y295493D01*
X-6100Y295389D01*
X-6110Y295349D01*
X-6127Y295313D01*
X-6149Y295196D01*
X-6179Y295081D01*
X-6183Y295021D01*
X-6187Y295001D01*
X-6185Y294980D01*
X-6189Y294920D01*
X-6189Y80080D01*
X-6174Y79962D01*
X-6167Y79843D01*
X-6154Y79805D01*
X-6149Y79764D01*
X-6106Y79654D01*
X-6069Y79541D01*
X-6047Y79506D01*
X-6032Y79469D01*
X-5963Y79373D01*
X-5899Y79272D01*
X-5869Y79244D01*
X-5846Y79211D01*
X-5754Y79135D01*
X-5667Y79054D01*
X-5632Y79034D01*
X-5601Y79009D01*
X-5493Y78958D01*
X-5389Y78900D01*
X-5349Y78890D01*
X-5313Y78873D01*
X-5196Y78851D01*
X-5081Y78821D01*
X-5021Y78817D01*
X-5001Y78813D01*
X-4980Y78815D01*
X-4920Y78811D01*
X244920Y78811D01*
X245038Y78826D01*
G37*
%LPC*%
G36*
X192726Y131569D02*
X192726Y131569D01*
X188525Y133309D01*
X185309Y136525D01*
X184320Y138914D01*
X184305Y138939D01*
X184296Y138967D01*
X184227Y139077D01*
X184163Y139190D01*
X184142Y139211D01*
X184126Y139236D01*
X184032Y139325D01*
X183941Y139418D01*
X183916Y139434D01*
X183895Y139454D01*
X183781Y139517D01*
X183670Y139585D01*
X183642Y139593D01*
X183616Y139608D01*
X183490Y139640D01*
X183366Y139678D01*
X183337Y139680D01*
X183308Y139687D01*
X183147Y139697D01*
X110632Y139697D01*
X99585Y150744D01*
X99491Y150817D01*
X99402Y150896D01*
X99366Y150914D01*
X99334Y150939D01*
X99224Y150986D01*
X99118Y151040D01*
X99079Y151049D01*
X99042Y151065D01*
X98924Y151084D01*
X98808Y151110D01*
X98768Y151109D01*
X98728Y151115D01*
X98609Y151104D01*
X98490Y151100D01*
X98452Y151089D01*
X98412Y151085D01*
X98299Y151045D01*
X98185Y151012D01*
X98150Y150991D01*
X98112Y150978D01*
X98013Y150910D01*
X97911Y150850D01*
X97882Y150821D01*
X97849Y150799D01*
X97770Y150709D01*
X97686Y150625D01*
X97665Y150591D01*
X97639Y150561D01*
X97584Y150454D01*
X97524Y150352D01*
X97512Y150313D01*
X97494Y150277D01*
X97468Y150161D01*
X97435Y150046D01*
X97433Y150006D01*
X97424Y149967D01*
X97428Y149848D01*
X97424Y149728D01*
X97433Y149689D01*
X97434Y149649D01*
X97467Y149534D01*
X97493Y149418D01*
X97517Y149363D01*
X97522Y149344D01*
X97533Y149326D01*
X97557Y149270D01*
X98032Y148338D01*
X98569Y146685D01*
X98583Y146599D01*
X80530Y146599D01*
X80412Y146584D01*
X80293Y146577D01*
X80255Y146564D01*
X80215Y146559D01*
X80104Y146516D01*
X79991Y146479D01*
X79957Y146457D01*
X79919Y146442D01*
X79823Y146373D01*
X79722Y146309D01*
X79694Y146279D01*
X79662Y146256D01*
X79586Y146164D01*
X79504Y146077D01*
X79485Y146042D01*
X79459Y146011D01*
X79408Y145903D01*
X79351Y145799D01*
X79341Y145759D01*
X79323Y145723D01*
X79303Y145616D01*
X79299Y145646D01*
X79255Y145756D01*
X79219Y145869D01*
X79197Y145904D01*
X79182Y145941D01*
X79112Y146037D01*
X79049Y146138D01*
X79019Y146166D01*
X78995Y146199D01*
X78904Y146275D01*
X78817Y146356D01*
X78782Y146376D01*
X78750Y146401D01*
X78643Y146452D01*
X78538Y146510D01*
X78499Y146520D01*
X78463Y146537D01*
X78346Y146559D01*
X78230Y146589D01*
X78170Y146593D01*
X78150Y146597D01*
X78130Y146595D01*
X78070Y146599D01*
X60018Y146599D01*
X60031Y146685D01*
X60568Y148338D01*
X61357Y149887D01*
X62379Y151293D01*
X63607Y152521D01*
X65013Y153543D01*
X66494Y154297D01*
X66510Y154308D01*
X66529Y154316D01*
X66641Y154397D01*
X66757Y154476D01*
X66770Y154491D01*
X66786Y154502D01*
X66875Y154610D01*
X66967Y154714D01*
X66976Y154732D01*
X66989Y154747D01*
X67048Y154874D01*
X67112Y154998D01*
X67116Y155017D01*
X67124Y155035D01*
X67151Y155172D01*
X67181Y155308D01*
X67180Y155328D01*
X67184Y155348D01*
X67175Y155487D01*
X67171Y155626D01*
X67166Y155645D01*
X67164Y155665D01*
X67121Y155797D01*
X67083Y155931D01*
X67072Y155949D01*
X67066Y155967D01*
X66992Y156085D01*
X66921Y156205D01*
X66907Y156219D01*
X66896Y156236D01*
X66795Y156332D01*
X66696Y156430D01*
X66679Y156440D01*
X66665Y156454D01*
X66543Y156521D01*
X66423Y156592D01*
X66403Y156598D01*
X66386Y156608D01*
X66251Y156642D01*
X66117Y156681D01*
X66097Y156682D01*
X66078Y156687D01*
X65917Y156697D01*
X58632Y156697D01*
X41697Y173632D01*
X41697Y201368D01*
X58732Y218403D01*
X61100Y218403D01*
X61129Y218406D01*
X61158Y218404D01*
X61286Y218426D01*
X61415Y218443D01*
X61443Y218453D01*
X61472Y218458D01*
X61590Y218512D01*
X61711Y218560D01*
X61735Y218577D01*
X61762Y218589D01*
X61863Y218670D01*
X61968Y218746D01*
X61987Y218769D01*
X62010Y218788D01*
X62088Y218891D01*
X62171Y218991D01*
X62184Y219018D01*
X62201Y219042D01*
X62272Y219186D01*
X62708Y220239D01*
X65261Y222792D01*
X68486Y224127D01*
X68606Y224196D01*
X68729Y224261D01*
X68744Y224275D01*
X68762Y224285D01*
X68862Y224382D01*
X68965Y224475D01*
X68976Y224492D01*
X68990Y224506D01*
X69063Y224625D01*
X69140Y224741D01*
X69146Y224760D01*
X69157Y224777D01*
X69198Y224910D01*
X69243Y225042D01*
X69244Y225062D01*
X69250Y225081D01*
X69257Y225220D01*
X69268Y225359D01*
X69264Y225379D01*
X69265Y225399D01*
X69237Y225535D01*
X69214Y225672D01*
X69205Y225691D01*
X69201Y225710D01*
X69140Y225836D01*
X69083Y225962D01*
X69070Y225978D01*
X69061Y225996D01*
X68971Y226102D01*
X68884Y226210D01*
X68868Y226223D01*
X68855Y226238D01*
X68741Y226318D01*
X68630Y226402D01*
X68605Y226414D01*
X68595Y226421D01*
X68576Y226428D01*
X68486Y226473D01*
X65261Y227808D01*
X62708Y230361D01*
X61327Y233695D01*
X61327Y237305D01*
X62708Y240639D01*
X65261Y243192D01*
X66314Y243628D01*
X66339Y243642D01*
X66367Y243651D01*
X66477Y243721D01*
X66590Y243785D01*
X66611Y243806D01*
X66636Y243822D01*
X66725Y243916D01*
X66818Y244006D01*
X66834Y244032D01*
X66854Y244053D01*
X66917Y244167D01*
X66985Y244278D01*
X66993Y244306D01*
X67008Y244332D01*
X67040Y244457D01*
X67078Y244582D01*
X67080Y244611D01*
X67087Y244640D01*
X67097Y244800D01*
X67097Y251768D01*
X78022Y262693D01*
X78107Y262802D01*
X78196Y262909D01*
X78204Y262928D01*
X78217Y262944D01*
X78272Y263072D01*
X78331Y263197D01*
X78335Y263217D01*
X78343Y263236D01*
X78365Y263374D01*
X78391Y263510D01*
X78390Y263530D01*
X78393Y263550D01*
X78380Y263689D01*
X78371Y263827D01*
X78365Y263846D01*
X78363Y263866D01*
X78316Y263998D01*
X78273Y264129D01*
X78262Y264147D01*
X78255Y264166D01*
X78177Y264281D01*
X78103Y264398D01*
X78088Y264412D01*
X78077Y264429D01*
X77973Y264521D01*
X77871Y264616D01*
X77854Y264626D01*
X77838Y264639D01*
X77714Y264703D01*
X77593Y264770D01*
X77573Y264775D01*
X77555Y264784D01*
X77419Y264814D01*
X77285Y264849D01*
X77257Y264851D01*
X77245Y264854D01*
X77224Y264853D01*
X77124Y264859D01*
X69931Y264859D01*
X68215Y265131D01*
X66562Y265668D01*
X65013Y266457D01*
X63607Y267479D01*
X62379Y268707D01*
X61357Y270113D01*
X60568Y271662D01*
X60031Y273315D01*
X60018Y273401D01*
X78070Y273401D01*
X78188Y273416D01*
X78307Y273423D01*
X78345Y273435D01*
X78385Y273441D01*
X78496Y273484D01*
X78609Y273521D01*
X78643Y273543D01*
X78681Y273558D01*
X78777Y273627D01*
X78878Y273691D01*
X78906Y273721D01*
X78938Y273744D01*
X79014Y273836D01*
X79096Y273923D01*
X79115Y273958D01*
X79141Y273989D01*
X79192Y274097D01*
X79249Y274201D01*
X79259Y274241D01*
X79277Y274277D01*
X79297Y274384D01*
X79301Y274354D01*
X79345Y274244D01*
X79381Y274131D01*
X79403Y274096D01*
X79418Y274059D01*
X79488Y273962D01*
X79551Y273862D01*
X79581Y273834D01*
X79605Y273801D01*
X79696Y273725D01*
X79783Y273644D01*
X79818Y273624D01*
X79850Y273599D01*
X79957Y273548D01*
X80062Y273490D01*
X80101Y273480D01*
X80137Y273463D01*
X80254Y273441D01*
X80370Y273411D01*
X80430Y273407D01*
X80450Y273403D01*
X80470Y273405D01*
X80530Y273401D01*
X98582Y273401D01*
X98569Y273315D01*
X98032Y271662D01*
X97243Y270113D01*
X96221Y268707D01*
X94993Y267479D01*
X93587Y266457D01*
X92106Y265703D01*
X92090Y265692D01*
X92071Y265684D01*
X91959Y265603D01*
X91843Y265524D01*
X91830Y265509D01*
X91814Y265498D01*
X91725Y265390D01*
X91633Y265286D01*
X91624Y265268D01*
X91611Y265253D01*
X91552Y265126D01*
X91488Y265002D01*
X91484Y264983D01*
X91476Y264965D01*
X91449Y264828D01*
X91419Y264692D01*
X91420Y264672D01*
X91416Y264652D01*
X91424Y264513D01*
X91429Y264374D01*
X91434Y264355D01*
X91436Y264335D01*
X91479Y264202D01*
X91517Y264069D01*
X91527Y264051D01*
X91534Y264033D01*
X91608Y263915D01*
X91679Y263795D01*
X91693Y263781D01*
X91704Y263764D01*
X91805Y263668D01*
X91904Y263570D01*
X91921Y263560D01*
X91935Y263546D01*
X92057Y263479D01*
X92177Y263408D01*
X92196Y263402D01*
X92214Y263392D01*
X92349Y263358D01*
X92483Y263319D01*
X92503Y263318D01*
X92522Y263313D01*
X92683Y263303D01*
X121368Y263303D01*
X123674Y260997D01*
X123674Y260996D01*
X136396Y248274D01*
X136475Y248214D01*
X136547Y248146D01*
X136600Y248117D01*
X136648Y248080D01*
X136739Y248040D01*
X136825Y247992D01*
X136884Y247977D01*
X136939Y247953D01*
X137037Y247938D01*
X137133Y247913D01*
X137233Y247907D01*
X137253Y247903D01*
X137266Y247905D01*
X137294Y247903D01*
X183147Y247903D01*
X183177Y247906D01*
X183206Y247904D01*
X183334Y247926D01*
X183463Y247943D01*
X183490Y247953D01*
X183519Y247958D01*
X183638Y248012D01*
X183759Y248060D01*
X183783Y248077D01*
X183809Y248089D01*
X183911Y248170D01*
X184016Y248246D01*
X184035Y248269D01*
X184058Y248288D01*
X184136Y248391D01*
X184219Y248491D01*
X184231Y248518D01*
X184249Y248542D01*
X184320Y248686D01*
X185309Y251075D01*
X188525Y254291D01*
X192726Y256031D01*
X197274Y256031D01*
X201475Y254291D01*
X204691Y251075D01*
X206431Y246874D01*
X206431Y242326D01*
X204691Y238125D01*
X201475Y234909D01*
X197274Y233169D01*
X192726Y233169D01*
X188525Y234909D01*
X185309Y238125D01*
X184320Y240514D01*
X184310Y240531D01*
X184306Y240545D01*
X184302Y240551D01*
X184296Y240567D01*
X184227Y240677D01*
X184163Y240790D01*
X184142Y240811D01*
X184126Y240836D01*
X184032Y240925D01*
X183941Y241018D01*
X183916Y241034D01*
X183895Y241054D01*
X183781Y241117D01*
X183670Y241185D01*
X183642Y241193D01*
X183616Y241208D01*
X183490Y241240D01*
X183366Y241278D01*
X183337Y241280D01*
X183308Y241287D01*
X183147Y241297D01*
X134032Y241297D01*
X131726Y243603D01*
X131726Y243604D01*
X119004Y256326D01*
X118925Y256386D01*
X118853Y256454D01*
X118800Y256483D01*
X118752Y256520D01*
X118661Y256560D01*
X118575Y256608D01*
X118516Y256623D01*
X118461Y256647D01*
X118363Y256662D01*
X118267Y256687D01*
X118167Y256693D01*
X118147Y256697D01*
X118134Y256695D01*
X118106Y256697D01*
X91739Y256697D01*
X91670Y256689D01*
X91600Y256690D01*
X91513Y256669D01*
X91424Y256657D01*
X91359Y256632D01*
X91291Y256615D01*
X91212Y256573D01*
X91128Y256540D01*
X91072Y256499D01*
X91010Y256467D01*
X90943Y256406D01*
X90871Y256354D01*
X90826Y256300D01*
X90775Y256253D01*
X90725Y256178D01*
X90668Y256109D01*
X90638Y256045D01*
X90600Y255987D01*
X90571Y255902D01*
X90532Y255821D01*
X90519Y255752D01*
X90497Y255686D01*
X90490Y255597D01*
X90473Y255509D01*
X90477Y255439D01*
X90471Y255369D01*
X90487Y255281D01*
X90492Y255191D01*
X90514Y255125D01*
X90526Y255056D01*
X90563Y254974D01*
X90590Y254889D01*
X90628Y254830D01*
X90656Y254766D01*
X90712Y254696D01*
X90761Y254620D01*
X90811Y254572D01*
X90855Y254518D01*
X90927Y254463D01*
X90992Y254402D01*
X91053Y254368D01*
X91109Y254326D01*
X91254Y254255D01*
X93339Y253392D01*
X95892Y250839D01*
X96328Y249786D01*
X96342Y249761D01*
X96351Y249733D01*
X96421Y249623D01*
X96485Y249510D01*
X96506Y249489D01*
X96522Y249464D01*
X96616Y249375D01*
X96706Y249282D01*
X96732Y249266D01*
X96753Y249246D01*
X96867Y249183D01*
X96978Y249115D01*
X97006Y249107D01*
X97032Y249092D01*
X97157Y249060D01*
X97282Y249022D01*
X97311Y249020D01*
X97340Y249013D01*
X97500Y249003D01*
X120668Y249003D01*
X130996Y238674D01*
X131075Y238614D01*
X131147Y238546D01*
X131200Y238517D01*
X131248Y238480D01*
X131339Y238440D01*
X131425Y238392D01*
X131484Y238377D01*
X131539Y238353D01*
X131637Y238338D01*
X131733Y238313D01*
X131833Y238307D01*
X131854Y238303D01*
X131866Y238305D01*
X131894Y238303D01*
X151368Y238303D01*
X166796Y222874D01*
X166875Y222814D01*
X166947Y222746D01*
X167000Y222717D01*
X167048Y222680D01*
X167139Y222640D01*
X167225Y222592D01*
X167284Y222577D01*
X167339Y222553D01*
X167437Y222538D01*
X167533Y222513D01*
X167633Y222507D01*
X167654Y222503D01*
X167666Y222505D01*
X167694Y222503D01*
X183147Y222503D01*
X183177Y222506D01*
X183206Y222504D01*
X183334Y222526D01*
X183463Y222543D01*
X183490Y222553D01*
X183519Y222558D01*
X183638Y222612D01*
X183759Y222660D01*
X183783Y222677D01*
X183809Y222689D01*
X183911Y222770D01*
X184016Y222846D01*
X184035Y222869D01*
X184058Y222888D01*
X184136Y222991D01*
X184219Y223091D01*
X184231Y223118D01*
X184249Y223142D01*
X184320Y223286D01*
X185309Y225675D01*
X188525Y228891D01*
X192726Y230631D01*
X197274Y230631D01*
X201475Y228891D01*
X204691Y225675D01*
X206431Y221474D01*
X206431Y216926D01*
X204691Y212725D01*
X201475Y209509D01*
X197274Y207769D01*
X192726Y207769D01*
X188525Y209509D01*
X185309Y212725D01*
X184320Y215114D01*
X184307Y215137D01*
X184299Y215160D01*
X184298Y215162D01*
X184296Y215167D01*
X184227Y215277D01*
X184163Y215390D01*
X184142Y215411D01*
X184126Y215436D01*
X184032Y215525D01*
X183941Y215618D01*
X183916Y215634D01*
X183895Y215654D01*
X183781Y215717D01*
X183670Y215785D01*
X183642Y215793D01*
X183616Y215808D01*
X183490Y215840D01*
X183366Y215878D01*
X183337Y215880D01*
X183308Y215887D01*
X183147Y215897D01*
X164432Y215897D01*
X149004Y231326D01*
X148925Y231386D01*
X148853Y231454D01*
X148800Y231483D01*
X148752Y231520D01*
X148661Y231560D01*
X148575Y231608D01*
X148516Y231623D01*
X148461Y231647D01*
X148363Y231662D01*
X148267Y231687D01*
X148167Y231693D01*
X148146Y231697D01*
X148134Y231695D01*
X148106Y231697D01*
X128632Y231697D01*
X118304Y242026D01*
X118225Y242086D01*
X118153Y242154D01*
X118100Y242183D01*
X118052Y242220D01*
X117961Y242260D01*
X117875Y242308D01*
X117816Y242323D01*
X117761Y242347D01*
X117663Y242362D01*
X117567Y242387D01*
X117467Y242393D01*
X117446Y242397D01*
X117434Y242395D01*
X117406Y242397D01*
X97500Y242397D01*
X97471Y242394D01*
X97442Y242396D01*
X97314Y242374D01*
X97185Y242357D01*
X97157Y242347D01*
X97128Y242342D01*
X97010Y242288D01*
X96889Y242240D01*
X96865Y242223D01*
X96838Y242211D01*
X96737Y242130D01*
X96632Y242054D01*
X96613Y242031D01*
X96590Y242012D01*
X96512Y241909D01*
X96429Y241809D01*
X96416Y241782D01*
X96399Y241758D01*
X96328Y241614D01*
X95892Y240561D01*
X93339Y238008D01*
X90114Y236673D01*
X89994Y236604D01*
X89871Y236539D01*
X89856Y236525D01*
X89838Y236515D01*
X89738Y236418D01*
X89635Y236325D01*
X89624Y236308D01*
X89610Y236294D01*
X89537Y236176D01*
X89460Y236059D01*
X89454Y236040D01*
X89443Y236023D01*
X89402Y235890D01*
X89357Y235758D01*
X89356Y235738D01*
X89350Y235719D01*
X89343Y235580D01*
X89332Y235441D01*
X89336Y235421D01*
X89335Y235401D01*
X89363Y235265D01*
X89386Y235128D01*
X89395Y235110D01*
X89399Y235090D01*
X89460Y234964D01*
X89517Y234838D01*
X89530Y234822D01*
X89539Y234804D01*
X89629Y234698D01*
X89716Y234590D01*
X89732Y234577D01*
X89745Y234562D01*
X89859Y234482D01*
X89970Y234398D01*
X89995Y234386D01*
X90005Y234379D01*
X90024Y234372D01*
X90114Y234327D01*
X93339Y232992D01*
X95892Y230439D01*
X96328Y229386D01*
X96342Y229361D01*
X96351Y229333D01*
X96421Y229223D01*
X96485Y229110D01*
X96506Y229089D01*
X96522Y229064D01*
X96616Y228975D01*
X96706Y228882D01*
X96732Y228866D01*
X96753Y228846D01*
X96867Y228783D01*
X96978Y228715D01*
X97006Y228707D01*
X97032Y228692D01*
X97157Y228660D01*
X97282Y228622D01*
X97311Y228620D01*
X97340Y228613D01*
X97500Y228603D01*
X141068Y228603D01*
X170996Y198674D01*
X171075Y198614D01*
X171147Y198546D01*
X171200Y198517D01*
X171248Y198480D01*
X171339Y198440D01*
X171425Y198392D01*
X171484Y198377D01*
X171539Y198353D01*
X171637Y198338D01*
X171733Y198313D01*
X171833Y198307D01*
X171854Y198303D01*
X171866Y198305D01*
X171894Y198303D01*
X183644Y198303D01*
X183674Y198306D01*
X183703Y198304D01*
X183831Y198326D01*
X183960Y198343D01*
X183987Y198353D01*
X184017Y198358D01*
X184135Y198412D01*
X184256Y198460D01*
X184280Y198477D01*
X184307Y198489D01*
X184408Y198570D01*
X184513Y198646D01*
X184532Y198669D01*
X184555Y198688D01*
X184633Y198791D01*
X184716Y198891D01*
X184728Y198918D01*
X184746Y198942D01*
X184817Y199086D01*
X185309Y200275D01*
X188525Y203491D01*
X192726Y205231D01*
X197274Y205231D01*
X201475Y203491D01*
X204691Y200275D01*
X206431Y196074D01*
X206431Y191526D01*
X204691Y187325D01*
X201475Y184109D01*
X197516Y182470D01*
X197404Y182406D01*
X197289Y182347D01*
X197266Y182327D01*
X197240Y182312D01*
X197147Y182222D01*
X197050Y182137D01*
X197033Y182112D01*
X197012Y182091D01*
X196944Y181980D01*
X196871Y181874D01*
X196861Y181845D01*
X196845Y181820D01*
X196807Y181696D01*
X196764Y181575D01*
X196761Y181545D01*
X196752Y181516D01*
X196746Y181387D01*
X196733Y181258D01*
X196738Y181228D01*
X196737Y181198D01*
X196763Y181072D01*
X196783Y180944D01*
X196795Y180916D01*
X196801Y180887D01*
X196858Y180770D01*
X196909Y180652D01*
X196927Y180628D01*
X196941Y180601D01*
X197025Y180503D01*
X197104Y180400D01*
X197127Y180382D01*
X197147Y180359D01*
X197253Y180285D01*
X197355Y180205D01*
X197382Y180193D01*
X197407Y180176D01*
X197528Y180130D01*
X197647Y180079D01*
X197688Y180069D01*
X197704Y180063D01*
X197726Y180061D01*
X197791Y180046D01*
X199583Y179464D01*
X201257Y178611D01*
X202778Y177506D01*
X204106Y176178D01*
X205211Y174657D01*
X206064Y172983D01*
X206493Y171663D01*
X206527Y171591D01*
X206551Y171515D01*
X206594Y171448D01*
X206628Y171375D01*
X206679Y171314D01*
X206722Y171247D01*
X206780Y171192D01*
X206831Y171130D01*
X206895Y171083D01*
X206953Y171029D01*
X207023Y170990D01*
X207088Y170943D01*
X207098Y170939D01*
X196270Y170939D01*
X196152Y170924D01*
X196033Y170917D01*
X195995Y170904D01*
X195955Y170899D01*
X195844Y170856D01*
X195731Y170819D01*
X195697Y170797D01*
X195659Y170782D01*
X195563Y170712D01*
X195462Y170649D01*
X195434Y170619D01*
X195402Y170595D01*
X195326Y170504D01*
X195244Y170417D01*
X195225Y170382D01*
X195199Y170351D01*
X195148Y170243D01*
X195091Y170139D01*
X195080Y170099D01*
X195063Y170063D01*
X195041Y169946D01*
X195011Y169831D01*
X195007Y169770D01*
X195003Y169750D01*
X195005Y169730D01*
X195001Y169670D01*
X195001Y167130D01*
X195016Y167012D01*
X195023Y166893D01*
X195036Y166855D01*
X195041Y166814D01*
X195085Y166704D01*
X195121Y166591D01*
X195143Y166556D01*
X195158Y166519D01*
X195228Y166423D01*
X195291Y166322D01*
X195321Y166294D01*
X195345Y166261D01*
X195436Y166186D01*
X195523Y166104D01*
X195558Y166084D01*
X195590Y166059D01*
X195697Y166008D01*
X195802Y165950D01*
X195841Y165940D01*
X195877Y165923D01*
X195994Y165901D01*
X196109Y165871D01*
X196170Y165867D01*
X196190Y165863D01*
X196210Y165865D01*
X196270Y165861D01*
X219130Y165861D01*
X219248Y165876D01*
X219367Y165883D01*
X219405Y165896D01*
X219445Y165901D01*
X219556Y165944D01*
X219669Y165981D01*
X219703Y166003D01*
X219741Y166018D01*
X219837Y166088D01*
X219938Y166151D01*
X219966Y166181D01*
X219998Y166204D01*
X220074Y166296D01*
X220156Y166383D01*
X220175Y166418D01*
X220201Y166449D01*
X220252Y166557D01*
X220309Y166661D01*
X220320Y166701D01*
X220337Y166737D01*
X220359Y166854D01*
X220389Y166969D01*
X220393Y167030D01*
X220397Y167050D01*
X220395Y167070D01*
X220399Y167130D01*
X220399Y169670D01*
X220384Y169788D01*
X220377Y169907D01*
X220364Y169945D01*
X220359Y169985D01*
X220315Y170096D01*
X220279Y170209D01*
X220257Y170244D01*
X220242Y170281D01*
X220172Y170377D01*
X220109Y170478D01*
X220079Y170506D01*
X220055Y170539D01*
X219964Y170614D01*
X219877Y170696D01*
X219842Y170716D01*
X219810Y170741D01*
X219703Y170792D01*
X219598Y170850D01*
X219559Y170860D01*
X219523Y170877D01*
X219406Y170899D01*
X219291Y170929D01*
X219230Y170933D01*
X219210Y170937D01*
X219190Y170935D01*
X219130Y170939D01*
X208302Y170939D01*
X208311Y170943D01*
X208375Y170989D01*
X208445Y171028D01*
X208503Y171082D01*
X208568Y171129D01*
X208619Y171191D01*
X208677Y171245D01*
X208720Y171313D01*
X208771Y171374D01*
X208805Y171446D01*
X208848Y171513D01*
X208906Y171660D01*
X208907Y171662D01*
X208907Y171663D01*
X209336Y172983D01*
X210189Y174657D01*
X211294Y176178D01*
X212622Y177506D01*
X214143Y178611D01*
X215817Y179464D01*
X217634Y180054D01*
X217720Y180079D01*
X217846Y180110D01*
X217873Y180124D01*
X217902Y180132D01*
X218013Y180198D01*
X218127Y180258D01*
X218150Y180279D01*
X218176Y180294D01*
X218267Y180385D01*
X218363Y180472D01*
X218379Y180497D01*
X218400Y180519D01*
X218466Y180630D01*
X218537Y180738D01*
X218547Y180767D01*
X218563Y180792D01*
X218599Y180916D01*
X218641Y181039D01*
X218643Y181069D01*
X218651Y181098D01*
X218656Y181227D01*
X218666Y181356D01*
X218661Y181386D01*
X218662Y181416D01*
X218634Y181542D01*
X218611Y181669D01*
X218599Y181697D01*
X218593Y181726D01*
X218534Y181841D01*
X218481Y181959D01*
X218462Y181983D01*
X218448Y182010D01*
X218363Y182106D01*
X218282Y182208D01*
X218258Y182226D01*
X218238Y182248D01*
X218132Y182321D01*
X218028Y182399D01*
X217990Y182418D01*
X217976Y182427D01*
X217955Y182435D01*
X217884Y182470D01*
X213925Y184109D01*
X210709Y187325D01*
X208969Y191526D01*
X208969Y196074D01*
X210709Y200275D01*
X213925Y203491D01*
X218126Y205231D01*
X222674Y205231D01*
X226875Y203491D01*
X230091Y200275D01*
X231831Y196074D01*
X231831Y191526D01*
X230091Y187325D01*
X226875Y184109D01*
X222916Y182470D01*
X222804Y182406D01*
X222689Y182347D01*
X222666Y182327D01*
X222640Y182312D01*
X222547Y182222D01*
X222450Y182137D01*
X222433Y182112D01*
X222412Y182091D01*
X222344Y181980D01*
X222271Y181874D01*
X222261Y181845D01*
X222245Y181820D01*
X222207Y181696D01*
X222164Y181575D01*
X222161Y181545D01*
X222152Y181516D01*
X222146Y181387D01*
X222133Y181258D01*
X222138Y181228D01*
X222137Y181198D01*
X222163Y181072D01*
X222183Y180944D01*
X222195Y180916D01*
X222201Y180887D01*
X222258Y180770D01*
X222309Y180652D01*
X222327Y180628D01*
X222341Y180601D01*
X222425Y180503D01*
X222504Y180400D01*
X222527Y180382D01*
X222547Y180359D01*
X222653Y180285D01*
X222755Y180205D01*
X222782Y180193D01*
X222807Y180176D01*
X222928Y180130D01*
X223047Y180079D01*
X223088Y180069D01*
X223104Y180063D01*
X223126Y180061D01*
X223191Y180046D01*
X224983Y179464D01*
X226657Y178611D01*
X228178Y177506D01*
X229506Y176178D01*
X230611Y174657D01*
X231464Y172983D01*
X232045Y171196D01*
X232085Y170939D01*
X221670Y170939D01*
X221552Y170924D01*
X221433Y170917D01*
X221395Y170904D01*
X221355Y170899D01*
X221244Y170856D01*
X221131Y170819D01*
X221097Y170797D01*
X221059Y170782D01*
X220963Y170712D01*
X220862Y170649D01*
X220834Y170619D01*
X220802Y170595D01*
X220726Y170504D01*
X220644Y170417D01*
X220625Y170382D01*
X220599Y170351D01*
X220548Y170243D01*
X220491Y170139D01*
X220480Y170099D01*
X220463Y170063D01*
X220441Y169946D01*
X220411Y169831D01*
X220407Y169770D01*
X220403Y169750D01*
X220405Y169730D01*
X220401Y169670D01*
X220401Y167130D01*
X220416Y167012D01*
X220423Y166893D01*
X220436Y166855D01*
X220441Y166814D01*
X220485Y166704D01*
X220521Y166591D01*
X220543Y166556D01*
X220558Y166519D01*
X220628Y166423D01*
X220691Y166322D01*
X220721Y166294D01*
X220745Y166261D01*
X220836Y166186D01*
X220923Y166104D01*
X220958Y166084D01*
X220990Y166059D01*
X221097Y166008D01*
X221202Y165950D01*
X221241Y165940D01*
X221277Y165923D01*
X221394Y165901D01*
X221509Y165871D01*
X221570Y165867D01*
X221590Y165863D01*
X221610Y165865D01*
X221670Y165861D01*
X232085Y165861D01*
X232045Y165604D01*
X231464Y163817D01*
X230611Y162143D01*
X229506Y160622D01*
X228178Y159294D01*
X226657Y158189D01*
X224983Y157336D01*
X223166Y156746D01*
X223080Y156721D01*
X222954Y156690D01*
X222927Y156676D01*
X222898Y156668D01*
X222787Y156602D01*
X222673Y156542D01*
X222650Y156521D01*
X222624Y156506D01*
X222533Y156415D01*
X222437Y156328D01*
X222421Y156303D01*
X222400Y156281D01*
X222334Y156170D01*
X222263Y156062D01*
X222253Y156033D01*
X222237Y156008D01*
X222201Y155884D01*
X222159Y155761D01*
X222157Y155731D01*
X222149Y155702D01*
X222144Y155573D01*
X222134Y155444D01*
X222139Y155414D01*
X222138Y155384D01*
X222166Y155258D01*
X222189Y155131D01*
X222201Y155103D01*
X222207Y155074D01*
X222266Y154959D01*
X222319Y154841D01*
X222338Y154817D01*
X222352Y154790D01*
X222437Y154694D01*
X222518Y154592D01*
X222542Y154574D01*
X222562Y154552D01*
X222668Y154479D01*
X222772Y154401D01*
X222810Y154382D01*
X222824Y154373D01*
X222845Y154365D01*
X222916Y154330D01*
X226875Y152691D01*
X230091Y149475D01*
X231831Y145274D01*
X231831Y140726D01*
X230091Y136525D01*
X226875Y133309D01*
X222674Y131569D01*
X218126Y131569D01*
X213925Y133309D01*
X210709Y136525D01*
X209720Y138914D01*
X209705Y138939D01*
X209696Y138967D01*
X209627Y139077D01*
X209563Y139190D01*
X209542Y139211D01*
X209526Y139236D01*
X209432Y139325D01*
X209341Y139418D01*
X209316Y139434D01*
X209295Y139454D01*
X209181Y139517D01*
X209070Y139585D01*
X209042Y139593D01*
X209016Y139608D01*
X208890Y139640D01*
X208766Y139678D01*
X208737Y139680D01*
X208708Y139687D01*
X208547Y139697D01*
X206853Y139697D01*
X206823Y139694D01*
X206794Y139696D01*
X206666Y139674D01*
X206537Y139657D01*
X206510Y139647D01*
X206481Y139642D01*
X206362Y139588D01*
X206241Y139540D01*
X206217Y139523D01*
X206191Y139511D01*
X206089Y139430D01*
X205984Y139354D01*
X205965Y139331D01*
X205942Y139312D01*
X205864Y139209D01*
X205781Y139109D01*
X205769Y139082D01*
X205751Y139058D01*
X205680Y138914D01*
X204691Y136525D01*
X201475Y133309D01*
X197274Y131569D01*
X192726Y131569D01*
G37*
%LPD*%
G36*
X183177Y146306D02*
X183177Y146306D01*
X183206Y146304D01*
X183334Y146326D01*
X183463Y146343D01*
X183490Y146353D01*
X183519Y146358D01*
X183638Y146412D01*
X183759Y146460D01*
X183783Y146477D01*
X183809Y146489D01*
X183911Y146570D01*
X184016Y146646D01*
X184035Y146669D01*
X184058Y146688D01*
X184136Y146791D01*
X184219Y146891D01*
X184231Y146918D01*
X184249Y146942D01*
X184320Y147086D01*
X185309Y149475D01*
X188525Y152691D01*
X192484Y154330D01*
X192596Y154394D01*
X192711Y154453D01*
X192734Y154473D01*
X192760Y154488D01*
X192853Y154578D01*
X192950Y154663D01*
X192967Y154688D01*
X192988Y154709D01*
X193056Y154820D01*
X193129Y154926D01*
X193139Y154955D01*
X193155Y154980D01*
X193193Y155104D01*
X193236Y155225D01*
X193239Y155255D01*
X193248Y155284D01*
X193254Y155413D01*
X193267Y155542D01*
X193262Y155572D01*
X193263Y155602D01*
X193237Y155728D01*
X193217Y155856D01*
X193205Y155884D01*
X193199Y155913D01*
X193142Y156030D01*
X193091Y156148D01*
X193073Y156172D01*
X193059Y156199D01*
X192975Y156297D01*
X192896Y156400D01*
X192873Y156418D01*
X192853Y156441D01*
X192747Y156515D01*
X192645Y156595D01*
X192618Y156607D01*
X192593Y156624D01*
X192472Y156670D01*
X192353Y156721D01*
X192312Y156731D01*
X192296Y156737D01*
X192274Y156739D01*
X192209Y156754D01*
X190417Y157336D01*
X188743Y158189D01*
X187222Y159294D01*
X185894Y160622D01*
X184789Y162143D01*
X183936Y163817D01*
X183355Y165604D01*
X183315Y165861D01*
X193730Y165861D01*
X193848Y165876D01*
X193967Y165883D01*
X194005Y165896D01*
X194045Y165901D01*
X194156Y165944D01*
X194269Y165981D01*
X194303Y166003D01*
X194341Y166018D01*
X194437Y166088D01*
X194538Y166151D01*
X194566Y166181D01*
X194598Y166204D01*
X194674Y166296D01*
X194756Y166383D01*
X194775Y166418D01*
X194801Y166449D01*
X194852Y166557D01*
X194909Y166661D01*
X194920Y166701D01*
X194937Y166737D01*
X194959Y166854D01*
X194989Y166969D01*
X194993Y167030D01*
X194997Y167050D01*
X194995Y167070D01*
X194999Y167130D01*
X194999Y169670D01*
X194984Y169788D01*
X194977Y169907D01*
X194964Y169945D01*
X194959Y169985D01*
X194915Y170096D01*
X194879Y170209D01*
X194857Y170244D01*
X194842Y170281D01*
X194772Y170377D01*
X194709Y170478D01*
X194679Y170506D01*
X194655Y170539D01*
X194564Y170614D01*
X194477Y170696D01*
X194442Y170716D01*
X194410Y170741D01*
X194303Y170792D01*
X194198Y170850D01*
X194159Y170860D01*
X194123Y170877D01*
X194006Y170899D01*
X193891Y170929D01*
X193830Y170933D01*
X193810Y170937D01*
X193790Y170935D01*
X193730Y170939D01*
X183315Y170939D01*
X183355Y171196D01*
X183936Y172983D01*
X184789Y174657D01*
X185894Y176178D01*
X187222Y177506D01*
X188743Y178611D01*
X190417Y179464D01*
X192234Y180054D01*
X192320Y180079D01*
X192446Y180110D01*
X192473Y180124D01*
X192502Y180132D01*
X192613Y180198D01*
X192727Y180258D01*
X192750Y180279D01*
X192776Y180294D01*
X192867Y180385D01*
X192963Y180472D01*
X192979Y180497D01*
X193000Y180519D01*
X193066Y180630D01*
X193137Y180738D01*
X193147Y180767D01*
X193163Y180792D01*
X193199Y180916D01*
X193241Y181039D01*
X193243Y181069D01*
X193251Y181098D01*
X193256Y181227D01*
X193266Y181356D01*
X193261Y181386D01*
X193262Y181416D01*
X193234Y181542D01*
X193211Y181669D01*
X193199Y181697D01*
X193193Y181726D01*
X193134Y181841D01*
X193081Y181959D01*
X193062Y181983D01*
X193048Y182010D01*
X192963Y182106D01*
X192882Y182208D01*
X192858Y182226D01*
X192838Y182248D01*
X192732Y182321D01*
X192628Y182399D01*
X192590Y182418D01*
X192576Y182427D01*
X192555Y182435D01*
X192484Y182470D01*
X188525Y184109D01*
X185309Y187325D01*
X183823Y190914D01*
X183808Y190939D01*
X183799Y190967D01*
X183730Y191077D01*
X183665Y191190D01*
X183645Y191211D01*
X183629Y191236D01*
X183535Y191325D01*
X183444Y191418D01*
X183419Y191434D01*
X183397Y191454D01*
X183284Y191517D01*
X183173Y191585D01*
X183145Y191593D01*
X183119Y191608D01*
X182993Y191640D01*
X182869Y191678D01*
X182840Y191680D01*
X182811Y191687D01*
X182650Y191697D01*
X168632Y191697D01*
X138704Y221626D01*
X138625Y221686D01*
X138553Y221754D01*
X138500Y221783D01*
X138452Y221820D01*
X138361Y221860D01*
X138275Y221908D01*
X138216Y221923D01*
X138161Y221947D01*
X138063Y221962D01*
X137967Y221987D01*
X137867Y221993D01*
X137846Y221997D01*
X137834Y221995D01*
X137806Y221997D01*
X97500Y221997D01*
X97471Y221994D01*
X97442Y221996D01*
X97314Y221974D01*
X97185Y221957D01*
X97157Y221947D01*
X97128Y221942D01*
X97010Y221888D01*
X96889Y221840D01*
X96865Y221823D01*
X96838Y221811D01*
X96737Y221730D01*
X96632Y221654D01*
X96613Y221631D01*
X96590Y221612D01*
X96512Y221509D01*
X96429Y221409D01*
X96416Y221382D01*
X96399Y221358D01*
X96328Y221214D01*
X95892Y220161D01*
X93339Y217608D01*
X90114Y216273D01*
X89994Y216204D01*
X89871Y216139D01*
X89856Y216125D01*
X89838Y216115D01*
X89738Y216018D01*
X89635Y215925D01*
X89624Y215908D01*
X89610Y215894D01*
X89537Y215776D01*
X89460Y215659D01*
X89454Y215640D01*
X89443Y215623D01*
X89402Y215490D01*
X89357Y215358D01*
X89356Y215338D01*
X89350Y215319D01*
X89343Y215180D01*
X89332Y215041D01*
X89336Y215021D01*
X89335Y215001D01*
X89363Y214865D01*
X89386Y214728D01*
X89395Y214710D01*
X89399Y214690D01*
X89460Y214564D01*
X89517Y214438D01*
X89530Y214422D01*
X89539Y214404D01*
X89629Y214298D01*
X89716Y214190D01*
X89732Y214177D01*
X89745Y214162D01*
X89859Y214082D01*
X89970Y213998D01*
X89995Y213986D01*
X90005Y213979D01*
X90024Y213972D01*
X90114Y213927D01*
X93339Y212592D01*
X95892Y210039D01*
X97273Y206705D01*
X97273Y203095D01*
X95892Y199761D01*
X93339Y197208D01*
X90114Y195873D01*
X89994Y195804D01*
X89871Y195739D01*
X89856Y195725D01*
X89838Y195715D01*
X89738Y195618D01*
X89635Y195525D01*
X89624Y195508D01*
X89610Y195494D01*
X89537Y195376D01*
X89460Y195259D01*
X89454Y195240D01*
X89443Y195223D01*
X89402Y195090D01*
X89357Y194958D01*
X89356Y194938D01*
X89350Y194919D01*
X89343Y194780D01*
X89332Y194641D01*
X89336Y194621D01*
X89335Y194601D01*
X89363Y194465D01*
X89386Y194328D01*
X89395Y194310D01*
X89399Y194290D01*
X89460Y194164D01*
X89517Y194038D01*
X89530Y194022D01*
X89539Y194004D01*
X89629Y193898D01*
X89716Y193790D01*
X89732Y193777D01*
X89745Y193762D01*
X89859Y193682D01*
X89970Y193598D01*
X89995Y193586D01*
X90005Y193579D01*
X90024Y193572D01*
X90114Y193527D01*
X93339Y192192D01*
X95892Y189639D01*
X97273Y186305D01*
X97273Y182695D01*
X95892Y179361D01*
X93339Y176808D01*
X90005Y175427D01*
X86395Y175427D01*
X83061Y176808D01*
X81639Y178230D01*
X81530Y178315D01*
X81423Y178404D01*
X81404Y178412D01*
X81388Y178425D01*
X81260Y178480D01*
X81135Y178539D01*
X81115Y178543D01*
X81096Y178551D01*
X80958Y178573D01*
X80822Y178599D01*
X80802Y178598D01*
X80782Y178601D01*
X80643Y178588D01*
X80505Y178579D01*
X80486Y178573D01*
X80466Y178571D01*
X80334Y178524D01*
X80203Y178481D01*
X80185Y178470D01*
X80166Y178463D01*
X80051Y178385D01*
X79934Y178311D01*
X79920Y178296D01*
X79903Y178285D01*
X79811Y178181D01*
X79716Y178079D01*
X79706Y178062D01*
X79693Y178046D01*
X79629Y177922D01*
X79562Y177801D01*
X79557Y177781D01*
X79548Y177763D01*
X79518Y177627D01*
X79483Y177493D01*
X79481Y177465D01*
X79478Y177453D01*
X79479Y177432D01*
X79473Y177332D01*
X79473Y166418D01*
X78524Y165469D01*
X78439Y165360D01*
X78350Y165253D01*
X78342Y165234D01*
X78329Y165218D01*
X78274Y165091D01*
X78215Y164965D01*
X78211Y164945D01*
X78203Y164926D01*
X78181Y164788D01*
X78155Y164652D01*
X78156Y164632D01*
X78153Y164612D01*
X78166Y164473D01*
X78175Y164335D01*
X78181Y164316D01*
X78183Y164296D01*
X78230Y164164D01*
X78273Y164033D01*
X78284Y164015D01*
X78290Y163996D01*
X78369Y163881D01*
X78443Y163764D01*
X78458Y163750D01*
X78469Y163733D01*
X78573Y163641D01*
X78675Y163546D01*
X78692Y163536D01*
X78707Y163523D01*
X78832Y163459D01*
X78953Y163392D01*
X78973Y163387D01*
X78991Y163378D01*
X79127Y163348D01*
X79261Y163313D01*
X79289Y163311D01*
X79301Y163308D01*
X79321Y163309D01*
X79422Y163303D01*
X96368Y163303D01*
X112996Y146674D01*
X113075Y146614D01*
X113147Y146546D01*
X113200Y146517D01*
X113248Y146480D01*
X113339Y146440D01*
X113425Y146392D01*
X113484Y146377D01*
X113539Y146353D01*
X113637Y146338D01*
X113733Y146313D01*
X113833Y146307D01*
X113854Y146303D01*
X113866Y146305D01*
X113894Y146303D01*
X183147Y146303D01*
X183177Y146306D01*
G37*
%LPC*%
G36*
X142139Y98730D02*
X142139Y98730D01*
X142124Y98848D01*
X142117Y98967D01*
X142104Y99005D01*
X142099Y99045D01*
X142056Y99156D01*
X142019Y99269D01*
X141997Y99303D01*
X141982Y99341D01*
X141912Y99437D01*
X141849Y99538D01*
X141819Y99566D01*
X141795Y99598D01*
X141704Y99674D01*
X141617Y99756D01*
X141582Y99775D01*
X141551Y99801D01*
X141443Y99852D01*
X141339Y99909D01*
X141299Y99920D01*
X141263Y99937D01*
X141146Y99959D01*
X141031Y99989D01*
X140970Y99993D01*
X140950Y99997D01*
X140930Y99995D01*
X140870Y99999D01*
X138330Y99999D01*
X138212Y99984D01*
X138093Y99977D01*
X138055Y99964D01*
X138014Y99959D01*
X137904Y99915D01*
X137791Y99879D01*
X137756Y99857D01*
X137719Y99842D01*
X137623Y99772D01*
X137522Y99709D01*
X137494Y99679D01*
X137461Y99655D01*
X137386Y99564D01*
X137304Y99477D01*
X137284Y99442D01*
X137259Y99410D01*
X137208Y99303D01*
X137150Y99198D01*
X137140Y99159D01*
X137123Y99123D01*
X137101Y99006D01*
X137071Y98891D01*
X137067Y98830D01*
X137063Y98810D01*
X137065Y98790D01*
X137061Y98730D01*
X137061Y88315D01*
X136804Y88355D01*
X135017Y88936D01*
X133343Y89789D01*
X131822Y90894D01*
X130494Y92222D01*
X129389Y93743D01*
X128536Y95417D01*
X127946Y97234D01*
X127920Y97320D01*
X127890Y97446D01*
X127876Y97473D01*
X127868Y97502D01*
X127802Y97613D01*
X127742Y97727D01*
X127721Y97750D01*
X127706Y97776D01*
X127615Y97867D01*
X127528Y97963D01*
X127503Y97979D01*
X127481Y98001D01*
X127370Y98066D01*
X127262Y98137D01*
X127233Y98147D01*
X127208Y98163D01*
X127084Y98199D01*
X126961Y98241D01*
X126931Y98243D01*
X126902Y98251D01*
X126773Y98256D01*
X126644Y98266D01*
X126614Y98261D01*
X126584Y98262D01*
X126458Y98234D01*
X126331Y98211D01*
X126303Y98199D01*
X126274Y98192D01*
X126159Y98134D01*
X126041Y98081D01*
X126017Y98062D01*
X125990Y98048D01*
X125893Y97963D01*
X125792Y97882D01*
X125774Y97858D01*
X125752Y97838D01*
X125679Y97731D01*
X125601Y97628D01*
X125582Y97589D01*
X125573Y97575D01*
X125565Y97555D01*
X125530Y97484D01*
X123891Y93525D01*
X120675Y90309D01*
X116474Y88569D01*
X111926Y88569D01*
X107725Y90309D01*
X104509Y93525D01*
X102769Y97726D01*
X102769Y102274D01*
X104509Y106475D01*
X107725Y109691D01*
X111926Y111431D01*
X116474Y111431D01*
X120675Y109691D01*
X123891Y106475D01*
X125530Y102516D01*
X125594Y102404D01*
X125653Y102289D01*
X125673Y102266D01*
X125688Y102240D01*
X125778Y102147D01*
X125863Y102050D01*
X125888Y102033D01*
X125909Y102012D01*
X126019Y101944D01*
X126126Y101871D01*
X126154Y101861D01*
X126180Y101845D01*
X126304Y101807D01*
X126425Y101764D01*
X126455Y101761D01*
X126484Y101752D01*
X126613Y101746D01*
X126742Y101733D01*
X126772Y101738D01*
X126802Y101737D01*
X126928Y101763D01*
X127056Y101783D01*
X127084Y101795D01*
X127113Y101801D01*
X127229Y101858D01*
X127348Y101909D01*
X127372Y101927D01*
X127399Y101941D01*
X127497Y102025D01*
X127599Y102104D01*
X127618Y102127D01*
X127641Y102147D01*
X127715Y102253D01*
X127795Y102355D01*
X127807Y102382D01*
X127824Y102407D01*
X127870Y102528D01*
X127921Y102647D01*
X127931Y102689D01*
X127937Y102704D01*
X127939Y102726D01*
X127954Y102791D01*
X128536Y104583D01*
X129389Y106257D01*
X130494Y107778D01*
X131822Y109106D01*
X133343Y110211D01*
X135017Y111064D01*
X136804Y111645D01*
X137061Y111685D01*
X137061Y101270D01*
X137076Y101152D01*
X137083Y101033D01*
X137096Y100995D01*
X137101Y100955D01*
X137144Y100844D01*
X137181Y100731D01*
X137203Y100697D01*
X137218Y100659D01*
X137288Y100563D01*
X137351Y100462D01*
X137381Y100434D01*
X137404Y100402D01*
X137496Y100326D01*
X137583Y100244D01*
X137618Y100225D01*
X137649Y100199D01*
X137757Y100148D01*
X137861Y100091D01*
X137901Y100080D01*
X137937Y100063D01*
X138054Y100041D01*
X138169Y100011D01*
X138230Y100007D01*
X138250Y100003D01*
X138270Y100005D01*
X138330Y100001D01*
X140870Y100001D01*
X140988Y100016D01*
X141107Y100023D01*
X141145Y100036D01*
X141185Y100041D01*
X141296Y100085D01*
X141409Y100121D01*
X141444Y100143D01*
X141481Y100158D01*
X141577Y100228D01*
X141678Y100291D01*
X141706Y100321D01*
X141739Y100345D01*
X141814Y100436D01*
X141896Y100523D01*
X141916Y100558D01*
X141941Y100590D01*
X141992Y100697D01*
X142050Y100802D01*
X142060Y100841D01*
X142077Y100877D01*
X142099Y100994D01*
X142129Y101109D01*
X142133Y101170D01*
X142137Y101190D01*
X142135Y101210D01*
X142139Y101270D01*
X142139Y111685D01*
X142396Y111645D01*
X144183Y111064D01*
X145857Y110211D01*
X147378Y109106D01*
X148706Y107778D01*
X149811Y106257D01*
X150664Y104583D01*
X151254Y102766D01*
X151280Y102680D01*
X151310Y102554D01*
X151324Y102527D01*
X151332Y102498D01*
X151398Y102387D01*
X151458Y102273D01*
X151479Y102250D01*
X151494Y102224D01*
X151585Y102133D01*
X151672Y102037D01*
X151697Y102021D01*
X151719Y101999D01*
X151830Y101934D01*
X151938Y101863D01*
X151967Y101853D01*
X151992Y101837D01*
X152116Y101801D01*
X152239Y101759D01*
X152269Y101757D01*
X152298Y101749D01*
X152427Y101744D01*
X152556Y101734D01*
X152586Y101739D01*
X152616Y101738D01*
X152742Y101766D01*
X152869Y101789D01*
X152897Y101801D01*
X152926Y101808D01*
X153041Y101866D01*
X153159Y101919D01*
X153183Y101938D01*
X153210Y101952D01*
X153307Y102037D01*
X153408Y102118D01*
X153426Y102142D01*
X153448Y102162D01*
X153521Y102269D01*
X153599Y102372D01*
X153618Y102411D01*
X153627Y102425D01*
X153635Y102445D01*
X153670Y102516D01*
X155309Y106475D01*
X158525Y109691D01*
X162726Y111431D01*
X167274Y111431D01*
X171475Y109691D01*
X174691Y106475D01*
X176431Y102274D01*
X176431Y97726D01*
X174691Y93525D01*
X171475Y90309D01*
X167274Y88569D01*
X162726Y88569D01*
X158525Y90309D01*
X155309Y93525D01*
X153670Y97484D01*
X153606Y97596D01*
X153547Y97711D01*
X153527Y97734D01*
X153512Y97760D01*
X153422Y97853D01*
X153337Y97950D01*
X153312Y97967D01*
X153291Y97988D01*
X153181Y98056D01*
X153074Y98129D01*
X153046Y98139D01*
X153020Y98155D01*
X152896Y98193D01*
X152775Y98236D01*
X152745Y98239D01*
X152716Y98248D01*
X152587Y98254D01*
X152458Y98267D01*
X152428Y98262D01*
X152398Y98263D01*
X152272Y98237D01*
X152144Y98217D01*
X152116Y98205D01*
X152087Y98199D01*
X151971Y98142D01*
X151852Y98091D01*
X151828Y98073D01*
X151801Y98059D01*
X151703Y97975D01*
X151601Y97896D01*
X151582Y97873D01*
X151559Y97853D01*
X151485Y97747D01*
X151405Y97645D01*
X151393Y97618D01*
X151376Y97593D01*
X151330Y97472D01*
X151279Y97353D01*
X151269Y97311D01*
X151263Y97296D01*
X151261Y97274D01*
X151246Y97209D01*
X150664Y95417D01*
X149811Y93743D01*
X148706Y92222D01*
X147378Y90894D01*
X145857Y89789D01*
X144183Y88936D01*
X142396Y88355D01*
X142139Y88315D01*
X142139Y98730D01*
G37*
%LPD*%
G36*
X60157Y165152D02*
X60157Y165152D01*
X60295Y165161D01*
X60314Y165167D01*
X60334Y165169D01*
X60466Y165216D01*
X60597Y165259D01*
X60615Y165270D01*
X60634Y165277D01*
X60749Y165355D01*
X60866Y165429D01*
X60880Y165444D01*
X60897Y165455D01*
X60989Y165559D01*
X61084Y165661D01*
X61094Y165678D01*
X61107Y165694D01*
X61171Y165818D01*
X61238Y165939D01*
X61243Y165959D01*
X61252Y165977D01*
X61282Y166113D01*
X61317Y166247D01*
X61319Y166275D01*
X61322Y166287D01*
X61321Y166308D01*
X61327Y166408D01*
X61327Y182182D01*
X62518Y183373D01*
X66244Y183373D01*
X66273Y183376D01*
X66275Y183376D01*
X66284Y183378D01*
X66364Y183388D01*
X66484Y183396D01*
X66521Y183408D01*
X66560Y183413D01*
X66672Y183457D01*
X66786Y183494D01*
X66819Y183515D01*
X66855Y183530D01*
X66953Y183600D01*
X67054Y183665D01*
X67081Y183694D01*
X67113Y183716D01*
X67190Y183809D01*
X67272Y183897D01*
X67291Y183931D01*
X67316Y183961D01*
X67367Y184070D01*
X67425Y184176D01*
X67434Y184214D01*
X67451Y184249D01*
X67474Y184367D01*
X67504Y184484D01*
X67504Y184523D01*
X67511Y184561D01*
X67503Y184682D01*
X67503Y184802D01*
X67494Y184840D01*
X67491Y184879D01*
X67454Y184993D01*
X67424Y185110D01*
X67405Y185144D01*
X67393Y185181D01*
X67329Y185283D01*
X67270Y185389D01*
X67244Y185417D01*
X67223Y185450D01*
X67189Y185482D01*
X67188Y185483D01*
X67182Y185488D01*
X67135Y185533D01*
X67053Y185620D01*
X67020Y185641D01*
X66991Y185668D01*
X66958Y185686D01*
X66950Y185694D01*
X66811Y185776D01*
X66792Y185786D01*
X66784Y185791D01*
X66776Y185794D01*
X65379Y186506D01*
X64159Y187392D01*
X63092Y188459D01*
X62206Y189679D01*
X61521Y191022D01*
X61057Y192451D01*
X69420Y192451D01*
X69538Y192466D01*
X69657Y192473D01*
X69695Y192485D01*
X69735Y192491D01*
X69846Y192534D01*
X69959Y192571D01*
X69993Y192593D01*
X70031Y192608D01*
X70127Y192677D01*
X70228Y192741D01*
X70256Y192771D01*
X70288Y192794D01*
X70364Y192886D01*
X70396Y192920D01*
X70401Y192912D01*
X70431Y192884D01*
X70455Y192851D01*
X70546Y192775D01*
X70633Y192694D01*
X70668Y192674D01*
X70700Y192649D01*
X70807Y192598D01*
X70912Y192540D01*
X70951Y192530D01*
X70987Y192513D01*
X71104Y192491D01*
X71220Y192461D01*
X71280Y192457D01*
X71300Y192453D01*
X71320Y192455D01*
X71380Y192451D01*
X79743Y192451D01*
X79655Y192180D01*
X79651Y192161D01*
X79643Y192142D01*
X79622Y192005D01*
X79595Y191868D01*
X79597Y191848D01*
X79594Y191828D01*
X79607Y191689D01*
X79615Y191550D01*
X79622Y191531D01*
X79623Y191512D01*
X79671Y191380D01*
X79714Y191248D01*
X79724Y191231D01*
X79731Y191212D01*
X79809Y191097D01*
X79884Y190979D01*
X79898Y190966D01*
X79910Y190949D01*
X80014Y190857D01*
X80116Y190761D01*
X80133Y190752D01*
X80148Y190739D01*
X80272Y190675D01*
X80394Y190608D01*
X80413Y190603D01*
X80431Y190594D01*
X80567Y190564D01*
X80702Y190529D01*
X80722Y190529D01*
X80742Y190524D01*
X80881Y190529D01*
X81020Y190529D01*
X81039Y190533D01*
X81059Y190534D01*
X81194Y190573D01*
X81328Y190607D01*
X81346Y190617D01*
X81365Y190622D01*
X81485Y190693D01*
X81607Y190760D01*
X81622Y190774D01*
X81639Y190784D01*
X81760Y190890D01*
X83061Y192192D01*
X86286Y193527D01*
X86406Y193596D01*
X86529Y193661D01*
X86544Y193675D01*
X86562Y193685D01*
X86662Y193782D01*
X86765Y193875D01*
X86776Y193892D01*
X86790Y193906D01*
X86863Y194025D01*
X86940Y194141D01*
X86946Y194160D01*
X86957Y194177D01*
X86998Y194310D01*
X87043Y194442D01*
X87044Y194462D01*
X87050Y194481D01*
X87057Y194620D01*
X87068Y194759D01*
X87064Y194779D01*
X87065Y194799D01*
X87037Y194935D01*
X87014Y195072D01*
X87005Y195091D01*
X87001Y195110D01*
X86940Y195236D01*
X86883Y195362D01*
X86870Y195378D01*
X86861Y195396D01*
X86771Y195502D01*
X86684Y195610D01*
X86668Y195623D01*
X86655Y195638D01*
X86541Y195718D01*
X86430Y195802D01*
X86405Y195814D01*
X86395Y195821D01*
X86376Y195828D01*
X86286Y195873D01*
X83061Y197208D01*
X81760Y198510D01*
X81744Y198522D01*
X81731Y198537D01*
X81618Y198619D01*
X81508Y198704D01*
X81490Y198712D01*
X81474Y198724D01*
X81344Y198776D01*
X81217Y198831D01*
X81197Y198834D01*
X81178Y198841D01*
X81040Y198859D01*
X80902Y198881D01*
X80883Y198879D01*
X80863Y198881D01*
X80725Y198864D01*
X80586Y198851D01*
X80567Y198844D01*
X80547Y198842D01*
X80418Y198791D01*
X80287Y198743D01*
X80270Y198732D01*
X80252Y198725D01*
X80139Y198643D01*
X80023Y198565D01*
X80010Y198550D01*
X79994Y198538D01*
X79906Y198431D01*
X79813Y198326D01*
X79804Y198308D01*
X79791Y198293D01*
X79732Y198167D01*
X79668Y198043D01*
X79664Y198024D01*
X79655Y198006D01*
X79629Y197868D01*
X79599Y197733D01*
X79599Y197713D01*
X79596Y197693D01*
X79604Y197554D01*
X79608Y197415D01*
X79614Y197396D01*
X79615Y197376D01*
X79655Y197220D01*
X79743Y196949D01*
X71380Y196949D01*
X71262Y196934D01*
X71143Y196927D01*
X71105Y196914D01*
X71065Y196909D01*
X70954Y196866D01*
X70841Y196829D01*
X70807Y196807D01*
X70769Y196792D01*
X70673Y196723D01*
X70572Y196659D01*
X70544Y196629D01*
X70512Y196606D01*
X70436Y196514D01*
X70404Y196480D01*
X70399Y196488D01*
X70369Y196516D01*
X70345Y196549D01*
X70254Y196625D01*
X70167Y196706D01*
X70132Y196726D01*
X70100Y196751D01*
X69993Y196802D01*
X69888Y196860D01*
X69849Y196870D01*
X69813Y196887D01*
X69696Y196909D01*
X69580Y196939D01*
X69520Y196943D01*
X69500Y196947D01*
X69480Y196945D01*
X69420Y196949D01*
X61057Y196949D01*
X61521Y198378D01*
X62206Y199721D01*
X63092Y200941D01*
X64159Y202008D01*
X65379Y202894D01*
X66722Y203579D01*
X67812Y203933D01*
X67840Y203946D01*
X67869Y203953D01*
X67983Y204013D01*
X68100Y204068D01*
X68123Y204087D01*
X68150Y204101D01*
X68245Y204188D01*
X68345Y204271D01*
X68363Y204295D01*
X68385Y204315D01*
X68456Y204424D01*
X68532Y204528D01*
X68543Y204556D01*
X68560Y204581D01*
X68602Y204703D01*
X68650Y204824D01*
X68653Y204854D01*
X68663Y204882D01*
X68673Y205011D01*
X68690Y205139D01*
X68686Y205169D01*
X68688Y205199D01*
X68666Y205327D01*
X68650Y205455D01*
X68639Y205483D01*
X68634Y205512D01*
X68581Y205630D01*
X68533Y205751D01*
X68515Y205775D01*
X68503Y205802D01*
X68422Y205904D01*
X68346Y206008D01*
X68323Y206027D01*
X68305Y206051D01*
X68201Y206129D01*
X68101Y206211D01*
X68074Y206224D01*
X68051Y206242D01*
X67906Y206313D01*
X65261Y207408D01*
X62709Y209961D01*
X62534Y210381D01*
X62510Y210425D01*
X62493Y210471D01*
X62431Y210562D01*
X62377Y210658D01*
X62342Y210693D01*
X62314Y210735D01*
X62232Y210807D01*
X62155Y210886D01*
X62113Y210912D01*
X62076Y210945D01*
X61978Y210995D01*
X61884Y211052D01*
X61837Y211067D01*
X61793Y211090D01*
X61685Y211114D01*
X61580Y211146D01*
X61531Y211148D01*
X61482Y211159D01*
X61373Y211156D01*
X61263Y211161D01*
X61214Y211151D01*
X61164Y211150D01*
X61059Y211119D01*
X60951Y211097D01*
X60907Y211075D01*
X60859Y211061D01*
X60764Y211005D01*
X60666Y210957D01*
X60628Y210925D01*
X60585Y210900D01*
X60464Y210793D01*
X48674Y199004D01*
X48614Y198925D01*
X48546Y198853D01*
X48522Y198809D01*
X48515Y198801D01*
X48511Y198793D01*
X48480Y198752D01*
X48440Y198661D01*
X48392Y198575D01*
X48377Y198516D01*
X48353Y198461D01*
X48338Y198363D01*
X48313Y198267D01*
X48307Y198167D01*
X48303Y198146D01*
X48305Y198134D01*
X48303Y198106D01*
X48303Y176894D01*
X48315Y176796D01*
X48318Y176697D01*
X48335Y176638D01*
X48343Y176578D01*
X48379Y176486D01*
X48407Y176391D01*
X48437Y176339D01*
X48460Y176283D01*
X48518Y176203D01*
X48568Y176117D01*
X48634Y176042D01*
X48646Y176025D01*
X48656Y176017D01*
X48674Y175996D01*
X59161Y165510D01*
X59270Y165425D01*
X59377Y165336D01*
X59396Y165328D01*
X59412Y165315D01*
X59540Y165260D01*
X59665Y165201D01*
X59685Y165197D01*
X59704Y165189D01*
X59842Y165167D01*
X59978Y165141D01*
X59998Y165142D01*
X60018Y165139D01*
X60157Y165152D01*
G37*
%LPC*%
G36*
X218126Y258569D02*
X218126Y258569D01*
X213925Y260309D01*
X210709Y263525D01*
X208969Y267726D01*
X208969Y272274D01*
X210709Y276475D01*
X213925Y279691D01*
X218126Y281431D01*
X222674Y281431D01*
X226875Y279691D01*
X230091Y276475D01*
X231831Y272274D01*
X231831Y267726D01*
X230091Y263525D01*
X226875Y260309D01*
X222674Y258569D01*
X218126Y258569D01*
G37*
%LPD*%
%LPC*%
G36*
X192726Y258569D02*
X192726Y258569D01*
X188525Y260309D01*
X185309Y263525D01*
X183569Y267726D01*
X183569Y272274D01*
X185309Y276475D01*
X188525Y279691D01*
X192726Y281431D01*
X197274Y281431D01*
X201475Y279691D01*
X204691Y276475D01*
X206431Y272274D01*
X206431Y267726D01*
X204691Y263525D01*
X201475Y260309D01*
X197274Y258569D01*
X192726Y258569D01*
G37*
%LPD*%
%LPC*%
G36*
X218126Y233169D02*
X218126Y233169D01*
X213925Y234909D01*
X210709Y238125D01*
X208969Y242326D01*
X208969Y246874D01*
X210709Y251075D01*
X213925Y254291D01*
X218126Y256031D01*
X222674Y256031D01*
X226875Y254291D01*
X230091Y251075D01*
X231831Y246874D01*
X231831Y242326D01*
X230091Y238125D01*
X226875Y234909D01*
X222674Y233169D01*
X218126Y233169D01*
G37*
%LPD*%
%LPC*%
G36*
X218126Y207769D02*
X218126Y207769D01*
X213925Y209509D01*
X210709Y212725D01*
X208969Y216926D01*
X208969Y221474D01*
X210709Y225675D01*
X213925Y228891D01*
X218126Y230631D01*
X222674Y230631D01*
X226875Y228891D01*
X230091Y225675D01*
X231831Y221474D01*
X231831Y216926D01*
X230091Y212725D01*
X226875Y209509D01*
X222674Y207769D01*
X218126Y207769D01*
G37*
%LPD*%
%LPC*%
G36*
X81799Y278399D02*
X81799Y278399D01*
X81799Y286941D01*
X88669Y286941D01*
X90385Y286669D01*
X92038Y286132D01*
X93587Y285343D01*
X94993Y284321D01*
X96221Y283093D01*
X97243Y281687D01*
X98032Y280138D01*
X98569Y278485D01*
X98583Y278399D01*
X81799Y278399D01*
G37*
%LPD*%
%LPC*%
G36*
X60018Y278399D02*
X60018Y278399D01*
X60031Y278485D01*
X60568Y280138D01*
X61357Y281687D01*
X62379Y283093D01*
X63607Y284321D01*
X65013Y285343D01*
X66562Y286132D01*
X68215Y286669D01*
X69931Y286941D01*
X76801Y286941D01*
X76801Y278399D01*
X60018Y278399D01*
G37*
%LPD*%
%LPC*%
G36*
X81799Y133059D02*
X81799Y133059D01*
X81799Y141601D01*
X98582Y141601D01*
X98569Y141515D01*
X98032Y139862D01*
X97243Y138313D01*
X96221Y136907D01*
X94993Y135679D01*
X93587Y134657D01*
X92038Y133868D01*
X90385Y133331D01*
X88669Y133059D01*
X81799Y133059D01*
G37*
%LPD*%
%LPC*%
G36*
X69931Y133059D02*
X69931Y133059D01*
X68215Y133331D01*
X66562Y133868D01*
X65013Y134657D01*
X63607Y135679D01*
X62379Y136907D01*
X61357Y138313D01*
X60568Y139862D01*
X60031Y141515D01*
X60018Y141601D01*
X76801Y141601D01*
X76801Y133059D01*
X69931Y133059D01*
G37*
%LPD*%
%LPC*%
G36*
X47539Y276539D02*
X47539Y276539D01*
X47539Y286042D01*
X47878Y285988D01*
X49718Y285390D01*
X51442Y284512D01*
X53007Y283375D01*
X54375Y282007D01*
X55512Y280442D01*
X56390Y278718D01*
X56988Y276878D01*
X57042Y276539D01*
X47539Y276539D01*
G37*
%LPD*%
%LPC*%
G36*
X47539Y148539D02*
X47539Y148539D01*
X47539Y158042D01*
X47878Y157988D01*
X49718Y157390D01*
X51442Y156512D01*
X53007Y155375D01*
X54375Y154007D01*
X55512Y152442D01*
X56390Y150718D01*
X56988Y148878D01*
X57042Y148539D01*
X47539Y148539D01*
G37*
%LPD*%
%LPC*%
G36*
X32958Y276539D02*
X32958Y276539D01*
X33012Y276878D01*
X33610Y278718D01*
X34488Y280442D01*
X35625Y282007D01*
X36993Y283375D01*
X38558Y284512D01*
X40282Y285390D01*
X42122Y285988D01*
X42461Y286042D01*
X42461Y276539D01*
X32958Y276539D01*
G37*
%LPD*%
%LPC*%
G36*
X47539Y271461D02*
X47539Y271461D01*
X57042Y271461D01*
X56988Y271122D01*
X56390Y269282D01*
X55512Y267558D01*
X54375Y265993D01*
X53007Y264625D01*
X51442Y263488D01*
X49718Y262610D01*
X47878Y262012D01*
X47539Y261958D01*
X47539Y271461D01*
G37*
%LPD*%
%LPC*%
G36*
X32958Y148539D02*
X32958Y148539D01*
X33012Y148878D01*
X33610Y150718D01*
X34488Y152442D01*
X35625Y154007D01*
X36993Y155375D01*
X38558Y156512D01*
X40282Y157390D01*
X42122Y157988D01*
X42461Y158042D01*
X42461Y148539D01*
X32958Y148539D01*
G37*
%LPD*%
%LPC*%
G36*
X47539Y143461D02*
X47539Y143461D01*
X57042Y143461D01*
X56988Y143122D01*
X56390Y141282D01*
X55512Y139558D01*
X54375Y137993D01*
X53007Y136625D01*
X51442Y135488D01*
X49718Y134610D01*
X47878Y134012D01*
X47539Y133958D01*
X47539Y143461D01*
G37*
%LPD*%
%LPC*%
G36*
X42122Y262012D02*
X42122Y262012D01*
X40282Y262610D01*
X38558Y263488D01*
X36993Y264625D01*
X35625Y265993D01*
X34488Y267558D01*
X33610Y269282D01*
X33012Y271122D01*
X32958Y271461D01*
X42461Y271461D01*
X42461Y261958D01*
X42122Y262012D01*
G37*
%LPD*%
%LPC*%
G36*
X42122Y134012D02*
X42122Y134012D01*
X40282Y134610D01*
X38558Y135488D01*
X36993Y136625D01*
X35625Y137993D01*
X34488Y139558D01*
X33610Y141282D01*
X33012Y143122D01*
X32958Y143461D01*
X42461Y143461D01*
X42461Y133958D01*
X42122Y134012D01*
G37*
%LPD*%
%LPC*%
G36*
X44999Y273999D02*
X44999Y273999D01*
X44999Y274001D01*
X45001Y274001D01*
X45001Y273999D01*
X44999Y273999D01*
G37*
%LPD*%
%LPC*%
G36*
X44999Y145999D02*
X44999Y145999D01*
X44999Y146001D01*
X45001Y146001D01*
X45001Y145999D01*
X44999Y145999D01*
G37*
%LPD*%
D10*
X70800Y144100D02*
X87800Y144100D01*
X87800Y275900D02*
X70800Y275900D01*
D11*
X45000Y274000D03*
X45000Y146000D03*
D12*
X88200Y245700D03*
X70400Y235500D03*
X88200Y225300D03*
X88200Y204900D03*
X88200Y184500D03*
X70400Y215100D03*
X70400Y194700D03*
D13*
X70400Y174300D03*
D14*
X195000Y270000D03*
X220400Y270000D03*
X195000Y244600D03*
X220400Y244600D03*
X195000Y219200D03*
X220400Y219200D03*
X195000Y193800D03*
X220400Y193800D03*
X195000Y168400D03*
X220400Y168400D03*
X195000Y143000D03*
X220400Y143000D03*
X165000Y100000D03*
X139600Y100000D03*
X114200Y100000D03*
D15*
X195000Y168400D02*
X220400Y168400D01*
D16*
X20000Y240000D03*
X35000Y105000D03*
X215000Y105000D03*
X150000Y190000D03*
X140000Y285000D03*
D15*
X190000Y143000D02*
X195000Y143000D01*
X190000Y143000D02*
X112000Y143000D01*
X95000Y160000D01*
X60000Y160000D01*
X45000Y175000D01*
X60100Y215100D02*
X70400Y215100D01*
X45000Y200000D02*
X45000Y175000D01*
X45000Y200000D02*
X60100Y215100D01*
X190000Y143000D02*
X220400Y143000D01*
X195000Y244600D02*
X135400Y244600D01*
X120000Y260000D01*
X70400Y250400D02*
X70400Y235500D01*
X80000Y260000D02*
X120000Y260000D01*
X80000Y260000D02*
X70400Y250400D01*
X165800Y219200D02*
X195000Y219200D01*
X165800Y219200D02*
X150000Y235000D01*
X119300Y245700D02*
X88200Y245700D01*
X130000Y235000D02*
X150000Y235000D01*
X130000Y235000D02*
X119300Y245700D01*
X193800Y195000D02*
X195000Y193800D01*
X193800Y195000D02*
X170000Y195000D01*
X139700Y225300D02*
X88200Y225300D01*
X139700Y225300D02*
X170000Y195000D01*
M02*
