G04 EAGLE Gerber RS-274X export*
G75*
%MOMM*%
%FSLAX34Y34*%
%LPD*%
%INSilkscreen Top*%
%IPPOS*%
%AMOC8*
5,1,8,0,0,1.08239X$1,22.5*%
G01*
%ADD10C,0.127000*%
%ADD11C,0.200000*%
%ADD12C,0.203200*%


D10*
X151500Y290900D02*
X1500Y290900D01*
X151500Y290900D02*
X151500Y129100D01*
X1500Y129100D01*
X1500Y290900D01*
D11*
X-7000Y173000D02*
X-6998Y173063D01*
X-6992Y173125D01*
X-6982Y173187D01*
X-6969Y173249D01*
X-6951Y173309D01*
X-6930Y173368D01*
X-6905Y173426D01*
X-6876Y173482D01*
X-6844Y173536D01*
X-6809Y173588D01*
X-6771Y173637D01*
X-6729Y173685D01*
X-6685Y173729D01*
X-6637Y173771D01*
X-6588Y173809D01*
X-6536Y173844D01*
X-6482Y173876D01*
X-6426Y173905D01*
X-6368Y173930D01*
X-6309Y173951D01*
X-6249Y173969D01*
X-6187Y173982D01*
X-6125Y173992D01*
X-6063Y173998D01*
X-6000Y174000D01*
X-5937Y173998D01*
X-5875Y173992D01*
X-5813Y173982D01*
X-5751Y173969D01*
X-5691Y173951D01*
X-5632Y173930D01*
X-5574Y173905D01*
X-5518Y173876D01*
X-5464Y173844D01*
X-5412Y173809D01*
X-5363Y173771D01*
X-5315Y173729D01*
X-5271Y173685D01*
X-5229Y173637D01*
X-5191Y173588D01*
X-5156Y173536D01*
X-5124Y173482D01*
X-5095Y173426D01*
X-5070Y173368D01*
X-5049Y173309D01*
X-5031Y173249D01*
X-5018Y173187D01*
X-5008Y173125D01*
X-5002Y173063D01*
X-5000Y173000D01*
X-5002Y172937D01*
X-5008Y172875D01*
X-5018Y172813D01*
X-5031Y172751D01*
X-5049Y172691D01*
X-5070Y172632D01*
X-5095Y172574D01*
X-5124Y172518D01*
X-5156Y172464D01*
X-5191Y172412D01*
X-5229Y172363D01*
X-5271Y172315D01*
X-5315Y172271D01*
X-5363Y172229D01*
X-5412Y172191D01*
X-5464Y172156D01*
X-5518Y172124D01*
X-5574Y172095D01*
X-5632Y172070D01*
X-5691Y172049D01*
X-5751Y172031D01*
X-5813Y172018D01*
X-5875Y172008D01*
X-5937Y172002D01*
X-6000Y172000D01*
X-6063Y172002D01*
X-6125Y172008D01*
X-6187Y172018D01*
X-6249Y172031D01*
X-6309Y172049D01*
X-6368Y172070D01*
X-6426Y172095D01*
X-6482Y172124D01*
X-6536Y172156D01*
X-6588Y172191D01*
X-6637Y172229D01*
X-6685Y172271D01*
X-6729Y172315D01*
X-6771Y172363D01*
X-6809Y172412D01*
X-6844Y172464D01*
X-6876Y172518D01*
X-6905Y172574D01*
X-6930Y172632D01*
X-6951Y172691D01*
X-6969Y172751D01*
X-6982Y172813D01*
X-6992Y172875D01*
X-6998Y172937D01*
X-7000Y173000D01*
D12*
X182300Y276350D02*
X188650Y282700D01*
X182300Y263650D02*
X188650Y257300D01*
X182300Y250950D01*
X182300Y238250D02*
X188650Y231900D01*
X182300Y225550D01*
X182300Y212850D02*
X188650Y206500D01*
X182300Y200150D01*
X182300Y187450D02*
X188650Y181100D01*
X182300Y174750D01*
X182300Y162050D02*
X188650Y155700D01*
X182300Y149350D01*
X182300Y136650D02*
X188650Y130300D01*
X188650Y282700D02*
X226750Y282700D01*
X233100Y276350D01*
X233100Y263650D01*
X226750Y257300D01*
X233100Y250950D01*
X233100Y238250D01*
X226750Y231900D01*
X233100Y225550D01*
X233100Y212850D01*
X226750Y206500D01*
X233100Y200150D01*
X233100Y187450D01*
X226750Y181100D01*
X233100Y174750D01*
X233100Y162050D01*
X226750Y155700D01*
X233100Y149350D01*
X233100Y136650D01*
X226750Y130300D01*
X226750Y257300D02*
X188650Y257300D01*
X188650Y231900D02*
X226750Y231900D01*
X226750Y206500D02*
X188650Y206500D01*
X188650Y181100D02*
X226750Y181100D01*
X226750Y155700D02*
X188650Y155700D01*
X188650Y130300D02*
X226750Y130300D01*
X182300Y136650D02*
X182300Y149350D01*
X182300Y162050D02*
X182300Y174750D01*
X182300Y187450D02*
X182300Y200150D01*
X182300Y212850D02*
X182300Y225550D01*
X182300Y238250D02*
X182300Y250950D01*
X182300Y263650D02*
X182300Y276350D01*
X178490Y276350D02*
X178490Y263650D01*
X182300Y276350D02*
X188650Y282700D01*
X226750Y282700D01*
X233100Y276350D01*
X188650Y282700D02*
X182300Y276350D01*
X188650Y282700D02*
X226750Y282700D01*
X233100Y276350D01*
D10*
X240296Y272109D02*
X241101Y272914D01*
X241101Y273719D01*
X240296Y274524D01*
X236271Y274524D01*
X236271Y273719D02*
X236271Y275329D01*
X241101Y277722D02*
X241101Y280942D01*
X241101Y277722D02*
X237881Y280942D01*
X237076Y280942D01*
X236271Y280137D01*
X236271Y278527D01*
X237076Y277722D01*
D12*
X126900Y93650D02*
X120550Y87300D01*
X107850Y87300D01*
X101500Y93650D01*
X101500Y106350D02*
X107850Y112700D01*
X120550Y112700D01*
X126900Y106350D01*
X158650Y87300D02*
X171350Y87300D01*
X158650Y87300D02*
X152300Y93650D01*
X152300Y106350D02*
X158650Y112700D01*
X152300Y93650D02*
X145950Y87300D01*
X133250Y87300D01*
X126900Y93650D01*
X126900Y106350D02*
X133250Y112700D01*
X145950Y112700D01*
X152300Y106350D01*
X177700Y106350D02*
X177700Y93650D01*
X171350Y87300D01*
X177700Y106350D02*
X171350Y112700D01*
X158650Y112700D01*
X101500Y106350D02*
X101500Y93650D01*
D10*
X167109Y81374D02*
X167914Y80569D01*
X168719Y80569D01*
X169524Y81374D01*
X169524Y85399D01*
X168719Y85399D02*
X170329Y85399D01*
X172722Y84594D02*
X173527Y85399D01*
X175137Y85399D01*
X175942Y84594D01*
X175942Y83789D01*
X175137Y82984D01*
X174332Y82984D01*
X175137Y82984D02*
X175942Y82179D01*
X175942Y81374D01*
X175137Y80569D01*
X173527Y80569D01*
X172722Y81374D01*
M02*
