G04 EAGLE Gerber RS-274X export*
G75*
%MOMM*%
%FSLAX34Y34*%
%LPD*%
%INTop Copper*%
%IPPOS*%
%AMOC8*
5,1,8,0,0,1.08239X$1,22.5*%
G01*
%ADD10C,1.676400*%
%ADD11R,1.288000X1.288000*%
%ADD12C,1.288000*%
%ADD13R,1.815300X1.164600*%
%ADD14R,1.465300X1.164600*%
%ADD15R,0.970200X0.920900*%
%ADD16R,1.100000X1.000000*%
%ADD17R,1.188700X1.795500*%
%ADD18R,1.000000X1.100000*%
%ADD19C,1.700000*%
%ADD20C,1.950000*%
%ADD21C,1.408000*%
%ADD22R,1.408000X1.408000*%
%ADD23C,2.500000*%
%ADD24C,2.250000*%
%ADD25R,1.500000X1.500000*%
%ADD26C,1.800000*%
%ADD27C,0.508000*%
%ADD28C,1.006400*%
%ADD29C,0.406400*%

G36*
X619796Y-132458D02*
X619796Y-132458D01*
X619806Y-132459D01*
X619966Y-132446D01*
X623615Y-131924D01*
X623658Y-131912D01*
X623702Y-131908D01*
X623857Y-131865D01*
X630945Y-129369D01*
X631021Y-129331D01*
X631102Y-129301D01*
X631220Y-129231D01*
X631229Y-129226D01*
X631232Y-129224D01*
X631240Y-129219D01*
X637441Y-124973D01*
X637505Y-124917D01*
X637575Y-124868D01*
X637671Y-124769D01*
X637679Y-124762D01*
X637681Y-124759D01*
X637687Y-124752D01*
X642578Y-119047D01*
X642625Y-118975D01*
X642680Y-118910D01*
X642747Y-118790D01*
X642753Y-118781D01*
X642754Y-118777D01*
X642759Y-118769D01*
X646006Y-111992D01*
X646033Y-111911D01*
X646069Y-111833D01*
X646103Y-111700D01*
X646106Y-111690D01*
X646107Y-111686D01*
X646109Y-111677D01*
X647491Y-104291D01*
X647494Y-104247D01*
X647505Y-104204D01*
X647513Y-104043D01*
X647485Y-101590D01*
X647473Y-101499D01*
X647470Y-101406D01*
X647459Y-101370D01*
X647459Y-100146D01*
X647457Y-100125D01*
X647456Y-100049D01*
X647377Y-99030D01*
X647397Y-98954D01*
X647432Y-98851D01*
X647436Y-98800D01*
X647449Y-98751D01*
X647459Y-98591D01*
X647459Y26721D01*
X647440Y26871D01*
X647423Y27024D01*
X647420Y27030D01*
X647419Y27037D01*
X647364Y27177D01*
X647309Y27321D01*
X647305Y27326D01*
X647302Y27332D01*
X647213Y27456D01*
X647125Y27580D01*
X647120Y27584D01*
X647116Y27590D01*
X646998Y27687D01*
X646882Y27785D01*
X646876Y27788D01*
X646871Y27793D01*
X646733Y27857D01*
X646596Y27924D01*
X646589Y27925D01*
X646583Y27928D01*
X646434Y27957D01*
X646284Y27987D01*
X646277Y27987D01*
X646271Y27988D01*
X646119Y27978D01*
X645966Y27971D01*
X645960Y27969D01*
X645953Y27968D01*
X645809Y27922D01*
X645663Y27876D01*
X645657Y27872D01*
X645651Y27870D01*
X645522Y27789D01*
X645392Y27708D01*
X645388Y27704D01*
X645382Y27700D01*
X645277Y27588D01*
X645172Y27479D01*
X645169Y27473D01*
X645164Y27468D01*
X645091Y27335D01*
X645015Y27202D01*
X645013Y27194D01*
X645010Y27190D01*
X645008Y27180D01*
X644964Y27050D01*
X643888Y23034D01*
X639807Y15965D01*
X634035Y10193D01*
X626966Y6112D01*
X619081Y3999D01*
X610919Y3999D01*
X603034Y6112D01*
X595965Y10193D01*
X590193Y15965D01*
X586112Y23034D01*
X583999Y30919D01*
X583999Y39081D01*
X586112Y46966D01*
X590193Y54035D01*
X595965Y59807D01*
X603034Y63888D01*
X610919Y66001D01*
X619081Y66001D01*
X626966Y63888D01*
X634035Y59807D01*
X639807Y54035D01*
X643888Y46966D01*
X644964Y42950D01*
X645022Y42809D01*
X645078Y42668D01*
X645082Y42662D01*
X645084Y42656D01*
X645176Y42532D01*
X645264Y42410D01*
X645270Y42406D01*
X645274Y42401D01*
X645392Y42305D01*
X645509Y42207D01*
X645516Y42205D01*
X645521Y42200D01*
X645659Y42137D01*
X645797Y42072D01*
X645804Y42071D01*
X645810Y42068D01*
X645960Y42041D01*
X646110Y42012D01*
X646116Y42013D01*
X646123Y42011D01*
X646276Y42022D01*
X646427Y42032D01*
X646433Y42034D01*
X646440Y42034D01*
X646586Y42083D01*
X646729Y42130D01*
X646735Y42133D01*
X646742Y42136D01*
X646871Y42219D01*
X646998Y42300D01*
X647003Y42305D01*
X647008Y42309D01*
X647112Y42422D01*
X647216Y42532D01*
X647219Y42538D01*
X647224Y42543D01*
X647297Y42678D01*
X647370Y42810D01*
X647371Y42817D01*
X647374Y42823D01*
X647411Y42971D01*
X647449Y43118D01*
X647450Y43127D01*
X647451Y43131D01*
X647451Y43142D01*
X647459Y43279D01*
X647459Y256721D01*
X647440Y256871D01*
X647423Y257024D01*
X647420Y257030D01*
X647419Y257037D01*
X647364Y257177D01*
X647309Y257321D01*
X647305Y257326D01*
X647302Y257332D01*
X647213Y257456D01*
X647125Y257580D01*
X647120Y257584D01*
X647116Y257590D01*
X646998Y257687D01*
X646882Y257785D01*
X646876Y257788D01*
X646871Y257793D01*
X646733Y257857D01*
X646596Y257924D01*
X646589Y257925D01*
X646583Y257928D01*
X646434Y257957D01*
X646284Y257987D01*
X646277Y257987D01*
X646271Y257988D01*
X646119Y257978D01*
X645966Y257971D01*
X645960Y257969D01*
X645953Y257968D01*
X645809Y257922D01*
X645663Y257876D01*
X645657Y257872D01*
X645651Y257870D01*
X645522Y257789D01*
X645392Y257708D01*
X645388Y257704D01*
X645382Y257700D01*
X645277Y257588D01*
X645172Y257479D01*
X645169Y257473D01*
X645164Y257468D01*
X645091Y257335D01*
X645015Y257202D01*
X645013Y257194D01*
X645010Y257190D01*
X645008Y257180D01*
X644964Y257050D01*
X643888Y253034D01*
X639807Y245965D01*
X634035Y240193D01*
X626966Y236112D01*
X619081Y233999D01*
X610919Y233999D01*
X603034Y236112D01*
X595965Y240193D01*
X590193Y245965D01*
X586112Y253034D01*
X583999Y260919D01*
X583999Y269081D01*
X586112Y276966D01*
X590193Y284035D01*
X595965Y289807D01*
X603034Y293888D01*
X607050Y294964D01*
X607191Y295022D01*
X607332Y295078D01*
X607338Y295082D01*
X607344Y295084D01*
X607467Y295175D01*
X607590Y295264D01*
X607594Y295270D01*
X607599Y295274D01*
X607695Y295392D01*
X607793Y295509D01*
X607795Y295516D01*
X607800Y295521D01*
X607863Y295659D01*
X607928Y295797D01*
X607929Y295804D01*
X607932Y295810D01*
X607959Y295959D01*
X607988Y296110D01*
X607987Y296116D01*
X607989Y296123D01*
X607978Y296276D01*
X607968Y296427D01*
X607966Y296433D01*
X607966Y296440D01*
X607917Y296586D01*
X607870Y296729D01*
X607867Y296735D01*
X607864Y296742D01*
X607781Y296871D01*
X607700Y296998D01*
X607695Y297003D01*
X607691Y297008D01*
X607578Y297112D01*
X607468Y297216D01*
X607462Y297219D01*
X607457Y297224D01*
X607322Y297297D01*
X607190Y297370D01*
X607183Y297371D01*
X607177Y297374D01*
X607029Y297411D01*
X606882Y297449D01*
X606873Y297450D01*
X606869Y297451D01*
X606858Y297451D01*
X606721Y297459D01*
X43279Y297459D01*
X43129Y297440D01*
X42976Y297423D01*
X42970Y297420D01*
X42963Y297419D01*
X42822Y297364D01*
X42679Y297309D01*
X42674Y297305D01*
X42668Y297302D01*
X42544Y297213D01*
X42420Y297125D01*
X42416Y297120D01*
X42410Y297116D01*
X42313Y296998D01*
X42215Y296882D01*
X42212Y296876D01*
X42207Y296871D01*
X42143Y296733D01*
X42076Y296596D01*
X42075Y296589D01*
X42072Y296583D01*
X42043Y296434D01*
X42013Y296284D01*
X42013Y296277D01*
X42012Y296271D01*
X42022Y296119D01*
X42029Y295966D01*
X42031Y295960D01*
X42032Y295953D01*
X42078Y295809D01*
X42124Y295663D01*
X42128Y295657D01*
X42130Y295651D01*
X42212Y295521D01*
X42292Y295392D01*
X42296Y295388D01*
X42300Y295382D01*
X42412Y295277D01*
X42521Y295172D01*
X42527Y295169D01*
X42532Y295164D01*
X42665Y295091D01*
X42798Y295015D01*
X42806Y295013D01*
X42810Y295010D01*
X42820Y295008D01*
X42950Y294964D01*
X46966Y293888D01*
X54035Y289807D01*
X59807Y284035D01*
X63888Y276966D01*
X66001Y269081D01*
X66001Y260919D01*
X63888Y253034D01*
X59807Y245965D01*
X54035Y240193D01*
X46966Y236112D01*
X39081Y233999D01*
X30919Y233999D01*
X23034Y236112D01*
X15965Y240193D01*
X10193Y245965D01*
X6112Y253034D01*
X5036Y257050D01*
X4979Y257190D01*
X4922Y257332D01*
X4918Y257338D01*
X4916Y257344D01*
X4825Y257467D01*
X4736Y257590D01*
X4730Y257594D01*
X4726Y257599D01*
X4608Y257695D01*
X4491Y257793D01*
X4484Y257795D01*
X4479Y257800D01*
X4341Y257863D01*
X4203Y257928D01*
X4196Y257929D01*
X4190Y257932D01*
X4040Y257959D01*
X3890Y257988D01*
X3884Y257987D01*
X3877Y257989D01*
X3724Y257978D01*
X3573Y257968D01*
X3567Y257966D01*
X3560Y257966D01*
X3414Y257917D01*
X3271Y257870D01*
X3265Y257867D01*
X3258Y257864D01*
X3129Y257781D01*
X3002Y257700D01*
X2997Y257695D01*
X2992Y257691D01*
X2888Y257578D01*
X2784Y257468D01*
X2781Y257462D01*
X2776Y257457D01*
X2703Y257322D01*
X2630Y257190D01*
X2629Y257183D01*
X2626Y257177D01*
X2589Y257029D01*
X2551Y256882D01*
X2550Y256873D01*
X2549Y256869D01*
X2549Y256858D01*
X2541Y256721D01*
X2541Y43279D01*
X2560Y43129D01*
X2577Y42976D01*
X2580Y42970D01*
X2581Y42963D01*
X2636Y42822D01*
X2691Y42679D01*
X2695Y42674D01*
X2698Y42668D01*
X2787Y42544D01*
X2875Y42420D01*
X2880Y42416D01*
X2884Y42410D01*
X3002Y42313D01*
X3118Y42215D01*
X3124Y42212D01*
X3129Y42207D01*
X3267Y42143D01*
X3404Y42076D01*
X3411Y42075D01*
X3417Y42072D01*
X3566Y42043D01*
X3716Y42013D01*
X3723Y42013D01*
X3729Y42012D01*
X3881Y42022D01*
X4034Y42029D01*
X4040Y42031D01*
X4047Y42032D01*
X4191Y42078D01*
X4337Y42124D01*
X4343Y42128D01*
X4349Y42130D01*
X4478Y42211D01*
X4608Y42292D01*
X4612Y42296D01*
X4618Y42300D01*
X4723Y42412D01*
X4828Y42521D01*
X4831Y42527D01*
X4836Y42532D01*
X4909Y42665D01*
X4985Y42798D01*
X4987Y42806D01*
X4990Y42810D01*
X4992Y42820D01*
X5036Y42950D01*
X6112Y46966D01*
X10193Y54035D01*
X15965Y59807D01*
X23034Y63888D01*
X30919Y66001D01*
X39081Y66001D01*
X46966Y63888D01*
X54035Y59807D01*
X59807Y54035D01*
X63888Y46966D01*
X66001Y39081D01*
X66001Y30919D01*
X63888Y23034D01*
X59807Y15965D01*
X54035Y10193D01*
X46966Y6112D01*
X39081Y3999D01*
X30919Y3999D01*
X23034Y6112D01*
X15965Y10193D01*
X10193Y15965D01*
X6112Y23034D01*
X5036Y27050D01*
X4979Y27190D01*
X4922Y27332D01*
X4918Y27338D01*
X4916Y27344D01*
X4825Y27466D01*
X4736Y27590D01*
X4730Y27594D01*
X4726Y27599D01*
X4608Y27695D01*
X4491Y27793D01*
X4484Y27795D01*
X4479Y27800D01*
X4341Y27863D01*
X4203Y27928D01*
X4196Y27929D01*
X4190Y27932D01*
X4040Y27959D01*
X3890Y27988D01*
X3884Y27987D01*
X3877Y27989D01*
X3724Y27978D01*
X3573Y27968D01*
X3567Y27966D01*
X3560Y27966D01*
X3414Y27917D01*
X3271Y27870D01*
X3265Y27867D01*
X3258Y27864D01*
X3129Y27781D01*
X3002Y27700D01*
X2997Y27695D01*
X2992Y27691D01*
X2888Y27578D01*
X2784Y27468D01*
X2781Y27462D01*
X2776Y27457D01*
X2703Y27322D01*
X2630Y27190D01*
X2629Y27183D01*
X2626Y27177D01*
X2589Y27029D01*
X2551Y26882D01*
X2550Y26873D01*
X2549Y26869D01*
X2549Y26858D01*
X2541Y26721D01*
X2541Y-98591D01*
X2547Y-98641D01*
X2545Y-98691D01*
X2567Y-98798D01*
X2581Y-98906D01*
X2599Y-98953D01*
X2609Y-99003D01*
X2623Y-99030D01*
X2544Y-100049D01*
X2546Y-100071D01*
X2541Y-100146D01*
X2541Y-101378D01*
X2527Y-101429D01*
X2518Y-101546D01*
X2515Y-101563D01*
X2516Y-101572D01*
X2515Y-101590D01*
X2487Y-104043D01*
X2492Y-104087D01*
X2489Y-104131D01*
X2509Y-104291D01*
X3891Y-111677D01*
X3917Y-111759D01*
X3934Y-111843D01*
X3985Y-111970D01*
X3988Y-111980D01*
X3991Y-111984D01*
X3994Y-111992D01*
X7241Y-118769D01*
X7288Y-118841D01*
X7325Y-118918D01*
X7408Y-119027D01*
X7413Y-119036D01*
X7417Y-119039D01*
X7422Y-119047D01*
X12313Y-124752D01*
X12376Y-124810D01*
X12432Y-124874D01*
X12540Y-124959D01*
X12548Y-124966D01*
X12552Y-124968D01*
X12559Y-124973D01*
X18760Y-129219D01*
X18836Y-129258D01*
X18907Y-129306D01*
X19033Y-129359D01*
X19043Y-129364D01*
X19047Y-129365D01*
X19055Y-129369D01*
X26143Y-131865D01*
X26186Y-131874D01*
X26227Y-131891D01*
X26385Y-131924D01*
X30034Y-132446D01*
X30044Y-132447D01*
X30053Y-132449D01*
X30214Y-132459D01*
X619786Y-132459D01*
X619796Y-132458D01*
G37*
%LPC*%
G36*
X230658Y62467D02*
X230658Y62467D01*
X229467Y63658D01*
X229467Y64158D01*
X229452Y64276D01*
X229445Y64395D01*
X229432Y64433D01*
X229427Y64474D01*
X229384Y64584D01*
X229347Y64697D01*
X229325Y64732D01*
X229310Y64769D01*
X229241Y64865D01*
X229177Y64966D01*
X229147Y64994D01*
X229124Y65027D01*
X229032Y65103D01*
X228945Y65184D01*
X228910Y65204D01*
X228879Y65229D01*
X228771Y65280D01*
X228667Y65338D01*
X228627Y65348D01*
X228591Y65365D01*
X228474Y65387D01*
X228359Y65417D01*
X228299Y65421D01*
X228279Y65425D01*
X228258Y65423D01*
X228198Y65427D01*
X168106Y65427D01*
X140590Y92944D01*
X140511Y93004D01*
X140439Y93072D01*
X140386Y93101D01*
X140338Y93138D01*
X140247Y93178D01*
X140161Y93226D01*
X140102Y93241D01*
X140047Y93265D01*
X139949Y93280D01*
X139853Y93305D01*
X139753Y93311D01*
X139732Y93315D01*
X139720Y93313D01*
X139692Y93315D01*
X91496Y93315D01*
X84956Y99856D01*
X84878Y99916D01*
X84805Y99984D01*
X84752Y100013D01*
X84705Y100050D01*
X84614Y100090D01*
X84527Y100138D01*
X84468Y100153D01*
X84413Y100177D01*
X84315Y100192D01*
X84219Y100217D01*
X84119Y100223D01*
X84099Y100227D01*
X84086Y100225D01*
X84058Y100227D01*
X72518Y100227D01*
X71327Y101418D01*
X71327Y117182D01*
X72518Y118373D01*
X76244Y118373D01*
X76273Y118376D01*
X76275Y118376D01*
X76284Y118378D01*
X76364Y118388D01*
X76484Y118396D01*
X76521Y118408D01*
X76560Y118413D01*
X76672Y118457D01*
X76786Y118494D01*
X76819Y118515D01*
X76855Y118530D01*
X76953Y118600D01*
X77054Y118665D01*
X77081Y118694D01*
X77113Y118716D01*
X77190Y118809D01*
X77272Y118897D01*
X77291Y118931D01*
X77316Y118961D01*
X77367Y119070D01*
X77425Y119176D01*
X77434Y119214D01*
X77451Y119249D01*
X77474Y119367D01*
X77504Y119484D01*
X77504Y119523D01*
X77511Y119561D01*
X77503Y119682D01*
X77503Y119802D01*
X77494Y119840D01*
X77491Y119879D01*
X77454Y119993D01*
X77424Y120110D01*
X77405Y120144D01*
X77393Y120181D01*
X77329Y120283D01*
X77270Y120389D01*
X77244Y120417D01*
X77223Y120450D01*
X77189Y120482D01*
X77188Y120483D01*
X77182Y120488D01*
X77135Y120533D01*
X77053Y120620D01*
X77020Y120641D01*
X76991Y120668D01*
X76958Y120686D01*
X76950Y120694D01*
X76811Y120776D01*
X76792Y120786D01*
X76784Y120791D01*
X76776Y120794D01*
X75379Y121506D01*
X74159Y122392D01*
X73092Y123459D01*
X72206Y124679D01*
X71521Y126022D01*
X71057Y127451D01*
X79420Y127451D01*
X79538Y127466D01*
X79657Y127473D01*
X79695Y127485D01*
X79735Y127491D01*
X79846Y127534D01*
X79959Y127571D01*
X79993Y127593D01*
X80031Y127608D01*
X80127Y127677D01*
X80228Y127741D01*
X80256Y127771D01*
X80288Y127794D01*
X80364Y127886D01*
X80396Y127920D01*
X80401Y127912D01*
X80431Y127884D01*
X80455Y127851D01*
X80546Y127775D01*
X80633Y127694D01*
X80668Y127674D01*
X80700Y127649D01*
X80807Y127598D01*
X80912Y127540D01*
X80951Y127530D01*
X80987Y127513D01*
X81104Y127491D01*
X81220Y127461D01*
X81280Y127457D01*
X81300Y127453D01*
X81320Y127455D01*
X81380Y127451D01*
X89743Y127451D01*
X89655Y127180D01*
X89651Y127161D01*
X89643Y127142D01*
X89621Y127004D01*
X89595Y126868D01*
X89597Y126848D01*
X89594Y126828D01*
X89607Y126689D01*
X89615Y126550D01*
X89621Y126531D01*
X89623Y126512D01*
X89671Y126380D01*
X89713Y126248D01*
X89724Y126231D01*
X89731Y126212D01*
X89809Y126097D01*
X89884Y125979D01*
X89898Y125966D01*
X89910Y125949D01*
X90014Y125857D01*
X90115Y125762D01*
X90133Y125752D01*
X90148Y125739D01*
X90272Y125675D01*
X90394Y125608D01*
X90413Y125603D01*
X90431Y125594D01*
X90567Y125564D01*
X90702Y125529D01*
X90722Y125529D01*
X90741Y125524D01*
X90881Y125529D01*
X91020Y125529D01*
X91039Y125533D01*
X91059Y125534D01*
X91193Y125573D01*
X91328Y125607D01*
X91346Y125617D01*
X91365Y125622D01*
X91485Y125693D01*
X91607Y125760D01*
X91622Y125774D01*
X91639Y125784D01*
X91760Y125890D01*
X93061Y127192D01*
X96286Y128527D01*
X96406Y128596D01*
X96529Y128661D01*
X96544Y128675D01*
X96562Y128685D01*
X96662Y128782D01*
X96765Y128875D01*
X96776Y128892D01*
X96790Y128906D01*
X96863Y129025D01*
X96940Y129141D01*
X96946Y129160D01*
X96957Y129177D01*
X96998Y129310D01*
X97043Y129442D01*
X97044Y129462D01*
X97050Y129481D01*
X97057Y129620D01*
X97068Y129759D01*
X97064Y129779D01*
X97065Y129799D01*
X97037Y129935D01*
X97014Y130072D01*
X97005Y130091D01*
X97001Y130110D01*
X96940Y130236D01*
X96883Y130362D01*
X96870Y130378D01*
X96861Y130396D01*
X96771Y130502D01*
X96684Y130610D01*
X96668Y130623D01*
X96655Y130638D01*
X96541Y130718D01*
X96430Y130802D01*
X96405Y130814D01*
X96395Y130821D01*
X96376Y130828D01*
X96286Y130873D01*
X93061Y132208D01*
X91760Y133510D01*
X91744Y133522D01*
X91731Y133537D01*
X91619Y133619D01*
X91508Y133705D01*
X91490Y133712D01*
X91474Y133724D01*
X91345Y133775D01*
X91217Y133831D01*
X91197Y133834D01*
X91178Y133841D01*
X91041Y133859D01*
X90902Y133881D01*
X90882Y133879D01*
X90863Y133881D01*
X90725Y133864D01*
X90586Y133851D01*
X90567Y133844D01*
X90547Y133842D01*
X90418Y133790D01*
X90287Y133743D01*
X90270Y133732D01*
X90251Y133725D01*
X90139Y133643D01*
X90023Y133565D01*
X90010Y133550D01*
X89994Y133538D01*
X89905Y133431D01*
X89813Y133326D01*
X89804Y133308D01*
X89791Y133293D01*
X89732Y133167D01*
X89668Y133043D01*
X89664Y133024D01*
X89655Y133005D01*
X89629Y132869D01*
X89599Y132733D01*
X89599Y132713D01*
X89595Y132693D01*
X89604Y132554D01*
X89608Y132415D01*
X89614Y132396D01*
X89615Y132376D01*
X89655Y132220D01*
X89743Y131949D01*
X81380Y131949D01*
X81262Y131934D01*
X81143Y131927D01*
X81105Y131914D01*
X81065Y131909D01*
X80954Y131866D01*
X80841Y131829D01*
X80807Y131807D01*
X80769Y131792D01*
X80673Y131723D01*
X80572Y131659D01*
X80544Y131629D01*
X80512Y131606D01*
X80436Y131514D01*
X80404Y131480D01*
X80399Y131488D01*
X80369Y131516D01*
X80345Y131549D01*
X80254Y131625D01*
X80167Y131706D01*
X80132Y131726D01*
X80100Y131751D01*
X79993Y131802D01*
X79888Y131860D01*
X79849Y131870D01*
X79813Y131887D01*
X79696Y131909D01*
X79580Y131939D01*
X79520Y131943D01*
X79500Y131947D01*
X79480Y131945D01*
X79420Y131949D01*
X71057Y131949D01*
X71521Y133378D01*
X72206Y134721D01*
X73092Y135941D01*
X74159Y137008D01*
X75379Y137894D01*
X76722Y138579D01*
X77812Y138933D01*
X77840Y138946D01*
X77869Y138953D01*
X77983Y139013D01*
X78100Y139068D01*
X78123Y139087D01*
X78150Y139101D01*
X78245Y139188D01*
X78345Y139271D01*
X78363Y139295D01*
X78385Y139315D01*
X78456Y139424D01*
X78532Y139528D01*
X78543Y139556D01*
X78560Y139581D01*
X78602Y139703D01*
X78650Y139824D01*
X78653Y139854D01*
X78663Y139882D01*
X78673Y140011D01*
X78690Y140139D01*
X78686Y140169D01*
X78688Y140199D01*
X78666Y140327D01*
X78650Y140455D01*
X78639Y140483D01*
X78634Y140512D01*
X78581Y140630D01*
X78533Y140751D01*
X78515Y140775D01*
X78503Y140802D01*
X78422Y140904D01*
X78346Y141008D01*
X78323Y141027D01*
X78305Y141051D01*
X78201Y141129D01*
X78101Y141211D01*
X78074Y141224D01*
X78051Y141242D01*
X77906Y141313D01*
X75261Y142408D01*
X72708Y144961D01*
X72588Y145252D01*
X72573Y145277D01*
X72564Y145305D01*
X72495Y145415D01*
X72430Y145528D01*
X72410Y145549D01*
X72394Y145574D01*
X72299Y145663D01*
X72209Y145756D01*
X72184Y145772D01*
X72162Y145792D01*
X72049Y145855D01*
X71938Y145923D01*
X71910Y145931D01*
X71884Y145946D01*
X71758Y145978D01*
X71634Y146016D01*
X71605Y146018D01*
X71576Y146025D01*
X71415Y146035D01*
X43216Y146035D01*
X40464Y148788D01*
X28688Y160564D01*
X25935Y163316D01*
X25935Y219969D01*
X28688Y222722D01*
X34578Y228612D01*
X37331Y231365D01*
X61491Y231365D01*
X61589Y231377D01*
X61688Y231380D01*
X61746Y231397D01*
X61806Y231405D01*
X61898Y231441D01*
X61993Y231469D01*
X62045Y231499D01*
X62102Y231522D01*
X62182Y231580D01*
X62267Y231630D01*
X62343Y231696D01*
X62359Y231708D01*
X62367Y231718D01*
X62388Y231736D01*
X75064Y244412D01*
X75137Y244507D01*
X75216Y244596D01*
X75234Y244632D01*
X75259Y244664D01*
X75306Y244773D01*
X75360Y244879D01*
X75369Y244918D01*
X75385Y244955D01*
X75404Y245073D01*
X75430Y245189D01*
X75429Y245230D01*
X75435Y245270D01*
X75424Y245388D01*
X75420Y245507D01*
X75409Y245546D01*
X75405Y245586D01*
X75365Y245698D01*
X75332Y245813D01*
X75311Y245847D01*
X75298Y245885D01*
X75231Y245984D01*
X75170Y246087D01*
X75131Y246132D01*
X75119Y246149D01*
X75104Y246162D01*
X75064Y246207D01*
X74871Y246401D01*
X73285Y250228D01*
X73285Y254372D01*
X74871Y258199D01*
X77801Y261129D01*
X81628Y262715D01*
X85772Y262715D01*
X89599Y261129D01*
X92529Y258199D01*
X94115Y254372D01*
X94115Y250228D01*
X92529Y246401D01*
X89599Y243471D01*
X85772Y241885D01*
X84559Y241885D01*
X84461Y241873D01*
X84362Y241870D01*
X84304Y241853D01*
X84244Y241845D01*
X84152Y241809D01*
X84057Y241781D01*
X84005Y241751D01*
X83948Y241728D01*
X83868Y241670D01*
X83783Y241620D01*
X83707Y241554D01*
X83691Y241542D01*
X83683Y241532D01*
X83662Y241514D01*
X68136Y225988D01*
X65384Y223235D01*
X58976Y223235D01*
X58857Y223220D01*
X58738Y223213D01*
X58700Y223200D01*
X58660Y223195D01*
X58549Y223151D01*
X58436Y223115D01*
X58402Y223093D01*
X58364Y223078D01*
X58268Y223008D01*
X58167Y222944D01*
X58139Y222915D01*
X58107Y222892D01*
X58031Y222800D01*
X57949Y222713D01*
X57930Y222677D01*
X57904Y222647D01*
X57853Y222539D01*
X57796Y222434D01*
X57786Y222395D01*
X57769Y222359D01*
X57746Y222242D01*
X57717Y222126D01*
X57716Y222086D01*
X57709Y222047D01*
X57716Y221927D01*
X57716Y221808D01*
X57726Y221769D01*
X57729Y221729D01*
X57766Y221616D01*
X57795Y221500D01*
X57814Y221465D01*
X57827Y221427D01*
X57891Y221326D01*
X57948Y221221D01*
X57975Y221192D01*
X57997Y221158D01*
X58084Y221076D01*
X58165Y220989D01*
X58199Y220967D01*
X58229Y220940D01*
X58333Y220882D01*
X58434Y220818D01*
X58489Y220796D01*
X58507Y220786D01*
X58527Y220781D01*
X58583Y220759D01*
X59718Y220390D01*
X61442Y219512D01*
X63007Y218375D01*
X64375Y217007D01*
X65512Y215442D01*
X66390Y213718D01*
X66988Y211878D01*
X67042Y211539D01*
X56270Y211539D01*
X56152Y211524D01*
X56033Y211517D01*
X55995Y211504D01*
X55955Y211499D01*
X55844Y211456D01*
X55731Y211419D01*
X55697Y211397D01*
X55659Y211382D01*
X55563Y211312D01*
X55462Y211249D01*
X55434Y211219D01*
X55402Y211195D01*
X55326Y211104D01*
X55244Y211017D01*
X55225Y210982D01*
X55199Y210951D01*
X55148Y210843D01*
X55091Y210739D01*
X55080Y210699D01*
X55063Y210663D01*
X55041Y210546D01*
X55011Y210431D01*
X55007Y210370D01*
X55003Y210350D01*
X55005Y210330D01*
X55004Y210323D01*
X55003Y210319D01*
X55004Y210314D01*
X55001Y210270D01*
X55001Y208999D01*
X54999Y208999D01*
X54999Y210270D01*
X54984Y210388D01*
X54977Y210507D01*
X54964Y210545D01*
X54959Y210585D01*
X54916Y210696D01*
X54879Y210809D01*
X54857Y210844D01*
X54842Y210881D01*
X54772Y210977D01*
X54709Y211078D01*
X54679Y211106D01*
X54655Y211139D01*
X54564Y211214D01*
X54477Y211296D01*
X54442Y211316D01*
X54410Y211341D01*
X54303Y211392D01*
X54198Y211450D01*
X54159Y211460D01*
X54123Y211477D01*
X54006Y211499D01*
X53891Y211529D01*
X53830Y211533D01*
X53810Y211537D01*
X53790Y211535D01*
X53730Y211539D01*
X42958Y211539D01*
X43012Y211878D01*
X43610Y213718D01*
X44488Y215442D01*
X45625Y217007D01*
X46993Y218375D01*
X48558Y219512D01*
X50282Y220390D01*
X51417Y220759D01*
X51525Y220810D01*
X51636Y220854D01*
X51668Y220877D01*
X51704Y220894D01*
X51796Y220970D01*
X51893Y221040D01*
X51919Y221071D01*
X51949Y221097D01*
X52020Y221193D01*
X52096Y221285D01*
X52113Y221322D01*
X52136Y221354D01*
X52180Y221465D01*
X52231Y221573D01*
X52239Y221612D01*
X52254Y221650D01*
X52269Y221768D01*
X52291Y221886D01*
X52289Y221925D01*
X52294Y221965D01*
X52279Y222084D01*
X52271Y222203D01*
X52259Y222241D01*
X52254Y222281D01*
X52210Y222392D01*
X52173Y222505D01*
X52152Y222539D01*
X52137Y222577D01*
X52067Y222673D01*
X52003Y222774D01*
X51974Y222802D01*
X51950Y222834D01*
X51859Y222910D01*
X51771Y222992D01*
X51736Y223011D01*
X51706Y223037D01*
X51598Y223088D01*
X51493Y223146D01*
X51454Y223156D01*
X51418Y223173D01*
X51301Y223195D01*
X51185Y223225D01*
X51126Y223229D01*
X51106Y223233D01*
X51085Y223231D01*
X51024Y223235D01*
X41224Y223235D01*
X41126Y223223D01*
X41026Y223220D01*
X40968Y223203D01*
X40908Y223195D01*
X40816Y223159D01*
X40721Y223131D01*
X40669Y223101D01*
X40612Y223078D01*
X40532Y223020D01*
X40447Y222970D01*
X40372Y222904D01*
X40355Y222892D01*
X40347Y222882D01*
X40326Y222864D01*
X34436Y216974D01*
X34376Y216896D01*
X34308Y216823D01*
X34279Y216770D01*
X34242Y216723D01*
X34202Y216632D01*
X34154Y216545D01*
X34139Y216486D01*
X34115Y216431D01*
X34100Y216333D01*
X34075Y216237D01*
X34069Y216137D01*
X34065Y216117D01*
X34067Y216104D01*
X34065Y216076D01*
X34065Y167209D01*
X34077Y167111D01*
X34080Y167012D01*
X34097Y166954D01*
X34105Y166894D01*
X34141Y166802D01*
X34169Y166707D01*
X34199Y166654D01*
X34222Y166598D01*
X34280Y166518D01*
X34330Y166433D01*
X34396Y166357D01*
X34408Y166341D01*
X34418Y166333D01*
X34436Y166312D01*
X46212Y154536D01*
X46290Y154476D01*
X46362Y154408D01*
X46415Y154379D01*
X46463Y154342D01*
X46554Y154302D01*
X46641Y154254D01*
X46699Y154239D01*
X46755Y154215D01*
X46853Y154200D01*
X46949Y154175D01*
X47049Y154169D01*
X47069Y154165D01*
X47081Y154167D01*
X47109Y154165D01*
X71415Y154165D01*
X71445Y154168D01*
X71474Y154166D01*
X71602Y154188D01*
X71731Y154205D01*
X71758Y154215D01*
X71787Y154220D01*
X71906Y154274D01*
X72027Y154322D01*
X72050Y154339D01*
X72077Y154351D01*
X72179Y154432D01*
X72284Y154508D01*
X72303Y154531D01*
X72326Y154550D01*
X72404Y154653D01*
X72487Y154753D01*
X72499Y154780D01*
X72517Y154804D01*
X72588Y154948D01*
X72708Y155239D01*
X75261Y157792D01*
X78486Y159127D01*
X78606Y159196D01*
X78729Y159261D01*
X78744Y159275D01*
X78762Y159285D01*
X78862Y159382D01*
X78965Y159475D01*
X78976Y159492D01*
X78990Y159506D01*
X79063Y159625D01*
X79140Y159741D01*
X79146Y159760D01*
X79157Y159777D01*
X79198Y159910D01*
X79243Y160042D01*
X79244Y160062D01*
X79250Y160081D01*
X79257Y160220D01*
X79268Y160359D01*
X79264Y160379D01*
X79265Y160399D01*
X79237Y160535D01*
X79214Y160672D01*
X79205Y160691D01*
X79201Y160710D01*
X79140Y160836D01*
X79083Y160962D01*
X79070Y160978D01*
X79061Y160996D01*
X78971Y161102D01*
X78884Y161210D01*
X78868Y161223D01*
X78855Y161238D01*
X78741Y161318D01*
X78630Y161402D01*
X78605Y161414D01*
X78595Y161421D01*
X78576Y161428D01*
X78486Y161473D01*
X75261Y162808D01*
X72708Y165361D01*
X71327Y168695D01*
X71327Y172305D01*
X72708Y175639D01*
X75298Y178229D01*
X75315Y178240D01*
X75428Y178304D01*
X75449Y178324D01*
X75474Y178340D01*
X75563Y178435D01*
X75656Y178525D01*
X75672Y178550D01*
X75692Y178572D01*
X75755Y178686D01*
X75823Y178796D01*
X75831Y178824D01*
X75846Y178850D01*
X75878Y178976D01*
X75916Y179100D01*
X75918Y179130D01*
X75925Y179158D01*
X75935Y179319D01*
X75935Y186684D01*
X86944Y197693D01*
X87029Y197802D01*
X87118Y197909D01*
X87127Y197928D01*
X87139Y197944D01*
X87195Y198072D01*
X87254Y198197D01*
X87257Y198217D01*
X87265Y198236D01*
X87287Y198374D01*
X87313Y198510D01*
X87312Y198530D01*
X87315Y198550D01*
X87302Y198689D01*
X87294Y198827D01*
X87287Y198846D01*
X87285Y198866D01*
X87238Y198998D01*
X87196Y199129D01*
X87185Y199147D01*
X87178Y199166D01*
X87100Y199281D01*
X87025Y199398D01*
X87011Y199412D01*
X86999Y199429D01*
X86895Y199521D01*
X86794Y199616D01*
X86776Y199626D01*
X86761Y199639D01*
X86637Y199703D01*
X86515Y199770D01*
X86496Y199775D01*
X86478Y199784D01*
X86342Y199814D01*
X86207Y199849D01*
X86179Y199851D01*
X86167Y199854D01*
X86147Y199853D01*
X86047Y199859D01*
X79931Y199859D01*
X78215Y200131D01*
X76562Y200668D01*
X75013Y201457D01*
X73607Y202479D01*
X72379Y203707D01*
X71357Y205113D01*
X70568Y206662D01*
X70031Y208315D01*
X70018Y208401D01*
X88070Y208401D01*
X88188Y208416D01*
X88307Y208423D01*
X88345Y208435D01*
X88385Y208441D01*
X88496Y208484D01*
X88609Y208521D01*
X88643Y208543D01*
X88681Y208558D01*
X88777Y208627D01*
X88878Y208691D01*
X88906Y208721D01*
X88938Y208744D01*
X89014Y208836D01*
X89096Y208923D01*
X89115Y208958D01*
X89141Y208989D01*
X89192Y209097D01*
X89249Y209201D01*
X89259Y209241D01*
X89277Y209277D01*
X89297Y209384D01*
X89301Y209354D01*
X89345Y209244D01*
X89381Y209131D01*
X89403Y209096D01*
X89418Y209059D01*
X89488Y208962D01*
X89551Y208862D01*
X89581Y208834D01*
X89605Y208801D01*
X89696Y208725D01*
X89783Y208644D01*
X89818Y208624D01*
X89850Y208599D01*
X89957Y208548D01*
X90062Y208490D01*
X90101Y208480D01*
X90137Y208463D01*
X90254Y208441D01*
X90370Y208411D01*
X90430Y208407D01*
X90450Y208403D01*
X90470Y208405D01*
X90530Y208401D01*
X108582Y208401D01*
X108569Y208315D01*
X108032Y206662D01*
X107243Y205113D01*
X106221Y203707D01*
X104993Y202479D01*
X103578Y201451D01*
X103567Y201446D01*
X103454Y201364D01*
X103339Y201286D01*
X103326Y201271D01*
X103310Y201260D01*
X103220Y201152D01*
X103129Y201048D01*
X103120Y201030D01*
X103107Y201015D01*
X103047Y200889D01*
X102984Y200765D01*
X102980Y200745D01*
X102971Y200727D01*
X102945Y200591D01*
X102915Y200454D01*
X102915Y200434D01*
X102911Y200414D01*
X102920Y200276D01*
X102924Y200137D01*
X102930Y200117D01*
X102931Y200097D01*
X102974Y199965D01*
X103013Y199831D01*
X103023Y199814D01*
X103029Y199795D01*
X103104Y199677D01*
X103174Y199557D01*
X103189Y199543D01*
X103199Y199526D01*
X103301Y199431D01*
X103399Y199332D01*
X103416Y199322D01*
X103431Y199308D01*
X103553Y199241D01*
X103673Y199170D01*
X103692Y199164D01*
X103709Y199154D01*
X103844Y199120D01*
X103978Y199081D01*
X103998Y199080D01*
X104017Y199075D01*
X104178Y199065D01*
X132791Y199065D01*
X132889Y199077D01*
X132988Y199080D01*
X133046Y199097D01*
X133106Y199105D01*
X133198Y199141D01*
X133293Y199169D01*
X133345Y199199D01*
X133402Y199222D01*
X133482Y199280D01*
X133567Y199330D01*
X133643Y199396D01*
X133659Y199408D01*
X133667Y199418D01*
X133688Y199436D01*
X168316Y234065D01*
X302791Y234065D01*
X302889Y234077D01*
X302988Y234080D01*
X303046Y234097D01*
X303106Y234105D01*
X303198Y234141D01*
X303293Y234169D01*
X303345Y234199D01*
X303402Y234222D01*
X303482Y234280D01*
X303567Y234330D01*
X303643Y234396D01*
X303659Y234408D01*
X303667Y234418D01*
X303688Y234436D01*
X307864Y238612D01*
X307924Y238690D01*
X307992Y238762D01*
X308021Y238815D01*
X308058Y238863D01*
X308098Y238954D01*
X308146Y239041D01*
X308161Y239099D01*
X308185Y239155D01*
X308200Y239253D01*
X308225Y239349D01*
X308231Y239449D01*
X308235Y239469D01*
X308233Y239481D01*
X308235Y239509D01*
X308235Y241863D01*
X308232Y241892D01*
X308234Y241921D01*
X308212Y242049D01*
X308195Y242178D01*
X308185Y242206D01*
X308180Y242235D01*
X308126Y242353D01*
X308078Y242474D01*
X308061Y242498D01*
X308049Y242525D01*
X307968Y242626D01*
X307892Y242731D01*
X307869Y242750D01*
X307850Y242773D01*
X307747Y242851D01*
X307647Y242934D01*
X307620Y242947D01*
X307596Y242964D01*
X307452Y243035D01*
X306401Y243471D01*
X303471Y246401D01*
X301885Y250228D01*
X301885Y254372D01*
X303471Y258199D01*
X306401Y261129D01*
X310228Y262715D01*
X314372Y262715D01*
X318199Y261129D01*
X321129Y258199D01*
X322715Y254372D01*
X322715Y250228D01*
X321129Y246401D01*
X318199Y243471D01*
X317148Y243035D01*
X317123Y243021D01*
X317095Y243012D01*
X316985Y242942D01*
X316872Y242878D01*
X316851Y242857D01*
X316826Y242842D01*
X316737Y242747D01*
X316644Y242657D01*
X316628Y242631D01*
X316608Y242610D01*
X316545Y242496D01*
X316477Y242385D01*
X316469Y242357D01*
X316454Y242331D01*
X316422Y242206D01*
X316384Y242082D01*
X316382Y242052D01*
X316375Y242023D01*
X316365Y241863D01*
X316365Y235616D01*
X309436Y228688D01*
X306980Y226231D01*
X306895Y226122D01*
X306806Y226015D01*
X306797Y225996D01*
X306785Y225980D01*
X306729Y225852D01*
X306670Y225727D01*
X306667Y225707D01*
X306659Y225688D01*
X306637Y225550D01*
X306611Y225414D01*
X306612Y225394D01*
X306609Y225374D01*
X306622Y225235D01*
X306630Y225097D01*
X306637Y225078D01*
X306639Y225058D01*
X306686Y224926D01*
X306728Y224795D01*
X306739Y224777D01*
X306746Y224758D01*
X306824Y224643D01*
X306899Y224526D01*
X306913Y224512D01*
X306925Y224495D01*
X307029Y224403D01*
X307130Y224308D01*
X307148Y224298D01*
X307163Y224285D01*
X307287Y224221D01*
X307409Y224154D01*
X307428Y224149D01*
X307446Y224140D01*
X307582Y224110D01*
X307717Y224075D01*
X307745Y224073D01*
X307757Y224070D01*
X307777Y224071D01*
X307877Y224065D01*
X317791Y224065D01*
X317889Y224077D01*
X317988Y224080D01*
X318046Y224097D01*
X318106Y224105D01*
X318198Y224141D01*
X318293Y224169D01*
X318345Y224199D01*
X318402Y224222D01*
X318482Y224280D01*
X318567Y224330D01*
X318643Y224396D01*
X318659Y224408D01*
X318667Y224418D01*
X318688Y224436D01*
X333264Y239012D01*
X333324Y239090D01*
X333392Y239162D01*
X333421Y239215D01*
X333458Y239263D01*
X333498Y239354D01*
X333546Y239441D01*
X333561Y239499D01*
X333585Y239555D01*
X333600Y239653D01*
X333625Y239749D01*
X333631Y239849D01*
X333635Y239869D01*
X333633Y239881D01*
X333635Y239909D01*
X333635Y241863D01*
X333632Y241892D01*
X333634Y241921D01*
X333612Y242049D01*
X333595Y242178D01*
X333585Y242206D01*
X333580Y242235D01*
X333526Y242353D01*
X333478Y242474D01*
X333461Y242498D01*
X333449Y242525D01*
X333368Y242626D01*
X333292Y242731D01*
X333269Y242750D01*
X333250Y242773D01*
X333147Y242851D01*
X333047Y242934D01*
X333020Y242947D01*
X332996Y242964D01*
X332852Y243035D01*
X331801Y243471D01*
X328871Y246401D01*
X327285Y250228D01*
X327285Y254372D01*
X328871Y258199D01*
X331801Y261129D01*
X335628Y262715D01*
X339772Y262715D01*
X343599Y261129D01*
X346529Y258199D01*
X348115Y254372D01*
X348115Y250228D01*
X346529Y246401D01*
X343599Y243471D01*
X342548Y243035D01*
X342523Y243021D01*
X342495Y243012D01*
X342385Y242942D01*
X342272Y242878D01*
X342251Y242857D01*
X342226Y242842D01*
X342137Y242747D01*
X342044Y242657D01*
X342028Y242631D01*
X342008Y242610D01*
X341945Y242496D01*
X341877Y242385D01*
X341869Y242357D01*
X341854Y242331D01*
X341822Y242206D01*
X341784Y242082D01*
X341782Y242052D01*
X341775Y242023D01*
X341765Y241863D01*
X341765Y236016D01*
X321684Y215935D01*
X184645Y215935D01*
X184547Y215923D01*
X184448Y215920D01*
X184390Y215903D01*
X184330Y215895D01*
X184238Y215859D01*
X184143Y215831D01*
X184091Y215801D01*
X184034Y215778D01*
X183954Y215720D01*
X183869Y215670D01*
X183793Y215604D01*
X183777Y215592D01*
X183769Y215582D01*
X183748Y215564D01*
X146684Y178499D01*
X107957Y178499D01*
X107928Y178496D01*
X107898Y178498D01*
X107770Y178476D01*
X107641Y178459D01*
X107614Y178449D01*
X107585Y178444D01*
X107466Y178390D01*
X107346Y178342D01*
X107322Y178325D01*
X107295Y178313D01*
X107193Y178232D01*
X107088Y178156D01*
X107069Y178133D01*
X107046Y178114D01*
X106968Y178011D01*
X106885Y177911D01*
X106873Y177884D01*
X106855Y177860D01*
X106784Y177716D01*
X105892Y175561D01*
X103339Y173008D01*
X100114Y171673D01*
X99994Y171604D01*
X99871Y171539D01*
X99856Y171525D01*
X99838Y171515D01*
X99738Y171418D01*
X99635Y171325D01*
X99624Y171308D01*
X99610Y171294D01*
X99537Y171176D01*
X99460Y171059D01*
X99454Y171040D01*
X99443Y171023D01*
X99402Y170890D01*
X99357Y170758D01*
X99356Y170738D01*
X99350Y170719D01*
X99343Y170580D01*
X99332Y170441D01*
X99336Y170421D01*
X99335Y170401D01*
X99363Y170265D01*
X99386Y170128D01*
X99395Y170110D01*
X99399Y170090D01*
X99460Y169964D01*
X99517Y169838D01*
X99530Y169822D01*
X99539Y169804D01*
X99629Y169698D01*
X99716Y169590D01*
X99732Y169577D01*
X99745Y169562D01*
X99859Y169482D01*
X99970Y169398D01*
X99995Y169386D01*
X100005Y169379D01*
X100024Y169372D01*
X100114Y169327D01*
X103339Y167992D01*
X105892Y165439D01*
X106012Y165148D01*
X106027Y165123D01*
X106036Y165095D01*
X106105Y164985D01*
X106170Y164872D01*
X106190Y164851D01*
X106206Y164826D01*
X106301Y164737D01*
X106391Y164644D01*
X106416Y164628D01*
X106438Y164608D01*
X106551Y164545D01*
X106662Y164477D01*
X106690Y164469D01*
X106716Y164454D01*
X106842Y164422D01*
X106966Y164384D01*
X106995Y164382D01*
X107024Y164375D01*
X107185Y164365D01*
X143091Y164365D01*
X143189Y164377D01*
X143288Y164380D01*
X143346Y164397D01*
X143406Y164405D01*
X143498Y164441D01*
X143593Y164469D01*
X143645Y164499D01*
X143702Y164522D01*
X143782Y164580D01*
X143867Y164630D01*
X143943Y164696D01*
X143959Y164708D01*
X143967Y164718D01*
X143988Y164736D01*
X188316Y209065D01*
X332791Y209065D01*
X332889Y209077D01*
X332988Y209080D01*
X333046Y209097D01*
X333106Y209105D01*
X333198Y209141D01*
X333293Y209169D01*
X333345Y209199D01*
X333402Y209222D01*
X333482Y209280D01*
X333567Y209330D01*
X333643Y209396D01*
X333659Y209408D01*
X333667Y209418D01*
X333688Y209436D01*
X358664Y234412D01*
X358724Y234490D01*
X358792Y234562D01*
X358821Y234615D01*
X358858Y234663D01*
X358898Y234754D01*
X358946Y234841D01*
X358961Y234899D01*
X358985Y234955D01*
X359000Y235053D01*
X359025Y235149D01*
X359031Y235249D01*
X359035Y235269D01*
X359033Y235281D01*
X359035Y235309D01*
X359035Y241863D01*
X359032Y241892D01*
X359034Y241921D01*
X359012Y242049D01*
X358995Y242178D01*
X358985Y242206D01*
X358980Y242235D01*
X358926Y242353D01*
X358878Y242474D01*
X358861Y242498D01*
X358849Y242525D01*
X358768Y242626D01*
X358692Y242731D01*
X358669Y242750D01*
X358650Y242773D01*
X358547Y242851D01*
X358447Y242934D01*
X358420Y242947D01*
X358396Y242964D01*
X358252Y243035D01*
X357201Y243471D01*
X354271Y246401D01*
X352685Y250228D01*
X352685Y254372D01*
X354271Y258199D01*
X357201Y261129D01*
X361028Y262715D01*
X365172Y262715D01*
X368999Y261129D01*
X371929Y258199D01*
X373515Y254372D01*
X373515Y250228D01*
X371929Y246401D01*
X368999Y243471D01*
X367948Y243035D01*
X367923Y243021D01*
X367895Y243012D01*
X367785Y242942D01*
X367672Y242878D01*
X367651Y242857D01*
X367626Y242842D01*
X367537Y242747D01*
X367444Y242657D01*
X367428Y242631D01*
X367408Y242610D01*
X367345Y242496D01*
X367277Y242385D01*
X367269Y242357D01*
X367254Y242331D01*
X367222Y242206D01*
X367184Y242082D01*
X367182Y242052D01*
X367175Y242023D01*
X367165Y241863D01*
X367165Y231416D01*
X336684Y200935D01*
X192209Y200935D01*
X192111Y200923D01*
X192012Y200920D01*
X191954Y200903D01*
X191894Y200895D01*
X191802Y200859D01*
X191707Y200831D01*
X191655Y200801D01*
X191598Y200778D01*
X191518Y200720D01*
X191433Y200670D01*
X191357Y200604D01*
X191341Y200592D01*
X191333Y200582D01*
X191312Y200564D01*
X146984Y156235D01*
X107185Y156235D01*
X107155Y156232D01*
X107126Y156234D01*
X106998Y156212D01*
X106869Y156195D01*
X106842Y156185D01*
X106813Y156180D01*
X106694Y156126D01*
X106573Y156078D01*
X106550Y156061D01*
X106523Y156049D01*
X106421Y155968D01*
X106316Y155892D01*
X106297Y155869D01*
X106274Y155850D01*
X106196Y155747D01*
X106113Y155647D01*
X106101Y155620D01*
X106083Y155596D01*
X106012Y155452D01*
X105892Y155161D01*
X103339Y152608D01*
X100114Y151273D01*
X99994Y151204D01*
X99871Y151139D01*
X99856Y151125D01*
X99838Y151115D01*
X99738Y151018D01*
X99635Y150925D01*
X99624Y150908D01*
X99610Y150894D01*
X99537Y150776D01*
X99460Y150659D01*
X99454Y150640D01*
X99443Y150623D01*
X99402Y150490D01*
X99357Y150358D01*
X99356Y150338D01*
X99350Y150319D01*
X99343Y150180D01*
X99332Y150041D01*
X99336Y150021D01*
X99335Y150001D01*
X99363Y149865D01*
X99386Y149728D01*
X99395Y149710D01*
X99399Y149690D01*
X99460Y149564D01*
X99517Y149438D01*
X99530Y149422D01*
X99539Y149404D01*
X99629Y149298D01*
X99716Y149190D01*
X99732Y149177D01*
X99745Y149162D01*
X99859Y149082D01*
X99970Y148998D01*
X99995Y148986D01*
X100005Y148979D01*
X100024Y148972D01*
X100114Y148927D01*
X103339Y147592D01*
X105892Y145039D01*
X107273Y141705D01*
X107273Y138095D01*
X105892Y134761D01*
X103339Y132208D01*
X100114Y130873D01*
X99994Y130804D01*
X99871Y130739D01*
X99856Y130725D01*
X99838Y130715D01*
X99738Y130618D01*
X99635Y130525D01*
X99624Y130508D01*
X99610Y130494D01*
X99537Y130376D01*
X99460Y130259D01*
X99454Y130240D01*
X99443Y130223D01*
X99402Y130090D01*
X99357Y129958D01*
X99356Y129938D01*
X99350Y129919D01*
X99343Y129780D01*
X99332Y129641D01*
X99336Y129621D01*
X99335Y129601D01*
X99363Y129465D01*
X99386Y129328D01*
X99395Y129310D01*
X99399Y129290D01*
X99460Y129164D01*
X99517Y129038D01*
X99530Y129022D01*
X99539Y129004D01*
X99629Y128898D01*
X99716Y128790D01*
X99732Y128777D01*
X99745Y128762D01*
X99859Y128682D01*
X99970Y128598D01*
X99995Y128586D01*
X100005Y128579D01*
X100024Y128572D01*
X100114Y128527D01*
X103339Y127192D01*
X105993Y124538D01*
X105995Y124534D01*
X106020Y124511D01*
X106070Y124461D01*
X106088Y124447D01*
X106090Y124445D01*
X106179Y124353D01*
X106205Y124337D01*
X106227Y124316D01*
X106340Y124254D01*
X106450Y124186D01*
X106479Y124177D01*
X106506Y124162D01*
X106630Y124130D01*
X106754Y124092D01*
X106784Y124091D01*
X106814Y124083D01*
X106974Y124073D01*
X132080Y124073D01*
X132178Y124085D01*
X132277Y124088D01*
X132336Y124105D01*
X132396Y124113D01*
X132488Y124149D01*
X132583Y124177D01*
X132635Y124207D01*
X132691Y124230D01*
X132771Y124288D01*
X132857Y124338D01*
X132932Y124404D01*
X132949Y124416D01*
X132957Y124426D01*
X132978Y124444D01*
X160606Y152073D01*
X216580Y152073D01*
X216678Y152085D01*
X216777Y152088D01*
X216836Y152105D01*
X216896Y152113D01*
X216988Y152149D01*
X217083Y152177D01*
X217135Y152207D01*
X217191Y152230D01*
X217271Y152288D01*
X217357Y152338D01*
X217432Y152404D01*
X217449Y152416D01*
X217457Y152426D01*
X217478Y152444D01*
X224606Y159573D01*
X228198Y159573D01*
X228316Y159588D01*
X228435Y159595D01*
X228473Y159608D01*
X228514Y159613D01*
X228624Y159656D01*
X228737Y159693D01*
X228772Y159715D01*
X228809Y159730D01*
X228905Y159799D01*
X229006Y159863D01*
X229034Y159893D01*
X229067Y159916D01*
X229143Y160008D01*
X229224Y160095D01*
X229244Y160130D01*
X229269Y160161D01*
X229320Y160269D01*
X229378Y160373D01*
X229388Y160413D01*
X229405Y160449D01*
X229427Y160566D01*
X229457Y160681D01*
X229461Y160741D01*
X229465Y160761D01*
X229463Y160782D01*
X229467Y160842D01*
X229467Y161342D01*
X230658Y162533D01*
X242342Y162533D01*
X243533Y161342D01*
X243533Y148658D01*
X242342Y147467D01*
X242224Y147452D01*
X242105Y147445D01*
X242067Y147432D01*
X242026Y147427D01*
X241916Y147384D01*
X241803Y147347D01*
X241768Y147325D01*
X241731Y147310D01*
X241635Y147241D01*
X241534Y147177D01*
X241506Y147147D01*
X241473Y147124D01*
X241397Y147032D01*
X241316Y146945D01*
X241296Y146910D01*
X241271Y146879D01*
X241220Y146771D01*
X241162Y146667D01*
X241152Y146627D01*
X241135Y146591D01*
X241113Y146474D01*
X241083Y146359D01*
X241079Y146299D01*
X241075Y146279D01*
X241077Y146258D01*
X241073Y146198D01*
X241073Y133802D01*
X241088Y133684D01*
X241095Y133565D01*
X241108Y133527D01*
X241113Y133486D01*
X241156Y133376D01*
X241193Y133263D01*
X241215Y133228D01*
X241230Y133191D01*
X241299Y133095D01*
X241363Y132994D01*
X241393Y132966D01*
X241416Y132933D01*
X241508Y132857D01*
X241595Y132776D01*
X241630Y132756D01*
X241661Y132731D01*
X241769Y132680D01*
X241873Y132622D01*
X241913Y132612D01*
X241949Y132595D01*
X242066Y132573D01*
X242181Y132543D01*
X242241Y132539D01*
X242261Y132535D01*
X242282Y132537D01*
X242342Y132533D01*
X243544Y131331D01*
X243552Y131268D01*
X243569Y131117D01*
X243572Y131111D01*
X243573Y131104D01*
X243629Y130962D01*
X243683Y130820D01*
X243687Y130814D01*
X243690Y130808D01*
X243779Y130685D01*
X243867Y130561D01*
X243872Y130556D01*
X243876Y130551D01*
X243995Y130453D01*
X244110Y130355D01*
X244116Y130352D01*
X244121Y130348D01*
X244258Y130284D01*
X244396Y130217D01*
X244403Y130215D01*
X244409Y130212D01*
X244557Y130184D01*
X244708Y130154D01*
X244715Y130154D01*
X244721Y130153D01*
X244873Y130162D01*
X245026Y130170D01*
X245032Y130172D01*
X245039Y130172D01*
X245184Y130219D01*
X245329Y130265D01*
X245335Y130268D01*
X245341Y130270D01*
X245470Y130352D01*
X245600Y130432D01*
X245604Y130437D01*
X245610Y130441D01*
X245714Y130551D01*
X245820Y130661D01*
X245823Y130667D01*
X245828Y130672D01*
X245902Y130806D01*
X245977Y130938D01*
X245979Y130947D01*
X245982Y130951D01*
X245984Y130961D01*
X246028Y131091D01*
X246132Y131481D01*
X246467Y132060D01*
X246940Y132533D01*
X247519Y132868D01*
X248166Y133041D01*
X251001Y133041D01*
X251001Y126230D01*
X251016Y126112D01*
X251023Y125993D01*
X251035Y125955D01*
X251041Y125915D01*
X251084Y125804D01*
X251121Y125691D01*
X251143Y125657D01*
X251158Y125619D01*
X251227Y125523D01*
X251291Y125422D01*
X251321Y125394D01*
X251344Y125362D01*
X251436Y125286D01*
X251523Y125204D01*
X251558Y125185D01*
X251589Y125159D01*
X251697Y125108D01*
X251801Y125051D01*
X251841Y125041D01*
X251877Y125023D01*
X251984Y125003D01*
X251954Y124999D01*
X251844Y124955D01*
X251731Y124919D01*
X251696Y124897D01*
X251659Y124882D01*
X251562Y124812D01*
X251462Y124749D01*
X251434Y124719D01*
X251401Y124695D01*
X251325Y124604D01*
X251244Y124517D01*
X251224Y124482D01*
X251199Y124450D01*
X251148Y124343D01*
X251090Y124238D01*
X251080Y124199D01*
X251063Y124163D01*
X251041Y124046D01*
X251011Y123930D01*
X251007Y123870D01*
X251003Y123850D01*
X251005Y123830D01*
X251001Y123770D01*
X251001Y116959D01*
X248166Y116959D01*
X247519Y117132D01*
X246940Y117467D01*
X246467Y117940D01*
X246132Y118519D01*
X246028Y118909D01*
X245971Y119049D01*
X245914Y119192D01*
X245910Y119197D01*
X245908Y119204D01*
X245817Y119326D01*
X245728Y119449D01*
X245722Y119454D01*
X245718Y119459D01*
X245602Y119553D01*
X245483Y119652D01*
X245476Y119655D01*
X245471Y119659D01*
X245333Y119722D01*
X245195Y119788D01*
X245188Y119789D01*
X245182Y119792D01*
X245031Y119819D01*
X244882Y119847D01*
X244876Y119847D01*
X244869Y119848D01*
X244717Y119837D01*
X244565Y119828D01*
X244559Y119825D01*
X244552Y119825D01*
X244406Y119776D01*
X244263Y119730D01*
X244257Y119726D01*
X244250Y119724D01*
X244122Y119641D01*
X243994Y119559D01*
X243989Y119554D01*
X243984Y119551D01*
X243881Y119440D01*
X243776Y119328D01*
X243773Y119322D01*
X243768Y119317D01*
X243696Y119183D01*
X243622Y119049D01*
X243621Y119043D01*
X243618Y119037D01*
X243581Y118887D01*
X243543Y118741D01*
X243542Y118732D01*
X243541Y118728D01*
X243541Y118717D01*
X243538Y118663D01*
X242342Y117467D01*
X230658Y117467D01*
X229467Y118658D01*
X229467Y131342D01*
X230658Y132533D01*
X230776Y132548D01*
X230895Y132555D01*
X230933Y132568D01*
X230974Y132573D01*
X231084Y132616D01*
X231197Y132653D01*
X231232Y132675D01*
X231269Y132690D01*
X231365Y132759D01*
X231466Y132823D01*
X231494Y132853D01*
X231527Y132876D01*
X231603Y132968D01*
X231684Y133055D01*
X231704Y133090D01*
X231729Y133121D01*
X231780Y133229D01*
X231838Y133333D01*
X231848Y133373D01*
X231865Y133409D01*
X231887Y133526D01*
X231917Y133641D01*
X231921Y133701D01*
X231925Y133721D01*
X231923Y133742D01*
X231927Y133802D01*
X231927Y146198D01*
X231912Y146316D01*
X231905Y146435D01*
X231892Y146473D01*
X231887Y146514D01*
X231844Y146624D01*
X231807Y146737D01*
X231785Y146772D01*
X231770Y146809D01*
X231701Y146905D01*
X231637Y147006D01*
X231607Y147034D01*
X231584Y147067D01*
X231492Y147143D01*
X231405Y147224D01*
X231370Y147244D01*
X231339Y147269D01*
X231231Y147320D01*
X231127Y147378D01*
X231087Y147388D01*
X231051Y147405D01*
X230934Y147427D01*
X230819Y147457D01*
X230759Y147461D01*
X230739Y147465D01*
X230718Y147463D01*
X230658Y147467D01*
X229439Y148686D01*
X229437Y148713D01*
X229430Y148732D01*
X229427Y148752D01*
X229376Y148881D01*
X229329Y149012D01*
X229318Y149029D01*
X229310Y149047D01*
X229229Y149160D01*
X229151Y149275D01*
X229135Y149288D01*
X229124Y149305D01*
X229016Y149394D01*
X228912Y149485D01*
X228894Y149495D01*
X228879Y149508D01*
X228753Y149567D01*
X228629Y149630D01*
X228609Y149635D01*
X228591Y149643D01*
X228455Y149669D01*
X228319Y149700D01*
X228298Y149699D01*
X228279Y149703D01*
X228140Y149694D01*
X228001Y149690D01*
X227981Y149684D01*
X227961Y149683D01*
X227829Y149640D01*
X227695Y149602D01*
X227678Y149591D01*
X227659Y149585D01*
X227541Y149511D01*
X227421Y149440D01*
X227400Y149422D01*
X227390Y149415D01*
X227376Y149400D01*
X227301Y149334D01*
X223944Y145978D01*
X220894Y142927D01*
X164920Y142927D01*
X164822Y142915D01*
X164723Y142912D01*
X164664Y142895D01*
X164604Y142887D01*
X164512Y142851D01*
X164417Y142823D01*
X164365Y142793D01*
X164309Y142770D01*
X164229Y142712D01*
X164143Y142662D01*
X164068Y142596D01*
X164051Y142584D01*
X164043Y142574D01*
X164022Y142556D01*
X136394Y114927D01*
X106974Y114927D01*
X106944Y114923D01*
X106914Y114926D01*
X106787Y114904D01*
X106659Y114887D01*
X106630Y114876D01*
X106601Y114871D01*
X106483Y114818D01*
X106363Y114770D01*
X106338Y114753D01*
X106311Y114740D01*
X106210Y114659D01*
X106193Y114647D01*
X106191Y114646D01*
X106189Y114644D01*
X106106Y114584D01*
X106086Y114560D01*
X106063Y114541D01*
X106034Y114504D01*
X103339Y111808D01*
X100005Y110427D01*
X96395Y110427D01*
X93061Y111808D01*
X91639Y113230D01*
X91530Y113315D01*
X91423Y113404D01*
X91404Y113412D01*
X91388Y113425D01*
X91260Y113480D01*
X91135Y113539D01*
X91115Y113543D01*
X91096Y113551D01*
X90958Y113573D01*
X90822Y113599D01*
X90802Y113598D01*
X90782Y113601D01*
X90643Y113588D01*
X90505Y113579D01*
X90486Y113573D01*
X90466Y113571D01*
X90334Y113524D01*
X90203Y113481D01*
X90185Y113470D01*
X90166Y113463D01*
X90051Y113385D01*
X89934Y113311D01*
X89920Y113296D01*
X89903Y113285D01*
X89811Y113181D01*
X89716Y113079D01*
X89706Y113062D01*
X89693Y113046D01*
X89629Y112922D01*
X89562Y112801D01*
X89557Y112781D01*
X89548Y112763D01*
X89518Y112627D01*
X89483Y112493D01*
X89481Y112465D01*
X89478Y112453D01*
X89479Y112432D01*
X89473Y112332D01*
X89473Y108798D01*
X89485Y108700D01*
X89488Y108601D01*
X89505Y108543D01*
X89513Y108482D01*
X89549Y108390D01*
X89577Y108295D01*
X89607Y108243D01*
X89630Y108187D01*
X89688Y108107D01*
X89738Y108021D01*
X89804Y107946D01*
X89816Y107929D01*
X89826Y107922D01*
X89844Y107900D01*
X94912Y102832D01*
X94991Y102772D01*
X95063Y102704D01*
X95116Y102675D01*
X95164Y102638D01*
X95255Y102598D01*
X95341Y102550D01*
X95400Y102535D01*
X95456Y102511D01*
X95554Y102496D01*
X95649Y102471D01*
X95749Y102465D01*
X95770Y102461D01*
X95782Y102463D01*
X95810Y102461D01*
X144006Y102461D01*
X171522Y74944D01*
X171601Y74884D01*
X171673Y74816D01*
X171726Y74787D01*
X171774Y74750D01*
X171865Y74710D01*
X171951Y74662D01*
X172010Y74647D01*
X172065Y74623D01*
X172163Y74608D01*
X172259Y74583D01*
X172359Y74577D01*
X172380Y74573D01*
X172392Y74575D01*
X172420Y74573D01*
X228198Y74573D01*
X228316Y74588D01*
X228435Y74595D01*
X228473Y74608D01*
X228514Y74613D01*
X228624Y74656D01*
X228737Y74693D01*
X228772Y74715D01*
X228809Y74730D01*
X228905Y74799D01*
X229006Y74863D01*
X229034Y74893D01*
X229067Y74916D01*
X229143Y75008D01*
X229224Y75095D01*
X229244Y75130D01*
X229269Y75161D01*
X229320Y75269D01*
X229378Y75373D01*
X229388Y75413D01*
X229405Y75449D01*
X229427Y75566D01*
X229457Y75681D01*
X229461Y75741D01*
X229465Y75761D01*
X229463Y75782D01*
X229467Y75842D01*
X229467Y76342D01*
X230658Y77533D01*
X230776Y77548D01*
X230895Y77555D01*
X230933Y77568D01*
X230974Y77573D01*
X231084Y77616D01*
X231197Y77653D01*
X231232Y77675D01*
X231269Y77690D01*
X231365Y77759D01*
X231466Y77823D01*
X231494Y77853D01*
X231527Y77876D01*
X231603Y77968D01*
X231684Y78055D01*
X231704Y78090D01*
X231729Y78121D01*
X231780Y78229D01*
X231838Y78333D01*
X231848Y78373D01*
X231865Y78409D01*
X231887Y78526D01*
X231917Y78641D01*
X231921Y78701D01*
X231925Y78721D01*
X231923Y78742D01*
X231927Y78802D01*
X231927Y86198D01*
X231912Y86316D01*
X231905Y86435D01*
X231892Y86473D01*
X231887Y86514D01*
X231844Y86624D01*
X231807Y86737D01*
X231785Y86772D01*
X231770Y86809D01*
X231701Y86905D01*
X231637Y87006D01*
X231607Y87034D01*
X231584Y87067D01*
X231492Y87143D01*
X231405Y87224D01*
X231370Y87244D01*
X231339Y87269D01*
X231231Y87320D01*
X231127Y87378D01*
X231087Y87388D01*
X231051Y87405D01*
X230934Y87427D01*
X230819Y87457D01*
X230759Y87461D01*
X230739Y87465D01*
X230718Y87463D01*
X230658Y87467D01*
X229467Y88658D01*
X229467Y101342D01*
X230658Y102533D01*
X242342Y102533D01*
X243544Y101331D01*
X243552Y101268D01*
X243569Y101117D01*
X243572Y101111D01*
X243573Y101104D01*
X243629Y100961D01*
X243683Y100820D01*
X243687Y100814D01*
X243690Y100808D01*
X243779Y100684D01*
X243867Y100561D01*
X243872Y100556D01*
X243876Y100551D01*
X243995Y100453D01*
X244110Y100355D01*
X244116Y100352D01*
X244121Y100348D01*
X244259Y100283D01*
X244396Y100217D01*
X244403Y100215D01*
X244409Y100212D01*
X244557Y100184D01*
X244708Y100154D01*
X244715Y100154D01*
X244721Y100153D01*
X244873Y100162D01*
X245026Y100170D01*
X245032Y100172D01*
X245039Y100172D01*
X245183Y100219D01*
X245329Y100265D01*
X245335Y100268D01*
X245341Y100270D01*
X245470Y100352D01*
X245600Y100432D01*
X245604Y100437D01*
X245610Y100441D01*
X245715Y100552D01*
X245820Y100661D01*
X245823Y100667D01*
X245828Y100672D01*
X245902Y100806D01*
X245977Y100938D01*
X245979Y100947D01*
X245982Y100951D01*
X245984Y100961D01*
X246028Y101091D01*
X246132Y101481D01*
X246467Y102060D01*
X246940Y102533D01*
X247519Y102868D01*
X248166Y103041D01*
X251001Y103041D01*
X251001Y96230D01*
X251016Y96112D01*
X251023Y95993D01*
X251035Y95955D01*
X251041Y95915D01*
X251084Y95804D01*
X251121Y95691D01*
X251143Y95657D01*
X251158Y95619D01*
X251227Y95523D01*
X251291Y95422D01*
X251321Y95394D01*
X251344Y95362D01*
X251436Y95286D01*
X251523Y95204D01*
X251558Y95185D01*
X251589Y95159D01*
X251697Y95108D01*
X251801Y95051D01*
X251841Y95041D01*
X251877Y95023D01*
X251984Y95003D01*
X251954Y94999D01*
X251844Y94955D01*
X251731Y94919D01*
X251696Y94897D01*
X251659Y94882D01*
X251562Y94812D01*
X251462Y94749D01*
X251434Y94719D01*
X251401Y94695D01*
X251325Y94604D01*
X251244Y94517D01*
X251224Y94482D01*
X251199Y94450D01*
X251148Y94342D01*
X251090Y94238D01*
X251080Y94199D01*
X251063Y94163D01*
X251041Y94046D01*
X251011Y93930D01*
X251007Y93870D01*
X251003Y93850D01*
X251005Y93830D01*
X251001Y93770D01*
X251001Y86959D01*
X248166Y86959D01*
X247519Y87132D01*
X246940Y87467D01*
X246467Y87940D01*
X246132Y88519D01*
X246028Y88909D01*
X245971Y89049D01*
X245914Y89192D01*
X245910Y89197D01*
X245908Y89204D01*
X245818Y89325D01*
X245728Y89449D01*
X245722Y89453D01*
X245718Y89459D01*
X245600Y89554D01*
X245483Y89652D01*
X245476Y89655D01*
X245471Y89659D01*
X245333Y89722D01*
X245195Y89787D01*
X245188Y89789D01*
X245182Y89792D01*
X245032Y89819D01*
X244882Y89847D01*
X244876Y89847D01*
X244869Y89848D01*
X244716Y89837D01*
X244565Y89828D01*
X244559Y89825D01*
X244552Y89825D01*
X244406Y89776D01*
X244263Y89729D01*
X244257Y89726D01*
X244250Y89724D01*
X244121Y89640D01*
X243994Y89559D01*
X243989Y89554D01*
X243984Y89551D01*
X243880Y89439D01*
X243776Y89328D01*
X243773Y89322D01*
X243768Y89317D01*
X243695Y89182D01*
X243622Y89049D01*
X243621Y89043D01*
X243618Y89037D01*
X243581Y88888D01*
X243543Y88741D01*
X243542Y88732D01*
X243541Y88728D01*
X243541Y88717D01*
X243538Y88663D01*
X242342Y87467D01*
X242224Y87452D01*
X242105Y87445D01*
X242067Y87432D01*
X242026Y87427D01*
X241916Y87384D01*
X241803Y87347D01*
X241768Y87325D01*
X241731Y87310D01*
X241635Y87241D01*
X241534Y87177D01*
X241506Y87147D01*
X241473Y87124D01*
X241397Y87032D01*
X241316Y86945D01*
X241296Y86910D01*
X241271Y86879D01*
X241220Y86771D01*
X241162Y86667D01*
X241152Y86627D01*
X241135Y86591D01*
X241113Y86474D01*
X241083Y86359D01*
X241079Y86299D01*
X241075Y86279D01*
X241077Y86258D01*
X241073Y86198D01*
X241073Y78802D01*
X241088Y78684D01*
X241095Y78565D01*
X241108Y78527D01*
X241113Y78486D01*
X241156Y78376D01*
X241193Y78263D01*
X241215Y78228D01*
X241230Y78191D01*
X241299Y78095D01*
X241363Y77994D01*
X241393Y77966D01*
X241416Y77933D01*
X241508Y77857D01*
X241595Y77776D01*
X241630Y77756D01*
X241661Y77731D01*
X241769Y77680D01*
X241873Y77622D01*
X241913Y77612D01*
X241949Y77595D01*
X242066Y77573D01*
X242181Y77543D01*
X242241Y77539D01*
X242261Y77535D01*
X242282Y77537D01*
X242342Y77533D01*
X243533Y76342D01*
X243533Y63658D01*
X242342Y62467D01*
X230658Y62467D01*
G37*
%LPD*%
%LPC*%
G36*
X106108Y-110283D02*
X106108Y-110283D01*
X101226Y-108261D01*
X97489Y-104524D01*
X95467Y-99642D01*
X95467Y-94358D01*
X97489Y-89476D01*
X101226Y-85739D01*
X106108Y-83717D01*
X114158Y-83717D01*
X114276Y-83702D01*
X114395Y-83695D01*
X114433Y-83682D01*
X114474Y-83677D01*
X114584Y-83634D01*
X114697Y-83597D01*
X114732Y-83575D01*
X114769Y-83560D01*
X114865Y-83491D01*
X114966Y-83427D01*
X114994Y-83397D01*
X115027Y-83374D01*
X115103Y-83282D01*
X115184Y-83195D01*
X115204Y-83160D01*
X115229Y-83129D01*
X115280Y-83021D01*
X115338Y-82917D01*
X115348Y-82877D01*
X115365Y-82841D01*
X115387Y-82724D01*
X115417Y-82609D01*
X115421Y-82549D01*
X115425Y-82529D01*
X115423Y-82508D01*
X115427Y-82448D01*
X115427Y-82420D01*
X115415Y-82322D01*
X115412Y-82223D01*
X115395Y-82164D01*
X115387Y-82104D01*
X115351Y-82012D01*
X115323Y-81917D01*
X115293Y-81865D01*
X115270Y-81809D01*
X115212Y-81729D01*
X115162Y-81643D01*
X115096Y-81568D01*
X115084Y-81551D01*
X115074Y-81543D01*
X115056Y-81522D01*
X102681Y-69148D01*
X102587Y-69075D01*
X102498Y-68996D01*
X102462Y-68978D01*
X102430Y-68953D01*
X102321Y-68906D01*
X102215Y-68852D01*
X102175Y-68843D01*
X102138Y-68827D01*
X102021Y-68808D01*
X101905Y-68782D01*
X101864Y-68783D01*
X101824Y-68777D01*
X101706Y-68788D01*
X101587Y-68792D01*
X101548Y-68803D01*
X101508Y-68807D01*
X101395Y-68847D01*
X101281Y-68880D01*
X101246Y-68901D01*
X101208Y-68914D01*
X101110Y-68981D01*
X101007Y-69042D01*
X100962Y-69082D01*
X100945Y-69093D01*
X100932Y-69108D01*
X100886Y-69148D01*
X97524Y-72511D01*
X92642Y-74533D01*
X87358Y-74533D01*
X82476Y-72511D01*
X78739Y-68774D01*
X76717Y-63892D01*
X76717Y-36108D01*
X78739Y-31226D01*
X82476Y-27489D01*
X87358Y-25467D01*
X92642Y-25467D01*
X97524Y-27489D01*
X101261Y-31226D01*
X103283Y-36108D01*
X103283Y-56290D01*
X103295Y-56388D01*
X103298Y-56487D01*
X103315Y-56546D01*
X103323Y-56606D01*
X103359Y-56698D01*
X103387Y-56793D01*
X103417Y-56845D01*
X103440Y-56901D01*
X103498Y-56981D01*
X103548Y-57067D01*
X103585Y-57109D01*
X103587Y-57112D01*
X103592Y-57117D01*
X103614Y-57142D01*
X103626Y-57159D01*
X103636Y-57167D01*
X103654Y-57188D01*
X124573Y-78106D01*
X124573Y-82448D01*
X124588Y-82566D01*
X124595Y-82685D01*
X124608Y-82723D01*
X124613Y-82764D01*
X124656Y-82874D01*
X124693Y-82987D01*
X124715Y-83022D01*
X124730Y-83059D01*
X124799Y-83155D01*
X124863Y-83256D01*
X124893Y-83284D01*
X124916Y-83317D01*
X125008Y-83393D01*
X125095Y-83474D01*
X125130Y-83494D01*
X125161Y-83519D01*
X125269Y-83570D01*
X125373Y-83628D01*
X125413Y-83638D01*
X125449Y-83655D01*
X125566Y-83677D01*
X125681Y-83707D01*
X125741Y-83711D01*
X125761Y-83715D01*
X125782Y-83713D01*
X125842Y-83717D01*
X133892Y-83717D01*
X138774Y-85739D01*
X142511Y-89476D01*
X144569Y-94446D01*
X144573Y-94474D01*
X144616Y-94584D01*
X144653Y-94697D01*
X144675Y-94732D01*
X144690Y-94769D01*
X144759Y-94865D01*
X144823Y-94966D01*
X144853Y-94994D01*
X144876Y-95027D01*
X144968Y-95103D01*
X145055Y-95184D01*
X145090Y-95204D01*
X145121Y-95229D01*
X145229Y-95280D01*
X145333Y-95338D01*
X145373Y-95348D01*
X145409Y-95365D01*
X145526Y-95387D01*
X145641Y-95417D01*
X145701Y-95421D01*
X145721Y-95425D01*
X145742Y-95423D01*
X145802Y-95427D01*
X232580Y-95427D01*
X232678Y-95415D01*
X232777Y-95412D01*
X232836Y-95395D01*
X232896Y-95387D01*
X232988Y-95351D01*
X233083Y-95323D01*
X233135Y-95293D01*
X233191Y-95270D01*
X233271Y-95212D01*
X233357Y-95162D01*
X233432Y-95096D01*
X233449Y-95084D01*
X233457Y-95074D01*
X233478Y-95056D01*
X264062Y-64471D01*
X264080Y-64448D01*
X264103Y-64429D01*
X264177Y-64323D01*
X264257Y-64220D01*
X264269Y-64193D01*
X264286Y-64169D01*
X264332Y-64047D01*
X264383Y-63928D01*
X264388Y-63899D01*
X264399Y-63871D01*
X264413Y-63742D01*
X264433Y-63614D01*
X264431Y-63584D01*
X264434Y-63555D01*
X264416Y-63427D01*
X264403Y-63297D01*
X264393Y-63269D01*
X264389Y-63240D01*
X264337Y-63088D01*
X263967Y-62195D01*
X263967Y-57805D01*
X265647Y-53750D01*
X268750Y-50647D01*
X272805Y-48967D01*
X277195Y-48967D01*
X281250Y-50647D01*
X284353Y-53750D01*
X286033Y-57805D01*
X286033Y-62195D01*
X284353Y-66250D01*
X281250Y-69353D01*
X277195Y-71033D01*
X272805Y-71033D01*
X271912Y-70663D01*
X271884Y-70655D01*
X271857Y-70641D01*
X271731Y-70613D01*
X271605Y-70579D01*
X271576Y-70578D01*
X271547Y-70572D01*
X271417Y-70576D01*
X271287Y-70574D01*
X271259Y-70581D01*
X271229Y-70581D01*
X271105Y-70618D01*
X270978Y-70648D01*
X270952Y-70662D01*
X270924Y-70670D01*
X270812Y-70736D01*
X270697Y-70797D01*
X270675Y-70816D01*
X270650Y-70831D01*
X270529Y-70938D01*
X236894Y-104573D01*
X142988Y-104573D01*
X142889Y-104585D01*
X142790Y-104588D01*
X142732Y-104605D01*
X142672Y-104613D01*
X142580Y-104649D01*
X142485Y-104677D01*
X142433Y-104707D01*
X142376Y-104730D01*
X142296Y-104788D01*
X142211Y-104838D01*
X142136Y-104904D01*
X142119Y-104916D01*
X142111Y-104926D01*
X142090Y-104944D01*
X138774Y-108261D01*
X133892Y-110283D01*
X106108Y-110283D01*
G37*
%LPD*%
%LPC*%
G36*
X533015Y73827D02*
X533015Y73827D01*
X529901Y75117D01*
X527517Y77501D01*
X526227Y80615D01*
X526227Y83985D01*
X527517Y87099D01*
X529756Y89338D01*
X529816Y89416D01*
X529884Y89488D01*
X529913Y89541D01*
X529950Y89589D01*
X529990Y89680D01*
X530038Y89767D01*
X530053Y89825D01*
X530077Y89881D01*
X530092Y89979D01*
X530117Y90075D01*
X530123Y90175D01*
X530127Y90195D01*
X530125Y90207D01*
X530127Y90235D01*
X530127Y99765D01*
X530115Y99863D01*
X530112Y99962D01*
X530095Y100020D01*
X530087Y100080D01*
X530051Y100172D01*
X530023Y100267D01*
X529993Y100320D01*
X529970Y100376D01*
X529912Y100456D01*
X529862Y100541D01*
X529796Y100617D01*
X529784Y100633D01*
X529774Y100641D01*
X529756Y100662D01*
X527662Y102756D01*
X527584Y102816D01*
X527512Y102884D01*
X527459Y102913D01*
X527411Y102950D01*
X527320Y102990D01*
X527233Y103038D01*
X527175Y103053D01*
X527119Y103077D01*
X527021Y103092D01*
X526925Y103117D01*
X526825Y103123D01*
X526805Y103127D01*
X526793Y103125D01*
X526765Y103127D01*
X515406Y103127D01*
X468478Y150056D01*
X468399Y150116D01*
X468327Y150184D01*
X468274Y150213D01*
X468226Y150250D01*
X468135Y150290D01*
X468049Y150338D01*
X467990Y150353D01*
X467935Y150377D01*
X467837Y150392D01*
X467741Y150417D01*
X467641Y150423D01*
X467620Y150427D01*
X467608Y150425D01*
X467580Y150427D01*
X406174Y150427D01*
X406076Y150415D01*
X405977Y150412D01*
X405918Y150395D01*
X405858Y150387D01*
X405766Y150351D01*
X405671Y150323D01*
X405619Y150293D01*
X405563Y150270D01*
X405483Y150212D01*
X405397Y150162D01*
X405322Y150096D01*
X405305Y150084D01*
X405297Y150074D01*
X405276Y150056D01*
X385648Y130427D01*
X356802Y130427D01*
X356684Y130412D01*
X356565Y130405D01*
X356527Y130392D01*
X356486Y130387D01*
X356376Y130344D01*
X356263Y130307D01*
X356228Y130285D01*
X356191Y130270D01*
X356095Y130201D01*
X355994Y130137D01*
X355966Y130107D01*
X355933Y130084D01*
X355857Y129992D01*
X355776Y129905D01*
X355756Y129870D01*
X355731Y129839D01*
X355680Y129731D01*
X355622Y129627D01*
X355612Y129587D01*
X355595Y129551D01*
X355573Y129434D01*
X355543Y129319D01*
X355539Y129259D01*
X355535Y129239D01*
X355537Y129218D01*
X355533Y129158D01*
X355533Y128658D01*
X354342Y127467D01*
X342658Y127467D01*
X341467Y128658D01*
X341467Y141342D01*
X342658Y142533D01*
X354342Y142533D01*
X355533Y141342D01*
X355533Y140842D01*
X355548Y140724D01*
X355555Y140605D01*
X355568Y140567D01*
X355573Y140526D01*
X355616Y140416D01*
X355653Y140303D01*
X355675Y140268D01*
X355690Y140231D01*
X355759Y140135D01*
X355823Y140034D01*
X355853Y140006D01*
X355876Y139973D01*
X355968Y139897D01*
X356055Y139816D01*
X356090Y139796D01*
X356121Y139771D01*
X356229Y139720D01*
X356333Y139662D01*
X356373Y139652D01*
X356409Y139635D01*
X356526Y139613D01*
X356641Y139583D01*
X356701Y139579D01*
X356721Y139575D01*
X356742Y139577D01*
X356802Y139573D01*
X381334Y139573D01*
X381432Y139585D01*
X381531Y139588D01*
X381590Y139605D01*
X381650Y139613D01*
X381742Y139649D01*
X381837Y139677D01*
X381889Y139707D01*
X381945Y139730D01*
X382025Y139788D01*
X382111Y139838D01*
X382186Y139904D01*
X382203Y139916D01*
X382211Y139926D01*
X382232Y139944D01*
X401860Y159573D01*
X471894Y159573D01*
X518822Y112644D01*
X518901Y112584D01*
X518973Y112516D01*
X519026Y112487D01*
X519074Y112450D01*
X519165Y112410D01*
X519251Y112362D01*
X519310Y112347D01*
X519365Y112323D01*
X519463Y112308D01*
X519559Y112283D01*
X519659Y112277D01*
X519680Y112273D01*
X519692Y112275D01*
X519720Y112273D01*
X526765Y112273D01*
X526863Y112285D01*
X526962Y112288D01*
X527020Y112305D01*
X527080Y112313D01*
X527172Y112349D01*
X527267Y112377D01*
X527320Y112407D01*
X527376Y112430D01*
X527456Y112488D01*
X527541Y112538D01*
X527617Y112604D01*
X527633Y112616D01*
X527641Y112626D01*
X527662Y112644D01*
X529901Y114883D01*
X533015Y116173D01*
X536385Y116173D01*
X539499Y114883D01*
X541883Y112499D01*
X543173Y109385D01*
X543173Y106015D01*
X541883Y102901D01*
X539644Y100662D01*
X539584Y100584D01*
X539516Y100512D01*
X539487Y100459D01*
X539450Y100411D01*
X539410Y100320D01*
X539362Y100233D01*
X539347Y100175D01*
X539323Y100119D01*
X539308Y100021D01*
X539283Y99925D01*
X539277Y99825D01*
X539273Y99805D01*
X539275Y99793D01*
X539273Y99765D01*
X539273Y90235D01*
X539285Y90137D01*
X539288Y90038D01*
X539305Y89980D01*
X539313Y89920D01*
X539349Y89828D01*
X539377Y89733D01*
X539407Y89680D01*
X539430Y89624D01*
X539488Y89544D01*
X539538Y89459D01*
X539604Y89383D01*
X539616Y89367D01*
X539626Y89359D01*
X539644Y89338D01*
X541883Y87099D01*
X543173Y83985D01*
X543173Y80615D01*
X541883Y77501D01*
X539499Y75117D01*
X536385Y73827D01*
X533015Y73827D01*
G37*
%LPD*%
%LPC*%
G36*
X368658Y11467D02*
X368658Y11467D01*
X367467Y12658D01*
X367467Y24342D01*
X368658Y25533D01*
X369158Y25533D01*
X369276Y25548D01*
X369395Y25555D01*
X369433Y25568D01*
X369474Y25573D01*
X369584Y25616D01*
X369697Y25653D01*
X369732Y25675D01*
X369769Y25690D01*
X369865Y25759D01*
X369966Y25823D01*
X369994Y25853D01*
X370027Y25876D01*
X370103Y25968D01*
X370184Y26055D01*
X370204Y26090D01*
X370229Y26121D01*
X370280Y26229D01*
X370338Y26333D01*
X370348Y26373D01*
X370365Y26409D01*
X370387Y26526D01*
X370417Y26641D01*
X370421Y26701D01*
X370425Y26721D01*
X370423Y26742D01*
X370427Y26802D01*
X370427Y71894D01*
X383106Y84573D01*
X387622Y84573D01*
X387740Y84588D01*
X387858Y84595D01*
X387897Y84608D01*
X387937Y84613D01*
X388048Y84656D01*
X388161Y84693D01*
X388195Y84715D01*
X388233Y84730D01*
X388329Y84799D01*
X388430Y84863D01*
X388457Y84893D01*
X388490Y84916D01*
X388566Y85008D01*
X388648Y85095D01*
X388667Y85130D01*
X388693Y85161D01*
X388744Y85269D01*
X388801Y85373D01*
X388811Y85413D01*
X388828Y85449D01*
X388851Y85566D01*
X388881Y85681D01*
X388884Y85741D01*
X388888Y85761D01*
X388888Y85769D01*
X388888Y85771D01*
X388887Y85787D01*
X388891Y85842D01*
X388891Y86419D01*
X390082Y87610D01*
X409918Y87610D01*
X411109Y86419D01*
X411109Y85596D01*
X411124Y85478D01*
X411132Y85359D01*
X411144Y85321D01*
X411149Y85280D01*
X411193Y85170D01*
X411230Y85057D01*
X411251Y85022D01*
X411266Y84985D01*
X411336Y84888D01*
X411400Y84788D01*
X411429Y84760D01*
X411453Y84727D01*
X411545Y84651D01*
X411631Y84570D01*
X411667Y84550D01*
X411698Y84525D01*
X411806Y84474D01*
X411910Y84416D01*
X411949Y84406D01*
X411986Y84389D01*
X412102Y84367D01*
X412218Y84337D01*
X412278Y84333D01*
X412298Y84329D01*
X412318Y84331D01*
X412378Y84327D01*
X419372Y84327D01*
X419490Y84342D01*
X419608Y84349D01*
X419647Y84362D01*
X419687Y84367D01*
X419798Y84410D01*
X419911Y84447D01*
X419945Y84469D01*
X419983Y84484D01*
X420079Y84553D01*
X420180Y84617D01*
X420207Y84647D01*
X420240Y84670D01*
X420316Y84762D01*
X420398Y84849D01*
X420417Y84884D01*
X420443Y84915D01*
X420494Y85023D01*
X420551Y85127D01*
X420561Y85167D01*
X420578Y85203D01*
X420601Y85320D01*
X420621Y85400D01*
X421832Y86610D01*
X438168Y86610D01*
X439359Y85419D01*
X439359Y84596D01*
X439374Y84478D01*
X439382Y84359D01*
X439394Y84321D01*
X439399Y84280D01*
X439443Y84170D01*
X439480Y84057D01*
X439501Y84022D01*
X439516Y83985D01*
X439586Y83889D01*
X439650Y83788D01*
X439679Y83760D01*
X439703Y83727D01*
X439795Y83651D01*
X439881Y83570D01*
X439917Y83550D01*
X439948Y83525D01*
X440056Y83474D01*
X440160Y83416D01*
X440199Y83406D01*
X440236Y83389D01*
X440352Y83367D01*
X440468Y83337D01*
X440528Y83333D01*
X440548Y83329D01*
X440568Y83331D01*
X440628Y83327D01*
X445706Y83327D01*
X445736Y83330D01*
X445765Y83328D01*
X445893Y83350D01*
X446022Y83367D01*
X446049Y83377D01*
X446078Y83382D01*
X446197Y83436D01*
X446318Y83484D01*
X446341Y83501D01*
X446368Y83513D01*
X446470Y83594D01*
X446575Y83670D01*
X446594Y83693D01*
X446617Y83712D01*
X446695Y83815D01*
X446778Y83915D01*
X446790Y83942D01*
X446808Y83966D01*
X446879Y84110D01*
X448117Y87099D01*
X450501Y89483D01*
X453615Y90773D01*
X456985Y90773D01*
X460099Y89483D01*
X462483Y87099D01*
X463773Y83985D01*
X463773Y80615D01*
X462483Y77501D01*
X460099Y75117D01*
X456985Y73827D01*
X453615Y73827D01*
X452993Y74085D01*
X452984Y74087D01*
X452976Y74092D01*
X452831Y74129D01*
X452687Y74169D01*
X452677Y74169D01*
X452668Y74171D01*
X452508Y74181D01*
X440628Y74181D01*
X440510Y74166D01*
X440392Y74159D01*
X440353Y74146D01*
X440313Y74141D01*
X440202Y74098D01*
X440089Y74061D01*
X440055Y74039D01*
X440017Y74024D01*
X439921Y73955D01*
X439820Y73891D01*
X439793Y73861D01*
X439760Y73838D01*
X439684Y73746D01*
X439602Y73659D01*
X439583Y73624D01*
X439557Y73593D01*
X439506Y73485D01*
X439449Y73381D01*
X439439Y73341D01*
X439422Y73305D01*
X439399Y73188D01*
X439369Y73073D01*
X439366Y73013D01*
X439362Y72993D01*
X439363Y72972D01*
X439359Y72912D01*
X439359Y72089D01*
X438462Y71192D01*
X438385Y71093D01*
X438303Y70998D01*
X438288Y70967D01*
X438267Y70941D01*
X438217Y70825D01*
X438161Y70713D01*
X438154Y70680D01*
X438141Y70649D01*
X438121Y70525D01*
X438095Y70402D01*
X438096Y70368D01*
X438091Y70335D01*
X438103Y70210D01*
X438108Y70084D01*
X438118Y70052D01*
X438121Y70018D01*
X438163Y69900D01*
X438200Y69780D01*
X438217Y69751D01*
X438228Y69719D01*
X438299Y69615D01*
X438364Y69507D01*
X438388Y69484D01*
X438407Y69456D01*
X438501Y69372D01*
X438591Y69285D01*
X438632Y69257D01*
X438645Y69245D01*
X438665Y69235D01*
X438725Y69195D01*
X438886Y69102D01*
X439360Y68629D01*
X439694Y68050D01*
X439867Y67403D01*
X439867Y63785D01*
X431270Y63785D01*
X431152Y63770D01*
X431033Y63763D01*
X430995Y63750D01*
X430955Y63745D01*
X430844Y63701D01*
X430731Y63665D01*
X430696Y63643D01*
X430659Y63628D01*
X430563Y63558D01*
X430462Y63495D01*
X430434Y63465D01*
X430402Y63441D01*
X430326Y63350D01*
X430244Y63263D01*
X430225Y63228D01*
X430199Y63196D01*
X430148Y63089D01*
X430091Y62985D01*
X430080Y62945D01*
X430063Y62909D01*
X430041Y62792D01*
X430011Y62677D01*
X430007Y62616D01*
X430003Y62596D01*
X430005Y62576D01*
X430001Y62516D01*
X430001Y61245D01*
X429999Y61245D01*
X429999Y62516D01*
X429984Y62634D01*
X429977Y62753D01*
X429964Y62791D01*
X429959Y62831D01*
X429915Y62942D01*
X429879Y63055D01*
X429857Y63090D01*
X429842Y63127D01*
X429772Y63223D01*
X429709Y63324D01*
X429679Y63352D01*
X429655Y63384D01*
X429564Y63460D01*
X429477Y63542D01*
X429442Y63561D01*
X429410Y63587D01*
X429303Y63638D01*
X429199Y63695D01*
X429159Y63706D01*
X429123Y63723D01*
X429006Y63745D01*
X428891Y63775D01*
X428830Y63779D01*
X428810Y63783D01*
X428790Y63781D01*
X428730Y63785D01*
X420133Y63785D01*
X420133Y67403D01*
X420306Y68050D01*
X420640Y68629D01*
X421114Y69102D01*
X421275Y69195D01*
X421375Y69271D01*
X421479Y69342D01*
X421501Y69367D01*
X421528Y69388D01*
X421606Y69486D01*
X421690Y69580D01*
X421705Y69610D01*
X421726Y69637D01*
X421777Y69752D01*
X421834Y69864D01*
X421842Y69896D01*
X421855Y69927D01*
X421876Y70051D01*
X421904Y70174D01*
X421903Y70208D01*
X421908Y70241D01*
X421898Y70366D01*
X421894Y70492D01*
X421885Y70524D01*
X421882Y70558D01*
X421841Y70677D01*
X421806Y70797D01*
X421789Y70826D01*
X421778Y70858D01*
X421708Y70963D01*
X421644Y71071D01*
X421612Y71108D01*
X421602Y71123D01*
X421585Y71138D01*
X421538Y71192D01*
X420641Y72089D01*
X420641Y73912D01*
X420626Y74030D01*
X420618Y74149D01*
X420606Y74187D01*
X420601Y74228D01*
X420557Y74338D01*
X420520Y74451D01*
X420499Y74486D01*
X420484Y74523D01*
X420414Y74619D01*
X420350Y74720D01*
X420321Y74748D01*
X420297Y74781D01*
X420205Y74857D01*
X420119Y74938D01*
X420083Y74958D01*
X420052Y74983D01*
X419944Y75034D01*
X419840Y75092D01*
X419801Y75102D01*
X419764Y75119D01*
X419648Y75141D01*
X419532Y75171D01*
X419472Y75175D01*
X419452Y75179D01*
X419432Y75177D01*
X419372Y75181D01*
X412378Y75181D01*
X412260Y75166D01*
X412142Y75159D01*
X412103Y75146D01*
X412063Y75141D01*
X411952Y75098D01*
X411839Y75061D01*
X411805Y75039D01*
X411767Y75024D01*
X411671Y74955D01*
X411570Y74891D01*
X411543Y74861D01*
X411510Y74838D01*
X411434Y74746D01*
X411352Y74659D01*
X411333Y74624D01*
X411307Y74593D01*
X411256Y74485D01*
X411199Y74381D01*
X411189Y74341D01*
X411172Y74305D01*
X411149Y74188D01*
X411119Y74073D01*
X411116Y74013D01*
X411112Y73993D01*
X411113Y73972D01*
X411109Y73912D01*
X411109Y73089D01*
X409918Y71898D01*
X390082Y71898D01*
X388891Y73089D01*
X388891Y74158D01*
X388876Y74276D01*
X388868Y74395D01*
X388856Y74433D01*
X388851Y74474D01*
X388807Y74584D01*
X388770Y74697D01*
X388749Y74732D01*
X388734Y74769D01*
X388664Y74865D01*
X388600Y74966D01*
X388571Y74994D01*
X388547Y75027D01*
X388455Y75103D01*
X388369Y75184D01*
X388333Y75204D01*
X388302Y75229D01*
X388194Y75280D01*
X388090Y75338D01*
X388051Y75348D01*
X388014Y75365D01*
X387898Y75387D01*
X387782Y75417D01*
X387722Y75421D01*
X387702Y75425D01*
X387682Y75423D01*
X387622Y75427D01*
X387420Y75427D01*
X387322Y75415D01*
X387223Y75412D01*
X387164Y75395D01*
X387104Y75387D01*
X387012Y75351D01*
X386917Y75323D01*
X386865Y75293D01*
X386809Y75270D01*
X386729Y75212D01*
X386643Y75162D01*
X386568Y75096D01*
X386551Y75084D01*
X386543Y75074D01*
X386522Y75056D01*
X379944Y68478D01*
X379884Y68399D01*
X379816Y68327D01*
X379787Y68274D01*
X379750Y68226D01*
X379710Y68135D01*
X379662Y68049D01*
X379647Y67990D01*
X379623Y67935D01*
X379608Y67837D01*
X379583Y67741D01*
X379577Y67641D01*
X379573Y67620D01*
X379575Y67608D01*
X379573Y67580D01*
X379573Y26802D01*
X379588Y26684D01*
X379595Y26565D01*
X379608Y26527D01*
X379613Y26486D01*
X379656Y26376D01*
X379693Y26263D01*
X379715Y26228D01*
X379730Y26191D01*
X379799Y26095D01*
X379863Y25994D01*
X379893Y25966D01*
X379916Y25933D01*
X380008Y25857D01*
X380095Y25776D01*
X380130Y25756D01*
X380161Y25731D01*
X380269Y25680D01*
X380373Y25622D01*
X380413Y25612D01*
X380449Y25595D01*
X380566Y25573D01*
X380681Y25543D01*
X380741Y25539D01*
X380761Y25535D01*
X380782Y25537D01*
X380842Y25533D01*
X381342Y25533D01*
X382533Y24342D01*
X382533Y12658D01*
X381342Y11467D01*
X368658Y11467D01*
G37*
%LPD*%
%LPC*%
G36*
X147109Y-77033D02*
X147109Y-77033D01*
X141768Y-74820D01*
X137680Y-70732D01*
X135467Y-65391D01*
X135467Y-34609D01*
X137680Y-29268D01*
X141768Y-25180D01*
X147109Y-22967D01*
X152891Y-22967D01*
X158232Y-25180D01*
X162320Y-29268D01*
X164533Y-34609D01*
X164533Y-44158D01*
X164548Y-44276D01*
X164555Y-44395D01*
X164568Y-44433D01*
X164573Y-44474D01*
X164616Y-44584D01*
X164653Y-44697D01*
X164675Y-44732D01*
X164690Y-44769D01*
X164759Y-44865D01*
X164823Y-44966D01*
X164853Y-44994D01*
X164876Y-45027D01*
X164968Y-45103D01*
X165055Y-45184D01*
X165090Y-45204D01*
X165121Y-45229D01*
X165229Y-45280D01*
X165333Y-45338D01*
X165373Y-45348D01*
X165409Y-45365D01*
X165526Y-45387D01*
X165641Y-45417D01*
X165701Y-45421D01*
X165721Y-45425D01*
X165742Y-45423D01*
X165802Y-45427D01*
X188198Y-45427D01*
X188316Y-45412D01*
X188435Y-45405D01*
X188473Y-45392D01*
X188514Y-45387D01*
X188624Y-45344D01*
X188737Y-45307D01*
X188772Y-45285D01*
X188809Y-45270D01*
X188905Y-45201D01*
X189006Y-45137D01*
X189034Y-45107D01*
X189067Y-45084D01*
X189143Y-44992D01*
X189224Y-44905D01*
X189244Y-44870D01*
X189269Y-44839D01*
X189320Y-44731D01*
X189378Y-44627D01*
X189388Y-44587D01*
X189405Y-44551D01*
X189427Y-44434D01*
X189457Y-44319D01*
X189461Y-44259D01*
X189465Y-44239D01*
X189463Y-44218D01*
X189467Y-44158D01*
X189467Y-43658D01*
X190658Y-42467D01*
X202342Y-42467D01*
X203533Y-43658D01*
X203533Y-56342D01*
X202342Y-57533D01*
X190658Y-57533D01*
X189467Y-56342D01*
X189467Y-55842D01*
X189452Y-55724D01*
X189445Y-55605D01*
X189432Y-55567D01*
X189427Y-55526D01*
X189384Y-55416D01*
X189347Y-55303D01*
X189325Y-55268D01*
X189310Y-55231D01*
X189241Y-55135D01*
X189177Y-55034D01*
X189147Y-55006D01*
X189124Y-54973D01*
X189032Y-54897D01*
X188945Y-54816D01*
X188910Y-54796D01*
X188879Y-54771D01*
X188771Y-54720D01*
X188667Y-54662D01*
X188627Y-54652D01*
X188591Y-54635D01*
X188474Y-54613D01*
X188359Y-54583D01*
X188299Y-54579D01*
X188279Y-54575D01*
X188258Y-54577D01*
X188198Y-54573D01*
X165802Y-54573D01*
X165684Y-54588D01*
X165565Y-54595D01*
X165527Y-54608D01*
X165486Y-54613D01*
X165376Y-54656D01*
X165263Y-54693D01*
X165228Y-54715D01*
X165191Y-54730D01*
X165095Y-54799D01*
X164994Y-54863D01*
X164966Y-54893D01*
X164933Y-54916D01*
X164857Y-55008D01*
X164776Y-55095D01*
X164756Y-55130D01*
X164731Y-55161D01*
X164680Y-55269D01*
X164622Y-55373D01*
X164612Y-55413D01*
X164595Y-55449D01*
X164573Y-55566D01*
X164543Y-55681D01*
X164539Y-55741D01*
X164535Y-55761D01*
X164537Y-55782D01*
X164533Y-55842D01*
X164533Y-65391D01*
X162320Y-70732D01*
X158232Y-74820D01*
X152891Y-77033D01*
X147109Y-77033D01*
G37*
%LPD*%
%LPC*%
G36*
X323605Y-71033D02*
X323605Y-71033D01*
X319550Y-69353D01*
X316447Y-66250D01*
X314767Y-62195D01*
X314767Y-57805D01*
X316447Y-53750D01*
X319550Y-50647D01*
X320444Y-50277D01*
X320469Y-50262D01*
X320497Y-50253D01*
X320607Y-50184D01*
X320720Y-50119D01*
X320741Y-50099D01*
X320766Y-50083D01*
X320855Y-49989D01*
X320948Y-49898D01*
X320964Y-49873D01*
X320984Y-49851D01*
X321047Y-49738D01*
X321115Y-49627D01*
X321123Y-49599D01*
X321138Y-49573D01*
X321170Y-49447D01*
X321208Y-49323D01*
X321210Y-49294D01*
X321217Y-49265D01*
X321227Y-49104D01*
X321227Y-43220D01*
X321215Y-43122D01*
X321212Y-43023D01*
X321195Y-42964D01*
X321187Y-42904D01*
X321151Y-42812D01*
X321123Y-42717D01*
X321093Y-42665D01*
X321070Y-42609D01*
X321012Y-42529D01*
X320962Y-42443D01*
X320896Y-42368D01*
X320884Y-42351D01*
X320874Y-42343D01*
X320856Y-42322D01*
X313478Y-34944D01*
X313399Y-34884D01*
X313327Y-34816D01*
X313274Y-34787D01*
X313226Y-34750D01*
X313135Y-34710D01*
X313049Y-34662D01*
X312990Y-34647D01*
X312935Y-34623D01*
X312837Y-34608D01*
X312741Y-34583D01*
X312641Y-34577D01*
X312620Y-34573D01*
X312608Y-34575D01*
X312580Y-34573D01*
X257420Y-34573D01*
X257322Y-34585D01*
X257223Y-34588D01*
X257164Y-34605D01*
X257104Y-34613D01*
X257012Y-34649D01*
X256917Y-34677D01*
X256865Y-34707D01*
X256809Y-34730D01*
X256729Y-34788D01*
X256643Y-34838D01*
X256568Y-34904D01*
X256551Y-34916D01*
X256543Y-34926D01*
X256522Y-34944D01*
X236894Y-54573D01*
X221802Y-54573D01*
X221684Y-54588D01*
X221565Y-54595D01*
X221527Y-54608D01*
X221486Y-54613D01*
X221376Y-54656D01*
X221263Y-54693D01*
X221228Y-54715D01*
X221191Y-54730D01*
X221095Y-54799D01*
X220994Y-54863D01*
X220966Y-54893D01*
X220933Y-54916D01*
X220857Y-55008D01*
X220776Y-55095D01*
X220756Y-55130D01*
X220731Y-55161D01*
X220680Y-55269D01*
X220622Y-55373D01*
X220612Y-55413D01*
X220595Y-55449D01*
X220573Y-55566D01*
X220543Y-55681D01*
X220539Y-55741D01*
X220535Y-55761D01*
X220537Y-55782D01*
X220533Y-55842D01*
X220533Y-56342D01*
X219342Y-57533D01*
X207658Y-57533D01*
X206467Y-56342D01*
X206467Y-43658D01*
X207658Y-42467D01*
X219342Y-42467D01*
X220533Y-43658D01*
X220533Y-44158D01*
X220548Y-44276D01*
X220555Y-44395D01*
X220568Y-44433D01*
X220573Y-44474D01*
X220616Y-44584D01*
X220653Y-44697D01*
X220675Y-44732D01*
X220690Y-44769D01*
X220759Y-44865D01*
X220823Y-44966D01*
X220853Y-44994D01*
X220876Y-45027D01*
X220968Y-45103D01*
X221055Y-45184D01*
X221090Y-45204D01*
X221121Y-45229D01*
X221229Y-45280D01*
X221333Y-45338D01*
X221373Y-45348D01*
X221409Y-45365D01*
X221526Y-45387D01*
X221641Y-45417D01*
X221701Y-45421D01*
X221721Y-45425D01*
X221742Y-45423D01*
X221802Y-45427D01*
X232580Y-45427D01*
X232678Y-45415D01*
X232777Y-45412D01*
X232836Y-45395D01*
X232896Y-45387D01*
X232988Y-45351D01*
X233083Y-45323D01*
X233135Y-45293D01*
X233191Y-45270D01*
X233271Y-45212D01*
X233357Y-45162D01*
X233432Y-45096D01*
X233449Y-45084D01*
X233457Y-45074D01*
X233478Y-45056D01*
X253106Y-25427D01*
X316894Y-25427D01*
X330373Y-38906D01*
X330373Y-49104D01*
X330376Y-49133D01*
X330374Y-49163D01*
X330396Y-49291D01*
X330413Y-49420D01*
X330423Y-49447D01*
X330428Y-49476D01*
X330482Y-49595D01*
X330530Y-49715D01*
X330547Y-49739D01*
X330559Y-49766D01*
X330640Y-49868D01*
X330716Y-49973D01*
X330739Y-49992D01*
X330758Y-50015D01*
X330861Y-50093D01*
X330961Y-50176D01*
X330988Y-50188D01*
X331012Y-50206D01*
X331156Y-50277D01*
X332050Y-50647D01*
X335153Y-53750D01*
X336833Y-57805D01*
X336833Y-62195D01*
X335153Y-66250D01*
X332050Y-69353D01*
X327995Y-71033D01*
X323605Y-71033D01*
G37*
%LPD*%
%LPC*%
G36*
X342658Y92467D02*
X342658Y92467D01*
X341467Y93658D01*
X341467Y106342D01*
X342658Y107533D01*
X349040Y107533D01*
X349138Y107545D01*
X349237Y107548D01*
X349296Y107565D01*
X349356Y107573D01*
X349448Y107609D01*
X349543Y107637D01*
X349595Y107667D01*
X349651Y107690D01*
X349731Y107748D01*
X349817Y107798D01*
X349892Y107864D01*
X349909Y107876D01*
X349917Y107886D01*
X349938Y107904D01*
X356606Y114573D01*
X449458Y114573D01*
X449576Y114588D01*
X449695Y114595D01*
X449733Y114608D01*
X449774Y114613D01*
X449884Y114656D01*
X449997Y114693D01*
X450032Y114715D01*
X450069Y114730D01*
X450165Y114799D01*
X450266Y114863D01*
X450294Y114893D01*
X450327Y114916D01*
X450403Y115008D01*
X450484Y115095D01*
X450504Y115130D01*
X450529Y115161D01*
X450580Y115269D01*
X450638Y115373D01*
X450648Y115413D01*
X450665Y115449D01*
X450687Y115566D01*
X450717Y115681D01*
X450721Y115741D01*
X450725Y115761D01*
X450723Y115782D01*
X450727Y115842D01*
X450727Y123358D01*
X450712Y123476D01*
X450705Y123595D01*
X450692Y123633D01*
X450687Y123674D01*
X450644Y123784D01*
X450607Y123897D01*
X450585Y123932D01*
X450570Y123969D01*
X450501Y124065D01*
X450437Y124166D01*
X450407Y124194D01*
X450384Y124227D01*
X450292Y124303D01*
X450205Y124384D01*
X450170Y124404D01*
X450139Y124429D01*
X450031Y124480D01*
X449927Y124538D01*
X449887Y124548D01*
X449851Y124565D01*
X449734Y124587D01*
X449619Y124617D01*
X449559Y124621D01*
X449539Y124625D01*
X449518Y124623D01*
X449458Y124627D01*
X448018Y124627D01*
X446827Y125818D01*
X446827Y140382D01*
X448018Y141573D01*
X462582Y141573D01*
X463773Y140382D01*
X463773Y125818D01*
X462582Y124627D01*
X461142Y124627D01*
X461024Y124612D01*
X460905Y124605D01*
X460867Y124592D01*
X460826Y124587D01*
X460716Y124544D01*
X460603Y124507D01*
X460568Y124485D01*
X460531Y124470D01*
X460435Y124401D01*
X460334Y124337D01*
X460306Y124307D01*
X460273Y124284D01*
X460197Y124192D01*
X460116Y124105D01*
X460096Y124070D01*
X460071Y124039D01*
X460020Y123931D01*
X459962Y123827D01*
X459952Y123787D01*
X459935Y123751D01*
X459913Y123634D01*
X459883Y123519D01*
X459879Y123459D01*
X459875Y123439D01*
X459877Y123418D01*
X459873Y123358D01*
X459873Y115635D01*
X459885Y115537D01*
X459888Y115438D01*
X459905Y115380D01*
X459913Y115320D01*
X459949Y115228D01*
X459977Y115133D01*
X460007Y115080D01*
X460030Y115024D01*
X460088Y114944D01*
X460138Y114859D01*
X460204Y114783D01*
X460216Y114767D01*
X460226Y114759D01*
X460244Y114738D01*
X462483Y112499D01*
X463773Y109385D01*
X463773Y106015D01*
X462483Y102901D01*
X460099Y100517D01*
X456985Y99227D01*
X453615Y99227D01*
X450501Y100517D01*
X448117Y102901D01*
X447395Y104644D01*
X447380Y104669D01*
X447371Y104697D01*
X447302Y104807D01*
X447238Y104920D01*
X447217Y104941D01*
X447201Y104966D01*
X447107Y105055D01*
X447016Y105148D01*
X446991Y105164D01*
X446970Y105184D01*
X446856Y105247D01*
X446745Y105315D01*
X446717Y105323D01*
X446691Y105338D01*
X446565Y105370D01*
X446441Y105408D01*
X446412Y105410D01*
X446383Y105417D01*
X446222Y105427D01*
X360920Y105427D01*
X360822Y105415D01*
X360723Y105412D01*
X360664Y105395D01*
X360604Y105387D01*
X360512Y105351D01*
X360417Y105323D01*
X360365Y105293D01*
X360309Y105270D01*
X360229Y105212D01*
X360143Y105162D01*
X360068Y105096D01*
X360051Y105084D01*
X360043Y105074D01*
X360022Y105056D01*
X355904Y100938D01*
X355844Y100859D01*
X355776Y100787D01*
X355747Y100734D01*
X355710Y100686D01*
X355670Y100595D01*
X355622Y100509D01*
X355607Y100450D01*
X355583Y100395D01*
X355568Y100297D01*
X355543Y100201D01*
X355537Y100101D01*
X355533Y100080D01*
X355535Y100068D01*
X355533Y100040D01*
X355533Y93658D01*
X354342Y92467D01*
X342658Y92467D01*
G37*
%LPD*%
%LPC*%
G36*
X514999Y1245D02*
X514999Y1245D01*
X514999Y2516D01*
X514984Y2634D01*
X514977Y2753D01*
X514964Y2791D01*
X514959Y2831D01*
X514915Y2942D01*
X514879Y3055D01*
X514857Y3090D01*
X514842Y3127D01*
X514772Y3223D01*
X514709Y3324D01*
X514679Y3352D01*
X514655Y3384D01*
X514564Y3460D01*
X514477Y3542D01*
X514442Y3561D01*
X514410Y3587D01*
X514303Y3638D01*
X514199Y3695D01*
X514159Y3706D01*
X514123Y3723D01*
X514006Y3745D01*
X513891Y3775D01*
X513830Y3779D01*
X513810Y3783D01*
X513790Y3781D01*
X513730Y3785D01*
X505133Y3785D01*
X505133Y7403D01*
X505306Y8050D01*
X505640Y8629D01*
X506113Y9102D01*
X506275Y9195D01*
X506375Y9271D01*
X506479Y9342D01*
X506501Y9367D01*
X506528Y9387D01*
X506607Y9486D01*
X506690Y9580D01*
X506705Y9610D01*
X506726Y9637D01*
X506777Y9752D01*
X506834Y9864D01*
X506842Y9896D01*
X506855Y9927D01*
X506876Y10051D01*
X506904Y10174D01*
X506903Y10207D01*
X506908Y10241D01*
X506898Y10366D01*
X506894Y10492D01*
X506885Y10524D01*
X506882Y10558D01*
X506841Y10676D01*
X506806Y10797D01*
X506789Y10826D01*
X506778Y10858D01*
X506708Y10963D01*
X506644Y11071D01*
X506612Y11108D01*
X506602Y11123D01*
X506586Y11138D01*
X506538Y11192D01*
X505641Y12089D01*
X505641Y12658D01*
X505626Y12776D01*
X505618Y12895D01*
X505606Y12933D01*
X505601Y12974D01*
X505557Y13084D01*
X505520Y13197D01*
X505499Y13232D01*
X505484Y13269D01*
X505414Y13365D01*
X505350Y13466D01*
X505321Y13494D01*
X505297Y13527D01*
X505205Y13603D01*
X505119Y13684D01*
X505083Y13704D01*
X505052Y13729D01*
X504944Y13780D01*
X504840Y13838D01*
X504801Y13848D01*
X504764Y13865D01*
X504648Y13887D01*
X504532Y13917D01*
X504472Y13921D01*
X504452Y13925D01*
X504432Y13923D01*
X504372Y13927D01*
X493802Y13927D01*
X493684Y13912D01*
X493565Y13905D01*
X493527Y13892D01*
X493486Y13887D01*
X493376Y13844D01*
X493263Y13807D01*
X493228Y13785D01*
X493191Y13770D01*
X493095Y13701D01*
X492994Y13637D01*
X492966Y13607D01*
X492933Y13584D01*
X492857Y13492D01*
X492776Y13405D01*
X492756Y13370D01*
X492731Y13339D01*
X492680Y13231D01*
X492622Y13127D01*
X492612Y13087D01*
X492595Y13051D01*
X492573Y12934D01*
X492543Y12819D01*
X492539Y12759D01*
X492535Y12739D01*
X492537Y12718D01*
X492533Y12658D01*
X491342Y11467D01*
X478658Y11467D01*
X477467Y12658D01*
X477467Y24342D01*
X478658Y25533D01*
X491342Y25533D01*
X492533Y24342D01*
X492548Y24224D01*
X492555Y24105D01*
X492568Y24067D01*
X492573Y24026D01*
X492617Y23915D01*
X492653Y23803D01*
X492675Y23768D01*
X492690Y23731D01*
X492759Y23635D01*
X492823Y23534D01*
X492853Y23506D01*
X492876Y23473D01*
X492968Y23397D01*
X493055Y23316D01*
X493090Y23296D01*
X493121Y23271D01*
X493229Y23220D01*
X493333Y23162D01*
X493373Y23152D01*
X493409Y23135D01*
X493526Y23113D01*
X493641Y23083D01*
X493701Y23079D01*
X493721Y23075D01*
X493742Y23077D01*
X493802Y23073D01*
X504372Y23073D01*
X504490Y23088D01*
X504608Y23095D01*
X504647Y23108D01*
X504687Y23113D01*
X504798Y23156D01*
X504911Y23193D01*
X504945Y23215D01*
X504983Y23230D01*
X505079Y23299D01*
X505180Y23363D01*
X505207Y23393D01*
X505240Y23416D01*
X505316Y23508D01*
X505398Y23595D01*
X505417Y23630D01*
X505443Y23661D01*
X505494Y23769D01*
X505551Y23873D01*
X505561Y23913D01*
X505578Y23949D01*
X505601Y24066D01*
X505631Y24181D01*
X505634Y24241D01*
X505638Y24261D01*
X505637Y24282D01*
X505641Y24342D01*
X505641Y25419D01*
X506832Y26610D01*
X523168Y26610D01*
X524359Y25419D01*
X524359Y24596D01*
X524374Y24478D01*
X524382Y24359D01*
X524394Y24321D01*
X524399Y24280D01*
X524443Y24170D01*
X524480Y24057D01*
X524501Y24022D01*
X524516Y23985D01*
X524586Y23889D01*
X524650Y23788D01*
X524679Y23760D01*
X524703Y23727D01*
X524795Y23651D01*
X524881Y23570D01*
X524917Y23550D01*
X524948Y23525D01*
X525056Y23474D01*
X525160Y23416D01*
X525199Y23406D01*
X525236Y23389D01*
X525352Y23367D01*
X525468Y23337D01*
X525528Y23333D01*
X525548Y23329D01*
X525568Y23331D01*
X525628Y23327D01*
X532622Y23327D01*
X532740Y23342D01*
X532858Y23349D01*
X532897Y23362D01*
X532937Y23367D01*
X533048Y23410D01*
X533161Y23447D01*
X533195Y23469D01*
X533233Y23484D01*
X533329Y23553D01*
X533430Y23617D01*
X533457Y23647D01*
X533490Y23670D01*
X533566Y23762D01*
X533648Y23849D01*
X533667Y23884D01*
X533693Y23915D01*
X533744Y24023D01*
X533801Y24127D01*
X533811Y24167D01*
X533828Y24203D01*
X533851Y24320D01*
X533881Y24435D01*
X533884Y24495D01*
X533888Y24515D01*
X533887Y24536D01*
X533891Y24596D01*
X533891Y26419D01*
X535082Y27610D01*
X539158Y27610D01*
X539276Y27625D01*
X539395Y27632D01*
X539433Y27645D01*
X539474Y27650D01*
X539584Y27693D01*
X539697Y27730D01*
X539732Y27752D01*
X539769Y27767D01*
X539865Y27836D01*
X539966Y27900D01*
X539994Y27930D01*
X540027Y27953D01*
X540103Y28045D01*
X540184Y28132D01*
X540204Y28167D01*
X540229Y28198D01*
X540280Y28306D01*
X540338Y28410D01*
X540348Y28450D01*
X540365Y28486D01*
X540387Y28603D01*
X540417Y28718D01*
X540421Y28778D01*
X540425Y28798D01*
X540423Y28819D01*
X540427Y28879D01*
X540427Y42580D01*
X540415Y42678D01*
X540412Y42777D01*
X540395Y42836D01*
X540387Y42896D01*
X540351Y42988D01*
X540323Y43083D01*
X540293Y43135D01*
X540270Y43191D01*
X540212Y43271D01*
X540162Y43357D01*
X540096Y43432D01*
X540084Y43449D01*
X540074Y43457D01*
X540056Y43478D01*
X535478Y48056D01*
X535399Y48116D01*
X535327Y48184D01*
X535274Y48213D01*
X535226Y48250D01*
X535135Y48290D01*
X535049Y48338D01*
X534990Y48353D01*
X534935Y48377D01*
X534837Y48392D01*
X534741Y48417D01*
X534641Y48423D01*
X534620Y48427D01*
X534608Y48425D01*
X534580Y48427D01*
X533015Y48427D01*
X529901Y49717D01*
X527517Y52101D01*
X526227Y55215D01*
X526227Y58585D01*
X527517Y61699D01*
X529901Y64083D01*
X533015Y65373D01*
X536385Y65373D01*
X539499Y64083D01*
X541883Y61699D01*
X543173Y58585D01*
X543173Y55215D01*
X542935Y54640D01*
X542927Y54612D01*
X542914Y54585D01*
X542885Y54459D01*
X542851Y54333D01*
X542850Y54304D01*
X542844Y54275D01*
X542848Y54145D01*
X542846Y54015D01*
X542853Y53987D01*
X542854Y53957D01*
X542890Y53833D01*
X542920Y53706D01*
X542934Y53680D01*
X542942Y53652D01*
X543008Y53540D01*
X543069Y53425D01*
X543089Y53403D01*
X543104Y53378D01*
X543210Y53257D01*
X549573Y46894D01*
X549573Y28879D01*
X549588Y28761D01*
X549595Y28642D01*
X549608Y28604D01*
X549613Y28563D01*
X549656Y28453D01*
X549693Y28340D01*
X549715Y28305D01*
X549730Y28268D01*
X549799Y28172D01*
X549863Y28071D01*
X549893Y28043D01*
X549916Y28010D01*
X550008Y27934D01*
X550095Y27853D01*
X550130Y27833D01*
X550161Y27808D01*
X550269Y27757D01*
X550373Y27699D01*
X550413Y27689D01*
X550449Y27672D01*
X550566Y27650D01*
X550681Y27620D01*
X550741Y27616D01*
X550761Y27612D01*
X550782Y27614D01*
X550842Y27610D01*
X554918Y27610D01*
X556109Y26419D01*
X556109Y13089D01*
X554918Y11898D01*
X535082Y11898D01*
X533871Y13109D01*
X533868Y13149D01*
X533856Y13187D01*
X533851Y13228D01*
X533807Y13338D01*
X533770Y13451D01*
X533749Y13486D01*
X533734Y13523D01*
X533664Y13619D01*
X533600Y13720D01*
X533571Y13748D01*
X533547Y13781D01*
X533455Y13857D01*
X533369Y13938D01*
X533333Y13958D01*
X533302Y13983D01*
X533194Y14034D01*
X533090Y14092D01*
X533051Y14102D01*
X533014Y14119D01*
X532898Y14141D01*
X532782Y14171D01*
X532722Y14175D01*
X532702Y14179D01*
X532682Y14177D01*
X532622Y14181D01*
X525842Y14181D01*
X525724Y14166D01*
X525605Y14159D01*
X525567Y14146D01*
X525526Y14141D01*
X525416Y14098D01*
X525303Y14061D01*
X525268Y14039D01*
X525231Y14024D01*
X525135Y13955D01*
X525034Y13891D01*
X525006Y13861D01*
X524973Y13838D01*
X524897Y13746D01*
X524816Y13659D01*
X524796Y13624D01*
X524771Y13593D01*
X524720Y13485D01*
X524662Y13381D01*
X524652Y13341D01*
X524635Y13305D01*
X524613Y13188D01*
X524586Y13084D01*
X524573Y13061D01*
X524536Y13013D01*
X524497Y12922D01*
X524449Y12835D01*
X524434Y12777D01*
X524410Y12721D01*
X524394Y12623D01*
X524369Y12527D01*
X524363Y12427D01*
X524360Y12407D01*
X524361Y12395D01*
X524359Y12367D01*
X524359Y12089D01*
X523462Y11192D01*
X523385Y11093D01*
X523303Y10998D01*
X523288Y10967D01*
X523267Y10941D01*
X523217Y10825D01*
X523161Y10713D01*
X523154Y10680D01*
X523141Y10649D01*
X523121Y10525D01*
X523095Y10402D01*
X523096Y10368D01*
X523091Y10335D01*
X523103Y10210D01*
X523108Y10084D01*
X523118Y10052D01*
X523121Y10018D01*
X523163Y9900D01*
X523200Y9780D01*
X523217Y9751D01*
X523228Y9719D01*
X523299Y9615D01*
X523364Y9507D01*
X523388Y9484D01*
X523407Y9456D01*
X523501Y9372D01*
X523591Y9285D01*
X523632Y9257D01*
X523645Y9245D01*
X523665Y9235D01*
X523725Y9195D01*
X523886Y9102D01*
X524360Y8629D01*
X524694Y8050D01*
X524867Y7403D01*
X524867Y3785D01*
X516270Y3785D01*
X516152Y3770D01*
X516033Y3763D01*
X515995Y3750D01*
X515955Y3745D01*
X515844Y3701D01*
X515731Y3665D01*
X515696Y3643D01*
X515659Y3628D01*
X515563Y3558D01*
X515462Y3495D01*
X515434Y3465D01*
X515402Y3441D01*
X515326Y3350D01*
X515244Y3263D01*
X515225Y3228D01*
X515199Y3196D01*
X515148Y3089D01*
X515091Y2985D01*
X515080Y2945D01*
X515063Y2909D01*
X515041Y2792D01*
X515011Y2677D01*
X515007Y2616D01*
X515003Y2596D01*
X515005Y2576D01*
X515001Y2516D01*
X515001Y1245D01*
X514999Y1245D01*
G37*
%LPD*%
%LPC*%
G36*
X425205Y-71033D02*
X425205Y-71033D01*
X421150Y-69353D01*
X418047Y-66250D01*
X416367Y-62195D01*
X416367Y-57805D01*
X418047Y-53750D01*
X421150Y-50647D01*
X425205Y-48967D01*
X429595Y-48967D01*
X433650Y-50647D01*
X436753Y-53750D01*
X437123Y-54644D01*
X437138Y-54669D01*
X437147Y-54697D01*
X437216Y-54807D01*
X437281Y-54920D01*
X437301Y-54941D01*
X437317Y-54966D01*
X437411Y-55055D01*
X437502Y-55148D01*
X437527Y-55164D01*
X437549Y-55184D01*
X437662Y-55247D01*
X437773Y-55315D01*
X437801Y-55323D01*
X437827Y-55338D01*
X437953Y-55370D01*
X438077Y-55408D01*
X438106Y-55410D01*
X438135Y-55417D01*
X438296Y-55427D01*
X462580Y-55427D01*
X462678Y-55415D01*
X462777Y-55412D01*
X462836Y-55395D01*
X462896Y-55387D01*
X462988Y-55351D01*
X463083Y-55323D01*
X463135Y-55293D01*
X463191Y-55270D01*
X463271Y-55212D01*
X463357Y-55162D01*
X463432Y-55096D01*
X463449Y-55084D01*
X463457Y-55074D01*
X463478Y-55056D01*
X480056Y-38478D01*
X480116Y-38399D01*
X480184Y-38327D01*
X480213Y-38274D01*
X480250Y-38226D01*
X480290Y-38135D01*
X480338Y-38049D01*
X480353Y-37990D01*
X480377Y-37935D01*
X480392Y-37837D01*
X480417Y-37741D01*
X480423Y-37641D01*
X480427Y-37620D01*
X480425Y-37608D01*
X480427Y-37580D01*
X480427Y-6802D01*
X480412Y-6684D01*
X480405Y-6565D01*
X480392Y-6527D01*
X480387Y-6486D01*
X480344Y-6376D01*
X480307Y-6263D01*
X480285Y-6228D01*
X480270Y-6191D01*
X480201Y-6095D01*
X480137Y-5994D01*
X480107Y-5966D01*
X480084Y-5933D01*
X479992Y-5857D01*
X479905Y-5776D01*
X479870Y-5756D01*
X479839Y-5731D01*
X479731Y-5680D01*
X479627Y-5622D01*
X479587Y-5612D01*
X479551Y-5595D01*
X479434Y-5573D01*
X479319Y-5543D01*
X479259Y-5539D01*
X479239Y-5535D01*
X479218Y-5537D01*
X479158Y-5533D01*
X478658Y-5533D01*
X477467Y-4342D01*
X477467Y7342D01*
X478658Y8533D01*
X491342Y8533D01*
X492533Y7342D01*
X492533Y-4342D01*
X491342Y-5533D01*
X490842Y-5533D01*
X490724Y-5548D01*
X490605Y-5555D01*
X490567Y-5568D01*
X490526Y-5573D01*
X490416Y-5616D01*
X490303Y-5653D01*
X490268Y-5675D01*
X490231Y-5690D01*
X490135Y-5759D01*
X490034Y-5823D01*
X490006Y-5853D01*
X489973Y-5876D01*
X489897Y-5968D01*
X489816Y-6055D01*
X489796Y-6090D01*
X489771Y-6121D01*
X489720Y-6229D01*
X489662Y-6333D01*
X489652Y-6373D01*
X489635Y-6409D01*
X489613Y-6526D01*
X489583Y-6641D01*
X489579Y-6701D01*
X489575Y-6721D01*
X489575Y-6723D01*
X489577Y-6743D01*
X489573Y-6802D01*
X489573Y-41894D01*
X466894Y-64573D01*
X438296Y-64573D01*
X438267Y-64576D01*
X438237Y-64574D01*
X438109Y-64596D01*
X437980Y-64613D01*
X437953Y-64623D01*
X437924Y-64628D01*
X437805Y-64682D01*
X437685Y-64730D01*
X437661Y-64747D01*
X437634Y-64759D01*
X437532Y-64840D01*
X437427Y-64916D01*
X437408Y-64939D01*
X437385Y-64958D01*
X437307Y-65061D01*
X437224Y-65161D01*
X437212Y-65188D01*
X437194Y-65212D01*
X437123Y-65356D01*
X436753Y-66250D01*
X433650Y-69353D01*
X429595Y-71033D01*
X425205Y-71033D01*
G37*
%LPD*%
%LPC*%
G36*
X378595Y172935D02*
X378595Y172935D01*
X375998Y174011D01*
X374011Y175998D01*
X372935Y178595D01*
X372935Y180072D01*
X372923Y180170D01*
X372920Y180269D01*
X372903Y180328D01*
X372895Y180388D01*
X372859Y180480D01*
X372831Y180575D01*
X372801Y180627D01*
X372778Y180683D01*
X372720Y180763D01*
X372670Y180849D01*
X372604Y180924D01*
X372592Y180941D01*
X372582Y180949D01*
X372564Y180970D01*
X370406Y183128D01*
X370327Y183188D01*
X370255Y183256D01*
X370202Y183285D01*
X370154Y183322D01*
X370063Y183362D01*
X369977Y183410D01*
X369918Y183425D01*
X369863Y183449D01*
X369765Y183464D01*
X369669Y183489D01*
X369569Y183495D01*
X369548Y183499D01*
X369536Y183497D01*
X369508Y183499D01*
X258019Y183499D01*
X258010Y183498D01*
X258001Y183499D01*
X257852Y183478D01*
X257704Y183459D01*
X257695Y183456D01*
X257686Y183455D01*
X257534Y183403D01*
X256405Y182935D01*
X253595Y182935D01*
X250998Y184011D01*
X249011Y185998D01*
X247935Y188595D01*
X247935Y191405D01*
X249011Y194002D01*
X250998Y195989D01*
X253595Y197065D01*
X256405Y197065D01*
X259002Y195989D01*
X260989Y194002D01*
X261227Y193428D01*
X261241Y193403D01*
X261250Y193375D01*
X261320Y193265D01*
X261384Y193152D01*
X261405Y193131D01*
X261421Y193106D01*
X261515Y193017D01*
X261606Y192924D01*
X261631Y192908D01*
X261652Y192888D01*
X261766Y192825D01*
X261877Y192757D01*
X261905Y192749D01*
X261931Y192734D01*
X262056Y192702D01*
X262181Y192664D01*
X262210Y192662D01*
X262239Y192655D01*
X262399Y192645D01*
X373822Y192645D01*
X379030Y187436D01*
X379109Y187376D01*
X379181Y187308D01*
X379234Y187279D01*
X379282Y187242D01*
X379373Y187202D01*
X379459Y187154D01*
X379518Y187139D01*
X379573Y187115D01*
X379671Y187100D01*
X379767Y187075D01*
X379867Y187069D01*
X379888Y187065D01*
X379900Y187067D01*
X379928Y187065D01*
X381405Y187065D01*
X384002Y185989D01*
X385989Y184002D01*
X387065Y181405D01*
X387065Y178595D01*
X385989Y175998D01*
X384002Y174011D01*
X381405Y172935D01*
X378595Y172935D01*
G37*
%LPD*%
%LPC*%
G36*
X247658Y62467D02*
X247658Y62467D01*
X246467Y63658D01*
X246467Y76342D01*
X247658Y77533D01*
X259342Y77533D01*
X260533Y76342D01*
X260533Y75842D01*
X260548Y75724D01*
X260555Y75605D01*
X260568Y75567D01*
X260573Y75526D01*
X260616Y75416D01*
X260653Y75303D01*
X260675Y75268D01*
X260690Y75231D01*
X260759Y75135D01*
X260823Y75034D01*
X260853Y75006D01*
X260876Y74973D01*
X260968Y74897D01*
X261055Y74816D01*
X261090Y74796D01*
X261121Y74771D01*
X261229Y74720D01*
X261333Y74662D01*
X261373Y74652D01*
X261409Y74635D01*
X261526Y74613D01*
X261641Y74583D01*
X261701Y74579D01*
X261721Y74575D01*
X261742Y74577D01*
X261802Y74573D01*
X276080Y74573D01*
X276178Y74585D01*
X276277Y74588D01*
X276336Y74605D01*
X276396Y74613D01*
X276488Y74649D01*
X276583Y74677D01*
X276635Y74707D01*
X276691Y74730D01*
X276771Y74788D01*
X276857Y74838D01*
X276932Y74904D01*
X276949Y74916D01*
X276957Y74926D01*
X276978Y74944D01*
X290056Y88022D01*
X290116Y88101D01*
X290184Y88173D01*
X290213Y88226D01*
X290250Y88274D01*
X290290Y88365D01*
X290338Y88451D01*
X290353Y88510D01*
X290377Y88565D01*
X290392Y88663D01*
X290417Y88759D01*
X290423Y88859D01*
X290427Y88880D01*
X290425Y88892D01*
X290427Y88920D01*
X290427Y98198D01*
X290412Y98316D01*
X290405Y98435D01*
X290392Y98473D01*
X290387Y98514D01*
X290344Y98624D01*
X290307Y98737D01*
X290285Y98772D01*
X290270Y98809D01*
X290201Y98905D01*
X290137Y99006D01*
X290107Y99034D01*
X290084Y99067D01*
X289992Y99143D01*
X289905Y99224D01*
X289870Y99244D01*
X289839Y99269D01*
X289731Y99320D01*
X289627Y99378D01*
X289587Y99388D01*
X289551Y99405D01*
X289434Y99427D01*
X289319Y99457D01*
X289259Y99461D01*
X289239Y99465D01*
X289218Y99463D01*
X289158Y99467D01*
X288658Y99467D01*
X287467Y100658D01*
X287467Y112342D01*
X288658Y113533D01*
X301342Y113533D01*
X302533Y112342D01*
X302548Y112224D01*
X302555Y112105D01*
X302568Y112067D01*
X302573Y112026D01*
X302616Y111916D01*
X302653Y111803D01*
X302675Y111768D01*
X302690Y111731D01*
X302759Y111635D01*
X302823Y111534D01*
X302853Y111506D01*
X302876Y111473D01*
X302968Y111397D01*
X303055Y111316D01*
X303090Y111296D01*
X303121Y111271D01*
X303229Y111220D01*
X303333Y111162D01*
X303373Y111152D01*
X303409Y111135D01*
X303526Y111113D01*
X303641Y111083D01*
X303701Y111079D01*
X303721Y111075D01*
X303742Y111077D01*
X303802Y111073D01*
X315394Y111073D01*
X321522Y104944D01*
X321601Y104884D01*
X321673Y104816D01*
X321726Y104787D01*
X321774Y104750D01*
X321865Y104710D01*
X321951Y104662D01*
X322010Y104647D01*
X322065Y104623D01*
X322163Y104608D01*
X322259Y104583D01*
X322359Y104577D01*
X322380Y104573D01*
X322392Y104575D01*
X322420Y104573D01*
X323198Y104573D01*
X323316Y104588D01*
X323435Y104595D01*
X323473Y104608D01*
X323514Y104613D01*
X323624Y104656D01*
X323737Y104693D01*
X323772Y104715D01*
X323809Y104730D01*
X323905Y104799D01*
X324006Y104863D01*
X324034Y104893D01*
X324067Y104916D01*
X324143Y105008D01*
X324224Y105095D01*
X324244Y105130D01*
X324269Y105161D01*
X324320Y105269D01*
X324378Y105373D01*
X324388Y105413D01*
X324405Y105449D01*
X324427Y105566D01*
X324457Y105681D01*
X324461Y105741D01*
X324465Y105761D01*
X324463Y105782D01*
X324467Y105842D01*
X324467Y106342D01*
X325658Y107533D01*
X337342Y107533D01*
X338533Y106342D01*
X338533Y93658D01*
X337342Y92467D01*
X325658Y92467D01*
X324467Y93658D01*
X324467Y94158D01*
X324452Y94276D01*
X324445Y94395D01*
X324432Y94433D01*
X324427Y94474D01*
X324384Y94584D01*
X324347Y94697D01*
X324325Y94732D01*
X324310Y94769D01*
X324241Y94865D01*
X324177Y94966D01*
X324147Y94994D01*
X324124Y95027D01*
X324032Y95103D01*
X323945Y95184D01*
X323910Y95204D01*
X323879Y95229D01*
X323771Y95280D01*
X323667Y95338D01*
X323627Y95348D01*
X323591Y95365D01*
X323474Y95387D01*
X323359Y95417D01*
X323299Y95421D01*
X323279Y95425D01*
X323258Y95423D01*
X323198Y95427D01*
X318106Y95427D01*
X311978Y101556D01*
X311899Y101616D01*
X311827Y101684D01*
X311774Y101713D01*
X311726Y101750D01*
X311635Y101790D01*
X311549Y101838D01*
X311490Y101853D01*
X311435Y101877D01*
X311337Y101892D01*
X311241Y101917D01*
X311141Y101923D01*
X311120Y101927D01*
X311108Y101925D01*
X311080Y101927D01*
X303802Y101927D01*
X303684Y101912D01*
X303565Y101905D01*
X303527Y101892D01*
X303486Y101887D01*
X303376Y101844D01*
X303263Y101807D01*
X303228Y101785D01*
X303191Y101770D01*
X303095Y101701D01*
X302994Y101637D01*
X302966Y101607D01*
X302933Y101584D01*
X302857Y101492D01*
X302776Y101405D01*
X302756Y101370D01*
X302731Y101339D01*
X302680Y101231D01*
X302622Y101127D01*
X302612Y101087D01*
X302595Y101051D01*
X302573Y100934D01*
X302543Y100819D01*
X302539Y100759D01*
X302535Y100739D01*
X302537Y100718D01*
X302533Y100658D01*
X301342Y99467D01*
X300842Y99467D01*
X300724Y99452D01*
X300605Y99445D01*
X300567Y99432D01*
X300526Y99427D01*
X300416Y99384D01*
X300303Y99347D01*
X300268Y99325D01*
X300231Y99310D01*
X300135Y99241D01*
X300034Y99177D01*
X300006Y99147D01*
X299973Y99124D01*
X299897Y99032D01*
X299816Y98945D01*
X299796Y98910D01*
X299771Y98879D01*
X299720Y98771D01*
X299662Y98667D01*
X299652Y98627D01*
X299635Y98591D01*
X299613Y98474D01*
X299583Y98359D01*
X299579Y98299D01*
X299575Y98279D01*
X299577Y98258D01*
X299573Y98198D01*
X299573Y84606D01*
X280394Y65427D01*
X261802Y65427D01*
X261684Y65412D01*
X261565Y65405D01*
X261527Y65392D01*
X261486Y65387D01*
X261376Y65344D01*
X261263Y65307D01*
X261228Y65285D01*
X261191Y65270D01*
X261095Y65201D01*
X260994Y65137D01*
X260966Y65107D01*
X260933Y65084D01*
X260857Y64992D01*
X260776Y64905D01*
X260756Y64870D01*
X260731Y64839D01*
X260680Y64731D01*
X260622Y64627D01*
X260612Y64587D01*
X260595Y64551D01*
X260573Y64434D01*
X260543Y64319D01*
X260539Y64259D01*
X260535Y64239D01*
X260537Y64218D01*
X260533Y64158D01*
X260533Y63658D01*
X259342Y62467D01*
X247658Y62467D01*
G37*
%LPD*%
%LPC*%
G36*
X288658Y116467D02*
X288658Y116467D01*
X287467Y117658D01*
X287467Y129342D01*
X288658Y130533D01*
X289158Y130533D01*
X289276Y130548D01*
X289395Y130555D01*
X289433Y130568D01*
X289474Y130573D01*
X289584Y130616D01*
X289697Y130653D01*
X289732Y130675D01*
X289769Y130690D01*
X289865Y130759D01*
X289966Y130823D01*
X289994Y130853D01*
X290027Y130876D01*
X290103Y130968D01*
X290184Y131055D01*
X290204Y131090D01*
X290229Y131121D01*
X290280Y131229D01*
X290338Y131333D01*
X290348Y131373D01*
X290365Y131409D01*
X290387Y131526D01*
X290417Y131641D01*
X290421Y131701D01*
X290425Y131721D01*
X290423Y131742D01*
X290427Y131802D01*
X290427Y136080D01*
X290415Y136178D01*
X290412Y136277D01*
X290395Y136336D01*
X290387Y136396D01*
X290351Y136488D01*
X290323Y136583D01*
X290293Y136635D01*
X290270Y136691D01*
X290212Y136771D01*
X290162Y136857D01*
X290096Y136932D01*
X290084Y136949D01*
X290074Y136957D01*
X290056Y136978D01*
X276978Y150056D01*
X276899Y150116D01*
X276827Y150184D01*
X276774Y150213D01*
X276726Y150250D01*
X276635Y150290D01*
X276549Y150338D01*
X276490Y150353D01*
X276435Y150377D01*
X276337Y150392D01*
X276241Y150417D01*
X276141Y150423D01*
X276120Y150427D01*
X276108Y150425D01*
X276080Y150427D01*
X261802Y150427D01*
X261684Y150412D01*
X261565Y150405D01*
X261527Y150392D01*
X261486Y150387D01*
X261376Y150344D01*
X261263Y150307D01*
X261228Y150285D01*
X261191Y150270D01*
X261095Y150201D01*
X260994Y150137D01*
X260966Y150107D01*
X260933Y150084D01*
X260857Y149992D01*
X260776Y149905D01*
X260756Y149870D01*
X260731Y149839D01*
X260680Y149731D01*
X260622Y149627D01*
X260612Y149587D01*
X260595Y149551D01*
X260573Y149434D01*
X260543Y149319D01*
X260539Y149259D01*
X260535Y149239D01*
X260537Y149218D01*
X260533Y149158D01*
X260533Y148658D01*
X259342Y147467D01*
X247658Y147467D01*
X246467Y148658D01*
X246467Y161342D01*
X247658Y162533D01*
X259342Y162533D01*
X260533Y161342D01*
X260533Y160842D01*
X260548Y160724D01*
X260555Y160605D01*
X260568Y160567D01*
X260573Y160526D01*
X260616Y160416D01*
X260653Y160303D01*
X260675Y160268D01*
X260690Y160231D01*
X260759Y160135D01*
X260823Y160034D01*
X260853Y160006D01*
X260876Y159973D01*
X260968Y159897D01*
X261055Y159816D01*
X261090Y159796D01*
X261121Y159771D01*
X261229Y159720D01*
X261333Y159662D01*
X261373Y159652D01*
X261409Y159635D01*
X261526Y159613D01*
X261641Y159583D01*
X261701Y159579D01*
X261721Y159575D01*
X261742Y159577D01*
X261802Y159573D01*
X280394Y159573D01*
X299573Y140394D01*
X299573Y131802D01*
X299588Y131684D01*
X299595Y131565D01*
X299608Y131527D01*
X299613Y131486D01*
X299656Y131376D01*
X299693Y131263D01*
X299715Y131228D01*
X299730Y131191D01*
X299799Y131095D01*
X299863Y130994D01*
X299893Y130966D01*
X299916Y130933D01*
X300008Y130857D01*
X300095Y130776D01*
X300130Y130756D01*
X300161Y130731D01*
X300269Y130680D01*
X300373Y130622D01*
X300413Y130612D01*
X300449Y130595D01*
X300566Y130573D01*
X300681Y130543D01*
X300741Y130539D01*
X300761Y130535D01*
X300782Y130537D01*
X300842Y130533D01*
X301342Y130533D01*
X302533Y129342D01*
X302548Y129224D01*
X302555Y129105D01*
X302568Y129067D01*
X302573Y129026D01*
X302616Y128916D01*
X302653Y128803D01*
X302675Y128768D01*
X302690Y128731D01*
X302759Y128635D01*
X302823Y128534D01*
X302853Y128506D01*
X302876Y128473D01*
X302968Y128397D01*
X303055Y128316D01*
X303090Y128296D01*
X303121Y128271D01*
X303229Y128220D01*
X303333Y128162D01*
X303373Y128152D01*
X303409Y128135D01*
X303526Y128113D01*
X303641Y128083D01*
X303701Y128079D01*
X303721Y128075D01*
X303742Y128077D01*
X303802Y128073D01*
X317580Y128073D01*
X317678Y128085D01*
X317777Y128088D01*
X317836Y128105D01*
X317896Y128113D01*
X317988Y128149D01*
X318083Y128177D01*
X318135Y128207D01*
X318191Y128230D01*
X318271Y128288D01*
X318357Y128338D01*
X318432Y128404D01*
X318449Y128416D01*
X318457Y128426D01*
X318478Y128444D01*
X324096Y134062D01*
X324156Y134141D01*
X324224Y134213D01*
X324253Y134266D01*
X324290Y134314D01*
X324330Y134405D01*
X324378Y134491D01*
X324393Y134550D01*
X324417Y134605D01*
X324432Y134703D01*
X324457Y134799D01*
X324463Y134899D01*
X324467Y134920D01*
X324465Y134932D01*
X324467Y134960D01*
X324467Y141342D01*
X325658Y142533D01*
X337342Y142533D01*
X338533Y141342D01*
X338533Y128658D01*
X337342Y127467D01*
X330960Y127467D01*
X330862Y127455D01*
X330763Y127452D01*
X330704Y127435D01*
X330644Y127427D01*
X330552Y127391D01*
X330457Y127363D01*
X330405Y127333D01*
X330349Y127310D01*
X330268Y127252D01*
X330183Y127202D01*
X330108Y127136D01*
X330091Y127124D01*
X330083Y127114D01*
X330062Y127096D01*
X324944Y121978D01*
X321894Y118927D01*
X303802Y118927D01*
X303684Y118912D01*
X303565Y118905D01*
X303527Y118892D01*
X303486Y118887D01*
X303376Y118844D01*
X303263Y118807D01*
X303228Y118785D01*
X303191Y118770D01*
X303095Y118701D01*
X302994Y118637D01*
X302966Y118607D01*
X302933Y118584D01*
X302857Y118492D01*
X302776Y118405D01*
X302756Y118370D01*
X302731Y118339D01*
X302680Y118231D01*
X302622Y118127D01*
X302612Y118087D01*
X302595Y118051D01*
X302573Y117934D01*
X302543Y117819D01*
X302539Y117759D01*
X302535Y117739D01*
X302537Y117718D01*
X302533Y117658D01*
X301342Y116467D01*
X288658Y116467D01*
G37*
%LPD*%
%LPC*%
G36*
X554158Y195467D02*
X554158Y195467D01*
X552967Y196658D01*
X552967Y199158D01*
X552952Y199276D01*
X552945Y199395D01*
X552932Y199433D01*
X552927Y199474D01*
X552884Y199584D01*
X552847Y199697D01*
X552825Y199732D01*
X552810Y199769D01*
X552741Y199865D01*
X552677Y199966D01*
X552647Y199994D01*
X552624Y200027D01*
X552532Y200103D01*
X552445Y200184D01*
X552410Y200204D01*
X552379Y200229D01*
X552271Y200280D01*
X552167Y200338D01*
X552127Y200348D01*
X552091Y200365D01*
X551974Y200387D01*
X551859Y200417D01*
X551799Y200421D01*
X551779Y200425D01*
X551758Y200423D01*
X551698Y200427D01*
X543106Y200427D01*
X510927Y232606D01*
X510927Y242073D01*
X510924Y242102D01*
X510926Y242132D01*
X510904Y242260D01*
X510887Y242389D01*
X510877Y242416D01*
X510872Y242445D01*
X510818Y242564D01*
X510770Y242684D01*
X510753Y242708D01*
X510741Y242735D01*
X510660Y242836D01*
X510584Y242942D01*
X510561Y242961D01*
X510542Y242984D01*
X510439Y243062D01*
X510339Y243145D01*
X510312Y243157D01*
X510288Y243175D01*
X510144Y243246D01*
X509601Y243471D01*
X506671Y246401D01*
X505085Y250228D01*
X505085Y254372D01*
X506671Y258199D01*
X509601Y261129D01*
X513428Y262715D01*
X517572Y262715D01*
X521399Y261129D01*
X524329Y258199D01*
X525915Y254372D01*
X525915Y250228D01*
X524329Y246401D01*
X521399Y243471D01*
X520856Y243246D01*
X520831Y243231D01*
X520803Y243222D01*
X520693Y243153D01*
X520580Y243088D01*
X520559Y243068D01*
X520534Y243052D01*
X520445Y242957D01*
X520352Y242867D01*
X520336Y242842D01*
X520316Y242820D01*
X520253Y242707D01*
X520185Y242596D01*
X520177Y242568D01*
X520162Y242542D01*
X520130Y242416D01*
X520092Y242292D01*
X520090Y242262D01*
X520083Y242234D01*
X520073Y242073D01*
X520073Y236920D01*
X520085Y236822D01*
X520088Y236723D01*
X520105Y236664D01*
X520113Y236604D01*
X520149Y236512D01*
X520177Y236417D01*
X520207Y236365D01*
X520230Y236309D01*
X520288Y236229D01*
X520338Y236143D01*
X520404Y236068D01*
X520416Y236051D01*
X520426Y236043D01*
X520444Y236022D01*
X546522Y209944D01*
X546601Y209884D01*
X546673Y209816D01*
X546726Y209787D01*
X546774Y209750D01*
X546865Y209710D01*
X546951Y209662D01*
X547010Y209647D01*
X547065Y209623D01*
X547163Y209608D01*
X547259Y209583D01*
X547359Y209577D01*
X547380Y209573D01*
X547392Y209575D01*
X547420Y209573D01*
X551698Y209573D01*
X551816Y209588D01*
X551935Y209595D01*
X551973Y209608D01*
X552014Y209613D01*
X552124Y209656D01*
X552237Y209693D01*
X552272Y209715D01*
X552309Y209730D01*
X552405Y209799D01*
X552506Y209863D01*
X552534Y209893D01*
X552567Y209916D01*
X552643Y210008D01*
X552724Y210095D01*
X552744Y210130D01*
X552769Y210161D01*
X552820Y210269D01*
X552878Y210373D01*
X552888Y210413D01*
X552905Y210449D01*
X552927Y210566D01*
X552957Y210681D01*
X552961Y210741D01*
X552965Y210761D01*
X552963Y210782D01*
X552967Y210842D01*
X552967Y213342D01*
X554158Y214533D01*
X570842Y214533D01*
X572033Y213342D01*
X572033Y196658D01*
X570842Y195467D01*
X554158Y195467D01*
G37*
%LPD*%
%LPC*%
G36*
X484158Y180467D02*
X484158Y180467D01*
X482967Y181658D01*
X482967Y198342D01*
X484158Y199533D01*
X486658Y199533D01*
X486776Y199548D01*
X486895Y199555D01*
X486933Y199568D01*
X486974Y199573D01*
X487084Y199616D01*
X487197Y199653D01*
X487232Y199675D01*
X487269Y199690D01*
X487365Y199759D01*
X487466Y199823D01*
X487494Y199853D01*
X487527Y199876D01*
X487603Y199968D01*
X487684Y200055D01*
X487704Y200090D01*
X487729Y200121D01*
X487780Y200229D01*
X487838Y200333D01*
X487848Y200373D01*
X487865Y200409D01*
X487887Y200526D01*
X487917Y200641D01*
X487921Y200701D01*
X487925Y200721D01*
X487923Y200742D01*
X487927Y200802D01*
X487927Y241079D01*
X487924Y241108D01*
X487926Y241138D01*
X487904Y241266D01*
X487887Y241395D01*
X487877Y241422D01*
X487872Y241451D01*
X487818Y241570D01*
X487770Y241690D01*
X487753Y241714D01*
X487741Y241741D01*
X487660Y241842D01*
X487584Y241948D01*
X487561Y241966D01*
X487542Y241989D01*
X487439Y242067D01*
X487339Y242150D01*
X487312Y242163D01*
X487288Y242181D01*
X487144Y242252D01*
X484201Y243471D01*
X481271Y246401D01*
X479685Y250228D01*
X479685Y254372D01*
X481271Y258199D01*
X484201Y261129D01*
X488028Y262715D01*
X492172Y262715D01*
X495999Y261129D01*
X498929Y258199D01*
X500515Y254372D01*
X500515Y250228D01*
X498929Y246401D01*
X497444Y244916D01*
X497384Y244838D01*
X497316Y244765D01*
X497287Y244712D01*
X497250Y244665D01*
X497210Y244574D01*
X497162Y244487D01*
X497147Y244428D01*
X497123Y244373D01*
X497108Y244275D01*
X497083Y244179D01*
X497077Y244079D01*
X497073Y244059D01*
X497075Y244046D01*
X497073Y244018D01*
X497073Y200802D01*
X497088Y200684D01*
X497095Y200565D01*
X497108Y200527D01*
X497113Y200486D01*
X497156Y200376D01*
X497193Y200263D01*
X497215Y200228D01*
X497230Y200191D01*
X497300Y200094D01*
X497363Y199994D01*
X497393Y199966D01*
X497416Y199933D01*
X497508Y199857D01*
X497595Y199776D01*
X497630Y199756D01*
X497661Y199731D01*
X497769Y199680D01*
X497873Y199622D01*
X497913Y199612D01*
X497949Y199595D01*
X498066Y199573D01*
X498181Y199543D01*
X498241Y199539D01*
X498261Y199535D01*
X498282Y199537D01*
X498342Y199533D01*
X500842Y199533D01*
X502033Y198342D01*
X502033Y181658D01*
X500842Y180467D01*
X484158Y180467D01*
G37*
%LPD*%
%LPC*%
G36*
X589946Y119094D02*
X589946Y119094D01*
X589917Y119122D01*
X589893Y119155D01*
X589801Y119231D01*
X589715Y119312D01*
X589679Y119332D01*
X589648Y119358D01*
X589540Y119408D01*
X589436Y119466D01*
X589397Y119476D01*
X589360Y119493D01*
X589244Y119516D01*
X589128Y119545D01*
X589068Y119549D01*
X589048Y119553D01*
X589028Y119552D01*
X588968Y119556D01*
X582608Y119556D01*
X582608Y122193D01*
X582781Y122839D01*
X583116Y123418D01*
X583589Y123892D01*
X584017Y124139D01*
X584118Y124215D01*
X584221Y124286D01*
X584244Y124311D01*
X584271Y124331D01*
X584349Y124430D01*
X584432Y124524D01*
X584447Y124554D01*
X584468Y124580D01*
X584519Y124695D01*
X584577Y124807D01*
X584584Y124840D01*
X584598Y124871D01*
X584619Y124995D01*
X584646Y125117D01*
X584645Y125151D01*
X584651Y125184D01*
X584640Y125310D01*
X584637Y125435D01*
X584627Y125468D01*
X584624Y125501D01*
X584583Y125620D01*
X584548Y125741D01*
X584531Y125770D01*
X584520Y125802D01*
X584450Y125907D01*
X584387Y126015D01*
X584354Y126051D01*
X584344Y126067D01*
X584328Y126081D01*
X584280Y126136D01*
X583110Y127306D01*
X583101Y127375D01*
X583094Y127494D01*
X583081Y127532D01*
X583076Y127573D01*
X583033Y127683D01*
X582996Y127796D01*
X582974Y127831D01*
X582959Y127868D01*
X582890Y127964D01*
X582826Y128065D01*
X582796Y128093D01*
X582773Y128126D01*
X582681Y128202D01*
X582594Y128283D01*
X582559Y128303D01*
X582528Y128328D01*
X582420Y128379D01*
X582316Y128437D01*
X582276Y128447D01*
X582240Y128464D01*
X582123Y128486D01*
X582008Y128516D01*
X581948Y128520D01*
X581928Y128524D01*
X581907Y128522D01*
X581847Y128526D01*
X574245Y128526D01*
X574127Y128511D01*
X574009Y128504D01*
X573970Y128491D01*
X573930Y128486D01*
X573819Y128443D01*
X573706Y128406D01*
X573672Y128384D01*
X573634Y128369D01*
X573538Y128300D01*
X573437Y128236D01*
X573410Y128206D01*
X573377Y128183D01*
X573301Y128091D01*
X573219Y128004D01*
X573200Y127969D01*
X573174Y127938D01*
X573123Y127830D01*
X573066Y127726D01*
X573056Y127686D01*
X573039Y127650D01*
X573016Y127533D01*
X572986Y127418D01*
X572983Y127358D01*
X572979Y127338D01*
X572980Y127317D01*
X572976Y127257D01*
X572976Y123280D01*
X571785Y122089D01*
X558215Y122089D01*
X557024Y123280D01*
X557024Y127258D01*
X557009Y127376D01*
X557001Y127495D01*
X556989Y127533D01*
X556984Y127574D01*
X556940Y127684D01*
X556903Y127797D01*
X556882Y127832D01*
X556867Y127869D01*
X556797Y127965D01*
X556733Y128066D01*
X556704Y128094D01*
X556680Y128127D01*
X556588Y128203D01*
X556502Y128284D01*
X556466Y128304D01*
X556435Y128329D01*
X556327Y128380D01*
X556223Y128438D01*
X556184Y128448D01*
X556147Y128465D01*
X556031Y128487D01*
X555915Y128517D01*
X555855Y128521D01*
X555835Y128525D01*
X555815Y128523D01*
X555755Y128527D01*
X542635Y128527D01*
X542537Y128515D01*
X542438Y128512D01*
X542380Y128495D01*
X542320Y128487D01*
X542228Y128451D01*
X542133Y128423D01*
X542080Y128393D01*
X542024Y128370D01*
X541944Y128312D01*
X541859Y128262D01*
X541783Y128196D01*
X541767Y128184D01*
X541759Y128174D01*
X541738Y128156D01*
X539499Y125917D01*
X536385Y124627D01*
X533015Y124627D01*
X529901Y125917D01*
X527517Y128301D01*
X526227Y131415D01*
X526227Y134785D01*
X527517Y137899D01*
X529901Y140283D01*
X533015Y141573D01*
X536385Y141573D01*
X539499Y140283D01*
X541738Y138044D01*
X541816Y137984D01*
X541888Y137916D01*
X541941Y137887D01*
X541989Y137850D01*
X542080Y137810D01*
X542167Y137762D01*
X542225Y137747D01*
X542281Y137723D01*
X542379Y137708D01*
X542475Y137683D01*
X542575Y137677D01*
X542595Y137673D01*
X542607Y137675D01*
X542635Y137673D01*
X555755Y137673D01*
X555873Y137688D01*
X555991Y137695D01*
X556030Y137708D01*
X556070Y137713D01*
X556181Y137756D01*
X556294Y137793D01*
X556328Y137815D01*
X556366Y137830D01*
X556462Y137899D01*
X556563Y137963D01*
X556590Y137993D01*
X556623Y138016D01*
X556699Y138108D01*
X556781Y138195D01*
X556800Y138230D01*
X556826Y138261D01*
X556877Y138369D01*
X556934Y138473D01*
X556944Y138513D01*
X556961Y138549D01*
X556984Y138666D01*
X557014Y138781D01*
X557017Y138841D01*
X557021Y138861D01*
X557020Y138882D01*
X557024Y138942D01*
X557024Y142918D01*
X558215Y144109D01*
X571785Y144109D01*
X572976Y142918D01*
X572976Y138941D01*
X572991Y138823D01*
X572999Y138704D01*
X573011Y138666D01*
X573016Y138625D01*
X573060Y138515D01*
X573097Y138402D01*
X573118Y138367D01*
X573133Y138330D01*
X573203Y138234D01*
X573267Y138133D01*
X573296Y138105D01*
X573320Y138072D01*
X573412Y137996D01*
X573498Y137915D01*
X573534Y137895D01*
X573565Y137870D01*
X573673Y137819D01*
X573777Y137761D01*
X573816Y137751D01*
X573853Y137734D01*
X573969Y137712D01*
X574085Y137682D01*
X574145Y137678D01*
X574165Y137674D01*
X574185Y137676D01*
X574245Y137672D01*
X582070Y137672D01*
X582168Y137684D01*
X582267Y137687D01*
X582325Y137704D01*
X582385Y137712D01*
X582477Y137748D01*
X582572Y137776D01*
X582625Y137806D01*
X582681Y137829D01*
X582761Y137887D01*
X582846Y137937D01*
X582922Y138003D01*
X582938Y138015D01*
X582946Y138025D01*
X582967Y138043D01*
X584307Y139383D01*
X595693Y139383D01*
X596884Y138192D01*
X596884Y127300D01*
X595720Y126136D01*
X595643Y126036D01*
X595561Y125941D01*
X595545Y125911D01*
X595525Y125884D01*
X595475Y125769D01*
X595419Y125656D01*
X595412Y125623D01*
X595399Y125592D01*
X595379Y125468D01*
X595353Y125345D01*
X595354Y125312D01*
X595349Y125278D01*
X595360Y125153D01*
X595366Y125028D01*
X595375Y124995D01*
X595378Y124962D01*
X595421Y124843D01*
X595457Y124723D01*
X595475Y124694D01*
X595486Y124662D01*
X595557Y124559D01*
X595622Y124451D01*
X595646Y124427D01*
X595665Y124399D01*
X595759Y124316D01*
X595849Y124228D01*
X595889Y124201D01*
X595903Y124189D01*
X595922Y124179D01*
X595983Y124139D01*
X596411Y123892D01*
X596884Y123418D01*
X597219Y122839D01*
X597392Y122193D01*
X597392Y119556D01*
X591032Y119556D01*
X590914Y119541D01*
X590796Y119533D01*
X590757Y119521D01*
X590717Y119516D01*
X590606Y119472D01*
X590493Y119435D01*
X590459Y119414D01*
X590421Y119399D01*
X590325Y119329D01*
X590224Y119265D01*
X590197Y119236D01*
X590164Y119212D01*
X590088Y119120D01*
X590006Y119033D01*
X589996Y119015D01*
X589946Y119094D01*
G37*
%LPD*%
%LPC*%
G36*
X374405Y-71033D02*
X374405Y-71033D01*
X370350Y-69353D01*
X367247Y-66250D01*
X365567Y-62195D01*
X365567Y-57805D01*
X367247Y-53750D01*
X370350Y-50647D01*
X371244Y-50277D01*
X371269Y-50262D01*
X371297Y-50253D01*
X371407Y-50184D01*
X371520Y-50119D01*
X371541Y-50099D01*
X371566Y-50083D01*
X371655Y-49989D01*
X371748Y-49898D01*
X371764Y-49873D01*
X371784Y-49851D01*
X371847Y-49738D01*
X371915Y-49627D01*
X371923Y-49599D01*
X371938Y-49573D01*
X371970Y-49447D01*
X372008Y-49323D01*
X372010Y-49294D01*
X372017Y-49265D01*
X372027Y-49104D01*
X372027Y-6802D01*
X372012Y-6684D01*
X372005Y-6565D01*
X371992Y-6527D01*
X371987Y-6486D01*
X371944Y-6376D01*
X371907Y-6263D01*
X371885Y-6228D01*
X371870Y-6191D01*
X371801Y-6095D01*
X371737Y-5994D01*
X371707Y-5966D01*
X371684Y-5933D01*
X371592Y-5857D01*
X371505Y-5776D01*
X371470Y-5756D01*
X371439Y-5731D01*
X371331Y-5680D01*
X371227Y-5622D01*
X371187Y-5612D01*
X371151Y-5595D01*
X371034Y-5573D01*
X370919Y-5543D01*
X370859Y-5539D01*
X370839Y-5535D01*
X370818Y-5537D01*
X370758Y-5533D01*
X368658Y-5533D01*
X367467Y-4342D01*
X367467Y7342D01*
X368658Y8533D01*
X381342Y8533D01*
X382533Y7342D01*
X382533Y-4342D01*
X381544Y-5330D01*
X381484Y-5408D01*
X381416Y-5481D01*
X381387Y-5534D01*
X381350Y-5581D01*
X381310Y-5672D01*
X381262Y-5759D01*
X381247Y-5818D01*
X381223Y-5873D01*
X381208Y-5971D01*
X381183Y-6067D01*
X381177Y-6167D01*
X381173Y-6187D01*
X381175Y-6200D01*
X381173Y-6228D01*
X381173Y-49104D01*
X381176Y-49133D01*
X381174Y-49163D01*
X381196Y-49291D01*
X381213Y-49420D01*
X381223Y-49447D01*
X381228Y-49476D01*
X381282Y-49595D01*
X381330Y-49715D01*
X381347Y-49739D01*
X381359Y-49766D01*
X381440Y-49868D01*
X381516Y-49973D01*
X381539Y-49992D01*
X381558Y-50015D01*
X381661Y-50093D01*
X381761Y-50176D01*
X381788Y-50188D01*
X381812Y-50206D01*
X381956Y-50277D01*
X382850Y-50647D01*
X385953Y-53750D01*
X387633Y-57805D01*
X387633Y-62195D01*
X385953Y-66250D01*
X382850Y-69353D01*
X378795Y-71033D01*
X374405Y-71033D01*
G37*
%LPD*%
%LPC*%
G36*
X439158Y210467D02*
X439158Y210467D01*
X437967Y211658D01*
X437967Y228342D01*
X439158Y229533D01*
X455842Y229533D01*
X457033Y228342D01*
X457033Y226564D01*
X457050Y226426D01*
X457063Y226287D01*
X457070Y226268D01*
X457073Y226248D01*
X457124Y226119D01*
X457171Y225988D01*
X457182Y225971D01*
X457190Y225953D01*
X457271Y225840D01*
X457349Y225725D01*
X457365Y225712D01*
X457376Y225695D01*
X457484Y225606D01*
X457588Y225515D01*
X457606Y225505D01*
X457621Y225492D01*
X457747Y225433D01*
X457871Y225370D01*
X457891Y225365D01*
X457909Y225357D01*
X458046Y225331D01*
X458181Y225300D01*
X458202Y225301D01*
X458221Y225297D01*
X458360Y225306D01*
X458499Y225310D01*
X458519Y225316D01*
X458539Y225317D01*
X458671Y225360D01*
X458805Y225398D01*
X458822Y225409D01*
X458841Y225415D01*
X458959Y225489D01*
X459079Y225560D01*
X459100Y225578D01*
X459110Y225585D01*
X459124Y225600D01*
X459199Y225666D01*
X460056Y226522D01*
X460116Y226600D01*
X460184Y226673D01*
X460213Y226726D01*
X460250Y226774D01*
X460290Y226864D01*
X460338Y226951D01*
X460353Y227010D01*
X460377Y227065D01*
X460392Y227163D01*
X460417Y227259D01*
X460423Y227359D01*
X460427Y227380D01*
X460425Y227392D01*
X460427Y227420D01*
X460427Y241949D01*
X460424Y241978D01*
X460426Y242008D01*
X460404Y242135D01*
X460387Y242264D01*
X460377Y242292D01*
X460372Y242321D01*
X460318Y242440D01*
X460270Y242560D01*
X460253Y242584D01*
X460241Y242611D01*
X460160Y242712D01*
X460084Y242817D01*
X460061Y242836D01*
X460042Y242859D01*
X459939Y242937D01*
X459839Y243020D01*
X459812Y243033D01*
X459788Y243051D01*
X459644Y243122D01*
X458801Y243471D01*
X455871Y246401D01*
X454285Y250228D01*
X454285Y254372D01*
X455871Y258199D01*
X458801Y261129D01*
X462628Y262715D01*
X466772Y262715D01*
X470599Y261129D01*
X473529Y258199D01*
X475115Y254372D01*
X475115Y250228D01*
X473529Y246401D01*
X470599Y243471D01*
X470356Y243370D01*
X470331Y243355D01*
X470303Y243346D01*
X470193Y243277D01*
X470080Y243213D01*
X470059Y243192D01*
X470034Y243176D01*
X469945Y243081D01*
X469852Y242991D01*
X469836Y242966D01*
X469816Y242945D01*
X469753Y242831D01*
X469685Y242720D01*
X469677Y242692D01*
X469662Y242666D01*
X469630Y242541D01*
X469592Y242416D01*
X469590Y242387D01*
X469583Y242358D01*
X469573Y242197D01*
X469573Y223106D01*
X464944Y218478D01*
X461894Y215427D01*
X458302Y215427D01*
X458184Y215412D01*
X458065Y215405D01*
X458027Y215392D01*
X457986Y215387D01*
X457876Y215344D01*
X457763Y215307D01*
X457728Y215285D01*
X457691Y215270D01*
X457595Y215201D01*
X457494Y215137D01*
X457466Y215107D01*
X457433Y215084D01*
X457357Y214992D01*
X457276Y214905D01*
X457256Y214870D01*
X457231Y214839D01*
X457180Y214731D01*
X457122Y214627D01*
X457112Y214587D01*
X457095Y214551D01*
X457073Y214434D01*
X457043Y214319D01*
X457039Y214259D01*
X457035Y214239D01*
X457037Y214218D01*
X457033Y214158D01*
X457033Y211658D01*
X455842Y210467D01*
X439158Y210467D01*
G37*
%LPD*%
%LPC*%
G36*
X538166Y156959D02*
X538166Y156959D01*
X537519Y157132D01*
X536940Y157467D01*
X536467Y157940D01*
X536132Y158519D01*
X536028Y158909D01*
X535970Y159051D01*
X535914Y159192D01*
X535910Y159197D01*
X535908Y159204D01*
X535818Y159325D01*
X535728Y159449D01*
X535722Y159454D01*
X535718Y159459D01*
X535602Y159553D01*
X535483Y159652D01*
X535476Y159655D01*
X535471Y159659D01*
X535332Y159723D01*
X535195Y159788D01*
X535188Y159789D01*
X535182Y159792D01*
X535031Y159819D01*
X534882Y159847D01*
X534876Y159847D01*
X534869Y159848D01*
X534717Y159837D01*
X534565Y159828D01*
X534559Y159826D01*
X534552Y159825D01*
X534407Y159776D01*
X534263Y159730D01*
X534257Y159726D01*
X534250Y159724D01*
X534122Y159641D01*
X533994Y159559D01*
X533989Y159555D01*
X533984Y159551D01*
X533880Y159439D01*
X533776Y159328D01*
X533773Y159322D01*
X533768Y159317D01*
X533696Y159183D01*
X533622Y159049D01*
X533621Y159043D01*
X533618Y159037D01*
X533581Y158889D01*
X533543Y158741D01*
X533542Y158732D01*
X533541Y158728D01*
X533541Y158717D01*
X533538Y158663D01*
X532342Y157467D01*
X520658Y157467D01*
X519467Y158658D01*
X519467Y171342D01*
X520658Y172533D01*
X521658Y172533D01*
X521776Y172548D01*
X521895Y172555D01*
X521933Y172568D01*
X521974Y172573D01*
X522084Y172616D01*
X522197Y172653D01*
X522232Y172675D01*
X522269Y172690D01*
X522365Y172759D01*
X522466Y172823D01*
X522494Y172853D01*
X522527Y172876D01*
X522603Y172968D01*
X522684Y173055D01*
X522704Y173090D01*
X522729Y173121D01*
X522780Y173229D01*
X522838Y173333D01*
X522848Y173373D01*
X522865Y173409D01*
X522887Y173526D01*
X522917Y173641D01*
X522921Y173701D01*
X522925Y173721D01*
X522923Y173742D01*
X522927Y173802D01*
X522927Y179198D01*
X522912Y179316D01*
X522905Y179435D01*
X522892Y179473D01*
X522887Y179514D01*
X522844Y179624D01*
X522807Y179737D01*
X522785Y179772D01*
X522770Y179809D01*
X522701Y179905D01*
X522637Y180006D01*
X522607Y180034D01*
X522584Y180067D01*
X522492Y180143D01*
X522405Y180224D01*
X522370Y180244D01*
X522339Y180269D01*
X522231Y180320D01*
X522127Y180378D01*
X522087Y180388D01*
X522051Y180405D01*
X521934Y180427D01*
X521819Y180457D01*
X521759Y180461D01*
X521739Y180465D01*
X521718Y180463D01*
X521658Y180467D01*
X519158Y180467D01*
X517967Y181658D01*
X517967Y198342D01*
X519158Y199533D01*
X535842Y199533D01*
X537033Y198342D01*
X537033Y181658D01*
X535842Y180467D01*
X533342Y180467D01*
X533224Y180452D01*
X533105Y180445D01*
X533067Y180432D01*
X533026Y180427D01*
X532916Y180384D01*
X532803Y180347D01*
X532768Y180325D01*
X532731Y180310D01*
X532635Y180241D01*
X532534Y180177D01*
X532506Y180147D01*
X532473Y180124D01*
X532397Y180032D01*
X532316Y179945D01*
X532296Y179910D01*
X532271Y179879D01*
X532220Y179771D01*
X532162Y179667D01*
X532152Y179627D01*
X532135Y179591D01*
X532113Y179474D01*
X532083Y179359D01*
X532079Y179299D01*
X532075Y179279D01*
X532077Y179258D01*
X532073Y179198D01*
X532073Y173328D01*
X532085Y173230D01*
X532088Y173130D01*
X532105Y173072D01*
X532113Y173012D01*
X532149Y172920D01*
X532177Y172825D01*
X532207Y172773D01*
X532230Y172716D01*
X532288Y172636D01*
X532338Y172551D01*
X532404Y172476D01*
X532416Y172459D01*
X532426Y172451D01*
X532444Y172430D01*
X533544Y171331D01*
X533552Y171268D01*
X533569Y171117D01*
X533572Y171111D01*
X533573Y171104D01*
X533629Y170962D01*
X533683Y170820D01*
X533687Y170814D01*
X533690Y170808D01*
X533779Y170685D01*
X533867Y170561D01*
X533873Y170556D01*
X533876Y170551D01*
X533994Y170454D01*
X534110Y170355D01*
X534116Y170352D01*
X534121Y170348D01*
X534259Y170283D01*
X534396Y170217D01*
X534403Y170215D01*
X534409Y170212D01*
X534557Y170184D01*
X534708Y170154D01*
X534715Y170154D01*
X534721Y170153D01*
X534872Y170162D01*
X535026Y170170D01*
X535032Y170172D01*
X535039Y170172D01*
X535183Y170219D01*
X535329Y170265D01*
X535335Y170268D01*
X535341Y170270D01*
X535470Y170352D01*
X535600Y170432D01*
X535604Y170437D01*
X535610Y170441D01*
X535715Y170552D01*
X535820Y170661D01*
X535823Y170667D01*
X535828Y170672D01*
X535902Y170806D01*
X535977Y170938D01*
X535979Y170947D01*
X535982Y170951D01*
X535984Y170961D01*
X536028Y171091D01*
X536132Y171481D01*
X536467Y172060D01*
X536940Y172533D01*
X537519Y172868D01*
X538166Y173041D01*
X541001Y173041D01*
X541001Y166230D01*
X541016Y166112D01*
X541023Y165993D01*
X541035Y165955D01*
X541041Y165915D01*
X541084Y165804D01*
X541121Y165691D01*
X541143Y165657D01*
X541158Y165619D01*
X541227Y165523D01*
X541291Y165422D01*
X541321Y165394D01*
X541344Y165362D01*
X541436Y165286D01*
X541523Y165204D01*
X541558Y165185D01*
X541589Y165159D01*
X541697Y165108D01*
X541801Y165051D01*
X541841Y165041D01*
X541877Y165023D01*
X541984Y165003D01*
X541954Y164999D01*
X541844Y164955D01*
X541731Y164919D01*
X541696Y164897D01*
X541659Y164882D01*
X541562Y164812D01*
X541462Y164749D01*
X541434Y164719D01*
X541401Y164695D01*
X541325Y164604D01*
X541244Y164517D01*
X541224Y164482D01*
X541199Y164450D01*
X541148Y164343D01*
X541090Y164238D01*
X541080Y164199D01*
X541063Y164163D01*
X541041Y164046D01*
X541011Y163930D01*
X541007Y163870D01*
X541003Y163850D01*
X541005Y163830D01*
X541001Y163770D01*
X541001Y156959D01*
X538166Y156959D01*
G37*
%LPD*%
%LPC*%
G36*
X619999Y188046D02*
X619999Y188046D01*
X619955Y188156D01*
X619919Y188269D01*
X619897Y188304D01*
X619882Y188341D01*
X619812Y188437D01*
X619749Y188538D01*
X619719Y188566D01*
X619695Y188599D01*
X619604Y188675D01*
X619517Y188756D01*
X619482Y188776D01*
X619450Y188801D01*
X619343Y188852D01*
X619238Y188910D01*
X619199Y188920D01*
X619163Y188937D01*
X619046Y188959D01*
X618930Y188989D01*
X618870Y188993D01*
X618850Y188997D01*
X618830Y188995D01*
X618770Y188999D01*
X611959Y188999D01*
X611959Y191834D01*
X612132Y192481D01*
X612467Y193060D01*
X612940Y193533D01*
X613519Y193868D01*
X613909Y193972D01*
X614050Y194030D01*
X614192Y194086D01*
X614197Y194090D01*
X614204Y194092D01*
X614326Y194183D01*
X614449Y194272D01*
X614453Y194278D01*
X614459Y194282D01*
X614554Y194400D01*
X614652Y194517D01*
X614655Y194524D01*
X614659Y194529D01*
X614722Y194667D01*
X614787Y194805D01*
X614789Y194812D01*
X614792Y194818D01*
X614819Y194967D01*
X614847Y195118D01*
X614847Y195124D01*
X614848Y195131D01*
X614837Y195284D01*
X614828Y195435D01*
X614825Y195441D01*
X614825Y195448D01*
X614776Y195594D01*
X614729Y195737D01*
X614726Y195743D01*
X614724Y195750D01*
X614641Y195877D01*
X614559Y196006D01*
X614554Y196011D01*
X614551Y196016D01*
X614439Y196120D01*
X614328Y196224D01*
X614322Y196227D01*
X614317Y196232D01*
X614182Y196305D01*
X614049Y196378D01*
X614043Y196379D01*
X614037Y196382D01*
X613889Y196419D01*
X613741Y196457D01*
X613732Y196458D01*
X613728Y196459D01*
X613717Y196459D01*
X613663Y196462D01*
X612467Y197658D01*
X612467Y199158D01*
X612452Y199276D01*
X612445Y199395D01*
X612432Y199433D01*
X612427Y199474D01*
X612384Y199584D01*
X612347Y199697D01*
X612325Y199732D01*
X612310Y199769D01*
X612241Y199865D01*
X612177Y199966D01*
X612147Y199994D01*
X612124Y200027D01*
X612032Y200103D01*
X611945Y200184D01*
X611910Y200204D01*
X611879Y200229D01*
X611771Y200280D01*
X611667Y200338D01*
X611627Y200348D01*
X611591Y200365D01*
X611474Y200387D01*
X611359Y200417D01*
X611299Y200421D01*
X611279Y200425D01*
X611258Y200423D01*
X611198Y200427D01*
X608302Y200427D01*
X608184Y200412D01*
X608065Y200405D01*
X608027Y200392D01*
X607986Y200387D01*
X607876Y200344D01*
X607763Y200307D01*
X607728Y200285D01*
X607691Y200270D01*
X607595Y200201D01*
X607494Y200137D01*
X607466Y200107D01*
X607433Y200084D01*
X607357Y199992D01*
X607276Y199905D01*
X607256Y199870D01*
X607231Y199839D01*
X607180Y199731D01*
X607122Y199627D01*
X607112Y199587D01*
X607095Y199551D01*
X607073Y199434D01*
X607043Y199319D01*
X607039Y199259D01*
X607035Y199239D01*
X607037Y199218D01*
X607033Y199158D01*
X607033Y196658D01*
X605842Y195467D01*
X589158Y195467D01*
X587967Y196658D01*
X587967Y213342D01*
X589158Y214533D01*
X605842Y214533D01*
X607033Y213342D01*
X607033Y210842D01*
X607048Y210724D01*
X607055Y210605D01*
X607068Y210567D01*
X607073Y210526D01*
X607116Y210416D01*
X607153Y210303D01*
X607175Y210268D01*
X607190Y210231D01*
X607259Y210135D01*
X607323Y210034D01*
X607353Y210006D01*
X607376Y209973D01*
X607468Y209897D01*
X607555Y209816D01*
X607590Y209796D01*
X607621Y209771D01*
X607729Y209720D01*
X607833Y209662D01*
X607873Y209652D01*
X607909Y209635D01*
X608026Y209613D01*
X608141Y209583D01*
X608201Y209579D01*
X608221Y209575D01*
X608242Y209577D01*
X608302Y209573D01*
X612172Y209573D01*
X612270Y209585D01*
X612369Y209588D01*
X612428Y209605D01*
X612488Y209613D01*
X612580Y209649D01*
X612675Y209677D01*
X612727Y209707D01*
X612783Y209730D01*
X612864Y209788D01*
X612949Y209838D01*
X613024Y209904D01*
X613041Y209916D01*
X613049Y209926D01*
X613070Y209944D01*
X613658Y210533D01*
X626342Y210533D01*
X627533Y209342D01*
X627533Y197658D01*
X626331Y196456D01*
X626268Y196448D01*
X626117Y196431D01*
X626111Y196428D01*
X626104Y196427D01*
X625961Y196371D01*
X625820Y196317D01*
X625814Y196313D01*
X625808Y196310D01*
X625684Y196221D01*
X625561Y196133D01*
X625556Y196128D01*
X625551Y196124D01*
X625453Y196005D01*
X625355Y195890D01*
X625352Y195884D01*
X625348Y195879D01*
X625283Y195741D01*
X625217Y195604D01*
X625215Y195597D01*
X625212Y195591D01*
X625184Y195443D01*
X625154Y195292D01*
X625154Y195285D01*
X625153Y195279D01*
X625162Y195127D01*
X625170Y194974D01*
X625172Y194968D01*
X625172Y194961D01*
X625219Y194817D01*
X625265Y194671D01*
X625268Y194665D01*
X625270Y194659D01*
X625353Y194529D01*
X625432Y194400D01*
X625437Y194396D01*
X625441Y194390D01*
X625552Y194285D01*
X625661Y194180D01*
X625667Y194177D01*
X625672Y194172D01*
X625806Y194098D01*
X625938Y194023D01*
X625947Y194021D01*
X625951Y194018D01*
X625961Y194016D01*
X626091Y193972D01*
X626481Y193868D01*
X627060Y193533D01*
X627533Y193060D01*
X627868Y192481D01*
X628041Y191834D01*
X628041Y188999D01*
X621230Y188999D01*
X621112Y188984D01*
X620993Y188977D01*
X620955Y188964D01*
X620915Y188959D01*
X620804Y188916D01*
X620691Y188879D01*
X620657Y188857D01*
X620619Y188842D01*
X620523Y188773D01*
X620422Y188709D01*
X620394Y188679D01*
X620362Y188656D01*
X620286Y188564D01*
X620204Y188477D01*
X620185Y188442D01*
X620159Y188411D01*
X620108Y188303D01*
X620051Y188199D01*
X620041Y188159D01*
X620023Y188123D01*
X620003Y188016D01*
X619999Y188046D01*
G37*
%LPD*%
%LPC*%
G36*
X409999Y188046D02*
X409999Y188046D01*
X409955Y188156D01*
X409919Y188269D01*
X409897Y188304D01*
X409882Y188341D01*
X409812Y188437D01*
X409749Y188538D01*
X409719Y188566D01*
X409695Y188599D01*
X409604Y188675D01*
X409517Y188756D01*
X409482Y188776D01*
X409450Y188801D01*
X409343Y188852D01*
X409238Y188910D01*
X409199Y188920D01*
X409163Y188937D01*
X409046Y188959D01*
X408930Y188989D01*
X408870Y188993D01*
X408850Y188997D01*
X408830Y188995D01*
X408770Y188999D01*
X401959Y188999D01*
X401959Y191834D01*
X402132Y192481D01*
X402467Y193060D01*
X402940Y193533D01*
X403519Y193868D01*
X403909Y193972D01*
X404050Y194030D01*
X404192Y194086D01*
X404197Y194090D01*
X404204Y194092D01*
X404327Y194183D01*
X404449Y194272D01*
X404454Y194278D01*
X404459Y194282D01*
X404555Y194400D01*
X404652Y194517D01*
X404655Y194524D01*
X404659Y194529D01*
X404723Y194669D01*
X404788Y194805D01*
X404789Y194812D01*
X404792Y194818D01*
X404819Y194967D01*
X404847Y195118D01*
X404847Y195124D01*
X404848Y195131D01*
X404837Y195283D01*
X404828Y195435D01*
X404826Y195441D01*
X404825Y195448D01*
X404776Y195593D01*
X404730Y195737D01*
X404726Y195743D01*
X404724Y195750D01*
X404641Y195877D01*
X404559Y196006D01*
X404554Y196011D01*
X404551Y196016D01*
X404439Y196120D01*
X404328Y196224D01*
X404322Y196227D01*
X404317Y196232D01*
X404183Y196304D01*
X404049Y196378D01*
X404043Y196379D01*
X404037Y196382D01*
X403889Y196419D01*
X403741Y196457D01*
X403732Y196458D01*
X403728Y196459D01*
X403717Y196459D01*
X403663Y196462D01*
X402467Y197658D01*
X402467Y209342D01*
X402978Y209853D01*
X403051Y209947D01*
X403130Y210036D01*
X403148Y210072D01*
X403173Y210104D01*
X403220Y210213D01*
X403274Y210319D01*
X403283Y210359D01*
X403299Y210396D01*
X403318Y210513D01*
X403344Y210629D01*
X403343Y210670D01*
X403349Y210710D01*
X403338Y210829D01*
X403334Y210947D01*
X403323Y210986D01*
X403319Y211026D01*
X403279Y211138D01*
X403246Y211253D01*
X403225Y211288D01*
X403212Y211326D01*
X403145Y211424D01*
X403084Y211527D01*
X403044Y211572D01*
X403033Y211589D01*
X403018Y211602D01*
X402978Y211648D01*
X402967Y211658D01*
X402967Y228342D01*
X404158Y229533D01*
X420842Y229533D01*
X422033Y228342D01*
X422033Y211658D01*
X420842Y210467D01*
X418802Y210467D01*
X418684Y210452D01*
X418565Y210445D01*
X418527Y210432D01*
X418486Y210427D01*
X418376Y210384D01*
X418263Y210347D01*
X418228Y210325D01*
X418191Y210310D01*
X418095Y210241D01*
X417994Y210177D01*
X417966Y210147D01*
X417933Y210124D01*
X417857Y210032D01*
X417776Y209945D01*
X417756Y209910D01*
X417731Y209879D01*
X417680Y209771D01*
X417622Y209667D01*
X417612Y209627D01*
X417595Y209591D01*
X417573Y209474D01*
X417543Y209359D01*
X417539Y209299D01*
X417535Y209279D01*
X417537Y209258D01*
X417533Y209198D01*
X417533Y197658D01*
X416331Y196456D01*
X416268Y196448D01*
X416117Y196431D01*
X416111Y196428D01*
X416104Y196427D01*
X415961Y196371D01*
X415820Y196317D01*
X415814Y196313D01*
X415808Y196310D01*
X415684Y196221D01*
X415561Y196133D01*
X415556Y196128D01*
X415551Y196124D01*
X415453Y196005D01*
X415355Y195890D01*
X415352Y195884D01*
X415348Y195879D01*
X415283Y195741D01*
X415217Y195604D01*
X415215Y195597D01*
X415212Y195591D01*
X415184Y195443D01*
X415154Y195292D01*
X415154Y195285D01*
X415153Y195279D01*
X415162Y195127D01*
X415170Y194974D01*
X415172Y194968D01*
X415172Y194961D01*
X415219Y194817D01*
X415265Y194671D01*
X415268Y194665D01*
X415270Y194659D01*
X415353Y194529D01*
X415432Y194400D01*
X415437Y194396D01*
X415441Y194390D01*
X415552Y194285D01*
X415661Y194180D01*
X415667Y194177D01*
X415672Y194172D01*
X415806Y194098D01*
X415938Y194023D01*
X415947Y194021D01*
X415951Y194018D01*
X415961Y194016D01*
X416091Y193972D01*
X416481Y193868D01*
X417060Y193533D01*
X417533Y193060D01*
X417868Y192481D01*
X418041Y191834D01*
X418041Y188999D01*
X411230Y188999D01*
X411112Y188984D01*
X410993Y188977D01*
X410955Y188964D01*
X410915Y188959D01*
X410804Y188916D01*
X410691Y188879D01*
X410657Y188857D01*
X410619Y188842D01*
X410523Y188773D01*
X410422Y188709D01*
X410394Y188679D01*
X410362Y188656D01*
X410286Y188564D01*
X410204Y188477D01*
X410185Y188442D01*
X410159Y188411D01*
X410108Y188303D01*
X410051Y188199D01*
X410041Y188159D01*
X410023Y188123D01*
X410003Y188016D01*
X409999Y188046D01*
G37*
%LPD*%
%LPC*%
G36*
X284828Y241885D02*
X284828Y241885D01*
X281001Y243471D01*
X278071Y246401D01*
X276485Y250228D01*
X276485Y254372D01*
X278071Y258199D01*
X281001Y261129D01*
X284828Y262715D01*
X288972Y262715D01*
X292799Y261129D01*
X295729Y258199D01*
X297315Y254372D01*
X297315Y250228D01*
X295729Y246401D01*
X292799Y243471D01*
X288972Y241885D01*
X284828Y241885D01*
G37*
%LPD*%
%LPC*%
G36*
X208628Y241885D02*
X208628Y241885D01*
X204801Y243471D01*
X201871Y246401D01*
X200285Y250228D01*
X200285Y254372D01*
X201871Y258199D01*
X204801Y261129D01*
X208628Y262715D01*
X212772Y262715D01*
X216599Y261129D01*
X219529Y258199D01*
X221115Y254372D01*
X221115Y250228D01*
X219529Y246401D01*
X216599Y243471D01*
X212772Y241885D01*
X208628Y241885D01*
G37*
%LPD*%
%LPC*%
G36*
X157828Y241885D02*
X157828Y241885D01*
X154001Y243471D01*
X151071Y246401D01*
X149485Y250228D01*
X149485Y254372D01*
X151071Y258199D01*
X154001Y261129D01*
X157828Y262715D01*
X161972Y262715D01*
X165799Y261129D01*
X168729Y258199D01*
X170315Y254372D01*
X170315Y250228D01*
X168729Y246401D01*
X165799Y243471D01*
X161972Y241885D01*
X157828Y241885D01*
G37*
%LPD*%
%LPC*%
G36*
X132428Y241885D02*
X132428Y241885D01*
X128601Y243471D01*
X125671Y246401D01*
X124085Y250228D01*
X124085Y254372D01*
X125671Y258199D01*
X128601Y261129D01*
X132428Y262715D01*
X136572Y262715D01*
X140399Y261129D01*
X143329Y258199D01*
X144915Y254372D01*
X144915Y250228D01*
X143329Y246401D01*
X140399Y243471D01*
X136572Y241885D01*
X132428Y241885D01*
G37*
%LPD*%
%LPC*%
G36*
X234028Y241885D02*
X234028Y241885D01*
X230201Y243471D01*
X227271Y246401D01*
X225685Y250228D01*
X225685Y254372D01*
X227271Y258199D01*
X230201Y261129D01*
X234028Y262715D01*
X238172Y262715D01*
X241999Y261129D01*
X244929Y258199D01*
X246515Y254372D01*
X246515Y250228D01*
X244929Y246401D01*
X241999Y243471D01*
X238172Y241885D01*
X234028Y241885D01*
G37*
%LPD*%
%LPC*%
G36*
X107028Y241885D02*
X107028Y241885D01*
X103201Y243471D01*
X100271Y246401D01*
X98685Y250228D01*
X98685Y254372D01*
X100271Y258199D01*
X103201Y261129D01*
X107028Y262715D01*
X111172Y262715D01*
X114999Y261129D01*
X117929Y258199D01*
X119515Y254372D01*
X119515Y250228D01*
X117929Y246401D01*
X114999Y243471D01*
X111172Y241885D01*
X107028Y241885D01*
G37*
%LPD*%
%LPC*%
G36*
X437228Y241885D02*
X437228Y241885D01*
X433401Y243471D01*
X430471Y246401D01*
X428885Y250228D01*
X428885Y254372D01*
X430471Y258199D01*
X433401Y261129D01*
X437228Y262715D01*
X441372Y262715D01*
X445199Y261129D01*
X448129Y258199D01*
X449715Y254372D01*
X449715Y250228D01*
X448129Y246401D01*
X445199Y243471D01*
X441372Y241885D01*
X437228Y241885D01*
G37*
%LPD*%
%LPC*%
G36*
X538828Y241885D02*
X538828Y241885D01*
X535001Y243471D01*
X532071Y246401D01*
X530485Y250228D01*
X530485Y254372D01*
X532071Y258199D01*
X535001Y261129D01*
X538828Y262715D01*
X542972Y262715D01*
X546799Y261129D01*
X549729Y258199D01*
X551315Y254372D01*
X551315Y250228D01*
X549729Y246401D01*
X546799Y243471D01*
X542972Y241885D01*
X538828Y241885D01*
G37*
%LPD*%
%LPC*%
G36*
X411828Y241885D02*
X411828Y241885D01*
X408001Y243471D01*
X405071Y246401D01*
X403485Y250228D01*
X403485Y254372D01*
X405071Y258199D01*
X408001Y261129D01*
X411828Y262715D01*
X415972Y262715D01*
X419799Y261129D01*
X422729Y258199D01*
X424315Y254372D01*
X424315Y250228D01*
X422729Y246401D01*
X419799Y243471D01*
X415972Y241885D01*
X411828Y241885D01*
G37*
%LPD*%
%LPC*%
G36*
X259428Y241885D02*
X259428Y241885D01*
X255601Y243471D01*
X252671Y246401D01*
X251085Y250228D01*
X251085Y254372D01*
X252671Y258199D01*
X255601Y261129D01*
X259428Y262715D01*
X263572Y262715D01*
X267399Y261129D01*
X270329Y258199D01*
X271915Y254372D01*
X271915Y250228D01*
X270329Y246401D01*
X267399Y243471D01*
X263572Y241885D01*
X259428Y241885D01*
G37*
%LPD*%
%LPC*%
G36*
X411828Y267285D02*
X411828Y267285D01*
X408001Y268871D01*
X405071Y271801D01*
X403485Y275628D01*
X403485Y279772D01*
X405071Y283599D01*
X408001Y286529D01*
X411828Y288115D01*
X415972Y288115D01*
X419799Y286529D01*
X422729Y283599D01*
X424315Y279772D01*
X424315Y275628D01*
X422729Y271801D01*
X419799Y268871D01*
X415972Y267285D01*
X411828Y267285D01*
G37*
%LPD*%
%LPC*%
G36*
X386428Y267285D02*
X386428Y267285D01*
X382601Y268871D01*
X379671Y271801D01*
X378085Y275628D01*
X378085Y279772D01*
X379671Y283599D01*
X382601Y286529D01*
X386428Y288115D01*
X390572Y288115D01*
X394399Y286529D01*
X397329Y283599D01*
X398915Y279772D01*
X398915Y275628D01*
X397329Y271801D01*
X394399Y268871D01*
X390572Y267285D01*
X386428Y267285D01*
G37*
%LPD*%
%LPC*%
G36*
X361028Y267285D02*
X361028Y267285D01*
X357201Y268871D01*
X354271Y271801D01*
X352685Y275628D01*
X352685Y279772D01*
X354271Y283599D01*
X357201Y286529D01*
X361028Y288115D01*
X365172Y288115D01*
X368999Y286529D01*
X371929Y283599D01*
X373515Y279772D01*
X373515Y275628D01*
X371929Y271801D01*
X368999Y268871D01*
X365172Y267285D01*
X361028Y267285D01*
G37*
%LPD*%
%LPC*%
G36*
X335628Y267285D02*
X335628Y267285D01*
X331801Y268871D01*
X328871Y271801D01*
X327285Y275628D01*
X327285Y279772D01*
X328871Y283599D01*
X331801Y286529D01*
X335628Y288115D01*
X339772Y288115D01*
X343599Y286529D01*
X346529Y283599D01*
X348115Y279772D01*
X348115Y275628D01*
X346529Y271801D01*
X343599Y268871D01*
X339772Y267285D01*
X335628Y267285D01*
G37*
%LPD*%
%LPC*%
G36*
X284828Y267285D02*
X284828Y267285D01*
X281001Y268871D01*
X278071Y271801D01*
X276485Y275628D01*
X276485Y279772D01*
X278071Y283599D01*
X281001Y286529D01*
X284828Y288115D01*
X288972Y288115D01*
X292799Y286529D01*
X295729Y283599D01*
X297315Y279772D01*
X297315Y275628D01*
X295729Y271801D01*
X292799Y268871D01*
X288972Y267285D01*
X284828Y267285D01*
G37*
%LPD*%
%LPC*%
G36*
X259428Y267285D02*
X259428Y267285D01*
X255601Y268871D01*
X252671Y271801D01*
X251085Y275628D01*
X251085Y279772D01*
X252671Y283599D01*
X255601Y286529D01*
X259428Y288115D01*
X263572Y288115D01*
X267399Y286529D01*
X270329Y283599D01*
X271915Y279772D01*
X271915Y275628D01*
X270329Y271801D01*
X267399Y268871D01*
X263572Y267285D01*
X259428Y267285D01*
G37*
%LPD*%
%LPC*%
G36*
X81628Y267285D02*
X81628Y267285D01*
X77801Y268871D01*
X74871Y271801D01*
X73285Y275628D01*
X73285Y279772D01*
X74871Y283599D01*
X77801Y286529D01*
X81628Y288115D01*
X85772Y288115D01*
X89599Y286529D01*
X92529Y283599D01*
X94115Y279772D01*
X94115Y275628D01*
X92529Y271801D01*
X89599Y268871D01*
X85772Y267285D01*
X81628Y267285D01*
G37*
%LPD*%
%LPC*%
G36*
X183228Y267285D02*
X183228Y267285D01*
X179401Y268871D01*
X176471Y271801D01*
X174885Y275628D01*
X174885Y279772D01*
X176471Y283599D01*
X179401Y286529D01*
X183228Y288115D01*
X187372Y288115D01*
X191199Y286529D01*
X194129Y283599D01*
X195715Y279772D01*
X195715Y275628D01*
X194129Y271801D01*
X191199Y268871D01*
X187372Y267285D01*
X183228Y267285D01*
G37*
%LPD*%
%LPC*%
G36*
X538828Y267285D02*
X538828Y267285D01*
X535001Y268871D01*
X532071Y271801D01*
X530485Y275628D01*
X530485Y279772D01*
X532071Y283599D01*
X535001Y286529D01*
X538828Y288115D01*
X542972Y288115D01*
X546799Y286529D01*
X549729Y283599D01*
X551315Y279772D01*
X551315Y275628D01*
X549729Y271801D01*
X546799Y268871D01*
X542972Y267285D01*
X538828Y267285D01*
G37*
%LPD*%
%LPC*%
G36*
X208628Y267285D02*
X208628Y267285D01*
X204801Y268871D01*
X201871Y271801D01*
X200285Y275628D01*
X200285Y279772D01*
X201871Y283599D01*
X204801Y286529D01*
X208628Y288115D01*
X212772Y288115D01*
X216599Y286529D01*
X219529Y283599D01*
X221115Y279772D01*
X221115Y275628D01*
X219529Y271801D01*
X216599Y268871D01*
X212772Y267285D01*
X208628Y267285D01*
G37*
%LPD*%
%LPC*%
G36*
X107028Y267285D02*
X107028Y267285D01*
X103201Y268871D01*
X100271Y271801D01*
X98685Y275628D01*
X98685Y279772D01*
X100271Y283599D01*
X103201Y286529D01*
X107028Y288115D01*
X111172Y288115D01*
X114999Y286529D01*
X117929Y283599D01*
X119515Y279772D01*
X119515Y275628D01*
X117929Y271801D01*
X114999Y268871D01*
X111172Y267285D01*
X107028Y267285D01*
G37*
%LPD*%
%LPC*%
G36*
X157828Y267285D02*
X157828Y267285D01*
X154001Y268871D01*
X151071Y271801D01*
X149485Y275628D01*
X149485Y279772D01*
X151071Y283599D01*
X154001Y286529D01*
X157828Y288115D01*
X161972Y288115D01*
X165799Y286529D01*
X168729Y283599D01*
X170315Y279772D01*
X170315Y275628D01*
X168729Y271801D01*
X165799Y268871D01*
X161972Y267285D01*
X157828Y267285D01*
G37*
%LPD*%
%LPC*%
G36*
X564228Y267285D02*
X564228Y267285D01*
X560401Y268871D01*
X557471Y271801D01*
X555885Y275628D01*
X555885Y279772D01*
X557471Y283599D01*
X560401Y286529D01*
X564228Y288115D01*
X568372Y288115D01*
X572199Y286529D01*
X575129Y283599D01*
X576715Y279772D01*
X576715Y275628D01*
X575129Y271801D01*
X572199Y268871D01*
X568372Y267285D01*
X564228Y267285D01*
G37*
%LPD*%
%LPC*%
G36*
X513428Y267285D02*
X513428Y267285D01*
X509601Y268871D01*
X506671Y271801D01*
X505085Y275628D01*
X505085Y279772D01*
X506671Y283599D01*
X509601Y286529D01*
X513428Y288115D01*
X517572Y288115D01*
X521399Y286529D01*
X524329Y283599D01*
X525915Y279772D01*
X525915Y275628D01*
X524329Y271801D01*
X521399Y268871D01*
X517572Y267285D01*
X513428Y267285D01*
G37*
%LPD*%
%LPC*%
G36*
X462628Y267285D02*
X462628Y267285D01*
X458801Y268871D01*
X455871Y271801D01*
X454285Y275628D01*
X454285Y279772D01*
X455871Y283599D01*
X458801Y286529D01*
X462628Y288115D01*
X466772Y288115D01*
X470599Y286529D01*
X473529Y283599D01*
X475115Y279772D01*
X475115Y275628D01*
X473529Y271801D01*
X470599Y268871D01*
X466772Y267285D01*
X462628Y267285D01*
G37*
%LPD*%
%LPC*%
G36*
X91799Y213399D02*
X91799Y213399D01*
X91799Y221941D01*
X98669Y221941D01*
X100385Y221669D01*
X102038Y221132D01*
X103587Y220343D01*
X104993Y219321D01*
X106221Y218093D01*
X107243Y216687D01*
X108032Y215138D01*
X108569Y213485D01*
X108583Y213399D01*
X91799Y213399D01*
G37*
%LPD*%
%LPC*%
G36*
X91799Y81599D02*
X91799Y81599D01*
X91799Y90141D01*
X98669Y90141D01*
X100385Y89869D01*
X102038Y89332D01*
X103587Y88543D01*
X104993Y87521D01*
X106221Y86293D01*
X107243Y84887D01*
X108032Y83338D01*
X108569Y81685D01*
X108583Y81599D01*
X91799Y81599D01*
G37*
%LPD*%
%LPC*%
G36*
X70018Y81599D02*
X70018Y81599D01*
X70031Y81685D01*
X70568Y83338D01*
X71357Y84887D01*
X72379Y86293D01*
X73607Y87521D01*
X75013Y88543D01*
X76562Y89332D01*
X78215Y89869D01*
X79931Y90141D01*
X86801Y90141D01*
X86801Y81599D01*
X70018Y81599D01*
G37*
%LPD*%
%LPC*%
G36*
X70018Y213399D02*
X70018Y213399D01*
X70031Y213485D01*
X70568Y215138D01*
X71357Y216687D01*
X72379Y218093D01*
X73607Y219321D01*
X75013Y220343D01*
X76562Y221132D01*
X78215Y221669D01*
X79931Y221941D01*
X86801Y221941D01*
X86801Y213399D01*
X70018Y213399D01*
G37*
%LPD*%
%LPC*%
G36*
X91799Y68059D02*
X91799Y68059D01*
X91799Y76601D01*
X108582Y76601D01*
X108569Y76515D01*
X108032Y74862D01*
X107243Y73313D01*
X106221Y71907D01*
X104993Y70679D01*
X103587Y69657D01*
X102038Y68868D01*
X100385Y68331D01*
X98669Y68059D01*
X91799Y68059D01*
G37*
%LPD*%
%LPC*%
G36*
X79931Y68059D02*
X79931Y68059D01*
X78215Y68331D01*
X76562Y68868D01*
X75013Y69657D01*
X73607Y70679D01*
X72379Y71907D01*
X71357Y73313D01*
X70568Y74862D01*
X70031Y76515D01*
X70018Y76601D01*
X86801Y76601D01*
X86801Y68059D01*
X79931Y68059D01*
G37*
%LPD*%
%LPC*%
G36*
X57539Y83539D02*
X57539Y83539D01*
X57539Y93042D01*
X57878Y92988D01*
X59718Y92390D01*
X61442Y91512D01*
X63007Y90375D01*
X64375Y89007D01*
X65512Y87442D01*
X66390Y85718D01*
X66988Y83878D01*
X67042Y83539D01*
X57539Y83539D01*
G37*
%LPD*%
%LPC*%
G36*
X57539Y206461D02*
X57539Y206461D01*
X67042Y206461D01*
X66988Y206122D01*
X66390Y204282D01*
X65512Y202558D01*
X64375Y200993D01*
X63007Y199625D01*
X61442Y198488D01*
X59718Y197610D01*
X57878Y197012D01*
X57539Y196958D01*
X57539Y206461D01*
G37*
%LPD*%
%LPC*%
G36*
X57539Y78461D02*
X57539Y78461D01*
X67042Y78461D01*
X66988Y78122D01*
X66390Y76282D01*
X65512Y74558D01*
X64375Y72993D01*
X63007Y71625D01*
X61442Y70488D01*
X59718Y69610D01*
X57878Y69012D01*
X57539Y68958D01*
X57539Y78461D01*
G37*
%LPD*%
%LPC*%
G36*
X42958Y83539D02*
X42958Y83539D01*
X43012Y83878D01*
X43610Y85718D01*
X44488Y87442D01*
X45625Y89007D01*
X46993Y90375D01*
X48558Y91512D01*
X50282Y92390D01*
X52122Y92988D01*
X52461Y93042D01*
X52461Y83539D01*
X42958Y83539D01*
G37*
%LPD*%
%LPC*%
G36*
X52122Y69012D02*
X52122Y69012D01*
X50282Y69610D01*
X48558Y70488D01*
X46993Y71625D01*
X45625Y72993D01*
X44488Y74558D01*
X43610Y76282D01*
X43012Y78122D01*
X42958Y78461D01*
X52461Y78461D01*
X52461Y68958D01*
X52122Y69012D01*
G37*
%LPD*%
%LPC*%
G36*
X52122Y197012D02*
X52122Y197012D01*
X50282Y197610D01*
X48558Y198488D01*
X46993Y199625D01*
X45625Y200993D01*
X44488Y202558D01*
X43610Y204282D01*
X43012Y206122D01*
X42958Y206461D01*
X52461Y206461D01*
X52461Y196958D01*
X52122Y197012D01*
G37*
%LPD*%
%LPC*%
G36*
X567539Y109440D02*
X567539Y109440D01*
X567539Y118419D01*
X571278Y118419D01*
X571924Y118246D01*
X572503Y117912D01*
X572977Y117438D01*
X573311Y116859D01*
X573484Y116213D01*
X573484Y109440D01*
X567539Y109440D01*
G37*
%LPD*%
%LPC*%
G36*
X567539Y95383D02*
X567539Y95383D01*
X567539Y104362D01*
X573484Y104362D01*
X573484Y97589D01*
X573311Y96943D01*
X572977Y96364D01*
X572503Y95890D01*
X571924Y95556D01*
X571278Y95383D01*
X567539Y95383D01*
G37*
%LPD*%
%LPC*%
G36*
X556516Y109440D02*
X556516Y109440D01*
X556516Y116213D01*
X556689Y116859D01*
X557023Y117438D01*
X557497Y117912D01*
X558076Y118246D01*
X558722Y118419D01*
X562461Y118419D01*
X562461Y109440D01*
X556516Y109440D01*
G37*
%LPD*%
%LPC*%
G36*
X558722Y95383D02*
X558722Y95383D01*
X558076Y95556D01*
X557497Y95890D01*
X557023Y96364D01*
X556689Y96943D01*
X556516Y97589D01*
X556516Y104362D01*
X562461Y104362D01*
X562461Y95383D01*
X558722Y95383D01*
G37*
%LPD*%
%LPC*%
G36*
X402539Y52785D02*
X402539Y52785D01*
X402539Y58610D01*
X409411Y58610D01*
X410057Y58437D01*
X410636Y58102D01*
X411110Y57629D01*
X411444Y57050D01*
X411617Y56403D01*
X411617Y52785D01*
X402539Y52785D01*
G37*
%LPD*%
%LPC*%
G36*
X547539Y-18118D02*
X547539Y-18118D01*
X547539Y-12293D01*
X556617Y-12293D01*
X556617Y-15911D01*
X556444Y-16558D01*
X556110Y-17137D01*
X555636Y-17610D01*
X555057Y-17945D01*
X554411Y-18118D01*
X547539Y-18118D01*
G37*
%LPD*%
%LPC*%
G36*
X388383Y52785D02*
X388383Y52785D01*
X388383Y56403D01*
X388556Y57050D01*
X388890Y57629D01*
X389364Y58102D01*
X389943Y58437D01*
X390589Y58610D01*
X397461Y58610D01*
X397461Y52785D01*
X388383Y52785D01*
G37*
%LPD*%
%LPC*%
G36*
X402539Y47707D02*
X402539Y47707D01*
X411617Y47707D01*
X411617Y44089D01*
X411444Y43442D01*
X411110Y42863D01*
X410636Y42390D01*
X410057Y42055D01*
X409411Y41882D01*
X402539Y41882D01*
X402539Y47707D01*
G37*
%LPD*%
%LPC*%
G36*
X547539Y-7215D02*
X547539Y-7215D01*
X547539Y-1390D01*
X554411Y-1390D01*
X555057Y-1563D01*
X555636Y-1898D01*
X556110Y-2371D01*
X556444Y-2950D01*
X556617Y-3597D01*
X556617Y-7215D01*
X547539Y-7215D01*
G37*
%LPD*%
%LPC*%
G36*
X535589Y-18118D02*
X535589Y-18118D01*
X534943Y-17945D01*
X534364Y-17610D01*
X533890Y-17137D01*
X533556Y-16558D01*
X533383Y-15911D01*
X533383Y-12293D01*
X542461Y-12293D01*
X542461Y-18118D01*
X535589Y-18118D01*
G37*
%LPD*%
%LPC*%
G36*
X390589Y41882D02*
X390589Y41882D01*
X389943Y42055D01*
X389364Y42390D01*
X388890Y42863D01*
X388556Y43442D01*
X388383Y44089D01*
X388383Y47707D01*
X397461Y47707D01*
X397461Y41882D01*
X390589Y41882D01*
G37*
%LPD*%
%LPC*%
G36*
X533383Y-7215D02*
X533383Y-7215D01*
X533383Y-3597D01*
X533556Y-2950D01*
X533890Y-2371D01*
X534364Y-1898D01*
X534943Y-1563D01*
X535589Y-1390D01*
X542461Y-1390D01*
X542461Y-7215D01*
X533383Y-7215D01*
G37*
%LPD*%
%LPC*%
G36*
X187549Y254549D02*
X187549Y254549D01*
X187549Y263003D01*
X187858Y262954D01*
X189493Y262423D01*
X191025Y261642D01*
X191562Y261252D01*
X191562Y261251D01*
X192416Y260631D01*
X193631Y259416D01*
X194642Y258025D01*
X195423Y256493D01*
X195954Y254858D01*
X196003Y254549D01*
X187549Y254549D01*
G37*
%LPD*%
%LPC*%
G36*
X390749Y254549D02*
X390749Y254549D01*
X390749Y263003D01*
X391058Y262954D01*
X392693Y262423D01*
X394225Y261642D01*
X394762Y261252D01*
X394762Y261251D01*
X395616Y260631D01*
X396831Y259416D01*
X397842Y258025D01*
X398623Y256493D01*
X399154Y254858D01*
X399203Y254549D01*
X390749Y254549D01*
G37*
%LPD*%
%LPC*%
G36*
X568549Y254549D02*
X568549Y254549D01*
X568549Y263003D01*
X568858Y262954D01*
X570493Y262423D01*
X572025Y261642D01*
X572562Y261252D01*
X572562Y261251D01*
X573416Y260631D01*
X574631Y259416D01*
X575642Y258025D01*
X576423Y256493D01*
X576954Y254858D01*
X577003Y254549D01*
X568549Y254549D01*
G37*
%LPD*%
%LPC*%
G36*
X441549Y279949D02*
X441549Y279949D01*
X441549Y288403D01*
X441858Y288354D01*
X443493Y287823D01*
X445025Y287042D01*
X446416Y286031D01*
X447631Y284816D01*
X448642Y283425D01*
X449423Y281893D01*
X449954Y280258D01*
X450003Y279949D01*
X441549Y279949D01*
G37*
%LPD*%
%LPC*%
G36*
X136749Y279949D02*
X136749Y279949D01*
X136749Y288403D01*
X137058Y288354D01*
X138693Y287823D01*
X140225Y287042D01*
X141616Y286031D01*
X142831Y284816D01*
X143842Y283425D01*
X144623Y281893D01*
X145154Y280258D01*
X145203Y279949D01*
X136749Y279949D01*
G37*
%LPD*%
%LPC*%
G36*
X238349Y279949D02*
X238349Y279949D01*
X238349Y288403D01*
X238658Y288354D01*
X240293Y287823D01*
X241825Y287042D01*
X243216Y286031D01*
X244431Y284816D01*
X245442Y283425D01*
X246223Y281893D01*
X246754Y280258D01*
X246803Y279949D01*
X238349Y279949D01*
G37*
%LPD*%
%LPC*%
G36*
X314549Y279949D02*
X314549Y279949D01*
X314549Y288403D01*
X314858Y288354D01*
X316493Y287823D01*
X318025Y287042D01*
X319416Y286031D01*
X320631Y284816D01*
X321642Y283425D01*
X322423Y281893D01*
X322954Y280258D01*
X323003Y279949D01*
X314549Y279949D01*
G37*
%LPD*%
%LPC*%
G36*
X492349Y279949D02*
X492349Y279949D01*
X492349Y288403D01*
X492658Y288354D01*
X494293Y287823D01*
X495825Y287042D01*
X497216Y286031D01*
X498431Y284816D01*
X499442Y283425D01*
X500223Y281893D01*
X500754Y280258D01*
X500803Y279949D01*
X492349Y279949D01*
G37*
%LPD*%
%LPC*%
G36*
X479397Y279949D02*
X479397Y279949D01*
X479446Y280258D01*
X479977Y281893D01*
X480758Y283425D01*
X481769Y284816D01*
X482984Y286031D01*
X484375Y287042D01*
X485907Y287823D01*
X487542Y288354D01*
X487851Y288403D01*
X487851Y279949D01*
X479397Y279949D01*
G37*
%LPD*%
%LPC*%
G36*
X238349Y275451D02*
X238349Y275451D01*
X246803Y275451D01*
X246754Y275142D01*
X246223Y273507D01*
X245442Y271975D01*
X244431Y270584D01*
X243216Y269369D01*
X241825Y268358D01*
X240293Y267577D01*
X238658Y267046D01*
X238349Y266997D01*
X238349Y275451D01*
G37*
%LPD*%
%LPC*%
G36*
X136749Y275451D02*
X136749Y275451D01*
X145203Y275451D01*
X145154Y275142D01*
X144623Y273507D01*
X143842Y271975D01*
X142831Y270584D01*
X141616Y269369D01*
X140225Y268358D01*
X138693Y267577D01*
X137058Y267046D01*
X136749Y266997D01*
X136749Y275451D01*
G37*
%LPD*%
%LPC*%
G36*
X492349Y275451D02*
X492349Y275451D01*
X500803Y275451D01*
X500754Y275142D01*
X500223Y273507D01*
X499442Y271975D01*
X498431Y270584D01*
X497216Y269369D01*
X495825Y268358D01*
X494293Y267577D01*
X492658Y267046D01*
X492349Y266997D01*
X492349Y275451D01*
G37*
%LPD*%
%LPC*%
G36*
X568549Y250051D02*
X568549Y250051D01*
X577003Y250051D01*
X576954Y249742D01*
X576423Y248107D01*
X575642Y246575D01*
X574631Y245184D01*
X573416Y243969D01*
X572025Y242958D01*
X570493Y242177D01*
X568858Y241646D01*
X568549Y241597D01*
X568549Y250051D01*
G37*
%LPD*%
%LPC*%
G36*
X314549Y275451D02*
X314549Y275451D01*
X323003Y275451D01*
X322954Y275142D01*
X322423Y273507D01*
X321642Y271975D01*
X320631Y270584D01*
X319416Y269369D01*
X318025Y268358D01*
X316493Y267577D01*
X314858Y267046D01*
X314549Y266997D01*
X314549Y275451D01*
G37*
%LPD*%
%LPC*%
G36*
X390749Y250051D02*
X390749Y250051D01*
X399203Y250051D01*
X399154Y249742D01*
X398623Y248107D01*
X397842Y246575D01*
X396831Y245184D01*
X395616Y243969D01*
X394225Y242958D01*
X392693Y242177D01*
X391058Y241646D01*
X390749Y241597D01*
X390749Y250051D01*
G37*
%LPD*%
%LPC*%
G36*
X187549Y250051D02*
X187549Y250051D01*
X196003Y250051D01*
X195954Y249742D01*
X195423Y248107D01*
X194642Y246575D01*
X193631Y245184D01*
X192416Y243969D01*
X191025Y242958D01*
X189493Y242177D01*
X187858Y241646D01*
X187549Y241597D01*
X187549Y250051D01*
G37*
%LPD*%
%LPC*%
G36*
X555597Y254549D02*
X555597Y254549D01*
X555646Y254858D01*
X556177Y256493D01*
X556958Y258025D01*
X557969Y259416D01*
X559184Y260631D01*
X560575Y261642D01*
X562107Y262423D01*
X563742Y262954D01*
X564051Y263003D01*
X564051Y254549D01*
X555597Y254549D01*
G37*
%LPD*%
%LPC*%
G36*
X377797Y254549D02*
X377797Y254549D01*
X377846Y254858D01*
X378377Y256493D01*
X379158Y258025D01*
X380169Y259416D01*
X381384Y260631D01*
X382775Y261642D01*
X384307Y262423D01*
X385942Y262954D01*
X386251Y263003D01*
X386251Y254549D01*
X377797Y254549D01*
G37*
%LPD*%
%LPC*%
G36*
X174597Y254549D02*
X174597Y254549D01*
X174646Y254858D01*
X175177Y256493D01*
X175958Y258025D01*
X176969Y259416D01*
X178184Y260631D01*
X179575Y261642D01*
X181107Y262423D01*
X182742Y262954D01*
X183051Y263003D01*
X183051Y254549D01*
X174597Y254549D01*
G37*
%LPD*%
%LPC*%
G36*
X123797Y279949D02*
X123797Y279949D01*
X123846Y280258D01*
X124377Y281893D01*
X125158Y283425D01*
X126169Y284816D01*
X127384Y286031D01*
X128775Y287042D01*
X130307Y287823D01*
X131942Y288354D01*
X132251Y288403D01*
X132251Y279949D01*
X123797Y279949D01*
G37*
%LPD*%
%LPC*%
G36*
X225397Y279949D02*
X225397Y279949D01*
X225446Y280258D01*
X225977Y281893D01*
X226758Y283425D01*
X227769Y284816D01*
X228984Y286031D01*
X230375Y287042D01*
X231907Y287823D01*
X233542Y288354D01*
X233851Y288403D01*
X233851Y279949D01*
X225397Y279949D01*
G37*
%LPD*%
%LPC*%
G36*
X301597Y279949D02*
X301597Y279949D01*
X301646Y280258D01*
X302177Y281893D01*
X302958Y283425D01*
X303969Y284816D01*
X305184Y286031D01*
X306575Y287042D01*
X308107Y287823D01*
X309742Y288354D01*
X310051Y288403D01*
X310051Y279949D01*
X301597Y279949D01*
G37*
%LPD*%
%LPC*%
G36*
X428597Y279949D02*
X428597Y279949D01*
X428646Y280258D01*
X429177Y281893D01*
X429958Y283425D01*
X430969Y284816D01*
X432184Y286031D01*
X433575Y287042D01*
X435107Y287823D01*
X436742Y288354D01*
X437051Y288403D01*
X437051Y279949D01*
X428597Y279949D01*
G37*
%LPD*%
%LPC*%
G36*
X441549Y275451D02*
X441549Y275451D01*
X450003Y275451D01*
X449954Y275142D01*
X449423Y273507D01*
X448642Y271975D01*
X447631Y270584D01*
X446416Y269369D01*
X445025Y268358D01*
X443493Y267577D01*
X441858Y267046D01*
X441549Y266997D01*
X441549Y275451D01*
G37*
%LPD*%
%LPC*%
G36*
X563742Y241646D02*
X563742Y241646D01*
X562107Y242177D01*
X560575Y242958D01*
X559184Y243969D01*
X557969Y245184D01*
X556958Y246575D01*
X556177Y248107D01*
X555646Y249742D01*
X555597Y250051D01*
X564051Y250051D01*
X564051Y241597D01*
X563742Y241646D01*
G37*
%LPD*%
%LPC*%
G36*
X182742Y241646D02*
X182742Y241646D01*
X181107Y242177D01*
X179575Y242958D01*
X178184Y243969D01*
X176969Y245184D01*
X175958Y246575D01*
X175177Y248107D01*
X174646Y249742D01*
X174597Y250051D01*
X183051Y250051D01*
X183051Y241597D01*
X182742Y241646D01*
G37*
%LPD*%
%LPC*%
G36*
X385942Y241646D02*
X385942Y241646D01*
X384307Y242177D01*
X382775Y242958D01*
X381384Y243969D01*
X380169Y245184D01*
X379158Y246575D01*
X378377Y248107D01*
X377846Y249742D01*
X377797Y250051D01*
X386251Y250051D01*
X386251Y241597D01*
X385942Y241646D01*
G37*
%LPD*%
%LPC*%
G36*
X487542Y267046D02*
X487542Y267046D01*
X485907Y267577D01*
X484375Y268358D01*
X482984Y269369D01*
X481769Y270584D01*
X480758Y271975D01*
X479977Y273507D01*
X479446Y275142D01*
X479397Y275451D01*
X487851Y275451D01*
X487851Y266997D01*
X487542Y267046D01*
G37*
%LPD*%
%LPC*%
G36*
X131942Y267046D02*
X131942Y267046D01*
X130307Y267577D01*
X128775Y268358D01*
X127384Y269369D01*
X126169Y270584D01*
X125158Y271975D01*
X124377Y273507D01*
X123846Y275142D01*
X123797Y275451D01*
X132251Y275451D01*
X132251Y266997D01*
X131942Y267046D01*
G37*
%LPD*%
%LPC*%
G36*
X233542Y267046D02*
X233542Y267046D01*
X231907Y267577D01*
X230375Y268358D01*
X228984Y269369D01*
X227769Y270584D01*
X226758Y271975D01*
X225977Y273507D01*
X225446Y275142D01*
X225397Y275451D01*
X233851Y275451D01*
X233851Y266997D01*
X233542Y267046D01*
G37*
%LPD*%
%LPC*%
G36*
X309742Y267046D02*
X309742Y267046D01*
X308107Y267577D01*
X306575Y268358D01*
X305184Y269369D01*
X303969Y270584D01*
X302958Y271975D01*
X302177Y273507D01*
X301646Y275142D01*
X301597Y275451D01*
X310051Y275451D01*
X310051Y266997D01*
X309742Y267046D01*
G37*
%LPD*%
%LPC*%
G36*
X436742Y267046D02*
X436742Y267046D01*
X435107Y267577D01*
X433575Y268358D01*
X432184Y269369D01*
X430969Y270584D01*
X429958Y271975D01*
X429177Y273507D01*
X428646Y275142D01*
X428597Y275451D01*
X437051Y275451D01*
X437051Y266997D01*
X436742Y267046D01*
G37*
%LPD*%
%LPC*%
G36*
X517539Y-7118D02*
X517539Y-7118D01*
X517539Y-1293D01*
X524867Y-1293D01*
X524867Y-4911D01*
X524694Y-5558D01*
X524360Y-6137D01*
X523886Y-6610D01*
X523307Y-6945D01*
X522661Y-7118D01*
X517539Y-7118D01*
G37*
%LPD*%
%LPC*%
G36*
X507339Y-7118D02*
X507339Y-7118D01*
X506693Y-6945D01*
X506114Y-6610D01*
X505640Y-6137D01*
X505306Y-5558D01*
X505133Y-4911D01*
X505133Y-1293D01*
X512461Y-1293D01*
X512461Y-7118D01*
X507339Y-7118D01*
G37*
%LPD*%
%LPC*%
G36*
X432539Y52882D02*
X432539Y52882D01*
X432539Y58707D01*
X439867Y58707D01*
X439867Y55089D01*
X439694Y54442D01*
X439360Y53863D01*
X438886Y53390D01*
X438307Y53055D01*
X437661Y52882D01*
X432539Y52882D01*
G37*
%LPD*%
%LPC*%
G36*
X422339Y52882D02*
X422339Y52882D01*
X421693Y53055D01*
X421114Y53390D01*
X420640Y53863D01*
X420306Y54442D01*
X420133Y55089D01*
X420133Y58707D01*
X427461Y58707D01*
X427461Y52882D01*
X422339Y52882D01*
G37*
%LPD*%
%LPC*%
G36*
X457249Y58849D02*
X457249Y58849D01*
X457249Y65669D01*
X457920Y65536D01*
X459554Y64859D01*
X461025Y63876D01*
X462276Y62625D01*
X463259Y61154D01*
X463936Y59520D01*
X464069Y58849D01*
X457249Y58849D01*
G37*
%LPD*%
%LPC*%
G36*
X446531Y58849D02*
X446531Y58849D01*
X446664Y59520D01*
X447341Y61154D01*
X448324Y62625D01*
X449575Y63876D01*
X451046Y64859D01*
X452680Y65536D01*
X453351Y65669D01*
X453351Y58849D01*
X446531Y58849D01*
G37*
%LPD*%
%LPC*%
G36*
X457249Y54951D02*
X457249Y54951D01*
X464069Y54951D01*
X463936Y54280D01*
X463259Y52646D01*
X462276Y51175D01*
X461025Y49924D01*
X459554Y48941D01*
X457920Y48264D01*
X457249Y48131D01*
X457249Y54951D01*
G37*
%LPD*%
%LPC*%
G36*
X452680Y48264D02*
X452680Y48264D01*
X451046Y48941D01*
X449575Y49924D01*
X448324Y51175D01*
X447341Y52646D01*
X446664Y54280D01*
X446531Y54951D01*
X453351Y54951D01*
X453351Y48131D01*
X452680Y48264D01*
G37*
%LPD*%
%LPC*%
G36*
X545999Y167499D02*
X545999Y167499D01*
X545999Y173041D01*
X548834Y173041D01*
X549481Y172868D01*
X550060Y172533D01*
X550533Y172060D01*
X550868Y171481D01*
X551041Y170834D01*
X551041Y167499D01*
X545999Y167499D01*
G37*
%LPD*%
%LPC*%
G36*
X255999Y97499D02*
X255999Y97499D01*
X255999Y103041D01*
X258834Y103041D01*
X259481Y102868D01*
X260060Y102533D01*
X260533Y102060D01*
X260868Y101481D01*
X261041Y100834D01*
X261041Y97499D01*
X255999Y97499D01*
G37*
%LPD*%
%LPC*%
G36*
X255999Y127499D02*
X255999Y127499D01*
X255999Y133041D01*
X258834Y133041D01*
X259481Y132868D01*
X260060Y132533D01*
X260533Y132060D01*
X260868Y131481D01*
X261041Y130834D01*
X261041Y127499D01*
X255999Y127499D01*
G37*
%LPD*%
%LPC*%
G36*
X545999Y156959D02*
X545999Y156959D01*
X545999Y162501D01*
X551041Y162501D01*
X551041Y159166D01*
X550868Y158519D01*
X550533Y157940D01*
X550060Y157467D01*
X549481Y157132D01*
X548834Y156959D01*
X545999Y156959D01*
G37*
%LPD*%
%LPC*%
G36*
X255999Y116959D02*
X255999Y116959D01*
X255999Y122501D01*
X261041Y122501D01*
X261041Y119166D01*
X260868Y118519D01*
X260533Y117940D01*
X260060Y117467D01*
X259481Y117132D01*
X258834Y116959D01*
X255999Y116959D01*
G37*
%LPD*%
%LPC*%
G36*
X255999Y86959D02*
X255999Y86959D01*
X255999Y92501D01*
X261041Y92501D01*
X261041Y89166D01*
X260868Y88519D01*
X260533Y87940D01*
X260060Y87467D01*
X259481Y87132D01*
X258834Y86959D01*
X255999Y86959D01*
G37*
%LPD*%
%LPC*%
G36*
X622499Y178959D02*
X622499Y178959D01*
X622499Y184001D01*
X628041Y184001D01*
X628041Y181166D01*
X627868Y180519D01*
X627533Y179940D01*
X627060Y179467D01*
X626481Y179132D01*
X625834Y178959D01*
X622499Y178959D01*
G37*
%LPD*%
%LPC*%
G36*
X412499Y178959D02*
X412499Y178959D01*
X412499Y184001D01*
X418041Y184001D01*
X418041Y181166D01*
X417868Y180519D01*
X417533Y179940D01*
X417060Y179467D01*
X416481Y179132D01*
X415834Y178959D01*
X412499Y178959D01*
G37*
%LPD*%
%LPC*%
G36*
X614166Y178959D02*
X614166Y178959D01*
X613519Y179132D01*
X612940Y179467D01*
X612467Y179940D01*
X612132Y180519D01*
X611959Y181166D01*
X611959Y184001D01*
X617501Y184001D01*
X617501Y178959D01*
X614166Y178959D01*
G37*
%LPD*%
%LPC*%
G36*
X404166Y178959D02*
X404166Y178959D01*
X403519Y179132D01*
X402940Y179467D01*
X402467Y179940D01*
X402132Y180519D01*
X401959Y181166D01*
X401959Y184001D01*
X407501Y184001D01*
X407501Y178959D01*
X404166Y178959D01*
G37*
%LPD*%
%LPC*%
G36*
X592302Y114952D02*
X592302Y114952D01*
X597392Y114952D01*
X597392Y112315D01*
X597219Y111669D01*
X596884Y111090D01*
X596411Y110616D01*
X595832Y110282D01*
X595185Y110109D01*
X592302Y110109D01*
X592302Y114952D01*
G37*
%LPD*%
%LPC*%
G36*
X584815Y110109D02*
X584815Y110109D01*
X584168Y110282D01*
X583589Y110616D01*
X583116Y111090D01*
X582781Y111669D01*
X582608Y112315D01*
X582608Y114952D01*
X587698Y114952D01*
X587698Y110109D01*
X584815Y110109D01*
G37*
%LPD*%
%LPC*%
G36*
X54999Y80999D02*
X54999Y80999D01*
X54999Y81001D01*
X55001Y81001D01*
X55001Y80999D01*
X54999Y80999D01*
G37*
%LPD*%
%LPC*%
G36*
X564999Y106900D02*
X564999Y106900D01*
X564999Y106902D01*
X565001Y106902D01*
X565001Y106900D01*
X564999Y106900D01*
G37*
%LPD*%
%LPC*%
G36*
X399999Y50245D02*
X399999Y50245D01*
X399999Y50247D01*
X400001Y50247D01*
X400001Y50245D01*
X399999Y50245D01*
G37*
%LPD*%
%LPC*%
G36*
X544999Y-9755D02*
X544999Y-9755D01*
X544999Y-9753D01*
X545001Y-9753D01*
X545001Y-9755D01*
X544999Y-9755D01*
G37*
%LPD*%
D10*
X83700Y252300D03*
X83700Y277700D03*
X109100Y252300D03*
X109100Y277700D03*
X134500Y252300D03*
X134500Y277700D03*
X159900Y252300D03*
X159900Y277700D03*
X185300Y252300D03*
X185300Y277700D03*
X210700Y252300D03*
X210700Y277700D03*
X236100Y252300D03*
X236100Y277700D03*
X261500Y252300D03*
X261500Y277700D03*
X286900Y252300D03*
X286900Y277700D03*
X312300Y252300D03*
X312300Y277700D03*
X337700Y252300D03*
X337700Y277700D03*
X363100Y252300D03*
X363100Y277700D03*
X388500Y252300D03*
X388500Y277700D03*
X413900Y252300D03*
X413900Y277700D03*
X439300Y252300D03*
X439300Y277700D03*
X464700Y252300D03*
X464700Y277700D03*
X490100Y252300D03*
X490100Y277700D03*
X515500Y252300D03*
X515500Y277700D03*
X540900Y252300D03*
X540900Y277700D03*
X566300Y252300D03*
X566300Y277700D03*
D11*
X455300Y133100D03*
D12*
X455300Y107700D03*
X455300Y82300D03*
X455300Y56900D03*
X534700Y56900D03*
X534700Y82300D03*
X534700Y107700D03*
X534700Y133100D03*
D13*
X400000Y79754D03*
X400000Y50246D03*
D14*
X430000Y78754D03*
X430000Y61246D03*
D15*
X590000Y132746D03*
X590000Y117254D03*
D16*
X375000Y1500D03*
X375000Y18500D03*
D17*
X565000Y133099D03*
X565000Y106901D03*
D13*
X545000Y19754D03*
X545000Y-9754D03*
D14*
X515000Y18754D03*
X515000Y1246D03*
D16*
X485000Y1500D03*
X485000Y18500D03*
D18*
X236500Y70000D03*
X253500Y70000D03*
X236500Y155000D03*
X253500Y155000D03*
D19*
X97800Y79100D02*
X80800Y79100D01*
X80800Y210900D02*
X97800Y210900D01*
D20*
X55000Y209000D03*
X55000Y81000D03*
D21*
X98200Y180700D03*
X80400Y170500D03*
X98200Y160300D03*
X98200Y139900D03*
X98200Y119500D03*
X80400Y150100D03*
X80400Y129700D03*
D22*
X80400Y109300D03*
D23*
X150000Y-37500D02*
X150000Y-62500D01*
D24*
X90000Y-61250D02*
X90000Y-38750D01*
X108750Y-97000D02*
X131250Y-97000D01*
D18*
X196500Y-50000D03*
X213500Y-50000D03*
D25*
X527500Y190000D03*
X492500Y190000D03*
X597500Y205000D03*
X562500Y205000D03*
D16*
X620000Y203500D03*
X620000Y186500D03*
D18*
X526500Y165000D03*
X543500Y165000D03*
D25*
X412500Y220000D03*
X447500Y220000D03*
D16*
X410000Y203500D03*
X410000Y186500D03*
D26*
X275000Y-60000D03*
X325800Y-60000D03*
X376600Y-60000D03*
X427400Y-60000D03*
D16*
X295000Y123500D03*
X295000Y106500D03*
D18*
X348500Y100000D03*
X331500Y100000D03*
X331500Y135000D03*
X348500Y135000D03*
X236500Y125000D03*
X253500Y125000D03*
X236500Y95000D03*
X253500Y95000D03*
D27*
X400000Y50246D02*
X424000Y50246D01*
X430000Y56246D01*
X430000Y61246D01*
X450954Y61246D01*
X455300Y56900D01*
D28*
X140000Y30000D03*
X175000Y30000D03*
X220000Y30000D03*
X520000Y-85000D03*
X590000Y-65000D03*
X210000Y165000D03*
X380000Y215000D03*
X495000Y90000D03*
X40000Y-65000D03*
D27*
X253500Y95000D02*
X253500Y125000D01*
D28*
X275000Y115000D03*
D27*
X564999Y133100D02*
X565000Y133099D01*
X564999Y133100D02*
X534700Y133100D01*
X589647Y133099D02*
X590000Y132746D01*
X589647Y133099D02*
X565000Y133099D01*
D28*
X255000Y190000D03*
X380000Y180000D03*
D27*
X256928Y188072D02*
X255000Y190000D01*
X256928Y188072D02*
X371928Y188072D01*
X380000Y180000D01*
X430000Y78754D02*
X435000Y78754D01*
X451754Y78754D01*
X455300Y82300D01*
X434000Y79754D02*
X400000Y79754D01*
X434000Y79754D02*
X435000Y78754D01*
X375000Y70000D02*
X375000Y18500D01*
X375000Y70000D02*
X385000Y80000D01*
X399754Y80000D01*
X400000Y79754D01*
X455300Y107700D02*
X455300Y133100D01*
X453000Y110000D02*
X358500Y110000D01*
X348500Y100000D01*
X453000Y110000D02*
X455300Y107700D01*
X517300Y107700D02*
X534700Y107700D01*
X517300Y107700D02*
X470000Y155000D01*
X403754Y155000D02*
X384377Y135623D01*
X403754Y155000D02*
X470000Y155000D01*
X534700Y107700D02*
X534700Y82300D01*
X383754Y135000D02*
X348500Y135000D01*
X383754Y135000D02*
X384377Y135623D01*
X427400Y-60000D02*
X465000Y-60000D01*
X485000Y-40000D01*
X485000Y1500D01*
X485000Y18500D02*
X516500Y18500D01*
X520000Y15000D01*
X518754Y15000D01*
X515000Y18754D01*
X544000Y18754D01*
X545000Y19754D01*
X545000Y45000D01*
X534700Y55300D02*
X534700Y56900D01*
X534700Y55300D02*
X545000Y45000D01*
X376600Y-100D02*
X376600Y-60000D01*
X376600Y-100D02*
X375000Y1500D01*
X331500Y100000D02*
X320000Y100000D01*
X313500Y106500D02*
X295000Y106500D01*
X313500Y106500D02*
X320000Y100000D01*
X295000Y86500D02*
X278500Y70000D01*
X253500Y70000D01*
X295000Y86500D02*
X295000Y106500D01*
X320000Y123500D02*
X331500Y135000D01*
X320000Y123500D02*
X295000Y123500D01*
X295000Y138500D01*
X278500Y155000D01*
X253500Y155000D01*
X236500Y70000D02*
X170000Y70000D01*
X81978Y109300D02*
X80400Y109300D01*
X81978Y109300D02*
X93390Y97888D01*
X142112Y97888D02*
X170000Y70000D01*
X142112Y97888D02*
X93390Y97888D01*
X236500Y95000D02*
X236500Y70000D01*
X134500Y119500D02*
X98200Y119500D01*
X134500Y119500D02*
X162500Y147500D01*
X226500Y155000D02*
X236500Y155000D01*
X226500Y155000D02*
X219000Y147500D01*
X162500Y147500D01*
X236500Y155000D02*
X236500Y125000D01*
D29*
X80400Y150100D02*
X44900Y150100D01*
X30000Y165000D02*
X30000Y218286D01*
X30000Y165000D02*
X44900Y150100D01*
X30000Y218286D02*
X39014Y227300D01*
X83700Y247300D02*
X83700Y252300D01*
X83700Y247300D02*
X63700Y227300D01*
X39014Y227300D01*
X312300Y237300D02*
X312300Y252300D01*
X312300Y237300D02*
X305000Y230000D01*
X170000Y230000D01*
X135000Y195000D01*
X90000Y195000D01*
X80000Y185000D02*
X80000Y170900D01*
X80400Y170500D01*
X80000Y185000D02*
X90000Y195000D01*
X337700Y237700D02*
X337700Y252300D01*
X145000Y182564D02*
X100064Y182564D01*
X98200Y180700D01*
X320000Y220000D02*
X337700Y237700D01*
X182436Y220000D02*
X145000Y182564D01*
X182436Y220000D02*
X320000Y220000D01*
X363100Y233100D02*
X363100Y252300D01*
X145300Y160300D02*
X98200Y160300D01*
X335000Y205000D02*
X363100Y233100D01*
X335000Y205000D02*
X190000Y205000D01*
X145300Y160300D01*
D27*
X90000Y-50000D02*
X120000Y-80000D01*
X120000Y-97000D01*
X123000Y-100000D02*
X235000Y-100000D01*
X123000Y-100000D02*
X120000Y-97000D01*
X235000Y-100000D02*
X275000Y-60000D01*
X597500Y205000D02*
X618500Y205000D01*
X620000Y203500D01*
X527500Y190000D02*
X527500Y166000D01*
X526500Y165000D01*
X412500Y206000D02*
X412500Y220000D01*
X412500Y206000D02*
X410000Y203500D01*
X447500Y220000D02*
X460000Y220000D01*
X465000Y225000D02*
X465000Y252000D01*
X464700Y252300D01*
X465000Y225000D02*
X460000Y220000D01*
X492500Y249900D02*
X492500Y190000D01*
X492500Y249900D02*
X490100Y252300D01*
X515500Y252300D02*
X515500Y234500D01*
X545000Y205000D02*
X562500Y205000D01*
X545000Y205000D02*
X515500Y234500D01*
X235000Y-50000D02*
X213500Y-50000D01*
X325800Y-40800D02*
X325800Y-60000D01*
X255000Y-30000D02*
X235000Y-50000D01*
X315000Y-30000D02*
X325800Y-40800D01*
X315000Y-30000D02*
X255000Y-30000D01*
X196500Y-50000D02*
X150000Y-50000D01*
M02*
