G04 EAGLE Gerber RS-274X export*
G75*
%MOMM*%
%FSLAX34Y34*%
%LPD*%
%INSoldermask Bottom*%
%IPPOS*%
%AMOC8*
5,1,8,0,0,1.08239X$1,22.5*%
G01*
%ADD10C,2.901600*%
%ADD11C,1.778000*%
%ADD12R,1.389600X1.389600*%
%ADD13C,1.389600*%
%ADD14C,1.801600*%
%ADD15C,2.051600*%
%ADD16C,1.509600*%
%ADD17R,1.509600X1.509600*%
%ADD18C,2.601600*%
%ADD19C,2.351600*%
%ADD20C,1.901600*%
%ADD21C,1.108000*%


D10*
X35000Y35000D03*
X35000Y265000D03*
X615000Y265000D03*
X615000Y35000D03*
D11*
X83700Y252300D03*
X83700Y277700D03*
X109100Y252300D03*
X109100Y277700D03*
X134500Y252300D03*
X134500Y277700D03*
X159900Y252300D03*
X159900Y277700D03*
X185300Y252300D03*
X185300Y277700D03*
X210700Y252300D03*
X210700Y277700D03*
X236100Y252300D03*
X236100Y277700D03*
X261500Y252300D03*
X261500Y277700D03*
X286900Y252300D03*
X286900Y277700D03*
X312300Y252300D03*
X312300Y277700D03*
X337700Y252300D03*
X337700Y277700D03*
X363100Y252300D03*
X363100Y277700D03*
X388500Y252300D03*
X388500Y277700D03*
X413900Y252300D03*
X413900Y277700D03*
X439300Y252300D03*
X439300Y277700D03*
X464700Y252300D03*
X464700Y277700D03*
X490100Y252300D03*
X490100Y277700D03*
X515500Y252300D03*
X515500Y277700D03*
X540900Y252300D03*
X540900Y277700D03*
X566300Y252300D03*
X566300Y277700D03*
D12*
X455300Y133100D03*
D13*
X455300Y107700D03*
X455300Y82300D03*
X455300Y56900D03*
X534700Y56900D03*
X534700Y82300D03*
X534700Y107700D03*
X534700Y133100D03*
D14*
X97800Y79100D02*
X80800Y79100D01*
X80800Y210900D02*
X97800Y210900D01*
D15*
X55000Y209000D03*
X55000Y81000D03*
D16*
X98200Y180700D03*
X80400Y170500D03*
X98200Y160300D03*
X98200Y139900D03*
X98200Y119500D03*
X80400Y150100D03*
X80400Y129700D03*
D17*
X80400Y109300D03*
D18*
X150000Y-37500D02*
X150000Y-62500D01*
D19*
X90000Y-61250D02*
X90000Y-38750D01*
X108750Y-97000D02*
X131250Y-97000D01*
D20*
X275000Y-60000D03*
X325800Y-60000D03*
X376600Y-60000D03*
X427400Y-60000D03*
D21*
X140000Y30000D03*
X175000Y30000D03*
X220000Y30000D03*
X520000Y-85000D03*
X590000Y-65000D03*
X210000Y165000D03*
X380000Y215000D03*
X495000Y90000D03*
X40000Y-65000D03*
X275000Y115000D03*
X255000Y190000D03*
X380000Y180000D03*
M02*
