G04 EAGLE Gerber RS-274X export*
G75*
%MOMM*%
%FSLAX34Y34*%
%LPD*%
%INSolderpaste Top*%
%IPPOS*%
%AMOC8*
5,1,8,0,0,1.08239X$1,22.5*%
G01*
%ADD10R,1.815300X1.164600*%
%ADD11R,1.465300X1.164600*%
%ADD12R,0.970200X0.920900*%
%ADD13R,1.100000X1.000000*%
%ADD14R,1.188700X1.795500*%
%ADD15R,1.000000X1.100000*%
%ADD16R,1.500000X1.500000*%


D10*
X400000Y79754D03*
X400000Y50246D03*
D11*
X430000Y78754D03*
X430000Y61246D03*
D12*
X590000Y132746D03*
X590000Y117254D03*
D13*
X375000Y1500D03*
X375000Y18500D03*
D14*
X565000Y133099D03*
X565000Y106901D03*
D10*
X545000Y19754D03*
X545000Y-9754D03*
D11*
X515000Y18754D03*
X515000Y1246D03*
D13*
X485000Y1500D03*
X485000Y18500D03*
D15*
X236500Y70000D03*
X253500Y70000D03*
X236500Y155000D03*
X253500Y155000D03*
X196500Y-50000D03*
X213500Y-50000D03*
D16*
X527500Y190000D03*
X492500Y190000D03*
X597500Y205000D03*
X562500Y205000D03*
D13*
X620000Y203500D03*
X620000Y186500D03*
D15*
X526500Y165000D03*
X543500Y165000D03*
D16*
X412500Y220000D03*
X447500Y220000D03*
D13*
X410000Y203500D03*
X410000Y186500D03*
X295000Y123500D03*
X295000Y106500D03*
D15*
X348500Y100000D03*
X331500Y100000D03*
X331500Y135000D03*
X348500Y135000D03*
X236500Y125000D03*
X253500Y125000D03*
X236500Y95000D03*
X253500Y95000D03*
M02*
