M48
;GenerationSoftware,Autodesk,EAGLE,9.6.2*%
;CreationDate,2022-09-20T04:36:39Z*%
FMAT,2
ICI,OFF
METRIC,TZ,000.000
T5C0.394
T4C0.900
T3C1.000
T2C1.016
T1C1.300
%
G90
M71
T1
X4500Y27400
X4500Y14600
T2
X19500Y27000
X22040Y27000
X19500Y24460
X22040Y24460
X19500Y21920
X22040Y21920
X19500Y19380
X22040Y19380
X19500Y16840
X22040Y16840
X19500Y14300
X22040Y14300
X16500Y10000
X13960Y10000
X11420Y10000
T3
X7930Y14410
X7930Y27590
T4
X8820Y24570
X7040Y23550
X8820Y22530
X8820Y20490
X8820Y18450
X7040Y21510
X7040Y19470
X7040Y17430
T5
X2000Y24000
X3500Y10500
X21500Y10500
X15000Y19000
X14000Y28500
M30