G04 ================== begin FILE IDENTIFICATION RECORD ==================*
G04 Layout Name:  C:/tmp/20_043217b/worklib/02_043217b_top/physical/08_043217b.brd*
G04 Film Name:    l1_primary*
G04 File Format:  Gerber RS274X*
G04 File Origin:  Cadence Allegro 16.6-2015-S074*
G04 Origin Date:  Tue Jan 24 04:00:59 2017*
G04 *
G04 Layer:  VIA CLASS/TOP*
G04 Layer:  PIN/TOP*
G04 Layer:  PACKAGE GEOMETRY/ETCH_TOP*
G04 Layer:  ETCH/TOP*
G04 Layer:  BOARD GEOMETRY/TOOLING_CORNERS*
G04 Layer:  BOARD GEOMETRY/LYR_TOP*
G04 Layer:  BOARD GEOMETRY/ROOT_NUMBER*
G04 *
G04 Offset:    (0.00 0.00)*
G04 Mirror:    No*
G04 Mode:      Positive*
G04 Rotation:  0*
G04 FullContactRelief:  No*
G04 UndefLineWidth:     8.00*
G04 ================== end FILE IDENTIFICATION RECORD ====================*
%FSLAX55Y55*MOIN*%
%IR0*IPPOS*OFA0.00000B0.00000*MIA0B0*SFA1.00000B1.00000*%
%ADD10C,.04*%
%ADD14C,.025*%
%ADD16C,.065*%
%ADD18R,.065X.065*%
%ADD20R,.024X.022*%
%ADD19R,.05X.045*%
%ADD15R,.073X.022*%
%ADD13R,.035X.032*%
%ADD11R,.022X.073*%
%ADD17R,.047X.043*%
%ADD12R,.043X.047*%
%ADD21C,.02*%
%ADD22C,.012*%
%ADD23C,.05*%
%ADD24C,.008*%
%ADD25C,.006*%
G75*
%LPD*%
G75*
G54D10*
G01X4350Y-12500D02*
Y-20500D01*
G01X0Y0D02*
X4350Y-4350D01*
Y-12500D01*
G01X50500Y-38650D02*
Y-30750D01*
G01X42500Y-38650D02*
X50500D01*
G01Y-23250D02*
Y-18000D01*
X-10500Y19500D03*
X60000Y-49000D03*
G54D11*
X22500Y-36327D03*
X17500D03*
Y-14673D03*
X22500D03*
X32500Y-36327D03*
X27500D03*
Y-14673D03*
X32500D03*
G54D20*
X41100Y-12400D03*
Y-8600D03*
G54D21*
G01X22500Y-36327D02*
Y-42500D01*
G01X21650Y-47500D02*
X22500Y-46650D01*
Y-42500D01*
G01X21650Y-47500D02*
X17000D01*
G01X8400Y-45500D02*
X12500D01*
G01X8400D02*
Y-41500D01*
G01X-2350Y-36000D02*
Y-31000D01*
G01X2600Y-45500D02*
X-1500D01*
G01X2600D02*
Y-41500D01*
G01X17500Y-36327D02*
X4677D01*
X4350Y-36000D01*
G01X14173Y-25500D02*
X8000D01*
G01X-2350Y-12500D02*
Y-8000D01*
G01Y-20500D02*
Y-25500D01*
G01Y-12500D02*
Y-20500D01*
G01X14173D02*
X4350D01*
G01X42500Y-45350D02*
X50500D01*
G01D02*
X55000D01*
G01X42500D02*
X38000D01*
G01X27500Y-36327D02*
Y-46650D01*
X28350Y-47500D01*
G01X42500Y-38650D02*
X40177Y-36327D01*
X32500D01*
G54D12*
X-2350Y-36000D03*
X4350D03*
X21650Y-47500D03*
X4350Y-20500D03*
X-2350D03*
X4350Y-12500D03*
X-2350D03*
X28350Y-47500D03*
G54D22*
G01X17500Y-14673D02*
Y-8500D01*
G01X22500Y-14673D02*
Y-8500D01*
G01X27500Y-14673D02*
Y-7755D01*
X20000Y-255D01*
Y0D01*
G01X32500Y-14673D02*
Y-9360D01*
X25000Y-1860D01*
Y12500D01*
X28000Y15500D01*
X42000D01*
X45000Y12500D01*
Y5000D01*
X50000Y0D01*
G01X41100Y-12400D02*
X41000D01*
X35827Y-17573D01*
Y-20500D01*
G01Y-30500D02*
X41500D01*
X45000Y-27000D01*
Y-16895D01*
X55500Y-6395D01*
Y4500D01*
X50000Y10000D01*
G01X30000D02*
X34850Y5150D01*
Y-1850D01*
X37750Y-4750D01*
X37890D01*
X37990Y-4850D01*
X43850D01*
X46500Y-7500D01*
Y-12000D01*
X42000Y-16500D01*
Y-24300D01*
X40800Y-25500D01*
X35827D01*
G01X37000Y-8500D02*
X37100Y-8600D01*
X41100D01*
G54D13*
X2600Y-45500D03*
X8400D03*
G54D23*
G01X-17500Y-56500D02*
X2500D01*
G01X-17500D02*
Y-36500D01*
G01Y28500D02*
Y8500D01*
G01Y28500D02*
X2500D01*
G01X67500Y-56500D02*
X47500D01*
G01X67500Y28500D02*
X47500D01*
G01X67500Y-56500D02*
Y-36500D01*
G01Y28500D02*
Y8500D01*
G54D14*
X17000Y-47500D03*
X22500Y-42500D03*
X8400Y-41500D03*
X12500Y-45500D03*
X-1500D03*
X2600Y-41500D03*
X8000Y-25500D03*
X-2350Y-31000D03*
Y-25500D03*
Y-8000D03*
X17500Y-8500D03*
X22500D03*
X55000Y-45350D03*
X38000D03*
X50500Y-18000D03*
X37000Y-8500D03*
G54D24*
G01X-30000Y91000D02*
X-31000Y90667D01*
X-31750Y89833D01*
X-32250Y88833D01*
X-32625Y87500D01*
X-32750Y86000D01*
X-32625Y84500D01*
X-32250Y83167D01*
X-31750Y82166D01*
X-31000Y81333D01*
X-30000Y81000D01*
X-29000Y81333D01*
X-28250Y82166D01*
X-27750Y83167D01*
X-27375Y84500D01*
X-27250Y86000D01*
X-27375Y87500D01*
X-27750Y88833D01*
X-28250Y89833D01*
X-29000Y90667D01*
X-30000Y91000D01*
G01X-20000Y81000D02*
X-19125Y81167D01*
X-18125Y81667D01*
X-17500Y82500D01*
X-17250Y83667D01*
X-17500Y84833D01*
X-18250Y85833D01*
X-19375Y86333D01*
X-20625D01*
X-21375Y86667D01*
X-22000Y87500D01*
X-22250Y88667D01*
X-21875Y89833D01*
X-21000Y90667D01*
X-20000Y91000D01*
X-19000Y90667D01*
X-18125Y89833D01*
X-17750Y88667D01*
X-18000Y87500D01*
X-18625Y86667D01*
X-19375Y86333D01*
X-20625D01*
X-21750Y85833D01*
X-22500Y84833D01*
X-22750Y83667D01*
X-22500Y82500D01*
X-21875Y81667D01*
X-20875Y81167D01*
X-20000Y81000D01*
G01X-11625Y84333D02*
X-8375D01*
G01X58375D02*
X61625D01*
G01X70000Y91000D02*
X69000Y90667D01*
X68250Y89833D01*
X67750Y88833D01*
X67375Y87500D01*
X67250Y86000D01*
X67375Y84500D01*
X67750Y83167D01*
X68250Y82166D01*
X69000Y81333D01*
X70000Y81000D01*
X71000Y81333D01*
X71750Y82166D01*
X72250Y83167D01*
X72625Y84500D01*
X72750Y86000D01*
X72625Y87500D01*
X72250Y88833D01*
X71750Y89833D01*
X71000Y90667D01*
X70000Y91000D01*
G01X80000Y81000D02*
Y91000D01*
X78500Y89000D01*
G01Y81000D02*
X81500D01*
G01X-22500Y111000D02*
Y101000D01*
X-17500D01*
G01X-10000D02*
Y111000D01*
X-11500Y109000D01*
G01Y101000D02*
X-8500D01*
G01X7500D02*
Y111000D01*
X10500D01*
X11500Y110500D01*
X12250Y109333D01*
X12500Y108000D01*
X12250Y106667D01*
X11625Y105667D01*
X10500Y105166D01*
X7500D01*
G01X17500Y101000D02*
Y111000D01*
X20625D01*
X21625Y110500D01*
X22250Y109833D01*
X22500Y108500D01*
X22250Y107167D01*
X21500Y106333D01*
X20625Y105833D01*
X17500D01*
G01X20625D02*
X22500Y101000D01*
G01X28500Y111000D02*
X31500D01*
G01X30000D02*
Y101000D01*
G01X28500D02*
X31500D01*
G01X36750D02*
Y111000D01*
X40000Y102667D01*
X43250Y111000D01*
Y101000D01*
G01X46875D02*
X50000Y111000D01*
X53125Y101000D01*
G01X52000Y104500D02*
X48000D01*
G01X57500Y101000D02*
Y111000D01*
X60625D01*
X61625Y110500D01*
X62250Y109833D01*
X62500Y108500D01*
X62250Y107167D01*
X61500Y106333D01*
X60625Y105833D01*
X57500D01*
G01X60625D02*
X62500Y101000D01*
G01X70000D02*
Y105500D01*
X67500Y111000D01*
G01X72500D02*
X70000Y105500D01*
G01X2500Y61000D02*
Y71000D01*
X5625D01*
X6625Y70500D01*
X7250Y69833D01*
X7500Y68500D01*
X7250Y67167D01*
X6500Y66333D01*
X5625Y65833D01*
X2500D01*
G01X5625D02*
X7500Y61000D01*
G01X17500D02*
X12500D01*
Y71000D01*
X17500D01*
G01X15500Y66167D02*
X12500D01*
G01X21875Y71000D02*
X25000Y61000D01*
X28125Y71000D01*
G01X46000Y66333D02*
X46500Y66833D01*
X46875Y67666D01*
X47125Y68833D01*
X46875Y69833D01*
X46375Y70500D01*
X45500Y71000D01*
X42125D01*
Y61000D01*
X46250D01*
X47125Y61667D01*
X47625Y62667D01*
X47875Y63833D01*
X47625Y65000D01*
X46875Y66000D01*
X46000Y66333D01*
X42125D01*
G01X0Y91000D02*
X-1000Y90667D01*
X-1750Y89833D01*
X-2250Y88833D01*
X-2625Y87500D01*
X-2750Y86000D01*
X-2625Y84500D01*
X-2250Y83167D01*
X-1750Y82166D01*
X-1000Y81333D01*
X0Y81000D01*
X1000Y81333D01*
X1750Y82166D01*
X2250Y83167D01*
X2625Y84500D01*
X2750Y86000D01*
X2625Y87500D01*
X2250Y88833D01*
X1750Y89833D01*
X1000Y90667D01*
X0Y91000D01*
G01X11500Y81000D02*
Y91000D01*
X6875Y83833D01*
X13125D01*
G01X17250Y83000D02*
X18000Y81833D01*
X19000Y81167D01*
X20125Y81000D01*
X21125Y81167D01*
X22125Y82000D01*
X22750Y83000D01*
X22875Y84000D01*
X22625Y85166D01*
X21750Y86000D01*
X20875Y86333D01*
X19750D01*
G01X20875D02*
X21625Y86833D01*
X22250Y87666D01*
X22500Y88667D01*
X22250Y89667D01*
X21625Y90500D01*
X20500Y91000D01*
X19375Y90833D01*
X18250Y90167D01*
G01X27625Y89333D02*
X28375Y90333D01*
X29250Y90833D01*
X30250Y91000D01*
X31500Y90667D01*
X32375Y89833D01*
X32625Y88833D01*
X32500Y87833D01*
X32000Y87000D01*
X29500Y85333D01*
X28375Y84167D01*
X27625Y82500D01*
X27375Y81000D01*
X32625D01*
G01X40000D02*
Y91000D01*
X38500Y89000D01*
G01Y81000D02*
X41500D01*
G01X49750D02*
X50000Y83167D01*
X50375Y85000D01*
X50875Y86667D01*
X51500Y88500D01*
X52500Y91000D01*
X47500D01*
G54D15*
X14173Y-30500D03*
Y-25500D03*
Y-20500D03*
X35827D03*
Y-25500D03*
Y-30500D03*
G54D25*
G01X62000Y-12817D02*
X58900D01*
Y-11897D01*
X59055Y-11590D01*
X59417Y-11360D01*
X59830Y-11283D01*
X60243Y-11360D01*
X60553Y-11552D01*
X60708Y-11897D01*
Y-12817D01*
G01X62000Y-9717D02*
X58900D01*
Y-8758D01*
X59055Y-8452D01*
X59262Y-8260D01*
X59675Y-8183D01*
X60088Y-8260D01*
X60347Y-8490D01*
X60502Y-8758D01*
Y-9717D01*
G01Y-8758D02*
X62000Y-8183D01*
G01X58900Y-6310D02*
Y-5390D01*
G01Y-5850D02*
X62000D01*
G01Y-6310D02*
Y-5390D01*
G01Y-3747D02*
X58900D01*
X61483Y-2750D01*
X58900Y-1753D01*
X62000D01*
G01Y-608D02*
X58900Y350D01*
X62000Y1308D01*
G01X60915Y963D02*
Y-263D01*
G01X62000Y2683D02*
X58900D01*
Y3642D01*
X59055Y3948D01*
X59262Y4140D01*
X59675Y4217D01*
X60088Y4140D01*
X60347Y3910D01*
X60502Y3642D01*
Y2683D01*
G01Y3642D02*
X62000Y4217D01*
G01Y6550D02*
X60605D01*
X58900Y5783D01*
G01Y7317D02*
X60605Y6550D01*
G01X61587Y11945D02*
X61845Y12252D01*
X62000Y12597D01*
Y12903D01*
X61845Y13210D01*
X61587Y13440D01*
X61225Y13555D01*
X60863Y13478D01*
X60553Y13287D01*
X60347Y12942D01*
X60243Y12482D01*
X60037Y12213D01*
X59675Y12098D01*
X59313Y12175D01*
X59055Y12367D01*
X58900Y12635D01*
Y12903D01*
X59003Y13172D01*
X59262Y13402D01*
G01X58900Y15390D02*
Y16310D01*
G01Y15850D02*
X62000D01*
G01Y15390D02*
Y16310D01*
G01Y18107D02*
X58900D01*
Y18873D01*
X59055Y19180D01*
X59262Y19410D01*
X59572Y19602D01*
X59933Y19755D01*
X60450Y19793D01*
X60967Y19755D01*
X61328Y19602D01*
X61638Y19410D01*
X61845Y19180D01*
X62000Y18873D01*
Y18107D01*
G01Y22817D02*
Y21283D01*
X58900D01*
Y22817D01*
G01X60398Y22203D02*
Y21283D01*
G54D16*
X0Y0D03*
X10000D03*
X20000D03*
X0Y10000D03*
X10000D03*
X20000D03*
X30000Y0D03*
X40000D03*
X30000Y10000D03*
X40000D03*
X50000D03*
G54D17*
X42500Y-38650D03*
Y-45350D03*
X50500Y-38650D03*
Y-45350D03*
G54D18*
X50000Y0D03*
G54D19*
X50500Y-23250D03*
Y-30750D03*
M02*
