G04 ================== begin FILE IDENTIFICATION RECORD ==================*
G04 Layout Name:  C:/tmp/20_043217b/worklib/02_043217b_top/physical/08_043217b.brd*
G04 Film Name:    l2_secondary*
G04 File Format:  Gerber RS274X*
G04 File Origin:  Cadence Allegro 16.6-2015-S074*
G04 Origin Date:  Tue Jan 24 04:00:59 2017*
G04 *
G04 Layer:  VIA CLASS/BOTTOM*
G04 Layer:  PIN/BOTTOM*
G04 Layer:  PACKAGE GEOMETRY/ETCH_BOTTOM*
G04 Layer:  ETCH/BOTTOM*
G04 Layer:  BOARD GEOMETRY/TOOLING_CORNERS*
G04 Layer:  BOARD GEOMETRY/LYR_BOTTOM*
G04 Layer:  BOARD GEOMETRY/ROOT_NUMBER*
G04 *
G04 Offset:    (0.00 0.00)*
G04 Mirror:    No*
G04 Mode:      Positive*
G04 Rotation:  0*
G04 FullContactRelief:  No*
G04 UndefLineWidth:     8.00*
G04 ================== end FILE IDENTIFICATION RECORD ====================*
%FSLAX55Y55*MOIN*%
%IR0*IPPOS*OFA0.00000B0.00000*MIA0B0*SFA1.00000B1.00000*%
%ADD10C,.025*%
%ADD11C,.065*%
%ADD12R,.065X.065*%
%ADD13C,.02*%
%ADD14C,.012*%
%ADD15C,.04*%
%ADD16C,.05*%
%ADD17C,.008*%
%ADD18C,.006*%
%ADD19C,.08104*%
G75*
%LPD*%
G75*
G36*
G01X-12499Y-51499D02*
Y-21302D01*
X-6898D01*
Y23499D01*
X62500D01*
Y-29000D01*
X4500D01*
Y-51499D01*
X-12499D01*
G37*
G36*
G01X62499D02*
X7000D01*
Y-31500D01*
X62499D01*
Y-51499D01*
G37*
%LPC*%
G75*
G36*
G01X52764Y-20264D02*
G02X48236Y-15736I-2264J2264D01*
G01X53798Y-10174D01*
Y-6298D01*
X52500Y-5000D01*
X45048D01*
X39746Y-10302D01*
X39698D01*
X39500Y-10500D01*
X38419D01*
G02X35581I-1419J2000D01*
G01X23919D01*
G02X21081I-1419J2000D01*
G01X18919D01*
G02X16500Y-6261I-1418J2000D01*
G01Y-2751D01*
G02Y2751I3500J2751D01*
G01Y7249D01*
G02X17350Y13577I3500J2751D01*
G03X17112Y14298I-238J321D01*
G01X12150D01*
G03X11957Y13548I0J-400D01*
G02X8043I-1957J-3548D01*
G03X7850Y14298I-193J350D01*
G01X3826D01*
X3201Y13674D01*
Y13095D01*
X3255Y13037D01*
G02X3202Y6906I-3255J-3038D01*
G01Y3094D01*
G02X-3202I-3202J-3094D01*
G01Y6906D01*
G02Y13094I3202J3094D01*
G01Y16326D01*
X1174Y20702D01*
X53326D01*
X60202Y13826D01*
Y-12826D01*
X52764Y-20264D01*
G37*
G54D19*
X10000Y0D03*
%LPD*%
G75*
G54D10*
X17000Y-47500D03*
X22500Y-42500D03*
X8400Y-41500D03*
X12500Y-45500D03*
X-1500D03*
X2600Y-41500D03*
X8000Y-25500D03*
X-2350Y-31000D03*
Y-25500D03*
Y-8000D03*
X17500Y-8500D03*
X22500D03*
X55000Y-45350D03*
X38000D03*
X50500Y-18000D03*
X37000Y-8500D03*
G54D11*
X0Y0D03*
X10000D03*
X20000D03*
X0Y10000D03*
X10000D03*
X20000D03*
X30000Y0D03*
X40000D03*
X30000Y10000D03*
X40000D03*
X50000D03*
G54D12*
Y0D03*
G54D13*
G01X10000Y-4252D02*
Y0D01*
G01D02*
Y4252D01*
G01X5748Y0D02*
X10000D01*
G01D02*
X14252D01*
G01X10000Y5748D02*
Y10000D01*
G01X5748D02*
X10000D01*
G01D02*
X14252D01*
G54D14*
G01X17500Y-8500D02*
X21000Y-5000D01*
X25000D01*
X30000Y0D01*
G01X22500Y-8500D02*
X31500D01*
X40000Y0D01*
G01X20000Y10000D02*
X25000Y5000D01*
X43000D01*
X45000Y3000D01*
Y-2500D01*
X39000Y-8500D01*
X37000D01*
G54D15*
G01X0Y10000D02*
Y15000D01*
X2500Y17500D01*
X52000D01*
X57000Y12500D01*
Y-11500D01*
X50500Y-18000D01*
G01X0Y0D02*
Y10000D01*
G54D16*
G01X-17500Y-56500D02*
X2500D01*
G01X-17500D02*
Y-36500D01*
G01Y28500D02*
Y8500D01*
G01Y28500D02*
X2500D01*
G01X67500Y-56500D02*
X47500D01*
G01X67500Y28500D02*
X47500D01*
G01X67500Y-56500D02*
Y-36500D01*
G01Y28500D02*
Y8500D01*
G54D17*
G01X-30000Y91000D02*
X-31000Y90667D01*
X-31750Y89833D01*
X-32250Y88833D01*
X-32625Y87500D01*
X-32750Y86000D01*
X-32625Y84500D01*
X-32250Y83167D01*
X-31750Y82166D01*
X-31000Y81333D01*
X-30000Y81000D01*
X-29000Y81333D01*
X-28250Y82166D01*
X-27750Y83167D01*
X-27375Y84500D01*
X-27250Y86000D01*
X-27375Y87500D01*
X-27750Y88833D01*
X-28250Y89833D01*
X-29000Y90667D01*
X-30000Y91000D01*
G01X-20000Y81000D02*
X-19125Y81167D01*
X-18125Y81667D01*
X-17500Y82500D01*
X-17250Y83667D01*
X-17500Y84833D01*
X-18250Y85833D01*
X-19375Y86333D01*
X-20625D01*
X-21375Y86667D01*
X-22000Y87500D01*
X-22250Y88667D01*
X-21875Y89833D01*
X-21000Y90667D01*
X-20000Y91000D01*
X-19000Y90667D01*
X-18125Y89833D01*
X-17750Y88667D01*
X-18000Y87500D01*
X-18625Y86667D01*
X-19375Y86333D01*
X-20625D01*
X-21750Y85833D01*
X-22500Y84833D01*
X-22750Y83667D01*
X-22500Y82500D01*
X-21875Y81667D01*
X-20875Y81167D01*
X-20000Y81000D01*
G01X-11625Y84333D02*
X-8375D01*
G01X58375D02*
X61625D01*
G01X70000Y91000D02*
X69000Y90667D01*
X68250Y89833D01*
X67750Y88833D01*
X67375Y87500D01*
X67250Y86000D01*
X67375Y84500D01*
X67750Y83167D01*
X68250Y82166D01*
X69000Y81333D01*
X70000Y81000D01*
X71000Y81333D01*
X71750Y82166D01*
X72250Y83167D01*
X72625Y84500D01*
X72750Y86000D01*
X72625Y87500D01*
X72250Y88833D01*
X71750Y89833D01*
X71000Y90667D01*
X70000Y91000D01*
G01X77625Y89333D02*
X78375Y90333D01*
X79250Y90833D01*
X80250Y91000D01*
X81500Y90667D01*
X82375Y89833D01*
X82625Y88833D01*
X82500Y87833D01*
X82000Y87000D01*
X79500Y85333D01*
X78375Y84167D01*
X77625Y82500D01*
X77375Y81000D01*
X82625D01*
G01X-32500Y111000D02*
Y101000D01*
X-27500D01*
G01X-22375Y109333D02*
X-21625Y110333D01*
X-20750Y110833D01*
X-19750Y111000D01*
X-18500Y110667D01*
X-17625Y109833D01*
X-17375Y108833D01*
X-17500Y107833D01*
X-18000Y107000D01*
X-20500Y105333D01*
X-21625Y104167D01*
X-22375Y102500D01*
X-22625Y101000D01*
X-17375D01*
G01X-2625Y102333D02*
X-1625Y101500D01*
X-500Y101000D01*
X500D01*
X1500Y101500D01*
X2250Y102333D01*
X2625Y103500D01*
X2375Y104666D01*
X1750Y105667D01*
X625Y106333D01*
X-875Y106667D01*
X-1750Y107333D01*
X-2125Y108500D01*
X-1875Y109667D01*
X-1250Y110500D01*
X-375Y111000D01*
X500D01*
X1375Y110667D01*
X2125Y109833D01*
G01X12500Y101000D02*
X7500D01*
Y111000D01*
X12500D01*
G01X10500Y106167D02*
X7500D01*
G01X22750Y110167D02*
X22000Y110667D01*
X21125Y111000D01*
X20125D01*
X19000Y110500D01*
X18125Y109667D01*
X17500Y108667D01*
X17000Y107000D01*
X16875Y105500D01*
X17125Y104000D01*
X17500Y103000D01*
X18250Y102000D01*
X19125Y101333D01*
X20000Y101000D01*
X20875D01*
X21750Y101333D01*
X22500Y101833D01*
X23125Y102500D01*
G01X30000Y101000D02*
X29000Y101167D01*
X28125Y101833D01*
X27375Y102833D01*
X26875Y104000D01*
X26625Y105333D01*
Y106667D01*
X26875Y108000D01*
X27375Y109167D01*
X28125Y110167D01*
X29000Y110833D01*
X30000Y111000D01*
X31000Y110833D01*
X31875Y110167D01*
X32625Y109167D01*
X33125Y108000D01*
X33375Y106667D01*
Y105333D01*
X33125Y104000D01*
X32625Y102833D01*
X31875Y101833D01*
X31000Y101167D01*
X30000Y101000D01*
G01X37125D02*
Y111000D01*
X42875Y101000D01*
Y111000D01*
G01X47250Y101000D02*
Y111000D01*
X49750D01*
X50750Y110500D01*
X51500Y109833D01*
X52125Y108833D01*
X52625Y107666D01*
X52750Y106000D01*
X52625Y104333D01*
X52125Y103167D01*
X51500Y102166D01*
X50750Y101500D01*
X49750Y101000D01*
X47250D01*
G01X56875D02*
X60000Y111000D01*
X63125Y101000D01*
G01X62000Y104500D02*
X58000D01*
G01X67500Y101000D02*
Y111000D01*
X70625D01*
X71625Y110500D01*
X72250Y109833D01*
X72500Y108500D01*
X72250Y107167D01*
X71500Y106333D01*
X70625Y105833D01*
X67500D01*
G01X70625D02*
X72500Y101000D01*
G01X80000D02*
Y105500D01*
X77500Y111000D01*
G01X82500D02*
X80000Y105500D01*
G01X2500Y61000D02*
Y71000D01*
X5625D01*
X6625Y70500D01*
X7250Y69833D01*
X7500Y68500D01*
X7250Y67167D01*
X6500Y66333D01*
X5625Y65833D01*
X2500D01*
G01X5625D02*
X7500Y61000D01*
G01X17500D02*
X12500D01*
Y71000D01*
X17500D01*
G01X15500Y66167D02*
X12500D01*
G01X21875Y71000D02*
X25000Y61000D01*
X28125Y71000D01*
G01X46000Y66333D02*
X46500Y66833D01*
X46875Y67666D01*
X47125Y68833D01*
X46875Y69833D01*
X46375Y70500D01*
X45500Y71000D01*
X42125D01*
Y61000D01*
X46250D01*
X47125Y61667D01*
X47625Y62667D01*
X47875Y63833D01*
X47625Y65000D01*
X46875Y66000D01*
X46000Y66333D01*
X42125D01*
G01X0Y91000D02*
X-1000Y90667D01*
X-1750Y89833D01*
X-2250Y88833D01*
X-2625Y87500D01*
X-2750Y86000D01*
X-2625Y84500D01*
X-2250Y83167D01*
X-1750Y82166D01*
X-1000Y81333D01*
X0Y81000D01*
X1000Y81333D01*
X1750Y82166D01*
X2250Y83167D01*
X2625Y84500D01*
X2750Y86000D01*
X2625Y87500D01*
X2250Y88833D01*
X1750Y89833D01*
X1000Y90667D01*
X0Y91000D01*
G01X11500Y81000D02*
Y91000D01*
X6875Y83833D01*
X13125D01*
G01X17250Y83000D02*
X18000Y81833D01*
X19000Y81167D01*
X20125Y81000D01*
X21125Y81167D01*
X22125Y82000D01*
X22750Y83000D01*
X22875Y84000D01*
X22625Y85166D01*
X21750Y86000D01*
X20875Y86333D01*
X19750D01*
G01X20875D02*
X21625Y86833D01*
X22250Y87666D01*
X22500Y88667D01*
X22250Y89667D01*
X21625Y90500D01*
X20500Y91000D01*
X19375Y90833D01*
X18250Y90167D01*
G01X27625Y89333D02*
X28375Y90333D01*
X29250Y90833D01*
X30250Y91000D01*
X31500Y90667D01*
X32375Y89833D01*
X32625Y88833D01*
X32500Y87833D01*
X32000Y87000D01*
X29500Y85333D01*
X28375Y84167D01*
X27625Y82500D01*
X27375Y81000D01*
X32625D01*
G01X40000D02*
Y91000D01*
X38500Y89000D01*
G01Y81000D02*
X41500D01*
G01X49750D02*
X50000Y83167D01*
X50375Y85000D01*
X50875Y86667D01*
X51500Y88500D01*
X52500Y91000D01*
X47500D01*
G54D18*
G01X-11087Y-19455D02*
X-11345Y-19148D01*
X-11500Y-18803D01*
Y-18497D01*
X-11345Y-18190D01*
X-11087Y-17960D01*
X-10725Y-17845D01*
X-10363Y-17922D01*
X-10053Y-18113D01*
X-9847Y-18458D01*
X-9743Y-18918D01*
X-9537Y-19187D01*
X-9175Y-19302D01*
X-8813Y-19225D01*
X-8555Y-19033D01*
X-8400Y-18765D01*
Y-18497D01*
X-8503Y-18228D01*
X-8762Y-17998D01*
G01X-11500Y-14783D02*
Y-16317D01*
X-8400D01*
Y-14783D01*
G01X-9898Y-15397D02*
Y-16317D01*
G01X-8658Y-11607D02*
X-8503Y-11837D01*
X-8400Y-12105D01*
Y-12412D01*
X-8555Y-12757D01*
X-8813Y-13025D01*
X-9123Y-13217D01*
X-9640Y-13370D01*
X-10105Y-13408D01*
X-10570Y-13332D01*
X-10880Y-13217D01*
X-11190Y-12987D01*
X-11397Y-12718D01*
X-11500Y-12450D01*
Y-12182D01*
X-11397Y-11913D01*
X-11242Y-11683D01*
X-11035Y-11492D01*
G01X-11500Y-9350D02*
X-11448Y-9657D01*
X-11242Y-9925D01*
X-10932Y-10155D01*
X-10570Y-10308D01*
X-10157Y-10385D01*
X-9743D01*
X-9330Y-10308D01*
X-8968Y-10155D01*
X-8658Y-9925D01*
X-8452Y-9657D01*
X-8400Y-9350D01*
X-8452Y-9043D01*
X-8658Y-8775D01*
X-8968Y-8545D01*
X-9330Y-8392D01*
X-9743Y-8315D01*
X-10157D01*
X-10570Y-8392D01*
X-10932Y-8545D01*
X-11242Y-8775D01*
X-11448Y-9043D01*
X-11500Y-9350D01*
G01Y-7132D02*
X-8400D01*
X-11500Y-5368D01*
X-8400D01*
G01X-11500Y-3993D02*
X-8400D01*
Y-3227D01*
X-8555Y-2920D01*
X-8762Y-2690D01*
X-9072Y-2498D01*
X-9433Y-2345D01*
X-9950Y-2307D01*
X-10467Y-2345D01*
X-10828Y-2498D01*
X-11138Y-2690D01*
X-11345Y-2920D01*
X-11500Y-3227D01*
Y-3993D01*
G01Y-1008D02*
X-8400Y-50D01*
X-11500Y908D01*
G01X-10415Y563D02*
Y-663D01*
G01X-11500Y2283D02*
X-8400D01*
Y3242D01*
X-8555Y3548D01*
X-8762Y3740D01*
X-9175Y3817D01*
X-9588Y3740D01*
X-9847Y3510D01*
X-10002Y3242D01*
Y2283D01*
G01Y3242D02*
X-11500Y3817D01*
G01Y6150D02*
X-10105D01*
X-8400Y5383D01*
G01Y6917D02*
X-10105Y6150D01*
G01X-11087Y11545D02*
X-11345Y11852D01*
X-11500Y12197D01*
Y12503D01*
X-11345Y12810D01*
X-11087Y13040D01*
X-10725Y13155D01*
X-10363Y13078D01*
X-10053Y12887D01*
X-9847Y12542D01*
X-9743Y12082D01*
X-9537Y11813D01*
X-9175Y11698D01*
X-8813Y11775D01*
X-8555Y11967D01*
X-8400Y12235D01*
Y12503D01*
X-8503Y12772D01*
X-8762Y13002D01*
G01X-8400Y14990D02*
Y15910D01*
G01Y15450D02*
X-11500D01*
G01Y14990D02*
Y15910D01*
G01Y17707D02*
X-8400D01*
Y18473D01*
X-8555Y18780D01*
X-8762Y19010D01*
X-9072Y19202D01*
X-9433Y19355D01*
X-9950Y19393D01*
X-10467Y19355D01*
X-10828Y19202D01*
X-11138Y19010D01*
X-11345Y18780D01*
X-11500Y18473D01*
Y17707D01*
G01Y22417D02*
Y20883D01*
X-8400D01*
Y22417D01*
G01X-9898Y21803D02*
Y20883D01*
M02*
