G04 ================== begin FILE IDENTIFICATION RECORD ==================*
G04 Layout Name:  C:/tmp/20_043217b/worklib/02_043217b_top/physical/08_043217b.brd*
G04 Film Name:    mask_prm*
G04 File Format:  Gerber RS274X*
G04 File Origin:  Cadence Allegro 16.6-2015-S074*
G04 Origin Date:  Tue Jan 24 04:00:59 2017*
G04 *
G04 Layer:  VIA CLASS/SOLDERMASK_TOP*
G04 Layer:  PIN/SOLDERMASK_TOP*
G04 Layer:  PACKAGE GEOMETRY/SOLDERMASK_TOP*
G04 Layer:  BOARD GEOMETRY/TOOLING_CORNERS*
G04 Layer:  BOARD GEOMETRY/SOLDERMASK_TOP*
G04 Layer:  BOARD GEOMETRY/ROOT_NUMBER*
G04 *
G04 Offset:    (0.00 0.00)*
G04 Mirror:    No*
G04 Mode:      Positive*
G04 Rotation:  0*
G04 FullContactRelief:  No*
G04 UndefLineWidth:     8.00*
G04 ================== end FILE IDENTIFICATION RECORD ====================*
%FSLAX55Y55*MOIN*%
%IR0*IPPOS*OFA0.00000B0.00000*MIA0B0*SFA1.00000B1.00000*%
%ADD15C,.07*%
%ADD10C,.08*%
%ADD17R,.07X.07*%
%ADD18R,.055X.05*%
%ADD13R,.04X.037*%
%ADD16R,.052X.048*%
%ADD19R,.029X.027*%
%ADD12R,.048X.052*%
%ADD14R,.078X.027*%
%ADD11R,.027X.078*%
%ADD20C,.05*%
%ADD21C,.008*%
G75*
%LPD*%
G75*
G54D10*
X-10500Y19500D03*
X60000Y-49000D03*
G54D20*
G01X-17500Y-56500D02*
X2500D01*
G01X-17500D02*
Y-36500D01*
G01Y28500D02*
Y8500D01*
G01Y28500D02*
X2500D01*
G01X67500Y-56500D02*
X47500D01*
G01X67500Y28500D02*
X47500D01*
G01X67500Y-56500D02*
Y-36500D01*
G01Y28500D02*
Y8500D01*
G54D11*
X22500Y-36327D03*
X17500D03*
Y-14673D03*
X22500D03*
X32500Y-36327D03*
X27500D03*
Y-14673D03*
X32500D03*
G54D21*
G01X-62625Y102333D02*
X-61625Y101500D01*
X-60500Y101000D01*
X-59500D01*
X-58500Y101500D01*
X-57750Y102333D01*
X-57375Y103500D01*
X-57625Y104666D01*
X-58250Y105667D01*
X-59375Y106333D01*
X-60875Y106667D01*
X-61750Y107333D01*
X-62125Y108500D01*
X-61875Y109667D01*
X-61250Y110500D01*
X-60375Y111000D01*
X-59500D01*
X-58625Y110667D01*
X-57875Y109833D01*
G01X-50000Y101000D02*
X-51000Y101167D01*
X-51875Y101833D01*
X-52625Y102833D01*
X-53125Y104000D01*
X-53375Y105333D01*
Y106667D01*
X-53125Y108000D01*
X-52625Y109167D01*
X-51875Y110167D01*
X-51000Y110833D01*
X-50000Y111000D01*
X-49000Y110833D01*
X-48125Y110167D01*
X-47375Y109167D01*
X-46875Y108000D01*
X-46625Y106667D01*
Y105333D01*
X-46875Y104000D01*
X-47375Y102833D01*
X-48125Y101833D01*
X-49000Y101167D01*
X-50000Y101000D01*
G01X-42500Y111000D02*
Y101000D01*
X-37500D01*
G01X-32750D02*
Y111000D01*
X-30250D01*
X-29250Y110500D01*
X-28500Y109833D01*
X-27875Y108833D01*
X-27375Y107666D01*
X-27250Y106000D01*
X-27375Y104333D01*
X-27875Y103167D01*
X-28500Y102166D01*
X-29250Y101500D01*
X-30250Y101000D01*
X-32750D01*
G01X-17500D02*
X-22500D01*
Y111000D01*
X-17500D01*
G01X-19500Y106167D02*
X-22500D01*
G01X-12500Y101000D02*
Y111000D01*
X-9375D01*
X-8375Y110500D01*
X-7750Y109833D01*
X-7500Y108500D01*
X-7750Y107167D01*
X-8500Y106333D01*
X-9375Y105833D01*
X-12500D01*
G01X-9375D02*
X-7500Y101000D01*
G01X-3250D02*
Y111000D01*
X0Y102667D01*
X3250Y111000D01*
Y101000D01*
G01X6875D02*
X10000Y111000D01*
X13125Y101000D01*
G01X12000Y104500D02*
X8000D01*
G01X17375Y102333D02*
X18375Y101500D01*
X19500Y101000D01*
X20500D01*
X21500Y101500D01*
X22250Y102333D01*
X22625Y103500D01*
X22375Y104666D01*
X21750Y105667D01*
X20625Y106333D01*
X19125Y106667D01*
X18250Y107333D01*
X17875Y108500D01*
X18125Y109667D01*
X18750Y110500D01*
X19625Y111000D01*
X20500D01*
X21375Y110667D01*
X22125Y109833D01*
G01X27250Y101000D02*
Y111000D01*
G01X32000D02*
X27250Y104833D01*
G01X32750Y101000D02*
X29375Y107666D01*
G01X47500Y101000D02*
Y111000D01*
X50500D01*
X51500Y110500D01*
X52250Y109333D01*
X52500Y108000D01*
X52250Y106667D01*
X51625Y105667D01*
X50500Y105166D01*
X47500D01*
G01X57500Y101000D02*
Y111000D01*
X60625D01*
X61625Y110500D01*
X62250Y109833D01*
X62500Y108500D01*
X62250Y107167D01*
X61500Y106333D01*
X60625Y105833D01*
X57500D01*
G01X60625D02*
X62500Y101000D01*
G01X68500Y111000D02*
X71500D01*
G01X70000D02*
Y101000D01*
G01X68500D02*
X71500D01*
G01X76750D02*
Y111000D01*
X80000Y102667D01*
X83250Y111000D01*
Y101000D01*
G01X86875D02*
X90000Y111000D01*
X93125Y101000D01*
G01X92000Y104500D02*
X88000D01*
G01X97500Y101000D02*
Y111000D01*
X100625D01*
X101625Y110500D01*
X102250Y109833D01*
X102500Y108500D01*
X102250Y107167D01*
X101500Y106333D01*
X100625Y105833D01*
X97500D01*
G01X100625D02*
X102500Y101000D01*
G01X110000D02*
Y105500D01*
X107500Y111000D01*
G01X112500D02*
X110000Y105500D01*
G01X-30000Y91000D02*
X-31000Y90667D01*
X-31750Y89833D01*
X-32250Y88833D01*
X-32625Y87500D01*
X-32750Y86000D01*
X-32625Y84500D01*
X-32250Y83167D01*
X-31750Y82166D01*
X-31000Y81333D01*
X-30000Y81000D01*
X-29000Y81333D01*
X-28250Y82166D01*
X-27750Y83167D01*
X-27375Y84500D01*
X-27250Y86000D01*
X-27375Y87500D01*
X-27750Y88833D01*
X-28250Y89833D01*
X-29000Y90667D01*
X-30000Y91000D01*
G01X-20000Y81000D02*
X-19125Y81167D01*
X-18125Y81667D01*
X-17500Y82500D01*
X-17250Y83667D01*
X-17500Y84833D01*
X-18250Y85833D01*
X-19375Y86333D01*
X-20625D01*
X-21375Y86667D01*
X-22000Y87500D01*
X-22250Y88667D01*
X-21875Y89833D01*
X-21000Y90667D01*
X-20000Y91000D01*
X-19000Y90667D01*
X-18125Y89833D01*
X-17750Y88667D01*
X-18000Y87500D01*
X-18625Y86667D01*
X-19375Y86333D01*
X-20625D01*
X-21750Y85833D01*
X-22500Y84833D01*
X-22750Y83667D01*
X-22500Y82500D01*
X-21875Y81667D01*
X-20875Y81167D01*
X-20000Y81000D01*
G01X-11625Y84333D02*
X-8375D01*
G01X58375D02*
X61625D01*
G01X70000Y91000D02*
X69000Y90667D01*
X68250Y89833D01*
X67750Y88833D01*
X67375Y87500D01*
X67250Y86000D01*
X67375Y84500D01*
X67750Y83167D01*
X68250Y82166D01*
X69000Y81333D01*
X70000Y81000D01*
X71000Y81333D01*
X71750Y82166D01*
X72250Y83167D01*
X72625Y84500D01*
X72750Y86000D01*
X72625Y87500D01*
X72250Y88833D01*
X71750Y89833D01*
X71000Y90667D01*
X70000Y91000D01*
G01X81500Y81000D02*
Y91000D01*
X76875Y83833D01*
X83125D01*
G01X2500Y61000D02*
Y71000D01*
X5625D01*
X6625Y70500D01*
X7250Y69833D01*
X7500Y68500D01*
X7250Y67167D01*
X6500Y66333D01*
X5625Y65833D01*
X2500D01*
G01X5625D02*
X7500Y61000D01*
G01X17500D02*
X12500D01*
Y71000D01*
X17500D01*
G01X15500Y66167D02*
X12500D01*
G01X21875Y71000D02*
X25000Y61000D01*
X28125Y71000D01*
G01X46000Y66333D02*
X46500Y66833D01*
X46875Y67666D01*
X47125Y68833D01*
X46875Y69833D01*
X46375Y70500D01*
X45500Y71000D01*
X42125D01*
Y61000D01*
X46250D01*
X47125Y61667D01*
X47625Y62667D01*
X47875Y63833D01*
X47625Y65000D01*
X46875Y66000D01*
X46000Y66333D01*
X42125D01*
G01X0Y91000D02*
X-1000Y90667D01*
X-1750Y89833D01*
X-2250Y88833D01*
X-2625Y87500D01*
X-2750Y86000D01*
X-2625Y84500D01*
X-2250Y83167D01*
X-1750Y82166D01*
X-1000Y81333D01*
X0Y81000D01*
X1000Y81333D01*
X1750Y82166D01*
X2250Y83167D01*
X2625Y84500D01*
X2750Y86000D01*
X2625Y87500D01*
X2250Y88833D01*
X1750Y89833D01*
X1000Y90667D01*
X0Y91000D01*
G01X11500Y81000D02*
Y91000D01*
X6875Y83833D01*
X13125D01*
G01X17250Y83000D02*
X18000Y81833D01*
X19000Y81167D01*
X20125Y81000D01*
X21125Y81167D01*
X22125Y82000D01*
X22750Y83000D01*
X22875Y84000D01*
X22625Y85166D01*
X21750Y86000D01*
X20875Y86333D01*
X19750D01*
G01X20875D02*
X21625Y86833D01*
X22250Y87666D01*
X22500Y88667D01*
X22250Y89667D01*
X21625Y90500D01*
X20500Y91000D01*
X19375Y90833D01*
X18250Y90167D01*
G01X27625Y89333D02*
X28375Y90333D01*
X29250Y90833D01*
X30250Y91000D01*
X31500Y90667D01*
X32375Y89833D01*
X32625Y88833D01*
X32500Y87833D01*
X32000Y87000D01*
X29500Y85333D01*
X28375Y84167D01*
X27625Y82500D01*
X27375Y81000D01*
X32625D01*
G01X40000D02*
Y91000D01*
X38500Y89000D01*
G01Y81000D02*
X41500D01*
G01X49750D02*
X50000Y83167D01*
X50375Y85000D01*
X50875Y86667D01*
X51500Y88500D01*
X52500Y91000D01*
X47500D01*
G54D12*
X-2350Y-36000D03*
X4350D03*
X21650Y-47500D03*
X4350Y-20500D03*
X-2350D03*
X4350Y-12500D03*
X-2350D03*
X28350Y-47500D03*
G54D13*
X2600Y-45500D03*
X8400D03*
G54D14*
X14173Y-30500D03*
Y-25500D03*
Y-20500D03*
X35827D03*
Y-25500D03*
Y-30500D03*
G54D15*
X0Y0D03*
X10000D03*
X20000D03*
X0Y10000D03*
X10000D03*
X20000D03*
X30000Y0D03*
X40000D03*
X30000Y10000D03*
X40000D03*
X50000D03*
G54D16*
X42500Y-38650D03*
Y-45350D03*
X50500Y-38650D03*
Y-45350D03*
G54D17*
X50000Y0D03*
G54D18*
X50500Y-23250D03*
Y-30750D03*
G54D19*
X41100Y-12400D03*
Y-8600D03*
M02*
