G04 ================== begin FILE IDENTIFICATION RECORD ==================*
G04 Layout Name:  C:/tmp/20_043217b/worklib/02_043217b_top/physical/08_043217b.brd*
G04 Film Name:    mask_sec*
G04 File Format:  Gerber RS274X*
G04 File Origin:  Cadence Allegro 16.6-2015-S074*
G04 Origin Date:  Tue Jan 24 04:00:59 2017*
G04 *
G04 Layer:  VIA CLASS/SOLDERMASK_BOTTOM*
G04 Layer:  PIN/SOLDERMASK_BOTTOM*
G04 Layer:  PACKAGE GEOMETRY/SOLDERMASK_BOTTOM*
G04 Layer:  BOARD GEOMETRY/TOOLING_CORNERS*
G04 Layer:  BOARD GEOMETRY/SOLDERMASK_BOTTOM*
G04 Layer:  BOARD GEOMETRY/ROOT_NUMBER*
G04 *
G04 Offset:    (0.00 0.00)*
G04 Mirror:    No*
G04 Mode:      Positive*
G04 Rotation:  0*
G04 FullContactRelief:  No*
G04 UndefLineWidth:     8.00*
G04 ================== end FILE IDENTIFICATION RECORD ====================*
%FSLAX55Y55*MOIN*%
%IR0*IPPOS*OFA0.00000B0.00000*MIA0B0*SFA1.00000B1.00000*%
%ADD10C,.07*%
%ADD11R,.07X.07*%
%ADD12C,.05*%
%ADD13C,.008*%
G75*
%LPD*%
G75*
G54D10*
X0Y0D03*
X10000D03*
X20000D03*
X0Y10000D03*
X10000D03*
X20000D03*
X30000Y0D03*
X40000D03*
X30000Y10000D03*
X40000D03*
X50000D03*
G54D11*
Y0D03*
G54D12*
G01X-17500Y-56500D02*
X2500D01*
G01X-17500D02*
Y-36500D01*
G01Y28500D02*
Y8500D01*
G01Y28500D02*
X2500D01*
G01X67500Y-56500D02*
X47500D01*
G01X67500Y28500D02*
X47500D01*
G01X67500Y-56500D02*
Y-36500D01*
G01Y28500D02*
Y8500D01*
G54D13*
G01X-72625Y102333D02*
X-71625Y101500D01*
X-70500Y101000D01*
X-69500D01*
X-68500Y101500D01*
X-67750Y102333D01*
X-67375Y103500D01*
X-67625Y104666D01*
X-68250Y105667D01*
X-69375Y106333D01*
X-70875Y106667D01*
X-71750Y107333D01*
X-72125Y108500D01*
X-71875Y109667D01*
X-71250Y110500D01*
X-70375Y111000D01*
X-69500D01*
X-68625Y110667D01*
X-67875Y109833D01*
G01X-60000Y101000D02*
X-61000Y101167D01*
X-61875Y101833D01*
X-62625Y102833D01*
X-63125Y104000D01*
X-63375Y105333D01*
Y106667D01*
X-63125Y108000D01*
X-62625Y109167D01*
X-61875Y110167D01*
X-61000Y110833D01*
X-60000Y111000D01*
X-59000Y110833D01*
X-58125Y110167D01*
X-57375Y109167D01*
X-56875Y108000D01*
X-56625Y106667D01*
Y105333D01*
X-56875Y104000D01*
X-57375Y102833D01*
X-58125Y101833D01*
X-59000Y101167D01*
X-60000Y101000D01*
G01X-52500Y111000D02*
Y101000D01*
X-47500D01*
G01X-42750D02*
Y111000D01*
X-40250D01*
X-39250Y110500D01*
X-38500Y109833D01*
X-37875Y108833D01*
X-37375Y107666D01*
X-37250Y106000D01*
X-37375Y104333D01*
X-37875Y103167D01*
X-38500Y102166D01*
X-39250Y101500D01*
X-40250Y101000D01*
X-42750D01*
G01X-27500D02*
X-32500D01*
Y111000D01*
X-27500D01*
G01X-29500Y106167D02*
X-32500D01*
G01X-22500Y101000D02*
Y111000D01*
X-19375D01*
X-18375Y110500D01*
X-17750Y109833D01*
X-17500Y108500D01*
X-17750Y107167D01*
X-18500Y106333D01*
X-19375Y105833D01*
X-22500D01*
G01X-19375D02*
X-17500Y101000D01*
G01X-13250D02*
Y111000D01*
X-10000Y102667D01*
X-6750Y111000D01*
Y101000D01*
G01X-3125D02*
X0Y111000D01*
X3125Y101000D01*
G01X2000Y104500D02*
X-2000D01*
G01X7375Y102333D02*
X8375Y101500D01*
X9500Y101000D01*
X10500D01*
X11500Y101500D01*
X12250Y102333D01*
X12625Y103500D01*
X12375Y104666D01*
X11750Y105667D01*
X10625Y106333D01*
X9125Y106667D01*
X8250Y107333D01*
X7875Y108500D01*
X8125Y109667D01*
X8750Y110500D01*
X9625Y111000D01*
X10500D01*
X11375Y110667D01*
X12125Y109833D01*
G01X17250Y101000D02*
Y111000D01*
G01X22000D02*
X17250Y104833D01*
G01X22750Y101000D02*
X19375Y107666D01*
G01X37375Y102333D02*
X38375Y101500D01*
X39500Y101000D01*
X40500D01*
X41500Y101500D01*
X42250Y102333D01*
X42625Y103500D01*
X42375Y104666D01*
X41750Y105667D01*
X40625Y106333D01*
X39125Y106667D01*
X38250Y107333D01*
X37875Y108500D01*
X38125Y109667D01*
X38750Y110500D01*
X39625Y111000D01*
X40500D01*
X41375Y110667D01*
X42125Y109833D01*
G01X52500Y101000D02*
X47500D01*
Y111000D01*
X52500D01*
G01X50500Y106167D02*
X47500D01*
G01X62750Y110167D02*
X62000Y110667D01*
X61125Y111000D01*
X60125D01*
X59000Y110500D01*
X58125Y109667D01*
X57500Y108667D01*
X57000Y107000D01*
X56875Y105500D01*
X57125Y104000D01*
X57500Y103000D01*
X58250Y102000D01*
X59125Y101333D01*
X60000Y101000D01*
X60875D01*
X61750Y101333D01*
X62500Y101833D01*
X63125Y102500D01*
G01X70000Y101000D02*
X69000Y101167D01*
X68125Y101833D01*
X67375Y102833D01*
X66875Y104000D01*
X66625Y105333D01*
Y106667D01*
X66875Y108000D01*
X67375Y109167D01*
X68125Y110167D01*
X69000Y110833D01*
X70000Y111000D01*
X71000Y110833D01*
X71875Y110167D01*
X72625Y109167D01*
X73125Y108000D01*
X73375Y106667D01*
Y105333D01*
X73125Y104000D01*
X72625Y102833D01*
X71875Y101833D01*
X71000Y101167D01*
X70000Y101000D01*
G01X77125D02*
Y111000D01*
X82875Y101000D01*
Y111000D01*
G01X87250Y101000D02*
Y111000D01*
X89750D01*
X90750Y110500D01*
X91500Y109833D01*
X92125Y108833D01*
X92625Y107666D01*
X92750Y106000D01*
X92625Y104333D01*
X92125Y103167D01*
X91500Y102166D01*
X90750Y101500D01*
X89750Y101000D01*
X87250D01*
G01X96875D02*
X100000Y111000D01*
X103125Y101000D01*
G01X102000Y104500D02*
X98000D01*
G01X107500Y101000D02*
Y111000D01*
X110625D01*
X111625Y110500D01*
X112250Y109833D01*
X112500Y108500D01*
X112250Y107167D01*
X111500Y106333D01*
X110625Y105833D01*
X107500D01*
G01X110625D02*
X112500Y101000D01*
G01X120000D02*
Y105500D01*
X117500Y111000D01*
G01X122500D02*
X120000Y105500D01*
G01X-30000Y91000D02*
X-31000Y90667D01*
X-31750Y89833D01*
X-32250Y88833D01*
X-32625Y87500D01*
X-32750Y86000D01*
X-32625Y84500D01*
X-32250Y83167D01*
X-31750Y82166D01*
X-31000Y81333D01*
X-30000Y81000D01*
X-29000Y81333D01*
X-28250Y82166D01*
X-27750Y83167D01*
X-27375Y84500D01*
X-27250Y86000D01*
X-27375Y87500D01*
X-27750Y88833D01*
X-28250Y89833D01*
X-29000Y90667D01*
X-30000Y91000D01*
G01X-20000Y81000D02*
X-19125Y81167D01*
X-18125Y81667D01*
X-17500Y82500D01*
X-17250Y83667D01*
X-17500Y84833D01*
X-18250Y85833D01*
X-19375Y86333D01*
X-20625D01*
X-21375Y86667D01*
X-22000Y87500D01*
X-22250Y88667D01*
X-21875Y89833D01*
X-21000Y90667D01*
X-20000Y91000D01*
X-19000Y90667D01*
X-18125Y89833D01*
X-17750Y88667D01*
X-18000Y87500D01*
X-18625Y86667D01*
X-19375Y86333D01*
X-20625D01*
X-21750Y85833D01*
X-22500Y84833D01*
X-22750Y83667D01*
X-22500Y82500D01*
X-21875Y81667D01*
X-20875Y81167D01*
X-20000Y81000D01*
G01X-11625Y84333D02*
X-8375D01*
G01X58375D02*
X61625D01*
G01X70000Y91000D02*
X69000Y90667D01*
X68250Y89833D01*
X67750Y88833D01*
X67375Y87500D01*
X67250Y86000D01*
X67375Y84500D01*
X67750Y83167D01*
X68250Y82166D01*
X69000Y81333D01*
X70000Y81000D01*
X71000Y81333D01*
X71750Y82166D01*
X72250Y83167D01*
X72625Y84500D01*
X72750Y86000D01*
X72625Y87500D01*
X72250Y88833D01*
X71750Y89833D01*
X71000Y90667D01*
X70000Y91000D01*
G01X77625Y85166D02*
X78500Y86333D01*
X79250Y87000D01*
X80250Y87333D01*
X81125Y87000D01*
X81750Y86333D01*
X82250Y85333D01*
X82375Y84167D01*
X82250Y83167D01*
X81750Y82166D01*
X81000Y81333D01*
X80125Y81000D01*
X79125Y81333D01*
X78250Y82333D01*
X77750Y83833D01*
X77625Y85500D01*
X77875Y87666D01*
X78250Y88833D01*
X78875Y90000D01*
X79750Y90833D01*
X80625Y91000D01*
X81500Y90667D01*
X82125Y89833D01*
G01X2500Y61000D02*
Y71000D01*
X5625D01*
X6625Y70500D01*
X7250Y69833D01*
X7500Y68500D01*
X7250Y67167D01*
X6500Y66333D01*
X5625Y65833D01*
X2500D01*
G01X5625D02*
X7500Y61000D01*
G01X17500D02*
X12500D01*
Y71000D01*
X17500D01*
G01X15500Y66167D02*
X12500D01*
G01X21875Y71000D02*
X25000Y61000D01*
X28125Y71000D01*
G01X46000Y66333D02*
X46500Y66833D01*
X46875Y67666D01*
X47125Y68833D01*
X46875Y69833D01*
X46375Y70500D01*
X45500Y71000D01*
X42125D01*
Y61000D01*
X46250D01*
X47125Y61667D01*
X47625Y62667D01*
X47875Y63833D01*
X47625Y65000D01*
X46875Y66000D01*
X46000Y66333D01*
X42125D01*
G01X0Y91000D02*
X-1000Y90667D01*
X-1750Y89833D01*
X-2250Y88833D01*
X-2625Y87500D01*
X-2750Y86000D01*
X-2625Y84500D01*
X-2250Y83167D01*
X-1750Y82166D01*
X-1000Y81333D01*
X0Y81000D01*
X1000Y81333D01*
X1750Y82166D01*
X2250Y83167D01*
X2625Y84500D01*
X2750Y86000D01*
X2625Y87500D01*
X2250Y88833D01*
X1750Y89833D01*
X1000Y90667D01*
X0Y91000D01*
G01X11500Y81000D02*
Y91000D01*
X6875Y83833D01*
X13125D01*
G01X17250Y83000D02*
X18000Y81833D01*
X19000Y81167D01*
X20125Y81000D01*
X21125Y81167D01*
X22125Y82000D01*
X22750Y83000D01*
X22875Y84000D01*
X22625Y85166D01*
X21750Y86000D01*
X20875Y86333D01*
X19750D01*
G01X20875D02*
X21625Y86833D01*
X22250Y87666D01*
X22500Y88667D01*
X22250Y89667D01*
X21625Y90500D01*
X20500Y91000D01*
X19375Y90833D01*
X18250Y90167D01*
G01X27625Y89333D02*
X28375Y90333D01*
X29250Y90833D01*
X30250Y91000D01*
X31500Y90667D01*
X32375Y89833D01*
X32625Y88833D01*
X32500Y87833D01*
X32000Y87000D01*
X29500Y85333D01*
X28375Y84167D01*
X27625Y82500D01*
X27375Y81000D01*
X32625D01*
G01X40000D02*
Y91000D01*
X38500Y89000D01*
G01Y81000D02*
X41500D01*
G01X49750D02*
X50000Y83167D01*
X50375Y85000D01*
X50875Y86667D01*
X51500Y88500D01*
X52500Y91000D01*
X47500D01*
M02*
