G04 ================== begin FILE IDENTIFICATION RECORD ==================*
G04 Layout Name:  C:/tmp/20_043217b/worklib/02_043217b_top/physical/08_043217b.brd*
G04 Film Name:    silk_sec*
G04 File Format:  Gerber RS274X*
G04 File Origin:  Cadence Allegro 16.6-2015-S074*
G04 Origin Date:  Tue Jan 24 04:00:59 2017*
G04 *
G04 Layer:  REF DES/SILKSCREEN_BOTTOM*
G04 Layer:  PACKAGE GEOMETRY/SILKSCREEN_BOTTOM*
G04 Layer:  MANUFACTURING/SILK_DETAIL_BOTTOM*
G04 Layer:  BOARD GEOMETRY/TOOLING_CORNERS*
G04 Layer:  BOARD GEOMETRY/SILKSCREEN_BOTTOM*
G04 Layer:  BOARD GEOMETRY/ROOT_NUMBER*
G04 *
G04 Offset:    (0.00 0.00)*
G04 Mirror:    No*
G04 Mode:      Positive*
G04 Rotation:  0*
G04 FullContactRelief:  No*
G04 UndefLineWidth:     8.00*
G04 ================== end FILE IDENTIFICATION RECORD ====================*
%FSLAX55Y55*MOIN*%
%IR0*IPPOS*OFA0.00000B0.00000*MIA0B0*SFA1.00000B1.00000*%
%ADD10C,.05*%
%ADD11C,.008*%
%ADD12C,.006*%
G75*
%LPD*%
G75*
G36*
G01X-1690Y-39850D02*
X-1620Y-39630D01*
X-1550Y-39390D01*
X-1510Y-39140D01*
X-1490Y-38880D01*
Y-38610D01*
X-3200D01*
X-3190Y-38800D01*
X-3200Y-38980D01*
X-3230Y-39140D01*
X-3280Y-39300D01*
X-3360Y-39440D01*
X-3440Y-39570D01*
X-3550Y-39680D01*
X-3690Y-39780D01*
X-3850Y-39880D01*
X-4020Y-39950D01*
X-4230Y-40030D01*
X-4460Y-40080D01*
X-4700Y-40110D01*
X-4960Y-40140D01*
X-5190D01*
X-5330Y-40130D01*
X-5480Y-40110D01*
X-5640Y-40080D01*
X-5810Y-40040D01*
X-6150Y-39940D01*
X-6470Y-39780D01*
X-6610Y-39670D01*
X-6730Y-39550D01*
X-6820Y-39450D01*
X-6880Y-39320D01*
X-6940Y-39200D01*
X-6970Y-39060D01*
X-6980Y-38900D01*
X-6970Y-38730D01*
X-6930Y-38570D01*
X-6880Y-38430D01*
X-6810Y-38310D01*
X-6720Y-38200D01*
X-6500Y-38010D01*
X-6360Y-37930D01*
X-6220Y-37880D01*
X-6070Y-37820D01*
X-5810Y-37750D01*
X-5530Y-37680D01*
X-4960Y-37570D01*
X-4690Y-37520D01*
X-4440Y-37450D01*
X-4210Y-37400D01*
X-3970Y-37330D01*
X-3700Y-37260D01*
X-3440Y-37160D01*
X-3170Y-37060D01*
X-2910Y-36940D01*
X-2640Y-36800D01*
X-2470Y-36680D01*
X-2310Y-36560D01*
X-2160Y-36430D01*
X-2020Y-36280D01*
X-1900Y-36110D01*
X-1810Y-35960D01*
X-1730Y-35800D01*
X-1670Y-35630D01*
X-1630Y-35440D01*
X-1600Y-35240D01*
X-1590Y-35040D01*
X-1600Y-34800D01*
X-1680Y-34340D01*
X-1750Y-34130D01*
X-1840Y-33910D01*
X-1960Y-33700D01*
X-2080Y-33520D01*
X-2220Y-33350D01*
X-2380Y-33190D01*
X-2550Y-33030D01*
X-2950Y-32750D01*
X-3180Y-32630D01*
X-3420Y-32530D01*
X-3690Y-32430D01*
X-3970Y-32360D01*
X-4260Y-32290D01*
X-4560Y-32260D01*
X-4890Y-32230D01*
X-5230Y-32220D01*
X-5550Y-32230D01*
X-5860Y-32260D01*
X-6130Y-32300D01*
X-6390Y-32360D01*
X-6630Y-32430D01*
X-6840Y-32510D01*
X-7040Y-32600D01*
X-7220Y-32710D01*
X-7390Y-32820D01*
X-7560Y-32950D01*
X-7720Y-33100D01*
X-7850Y-33250D01*
X-8070Y-33570D01*
X-8150Y-33720D01*
X-8230Y-33910D01*
X-8290Y-34090D01*
X-8340Y-34260D01*
X-8380Y-34420D01*
X-8390Y-34550D01*
X-8400Y-34670D01*
X-8420Y-34780D01*
Y-34840D01*
X-8430Y-34870D01*
X-6790D01*
X-6760Y-34770D01*
X-6730Y-34660D01*
X-6690Y-34540D01*
X-6640Y-34410D01*
X-6570Y-34270D01*
X-6490Y-34140D01*
X-6370Y-34010D01*
X-6270Y-33920D01*
X-6140Y-33830D01*
X-6000Y-33760D01*
X-5830Y-33690D01*
X-5680Y-33660D01*
X-5520Y-33620D01*
X-5340Y-33600D01*
X-5140Y-33590D01*
X-4950D01*
X-4770Y-33610D01*
X-4570Y-33640D01*
X-4360Y-33670D01*
X-4170Y-33730D01*
X-3990Y-33810D01*
X-3850Y-33870D01*
X-3740Y-33950D01*
X-3640Y-34040D01*
X-3540Y-34140D01*
X-3470Y-34250D01*
X-3410Y-34370D01*
X-3380Y-34500D01*
X-3370Y-34650D01*
X-3380Y-34800D01*
X-3400Y-34940D01*
X-3440Y-35070D01*
X-3500Y-35180D01*
X-3604Y-35328D01*
X-3810Y-35500D01*
X-3960Y-35590D01*
X-4120Y-35670D01*
X-4320Y-35740D01*
X-4550Y-35810D01*
X-4790Y-35870D01*
X-5030Y-35910D01*
X-5290Y-35960D01*
X-5560Y-36000D01*
X-5820Y-36040D01*
X-6170Y-36110D01*
X-6500Y-36190D01*
X-6810Y-36280D01*
X-7100Y-36370D01*
X-7360Y-36480D01*
X-7610Y-36590D01*
X-7820Y-36720D01*
X-8020Y-36860D01*
X-8200Y-37020D01*
X-8320Y-37160D01*
X-8420Y-37310D01*
X-8520Y-37470D01*
X-8590Y-37650D01*
X-8660Y-37840D01*
X-8700Y-38050D01*
X-8730Y-38250D01*
X-8750Y-38490D01*
Y-38730D01*
X-8730Y-38970D01*
X-8700Y-39200D01*
X-8630Y-39430D01*
X-8550Y-39650D01*
X-8450Y-39860D01*
X-8340Y-40070D01*
X-8170Y-40290D01*
X-7980Y-40500D01*
X-7760Y-40700D01*
X-7530Y-40880D01*
X-7300Y-41020D01*
X-7050Y-41140D01*
X-6790Y-41250D01*
X-6510Y-41350D01*
X-5890Y-41470D01*
X-5570Y-41510D01*
X-4840D01*
X-4470Y-41480D01*
X-4140Y-41440D01*
X-3810Y-41380D01*
X-3510Y-41320D01*
X-3220Y-41220D01*
X-2980Y-41130D01*
X-2750Y-41020D01*
X-2550Y-40890D01*
X-2360Y-40750D01*
X-2190Y-40600D01*
X-2030Y-40430D01*
X-1900Y-40250D01*
X-1790Y-40060D01*
X-1690Y-39850D01*
G37*
G36*
G01X-8810Y-47500D02*
X-6350D01*
Y-51550D01*
X-8810D01*
Y-51030D01*
X-6970D01*
Y-49800D01*
X-8320D01*
Y-49270D01*
X-6970D01*
Y-48030D01*
X-8810D01*
Y-47500D01*
G37*
G36*
G01X-4280Y-51030D02*
Y-47500D01*
X-3660D01*
Y-51550D01*
X-5860D01*
Y-51030D01*
X-4280D01*
G37*
G36*
G01X-12660Y-49450D02*
Y-47500D01*
X-12330D01*
X-11790Y-48640D01*
X-11240Y-47500D01*
X-10910D01*
Y-49450D01*
X-11200D01*
Y-48040D01*
X-11660Y-49010D01*
X-11900D01*
X-12380Y-48020D01*
Y-49450D01*
X-12660D01*
G37*
G36*
G01X-10690Y-47500D02*
X-9390D01*
Y-47760D01*
X-9890D01*
Y-49450D01*
X-10190D01*
Y-47760D01*
X-10690D01*
Y-47500D01*
G37*
G36*
G01X-7380Y-22610D02*
X-7250Y-22470D01*
X-7100Y-22320D01*
X-6920Y-22170D01*
X-6730Y-22030D01*
X-6520Y-21890D01*
X-6320Y-21760D01*
X-6090Y-21630D01*
X-5850Y-21530D01*
X-5600Y-21440D01*
X-5340Y-21360D01*
X-5070Y-21300D01*
X-4790Y-21280D01*
X-4490Y-21260D01*
X-3890Y-21300D01*
X-3600Y-21350D01*
X-3330Y-21420D01*
X-3060Y-21500D01*
X-2810Y-21600D01*
X-2510Y-21730D01*
X-2220Y-21900D01*
X-1960Y-22080D01*
X-1700Y-22270D01*
X-1480Y-22490D01*
X-1260Y-22720D01*
X-1080Y-22960D01*
X-920Y-23200D01*
X-770Y-23460D01*
X-640Y-23720D01*
X-520Y-23990D01*
X-400Y-24350D01*
X-300Y-24720D01*
X-230Y-25090D01*
X-180Y-25470D01*
X-160Y-25850D01*
X-170Y-26230D01*
X-210Y-26600D01*
X-260Y-26970D01*
X-350Y-27330D01*
X-440Y-27630D01*
X-550Y-27920D01*
X-680Y-28200D01*
X-820Y-28480D01*
X-990Y-28740D01*
X-1170Y-28980D01*
X-1350Y-29210D01*
X-1560Y-29420D01*
X-1780Y-29600D01*
X-2010Y-29780D01*
X-2270Y-29940D01*
X-2510Y-30070D01*
X-2760Y-30180D01*
X-3040Y-30270D01*
X-3320Y-30350D01*
X-3610Y-30410D01*
X-3920Y-30450D01*
X-4240Y-30470D01*
X-4490Y-30460D01*
X-4740Y-30440D01*
X-4970Y-30400D01*
X-5190Y-30360D01*
X-5400Y-30290D01*
X-5580Y-30220D01*
X-5760Y-30130D01*
X-5930Y-30040D01*
X-6150Y-29900D01*
X-6350Y-29760D01*
X-6570Y-29570D01*
X-6890Y-29250D01*
Y-30100D01*
X-8300D01*
Y-25570D01*
X-4630D01*
Y-26960D01*
X-6760D01*
Y-27440D01*
X-6750Y-27470D01*
X-6710Y-27530D01*
X-6670Y-27600D01*
X-6610Y-27710D01*
X-6520Y-27830D01*
X-6420Y-27970D01*
X-6310Y-28110D01*
X-6170Y-28260D01*
X-6020Y-28410D01*
X-5840Y-28550D01*
X-5650Y-28680D01*
X-5480Y-28790D01*
X-5290Y-28870D01*
X-5090Y-28950D01*
X-4880Y-28990D01*
X-4650Y-29030D01*
X-4260D01*
X-3970Y-28990D01*
X-3760Y-28950D01*
X-3380Y-28810D01*
X-3170Y-28680D01*
X-2960Y-28540D01*
X-2780Y-28380D01*
X-2610Y-28200D01*
X-2460Y-28020D01*
X-2330Y-27810D01*
X-2210Y-27590D01*
X-2120Y-27370D01*
X-2030Y-27120D01*
X-1950Y-26810D01*
X-1890Y-26490D01*
X-1860Y-26160D01*
X-1850Y-25840D01*
X-1870Y-25530D01*
X-1900Y-25240D01*
X-1960Y-24960D01*
X-2030Y-24680D01*
X-2120Y-24410D01*
X-2240Y-24140D01*
X-2380Y-23900D01*
X-2530Y-23670D01*
X-2680Y-23490D01*
X-2850Y-23320D01*
X-3030Y-23170D01*
X-3220Y-23030D01*
X-3390Y-22940D01*
X-3580Y-22860D01*
X-3780Y-22790D01*
X-3990Y-22740D01*
X-4200Y-22710D01*
X-4440D01*
X-4660Y-22720D01*
X-4880Y-22750D01*
X-5080Y-22800D01*
X-5260Y-22860D01*
X-5420Y-22950D01*
X-5570Y-23040D01*
X-5730Y-23150D01*
X-5880Y-23290D01*
X-6040Y-23440D01*
X-6170Y-23600D01*
X-6390Y-23920D01*
X-6490Y-24070D01*
X-6570Y-24210D01*
X-8080D01*
Y-24090D01*
X-8060Y-24000D01*
X-8040Y-23900D01*
X-8010Y-23780D01*
X-7960Y-23640D01*
X-7910Y-23490D01*
X-7830Y-23320D01*
X-7740Y-23140D01*
X-7620Y-22950D01*
X-7490Y-22750D01*
X-7380Y-22610D01*
G37*
G36*
G01X20570Y-47500D02*
X21120D01*
Y-48090D01*
X20870D01*
Y-48290D01*
X20890Y-48430D01*
X20910Y-48480D01*
X20950Y-48520D01*
X21010Y-48550D01*
X21160Y-48570D01*
X21071Y-48818D01*
X21043Y-48811D01*
X21025Y-48806D01*
X21014Y-48803D01*
X20994Y-48797D01*
X20981Y-48793D01*
X20950Y-48783D01*
X20939Y-48779D01*
X20925Y-48774D01*
X20893Y-48762D01*
X20868Y-48752D01*
X20849Y-48744D01*
X20842Y-48741D01*
X20760Y-48699D01*
X20738Y-48684D01*
X20718Y-48667D01*
X20708Y-48657D01*
X20687Y-48639D01*
X20671Y-48623D01*
X20652Y-48596D01*
X20629Y-48550D01*
X20608Y-48494D01*
X20599Y-48467D01*
X20590Y-48431D01*
X20585Y-48404D01*
X20578Y-48372D01*
X20575Y-48350D01*
X20572Y-48336D01*
X20568Y-48302D01*
Y-48284D01*
X20569Y-48268D01*
X20570Y-48261D01*
X20569Y-48224D01*
X20570Y-48160D01*
Y-47500D01*
G37*
G36*
G01X-1790D02*
X-140D01*
Y-51550D01*
X-1960D01*
X-2150Y-51530D01*
X-2270Y-51490D01*
X-2340Y-51460D01*
X-2540Y-51360D01*
X-2590Y-51320D01*
X-2680Y-51240D01*
X-2750Y-51160D01*
X-2820Y-51060D01*
X-2890Y-50940D01*
X-2940Y-50800D01*
X-2970Y-50690D01*
X-3000Y-50560D01*
X-3010Y-50460D01*
Y-50370D01*
X-3000Y-50250D01*
X-2980Y-50120D01*
X-2930Y-49970D01*
X-2870Y-49840D01*
X-2800Y-49740D01*
X-2720Y-49650D01*
X-2590Y-49560D01*
X-2510Y-49510D01*
X-2450Y-49480D01*
X-2500Y-49450D01*
X-2560Y-49410D01*
X-2600Y-49370D01*
X-2700Y-49280D01*
X-2770Y-49180D01*
X-2850Y-49040D01*
X-2900Y-48940D01*
X-2930Y-48800D01*
X-2940Y-48700D01*
X-2950Y-48570D01*
X-2940Y-48430D01*
X-2920Y-48350D01*
X-2890Y-48220D01*
X-2840Y-48110D01*
X-2760Y-47960D01*
X-2670Y-47840D01*
X-2600Y-47770D01*
X-2560Y-47740D01*
X-2380Y-47620D01*
X-2260Y-47580D01*
X-2150Y-47550D01*
X-2060Y-47520D01*
X-1930Y-47510D01*
X-1790Y-47500D01*
G37*
G36*
G01X12720Y-47910D02*
X12730Y-47900D01*
X12750Y-47870D01*
X12760Y-47850D01*
X12830Y-47770D01*
X12880Y-47740D01*
X12920Y-47710D01*
X12970Y-47670D01*
X13020Y-47640D01*
X13060Y-47620D01*
X13300Y-47540D01*
X13560Y-47500D01*
X15190D01*
Y-51550D01*
X14560D01*
Y-50120D01*
X13580D01*
X13470Y-50110D01*
X13410Y-50100D01*
X13290Y-50070D01*
X13210Y-50040D01*
X13160Y-50020D01*
X13030Y-49960D01*
X12950Y-49910D01*
X12880Y-49850D01*
X12860Y-49830D01*
X12770Y-49760D01*
X12730Y-49700D01*
X12670Y-49630D01*
X12650Y-49600D01*
X12600Y-49520D01*
X12540Y-49390D01*
X12520Y-49340D01*
X12490Y-49240D01*
X12460Y-49120D01*
X12450Y-48970D01*
X12440Y-48810D01*
Y-48680D01*
X12450Y-48560D01*
X12470Y-48400D01*
X12520Y-48270D01*
X12540Y-48220D01*
X12600Y-48080D01*
X12640Y-48010D01*
X12650Y-48000D01*
X12690Y-47940D01*
X12720Y-47910D01*
G37*
G36*
G01X8900Y-50640D02*
X8860Y-50440D01*
X8850Y-50300D01*
X8830Y-50150D01*
Y-50030D01*
X8820Y-49900D01*
Y-49060D01*
X8830Y-48910D01*
X8860Y-48680D01*
X8870Y-48560D01*
X8900Y-48430D01*
Y-48400D01*
X8930Y-48240D01*
X8990Y-48090D01*
X9010Y-48080D01*
X9060Y-47980D01*
X9100Y-47920D01*
X9110Y-47910D01*
X9140Y-47870D01*
X9160Y-47850D01*
Y-47840D01*
X9250Y-47770D01*
X9360Y-47690D01*
X9450Y-47630D01*
X9600Y-47570D01*
X9620Y-47560D01*
X9740Y-47530D01*
X9880Y-47500D01*
X10300Y-47470D01*
X10420D01*
X10800Y-47500D01*
X10960Y-47530D01*
X11130Y-47570D01*
X11250Y-47620D01*
X11380Y-47690D01*
X11460Y-47750D01*
X11570Y-47840D01*
X11630Y-47920D01*
X11690Y-48010D01*
X11740Y-48100D01*
X11800Y-48300D01*
X11830Y-48420D01*
X11870Y-48620D01*
X11890Y-48760D01*
X11900Y-48910D01*
X11910Y-49026D01*
X11912Y-49961D01*
X11900Y-50150D01*
X11880Y-50380D01*
X11860Y-50510D01*
X11830Y-50660D01*
X11800Y-50770D01*
X11737Y-50969D01*
X11720Y-50990D01*
X11670Y-51080D01*
X11570Y-51220D01*
X11490Y-51290D01*
X11380Y-51380D01*
X11280Y-51430D01*
X11130Y-51490D01*
X11110Y-51500D01*
X11010Y-51530D01*
X10870Y-51550D01*
X10810Y-51560D01*
X10800D01*
X10730Y-51570D01*
X10620Y-51580D01*
X10470Y-51590D01*
X10220D01*
X10020Y-51570D01*
X9930Y-51560D01*
X9900D01*
X9860Y-51550D01*
X9710Y-51530D01*
X9490Y-51450D01*
X9360Y-51380D01*
X9260Y-51310D01*
X9160Y-51220D01*
X9090Y-51140D01*
X9040Y-51060D01*
X9000Y-50980D01*
X8950Y-50860D01*
X8920Y-50740D01*
X8900Y-50640D01*
G37*
G36*
G01X4100Y-50730D02*
X4040Y-50800D01*
Y-50820D01*
X4030Y-50840D01*
X3970Y-50900D01*
X3890Y-50950D01*
X3800Y-51000D01*
X3670Y-51040D01*
X3410Y-51060D01*
X3250D01*
X3090Y-51030D01*
X2970Y-50980D01*
X2810Y-50880D01*
X2770Y-50830D01*
X2720Y-50760D01*
X2690Y-50720D01*
X2650Y-50640D01*
X2620Y-50550D01*
X2600Y-50370D01*
Y-50210D01*
X2620Y-50120D01*
X2630Y-50060D01*
X2660Y-50000D01*
X2680Y-49970D01*
X2780Y-49870D01*
X2810Y-49850D01*
X2920Y-49810D01*
X3050Y-49760D01*
X3170Y-49730D01*
X3400Y-49680D01*
X3640Y-49650D01*
X3890Y-49610D01*
X4080Y-49570D01*
X4160Y-49550D01*
X4350Y-49480D01*
X4450Y-49420D01*
X4550Y-49340D01*
X4590Y-49300D01*
X4660Y-49220D01*
X4720Y-49120D01*
X4780Y-49010D01*
X4820Y-48800D01*
Y-48530D01*
X4790Y-48350D01*
X4760Y-48240D01*
X4690Y-48090D01*
X4620Y-47970D01*
X4500Y-47830D01*
X4370Y-47720D01*
X4250Y-47640D01*
X4080Y-47580D01*
X3990Y-47540D01*
X3850Y-47510D01*
X3700Y-47480D01*
X3560Y-47470D01*
X3230D01*
X2940Y-47490D01*
X2680Y-47560D01*
X2540Y-47620D01*
X2450Y-47670D01*
X2340Y-47770D01*
X2280Y-47840D01*
X2190Y-47950D01*
X2150Y-48010D01*
X2130Y-48070D01*
X2100Y-48130D01*
X2080Y-48180D01*
X2060Y-48240D01*
X2040Y-48350D01*
X2030Y-48440D01*
Y-48500D01*
X2640D01*
X2650Y-48400D01*
X2670Y-48330D01*
X2710Y-48240D01*
X2770Y-48170D01*
X2810Y-48130D01*
X2880Y-48090D01*
X2990Y-48050D01*
X3080Y-48030D01*
X3180Y-48010D01*
X3280Y-48000D01*
X3530D01*
X3660Y-48020D01*
X3770Y-48050D01*
X3890Y-48090D01*
X3990Y-48130D01*
X4060Y-48190D01*
X4120Y-48260D01*
X4160Y-48340D01*
X4190Y-48440D01*
X4200Y-48570D01*
X4190Y-48650D01*
X4180Y-48720D01*
X4160Y-48770D01*
X4060Y-48900D01*
X3780Y-49010D01*
X3640Y-49030D01*
X3450Y-49050D01*
X3290Y-49070D01*
X3130Y-49100D01*
X2990Y-49120D01*
X2820Y-49160D01*
X2690Y-49180D01*
X2530Y-49250D01*
X2400Y-49310D01*
X2230Y-49440D01*
X2150Y-49530D01*
X2070Y-49670D01*
X2010Y-49810D01*
X1990Y-49930D01*
X1970Y-50070D01*
X1950Y-50260D01*
X1960Y-50440D01*
X1990Y-50590D01*
X2010Y-50720D01*
X2050Y-50850D01*
X2120Y-50970D01*
X2160Y-51060D01*
X2270Y-51190D01*
X2340Y-51250D01*
X2460Y-51340D01*
X2580Y-51410D01*
X2800Y-51510D01*
X2960Y-51540D01*
X3130Y-51570D01*
X3260Y-51580D01*
X3410Y-51590D01*
X3710Y-51570D01*
X3980Y-51520D01*
X4130Y-51450D01*
X4240Y-51390D01*
X4320Y-51350D01*
X4460Y-51230D01*
X4510Y-51180D01*
X4580Y-51100D01*
X4630Y-51030D01*
X4770Y-50710D01*
X4810Y-50560D01*
X4850Y-50310D01*
X4210D01*
X4190Y-50450D01*
X4180Y-50580D01*
X4170Y-50590D01*
X4130Y-50680D01*
X4100Y-50730D01*
G37*
G36*
G01X7480D02*
X7420Y-50800D01*
Y-50820D01*
X7410Y-50840D01*
X7350Y-50900D01*
X7270Y-50950D01*
X7180Y-51000D01*
X7050Y-51040D01*
X6790Y-51060D01*
X6630D01*
X6470Y-51030D01*
X6350Y-50980D01*
X6190Y-50880D01*
X6150Y-50830D01*
X6100Y-50760D01*
X6070Y-50720D01*
X6030Y-50640D01*
X6000Y-50550D01*
X5980Y-50370D01*
Y-50210D01*
X6000Y-50120D01*
X6010Y-50060D01*
X6040Y-50000D01*
X6060Y-49970D01*
X6160Y-49870D01*
X6190Y-49850D01*
X6300Y-49810D01*
X6430Y-49760D01*
X6550Y-49730D01*
X6780Y-49680D01*
X7020Y-49650D01*
X7270Y-49610D01*
X7460Y-49570D01*
X7540Y-49550D01*
X7730Y-49480D01*
X7830Y-49420D01*
X7930Y-49340D01*
X7970Y-49300D01*
X8040Y-49220D01*
X8100Y-49120D01*
X8160Y-49010D01*
X8200Y-48800D01*
Y-48530D01*
X8170Y-48350D01*
X8140Y-48240D01*
X8070Y-48090D01*
X8000Y-47970D01*
X7880Y-47830D01*
X7750Y-47720D01*
X7630Y-47640D01*
X7460Y-47580D01*
X7370Y-47540D01*
X7230Y-47510D01*
X7080Y-47480D01*
X6940Y-47470D01*
X6610D01*
X6320Y-47490D01*
X6060Y-47560D01*
X5920Y-47620D01*
X5830Y-47670D01*
X5720Y-47770D01*
X5660Y-47840D01*
X5570Y-47950D01*
X5530Y-48010D01*
X5510Y-48070D01*
X5480Y-48130D01*
X5460Y-48180D01*
X5440Y-48240D01*
X5420Y-48350D01*
X5410Y-48440D01*
Y-48500D01*
X6020D01*
X6030Y-48400D01*
X6050Y-48330D01*
X6090Y-48240D01*
X6150Y-48170D01*
X6190Y-48130D01*
X6260Y-48090D01*
X6370Y-48050D01*
X6460Y-48030D01*
X6560Y-48010D01*
X6660Y-48000D01*
X6910D01*
X7040Y-48020D01*
X7150Y-48050D01*
X7270Y-48090D01*
X7370Y-48130D01*
X7440Y-48190D01*
X7500Y-48260D01*
X7540Y-48340D01*
X7570Y-48440D01*
X7580Y-48570D01*
X7570Y-48650D01*
X7560Y-48720D01*
X7540Y-48770D01*
X7440Y-48900D01*
X7160Y-49010D01*
X7020Y-49030D01*
X6830Y-49050D01*
X6670Y-49070D01*
X6510Y-49100D01*
X6370Y-49120D01*
X6200Y-49160D01*
X6070Y-49180D01*
X5910Y-49250D01*
X5780Y-49310D01*
X5610Y-49440D01*
X5530Y-49530D01*
X5450Y-49670D01*
X5390Y-49810D01*
X5370Y-49930D01*
X5350Y-50070D01*
X5330Y-50260D01*
X5340Y-50440D01*
X5370Y-50590D01*
X5390Y-50720D01*
X5430Y-50850D01*
X5500Y-50970D01*
X5540Y-51060D01*
X5650Y-51190D01*
X5720Y-51250D01*
X5840Y-51340D01*
X5960Y-51410D01*
X6180Y-51510D01*
X6340Y-51540D01*
X6510Y-51570D01*
X6640Y-51580D01*
X6790Y-51590D01*
X7090Y-51570D01*
X7360Y-51520D01*
X7510Y-51450D01*
X7620Y-51390D01*
X7700Y-51350D01*
X7840Y-51230D01*
X7890Y-51180D01*
X7960Y-51100D01*
X8010Y-51030D01*
X8150Y-50710D01*
X8190Y-50560D01*
X8230Y-50310D01*
X7590D01*
X7570Y-50450D01*
X7560Y-50580D01*
X7550Y-50590D01*
X7510Y-50680D01*
X7480Y-50730D01*
G37*
G36*
G01X19410D02*
X19350Y-50800D01*
Y-50820D01*
X19340Y-50840D01*
X19280Y-50900D01*
X19200Y-50950D01*
X19110Y-51000D01*
X18980Y-51040D01*
X18720Y-51060D01*
X18560D01*
X18400Y-51030D01*
X18280Y-50980D01*
X18120Y-50880D01*
X18080Y-50830D01*
X18030Y-50760D01*
X18000Y-50720D01*
X17960Y-50640D01*
X17930Y-50550D01*
X17910Y-50370D01*
Y-50210D01*
X17930Y-50120D01*
X17940Y-50060D01*
X17970Y-50000D01*
X17990Y-49970D01*
X18090Y-49870D01*
X18120Y-49850D01*
X18230Y-49810D01*
X18360Y-49760D01*
X18480Y-49730D01*
X18710Y-49680D01*
X18950Y-49650D01*
X19200Y-49610D01*
X19390Y-49570D01*
X19470Y-49550D01*
X19660Y-49480D01*
X19760Y-49420D01*
X19860Y-49340D01*
X19900Y-49300D01*
X19970Y-49220D01*
X20030Y-49120D01*
X20090Y-49010D01*
X20130Y-48800D01*
Y-48530D01*
X20100Y-48350D01*
X20070Y-48240D01*
X20000Y-48090D01*
X19930Y-47970D01*
X19810Y-47830D01*
X19680Y-47720D01*
X19560Y-47640D01*
X19390Y-47580D01*
X19300Y-47540D01*
X19160Y-47510D01*
X19010Y-47480D01*
X18870Y-47470D01*
X18540D01*
X18250Y-47490D01*
X17990Y-47560D01*
X17850Y-47620D01*
X17760Y-47670D01*
X17650Y-47770D01*
X17590Y-47840D01*
X17500Y-47950D01*
X17460Y-48010D01*
X17440Y-48070D01*
X17410Y-48130D01*
X17390Y-48180D01*
X17370Y-48240D01*
X17350Y-48350D01*
X17340Y-48440D01*
Y-48500D01*
X17950D01*
X17960Y-48400D01*
X17980Y-48330D01*
X18020Y-48240D01*
X18080Y-48170D01*
X18120Y-48130D01*
X18190Y-48090D01*
X18300Y-48050D01*
X18390Y-48030D01*
X18490Y-48010D01*
X18590Y-48000D01*
X18840D01*
X18970Y-48020D01*
X19080Y-48050D01*
X19200Y-48090D01*
X19300Y-48130D01*
X19370Y-48190D01*
X19430Y-48260D01*
X19470Y-48340D01*
X19500Y-48440D01*
X19510Y-48570D01*
X19500Y-48650D01*
X19490Y-48720D01*
X19470Y-48770D01*
X19370Y-48900D01*
X19090Y-49010D01*
X18950Y-49030D01*
X18760Y-49050D01*
X18600Y-49070D01*
X18440Y-49100D01*
X18300Y-49120D01*
X18130Y-49160D01*
X18000Y-49180D01*
X17840Y-49250D01*
X17710Y-49310D01*
X17540Y-49440D01*
X17460Y-49530D01*
X17380Y-49670D01*
X17320Y-49810D01*
X17300Y-49930D01*
X17280Y-50070D01*
X17260Y-50260D01*
X17270Y-50440D01*
X17300Y-50590D01*
X17320Y-50720D01*
X17360Y-50850D01*
X17430Y-50970D01*
X17470Y-51060D01*
X17580Y-51190D01*
X17650Y-51250D01*
X17770Y-51340D01*
X17890Y-51410D01*
X18110Y-51510D01*
X18270Y-51540D01*
X18440Y-51570D01*
X18570Y-51580D01*
X18720Y-51590D01*
X19020Y-51570D01*
X19290Y-51520D01*
X19440Y-51450D01*
X19550Y-51390D01*
X19630Y-51350D01*
X19770Y-51230D01*
X19820Y-51180D01*
X19890Y-51100D01*
X19940Y-51030D01*
X20080Y-50710D01*
X20120Y-50560D01*
X20160Y-50310D01*
X19520D01*
X19500Y-50450D01*
X19490Y-50580D01*
X19480Y-50590D01*
X19440Y-50680D01*
X19410Y-50730D01*
G37*
G36*
G01X7250Y-38480D02*
X7270Y-38540D01*
X7290Y-38620D01*
X7340Y-38740D01*
X7400Y-38870D01*
X7470Y-39000D01*
X7560Y-39160D01*
X7660Y-39310D01*
X7770Y-39450D01*
X7900Y-39590D01*
X8060Y-39720D01*
X8190Y-39800D01*
X8320Y-39890D01*
X8470Y-39950D01*
X8620Y-40000D01*
X8800Y-40050D01*
X8980Y-40070D01*
X9170Y-40080D01*
X9380Y-40070D01*
X9570Y-40040D01*
X9760Y-40000D01*
X9940Y-39940D01*
X10100Y-39850D01*
X10300Y-39740D01*
X10490Y-39590D01*
X10660Y-39430D01*
X10810Y-39240D01*
X10950Y-39040D01*
X11090Y-38800D01*
X11210Y-38530D01*
X11320Y-38260D01*
X11400Y-37970D01*
X11460Y-37680D01*
X11510Y-37380D01*
X11530Y-37070D01*
X11540Y-36770D01*
X11530Y-36400D01*
X11500Y-36040D01*
X11430Y-35700D01*
X11360Y-35440D01*
X11280Y-35200D01*
X11190Y-34960D01*
X11080Y-34740D01*
X10950Y-34530D01*
X10830Y-34360D01*
X10700Y-34200D01*
X10550Y-34060D01*
X10390Y-33930D01*
X10210Y-33830D01*
X10030Y-33740D01*
X9830Y-33670D01*
X9630Y-33630D01*
X9410Y-33600D01*
X9170Y-33610D01*
X9000Y-33630D01*
X8840Y-33670D01*
X8690Y-33740D01*
X8530Y-33830D01*
X8380Y-33920D01*
X8250Y-34020D01*
X8110Y-34140D01*
X7950Y-34300D01*
X7800Y-34480D01*
X7670Y-34650D01*
X7550Y-34830D01*
X7440Y-34990D01*
X7350Y-35150D01*
X7280Y-35290D01*
X5500D01*
X5520Y-35240D01*
X5540Y-35160D01*
X5560Y-35070D01*
X5600Y-34960D01*
X5640Y-34840D01*
X5700Y-34670D01*
X5780Y-34480D01*
X5870Y-34290D01*
X5980Y-34080D01*
X6110Y-33860D01*
X6230Y-33680D01*
X6360Y-33510D01*
X6520Y-33340D01*
X6690Y-33170D01*
X6880Y-33010D01*
X7090Y-32860D01*
X7280Y-32730D01*
X7480Y-32620D01*
X7700Y-32530D01*
X7930Y-32440D01*
X8190Y-32360D01*
X8460Y-32300D01*
X8750Y-32260D01*
X9060Y-32230D01*
X9390Y-32220D01*
X9700Y-32230D01*
X10000Y-32250D01*
X10280Y-32290D01*
X10560Y-32350D01*
X10810Y-32420D01*
X11050Y-32520D01*
X11310Y-32630D01*
X11540Y-32760D01*
X11770Y-32910D01*
X11980Y-33080D01*
X12170Y-33260D01*
X12350Y-33450D01*
X12510Y-33660D01*
X12680Y-33890D01*
X12820Y-34140D01*
X12950Y-34400D01*
X13070Y-34670D01*
X13160Y-34950D01*
X13260Y-35320D01*
X13340Y-35710D01*
X13390Y-36090D01*
X13400Y-36480D01*
X13390Y-36870D01*
X13370Y-37260D01*
X13310Y-37640D01*
X13230Y-38020D01*
X13140Y-38380D01*
X13040Y-38690D01*
X12920Y-39000D01*
X12780Y-39290D01*
X12630Y-39560D01*
X12460Y-39820D01*
X12280Y-40080D01*
X12100Y-40300D01*
X11900Y-40510D01*
X11680Y-40700D01*
X11460Y-40870D01*
X11220Y-41030D01*
X10990Y-41150D01*
X10510Y-41350D01*
X10250Y-41410D01*
X9970Y-41460D01*
X9700Y-41490D01*
X9410D01*
X9060Y-41480D01*
X8730Y-41450D01*
X8420Y-41400D01*
X8140Y-41340D01*
X7870Y-41260D01*
X7620Y-41180D01*
X7370Y-41060D01*
X7130Y-40940D01*
X6930Y-40810D01*
X6730Y-40670D01*
X6560Y-40520D01*
X6400Y-40370D01*
X6260Y-40210D01*
X6080Y-39980D01*
X5940Y-39760D01*
X5820Y-39530D01*
X5720Y-39310D01*
X5640Y-39120D01*
X5580Y-38940D01*
X5550Y-38790D01*
X5500Y-38550D01*
X5490Y-38480D01*
X5480Y-38420D01*
Y-38390D01*
X7210D01*
X7230Y-38420D01*
X7250Y-38480D01*
G37*
G36*
G01X22550Y-51550D02*
Y-48030D01*
X21520D01*
Y-47500D01*
X24200D01*
Y-48030D01*
X23170D01*
Y-51550D01*
X22550D01*
G37*
G36*
G01X25260Y-47500D02*
X23960Y-51550D01*
X24640D01*
X24930Y-50590D01*
X26330D01*
X26640Y-51550D01*
X27310D01*
X25930Y-47500D01*
X25260D01*
G37*
G36*
G01X24680Y-32350D02*
X31250D01*
Y-41280D01*
X24530D01*
Y-39760D01*
X29440D01*
Y-37370D01*
X25230D01*
Y-35740D01*
X29460D01*
Y-33840D01*
X24680D01*
Y-32350D01*
G37*
G36*
G01X19450Y-41250D02*
X16590Y-32840D01*
Y-32370D01*
X18340D01*
X20300Y-38880D01*
X22320Y-32350D01*
X24110D01*
Y-32820D01*
X21160Y-41250D01*
X19450D01*
G37*
G36*
G01X-650Y-37410D02*
Y-35810D01*
X3450D01*
Y-33970D01*
X-1180D01*
Y-32350D01*
X5160D01*
Y-41280D01*
X-1400D01*
Y-39760D01*
X3430D01*
Y-37410D01*
X-650D01*
G37*
G36*
G01X1180Y-28800D02*
X1350Y-29030D01*
X1560Y-29270D01*
X1780Y-29480D01*
X2020Y-29680D01*
X2270Y-29860D01*
X2560Y-30020D01*
X2850Y-30160D01*
X3360Y-30330D01*
X3620Y-30380D01*
X3900Y-30430D01*
X4190Y-30460D01*
X4490Y-30470D01*
X4830Y-30450D01*
X5160Y-30420D01*
X5470Y-30370D01*
X5760Y-30300D01*
X6040Y-30210D01*
X6310Y-30090D01*
X6560Y-29970D01*
X6820Y-29810D01*
X7070Y-29640D01*
X7290Y-29440D01*
X7500Y-29240D01*
X7700Y-29020D01*
X7890Y-28770D01*
X8060Y-28500D01*
X8200Y-28220D01*
X8330Y-27940D01*
X8440Y-27640D01*
X8530Y-27340D01*
X8620Y-26970D01*
X8680Y-26600D01*
X8710Y-26220D01*
X8720Y-25840D01*
X8700Y-25530D01*
X8690Y-25450D01*
X8660Y-25060D01*
X8580Y-24680D01*
X8480Y-24310D01*
X8360Y-23950D01*
X8240Y-23660D01*
X8100Y-23400D01*
X7960Y-23150D01*
X7790Y-22890D01*
X7610Y-22660D01*
X7400Y-22420D01*
X7170Y-22210D01*
X6930Y-22010D01*
X6660Y-21830D01*
X6380Y-21670D01*
X6080Y-21540D01*
X5840Y-21450D01*
X5570Y-21370D01*
X5310Y-21310D01*
X5030Y-21270D01*
X4740Y-21250D01*
X4440Y-21240D01*
X4120Y-21250D01*
X3810Y-21290D01*
X3520Y-21340D01*
X3230Y-21420D01*
X2970Y-21500D01*
X2720Y-21610D01*
X2470Y-21750D01*
X2220Y-21900D01*
X1980Y-22080D01*
X1770Y-22270D01*
X1560Y-22480D01*
X1370Y-22700D01*
X1180Y-22950D01*
X1020Y-23210D01*
X870Y-23490D01*
X740Y-23780D01*
X630Y-24070D01*
X540Y-24370D01*
X450Y-24740D01*
X380Y-25110D01*
X360Y-25358D01*
X330Y-25860D01*
X340Y-26260D01*
X380Y-26630D01*
X440Y-27020D01*
X530Y-27390D01*
X650Y-27750D01*
X750Y-28030D01*
X880Y-28290D01*
X1020Y-28550D01*
X1180Y-28800D01*
G37*
G36*
G01X22970Y-30320D02*
X21180D01*
X20590Y-28330D01*
X17290D01*
X16610Y-30320D01*
X14770D01*
X18150Y-21370D01*
X19970D01*
X22970Y-30320D01*
G37*
G36*
G01X8620D02*
Y-28800D01*
X12610D01*
Y-21370D01*
X14390D01*
Y-30320D01*
X8620D01*
G37*
G36*
G01X23380D02*
Y-21370D01*
X25160D01*
Y-27330D01*
X28950Y-21370D01*
X30780D01*
Y-30320D01*
X28990D01*
Y-24270D01*
X25060Y-30320D01*
X23380D01*
G37*
G36*
G01X46220Y-50980D02*
X46270Y-51070D01*
X46340Y-51190D01*
X46380Y-51220D01*
X46480Y-51300D01*
X46570Y-51360D01*
X46680Y-51420D01*
X46770Y-51470D01*
X46910Y-51510D01*
X47040Y-51530D01*
X47200Y-51550D01*
X48950D01*
Y-47500D01*
X47220D01*
X47040Y-47530D01*
X46890Y-47560D01*
X46770Y-47600D01*
X46650Y-47650D01*
X46570Y-47700D01*
X46460Y-47770D01*
X46390Y-47840D01*
X46330Y-47910D01*
X46300Y-47940D01*
X46220Y-48090D01*
X46210Y-48110D01*
X46180Y-48180D01*
X46140Y-48300D01*
X46120Y-48390D01*
X46100Y-48550D01*
X46080Y-48680D01*
X46060Y-48920D01*
X46040Y-49230D01*
Y-49720D01*
X46050Y-49900D01*
Y-50030D01*
X46060Y-50150D01*
X46070Y-50300D01*
X46090Y-50440D01*
X46120Y-50640D01*
X46140Y-50770D01*
X46160Y-50840D01*
X46190Y-50920D01*
X46210Y-50970D01*
X46220Y-50980D01*
G37*
G36*
G01X40920Y-50640D02*
X40880Y-50440D01*
X40870Y-50300D01*
X40850Y-50150D01*
Y-50030D01*
X40840Y-49900D01*
Y-49060D01*
X40850Y-48910D01*
X40880Y-48680D01*
X40890Y-48560D01*
X40920Y-48430D01*
Y-48400D01*
X40950Y-48240D01*
X41010Y-48090D01*
X41030Y-48080D01*
X41080Y-47980D01*
X41120Y-47920D01*
X41130Y-47910D01*
X41160Y-47870D01*
X41180Y-47850D01*
Y-47840D01*
X41270Y-47770D01*
X41380Y-47690D01*
X41470Y-47630D01*
X41620Y-47570D01*
X41640Y-47560D01*
X41760Y-47530D01*
X41900Y-47500D01*
X42320Y-47470D01*
X42440D01*
X42820Y-47500D01*
X42980Y-47530D01*
X43150Y-47570D01*
X43270Y-47620D01*
X43400Y-47690D01*
X43480Y-47750D01*
X43590Y-47840D01*
X43650Y-47920D01*
X43710Y-48010D01*
X43760Y-48100D01*
X43820Y-48300D01*
X43850Y-48420D01*
X43890Y-48620D01*
X43910Y-48760D01*
X43920Y-48910D01*
X43930Y-49026D01*
X43932Y-49961D01*
X43920Y-50150D01*
X43900Y-50380D01*
X43880Y-50510D01*
X43850Y-50660D01*
X43820Y-50770D01*
X43757Y-50969D01*
X43740Y-50990D01*
X43690Y-51080D01*
X43590Y-51220D01*
X43510Y-51290D01*
X43400Y-51380D01*
X43300Y-51430D01*
X43150Y-51490D01*
X43130Y-51500D01*
X43030Y-51530D01*
X42890Y-51550D01*
X42830Y-51560D01*
X42820D01*
X42750Y-51570D01*
X42640Y-51580D01*
X42490Y-51590D01*
X42240D01*
X42040Y-51570D01*
X41950Y-51560D01*
X41920D01*
X41880Y-51550D01*
X41730Y-51530D01*
X41510Y-51450D01*
X41380Y-51380D01*
X41280Y-51310D01*
X41180Y-51220D01*
X41110Y-51140D01*
X41060Y-51060D01*
X41020Y-50980D01*
X40970Y-50860D01*
X40940Y-50740D01*
X40920Y-50640D01*
G37*
G36*
G01X32590Y-39660D02*
X32770Y-39910D01*
X32960Y-40130D01*
X33180Y-40350D01*
X33430Y-40540D01*
X33680Y-40710D01*
X33960Y-40860D01*
X34250Y-40980D01*
X34570Y-41090D01*
X34840Y-41160D01*
X35400Y-41240D01*
X35700Y-41270D01*
X36020Y-41280D01*
X39460D01*
Y-32350D01*
X36000D01*
X35660Y-32360D01*
X35330Y-32400D01*
X35020Y-32450D01*
X34720Y-32540D01*
X34430Y-32630D01*
X34160Y-32750D01*
X33900Y-32890D01*
X33630Y-33070D01*
X33390Y-33280D01*
X33150Y-33500D01*
X32940Y-33740D01*
X32750Y-33990D01*
X32570Y-34280D01*
X32410Y-34570D01*
X32280Y-34870D01*
X32160Y-35200D01*
X32060Y-35540D01*
X31990Y-35870D01*
X31940Y-36220D01*
X31900Y-36590D01*
X31890Y-36960D01*
X31900Y-37360D01*
X31940Y-37750D01*
X32000Y-38110D01*
X32070Y-38460D01*
X32180Y-38800D01*
X32300Y-39120D01*
X32440Y-39400D01*
X32590Y-39660D01*
G37*
G36*
G01X39470Y-51550D02*
Y-49800D01*
X38120D01*
Y-49270D01*
X39470D01*
Y-48030D01*
X37640D01*
Y-47500D01*
X40090D01*
Y-51550D01*
X39470D01*
G37*
G36*
G01X30630Y-47500D02*
Y-51550D01*
X30010D01*
Y-49800D01*
X28360D01*
Y-51550D01*
X27740D01*
Y-47500D01*
X28360D01*
Y-49270D01*
X30010D01*
Y-47500D01*
X30630D01*
G37*
G36*
G01X31750D02*
X31090D01*
X32200Y-51550D01*
X32860D01*
X33560Y-49170D01*
X34280Y-51550D01*
X34960D01*
X36000Y-47500D01*
X35340D01*
X34610Y-50700D01*
X33840Y-48250D01*
X33240D01*
X32530Y-50660D01*
X31750Y-47500D01*
G37*
G36*
G01X50680D02*
X49380Y-51550D01*
X50060D01*
X50350Y-50590D01*
X51750D01*
X52060Y-51550D01*
X52730D01*
X51350Y-47500D01*
X50680D01*
G37*
G36*
G01X52950D02*
X55410D01*
Y-51550D01*
X52950D01*
Y-51030D01*
X54790D01*
Y-49800D01*
X53440D01*
Y-49270D01*
X54790D01*
Y-48030D01*
X52950D01*
Y-47500D01*
G37*
G36*
G01X62660Y-41490D02*
X42720D01*
Y-21450D01*
X62660D01*
Y-41490D01*
G37*
G36*
G01X39330Y-30320D02*
X37540D01*
X36950Y-28330D01*
X33650D01*
X32970Y-30320D01*
X31130D01*
X34510Y-21370D01*
X36330D01*
X39330Y-30320D01*
G37*
G36*
G01X60830Y-47500D02*
X59530Y-51550D01*
X60210D01*
X60500Y-50590D01*
X61900D01*
X62210Y-51550D01*
X62880D01*
X61500Y-47500D01*
X60830D01*
G37*
G36*
G01X59110D02*
Y-51550D01*
X58480D01*
Y-49800D01*
X56830D01*
Y-51550D01*
X56200D01*
Y-47500D01*
X56830D01*
Y-49270D01*
X58480D01*
Y-47500D01*
X59110D01*
G37*
%LPC*%
G75*
G36*
G01X-1810Y-51030D02*
X-760D01*
Y-49800D01*
X-1810D01*
X-1910Y-49810D01*
X-2030Y-49840D01*
X-2120Y-49880D01*
X-2210Y-49960D01*
X-2270Y-50030D01*
X-2320Y-50150D01*
X-2340Y-50210D01*
X-2360Y-50290D01*
X-2370Y-50380D01*
Y-50400D01*
X-2360Y-50490D01*
X-2330Y-50620D01*
X-2280Y-50720D01*
X-2220Y-50820D01*
X-2170Y-50880D01*
X-2100Y-50930D01*
X-2050Y-50960D01*
X-1940Y-51010D01*
X-1810Y-51030D01*
G37*
G36*
G01X-1730Y-49270D02*
X-760D01*
Y-48030D01*
X-1580D01*
X-1730Y-48040D01*
X-1960Y-48090D01*
X-2040Y-48130D01*
X-2120Y-48180D01*
X-2190Y-48250D01*
X-2250Y-48350D01*
X-2280Y-48440D01*
X-2300Y-48550D01*
Y-48666D01*
X-2294Y-48735D01*
X-2289Y-48789D01*
X-2280Y-48860D01*
X-2274Y-48871D01*
X-2230Y-48950D01*
X-2160Y-49040D01*
X-2040Y-49160D01*
X-1979Y-49192D01*
X-1950Y-49210D01*
X-1840Y-49250D01*
X-1730Y-49270D01*
G37*
G36*
G01X13080Y-48640D02*
X13070Y-48810D01*
Y-48900D01*
X13110Y-49090D01*
X13155Y-49190D01*
X13170Y-49220D01*
X13220Y-49300D01*
X13250Y-49340D01*
X13340Y-49430D01*
X13420Y-49490D01*
X13570Y-49540D01*
X13579Y-49542D01*
X13700Y-49570D01*
X13840Y-49590D01*
X14560D01*
Y-48030D01*
X13690D01*
X13610Y-48040D01*
X13560Y-48050D01*
X13454Y-48086D01*
X13442Y-48090D01*
X13430Y-48100D01*
X13330Y-48180D01*
X13230Y-48270D01*
X13220Y-48290D01*
X13180Y-48360D01*
X13140Y-48440D01*
X13080Y-48640D01*
G37*
G36*
G01X10130Y-48010D02*
X9841Y-48085D01*
X9818Y-48091D01*
X9697Y-48194D01*
X9690Y-48200D01*
X9630Y-48260D01*
X9590Y-48310D01*
X9519Y-48525D01*
X9490Y-48670D01*
Y-48751D01*
X9484Y-48816D01*
X9480Y-48861D01*
X9470Y-48970D01*
Y-49081D01*
X9463Y-49158D01*
X9460Y-49190D01*
Y-49810D01*
X9470Y-50032D01*
Y-50042D01*
X9472Y-50076D01*
X9480Y-50180D01*
Y-50270D01*
X9495Y-50400D01*
X9510Y-50520D01*
X9530Y-50590D01*
X9550Y-50648D01*
X9560Y-50670D01*
X9582Y-50736D01*
X9630Y-50800D01*
X9670Y-50860D01*
X9720Y-50910D01*
X9890Y-51000D01*
X10070Y-51040D01*
X10210Y-51060D01*
X10500D01*
X10610Y-51050D01*
X10730Y-51030D01*
X10830Y-51000D01*
X10910Y-50960D01*
X11040Y-50870D01*
X11108Y-50802D01*
X11119Y-50779D01*
X11133Y-50750D01*
X11180Y-50670D01*
X11210Y-50550D01*
X11240Y-50380D01*
X11270Y-50090D01*
Y-48970D01*
X11230Y-48610D01*
X11200Y-48480D01*
X11110Y-48260D01*
X11060Y-48210D01*
X10937Y-48106D01*
X10931Y-48101D01*
X10847Y-48075D01*
X10830Y-48069D01*
X10760Y-48040D01*
X10660Y-48020D01*
X10576Y-48008D01*
X10528Y-48001D01*
X10520Y-48000D01*
X10240D01*
X10130Y-48010D01*
G37*
G36*
G01X25080Y-50060D02*
X26150D01*
X25590Y-48330D01*
X25080Y-50060D01*
G37*
G36*
G01X3890Y-22839D02*
X3710Y-22899D01*
X3540Y-22979D01*
X3339Y-23089D01*
X3149Y-23229D01*
X2969Y-23379D01*
X2819Y-23559D01*
X2669Y-23749D01*
X2529Y-23970D01*
X2409Y-24220D01*
X2299Y-24470D01*
X2219Y-24740D01*
X2149Y-25030D01*
X2109Y-25310D01*
X2089Y-25530D01*
X2079Y-25600D01*
X2069Y-25880D01*
X2079Y-26170D01*
X2109Y-26470D01*
X2159Y-26750D01*
X2229Y-27030D01*
X2309Y-27290D01*
X2419Y-27550D01*
X2549Y-27791D01*
X2699Y-28021D01*
X2839Y-28191D01*
X2999Y-28361D01*
X3179Y-28511D01*
X3359Y-28651D01*
X3530Y-28741D01*
X3720Y-28821D01*
X3910Y-28891D01*
X4120Y-28941D01*
X4330Y-28971D01*
X4770D01*
X4970Y-28941D01*
X5160Y-28891D01*
X5350Y-28831D01*
X5520Y-28761D01*
X5721Y-28651D01*
X5911Y-28501D01*
X6081Y-28351D01*
X6241Y-28181D01*
X6381Y-27991D01*
X6521Y-27760D01*
X6651Y-27520D01*
X6751Y-27250D01*
X6821Y-26990D01*
X6891Y-26710D01*
X6941Y-26430D01*
X6961Y-26140D01*
Y-25840D01*
X6951Y-25530D01*
X6921Y-25260D01*
X6861Y-24980D01*
X6801Y-24710D01*
X6711Y-24430D01*
X6601Y-24180D01*
X6471Y-23940D01*
X6331Y-23709D01*
X6181Y-23529D01*
X6021Y-23359D01*
X5861Y-23209D01*
X5671Y-23079D01*
X5500Y-22979D01*
X5320Y-22899D01*
X5130Y-22839D01*
X4930Y-22789D01*
X4720Y-22759D01*
X4490Y-22749D01*
X4290Y-22759D01*
X3890Y-22839D01*
G37*
G36*
G01X17926Y-26493D02*
X17919Y-26516D01*
X17916Y-26526D01*
X17913Y-26537D01*
X17908Y-26557D01*
X17905Y-26571D01*
X17903Y-26581D01*
X17900Y-26597D01*
X17897Y-26616D01*
X17894Y-26640D01*
X17893Y-26651D01*
X17892Y-26661D01*
X17891Y-26677D01*
X17890Y-26704D01*
Y-27070D01*
X20120D01*
X20050Y-26510D01*
X19040Y-23250D01*
X17928Y-26487D01*
X17926Y-26493D01*
G37*
G36*
G01X47230Y-51031D02*
X48331D01*
Y-48029D01*
X47330D01*
X47180Y-48049D01*
X47090Y-48059D01*
X47060Y-48069D01*
X47000Y-48099D01*
X46949Y-48129D01*
X46909Y-48159D01*
X46859Y-48219D01*
X46829Y-48249D01*
X46749Y-48380D01*
X46709Y-48660D01*
Y-48710D01*
X46689Y-48960D01*
Y-50110D01*
X46699Y-50200D01*
Y-50280D01*
X46709Y-50390D01*
X46739Y-50610D01*
X46759Y-50690D01*
X46789Y-50751D01*
X46839Y-50821D01*
X46869Y-50871D01*
X46909Y-50911D01*
X46990Y-50961D01*
X47030Y-50981D01*
X47140Y-51021D01*
X47230Y-51031D01*
G37*
G36*
G01X42150Y-48010D02*
X41861Y-48085D01*
X41838Y-48091D01*
X41717Y-48194D01*
X41710Y-48200D01*
X41650Y-48260D01*
X41610Y-48310D01*
X41539Y-48525D01*
X41510Y-48670D01*
Y-48751D01*
X41504Y-48816D01*
X41500Y-48861D01*
X41490Y-48970D01*
Y-49081D01*
X41483Y-49158D01*
X41480Y-49190D01*
Y-49810D01*
X41490Y-50032D01*
Y-50042D01*
X41492Y-50076D01*
X41500Y-50180D01*
Y-50270D01*
X41515Y-50400D01*
X41530Y-50520D01*
X41550Y-50590D01*
X41570Y-50648D01*
X41580Y-50670D01*
X41602Y-50736D01*
X41650Y-50800D01*
X41690Y-50860D01*
X41740Y-50910D01*
X41910Y-51000D01*
X42090Y-51040D01*
X42230Y-51060D01*
X42520D01*
X42630Y-51050D01*
X42750Y-51030D01*
X42850Y-51000D01*
X42930Y-50960D01*
X43060Y-50870D01*
X43128Y-50802D01*
X43139Y-50779D01*
X43153Y-50750D01*
X43200Y-50670D01*
X43230Y-50550D01*
X43260Y-50380D01*
X43290Y-50090D01*
Y-48970D01*
X43250Y-48610D01*
X43220Y-48480D01*
X43130Y-48260D01*
X43080Y-48210D01*
X42957Y-48106D01*
X42951Y-48101D01*
X42867Y-48075D01*
X42850Y-48069D01*
X42780Y-48040D01*
X42680Y-48020D01*
X42596Y-48008D01*
X42548Y-48001D01*
X42540Y-48000D01*
X42260D01*
X42150Y-48010D01*
G37*
G36*
G01X36060Y-39891D02*
X37581D01*
Y-33859D01*
X36170D01*
X35940Y-33869D01*
X35720Y-33899D01*
X35520Y-33949D01*
X35330Y-34009D01*
X35160Y-34099D01*
X34999Y-34189D01*
X34819Y-34319D01*
X34649Y-34459D01*
X34509Y-34619D01*
X34369Y-34799D01*
X34259Y-34980D01*
X34129Y-35230D01*
X34029Y-35470D01*
X33939Y-35720D01*
X33829Y-36210D01*
X33799Y-36450D01*
X33779Y-36670D01*
X33769Y-36880D01*
Y-37170D01*
X33789Y-37460D01*
X33819Y-37770D01*
X33859Y-38000D01*
X33909Y-38230D01*
X33979Y-38450D01*
X34059Y-38670D01*
X34159Y-38870D01*
X34259Y-39041D01*
X34379Y-39201D01*
X34529Y-39351D01*
X34679Y-39481D01*
X34849Y-39601D01*
X35010Y-39681D01*
X35190Y-39761D01*
X35390Y-39811D01*
X35600Y-39851D01*
X35820Y-39881D01*
X36060Y-39891D01*
G37*
G36*
G01X50500Y-50060D02*
X51570D01*
X51010Y-48330D01*
X50500Y-50060D01*
G37*
G36*
G01X46060Y-31600D02*
X58550Y-38950D01*
Y-24570D01*
X46060Y-31600D01*
G37*
G36*
G01X34286Y-26493D02*
X34279Y-26516D01*
X34276Y-26526D01*
X34273Y-26537D01*
X34268Y-26557D01*
X34265Y-26571D01*
X34263Y-26581D01*
X34260Y-26597D01*
X34257Y-26616D01*
X34254Y-26640D01*
X34253Y-26651D01*
X34252Y-26661D01*
X34251Y-26677D01*
X34250Y-26704D01*
Y-27070D01*
X36480D01*
X36410Y-26510D01*
X35400Y-23250D01*
X34288Y-26487D01*
X34286Y-26493D01*
G37*
G36*
G01X60650Y-50060D02*
X61720D01*
X61160Y-48330D01*
X60650Y-50060D01*
G37*
%LPD*%
G75*
G36*
G01X1290Y-51550D02*
X670D01*
Y-47500D01*
X1290D01*
Y-51550D01*
G37*
G36*
G01X16040Y-41250D02*
X14130D01*
Y-32370D01*
X16040D01*
Y-41250D01*
G37*
G54D10*
G01X-17500Y-56500D02*
X2500D01*
G01X-17500D02*
Y-36500D01*
G01Y28500D02*
Y8500D01*
G01Y28500D02*
X2500D01*
G01X67500Y-56500D02*
X47500D01*
G01X67500Y28500D02*
X47500D01*
G01X67500Y-56500D02*
Y-36500D01*
G01Y28500D02*
Y8500D01*
G54D11*
G01X-72625Y102333D02*
X-71625Y101500D01*
X-70500Y101000D01*
X-69500D01*
X-68500Y101500D01*
X-67750Y102333D01*
X-67375Y103500D01*
X-67625Y104666D01*
X-68250Y105667D01*
X-69375Y106333D01*
X-70875Y106667D01*
X-71750Y107333D01*
X-72125Y108500D01*
X-71875Y109667D01*
X-71250Y110500D01*
X-70375Y111000D01*
X-69500D01*
X-68625Y110667D01*
X-67875Y109833D01*
G01X-61500Y111000D02*
X-58500D01*
G01X-60000D02*
Y101000D01*
G01X-61500D02*
X-58500D01*
G01X-52500Y111000D02*
Y101000D01*
X-47500D01*
G01X-42750D02*
Y111000D01*
G01X-38000D02*
X-42750Y104833D01*
G01X-37250Y101000D02*
X-40625Y107666D01*
G01X-32625Y102333D02*
X-31625Y101500D01*
X-30500Y101000D01*
X-29500D01*
X-28500Y101500D01*
X-27750Y102333D01*
X-27375Y103500D01*
X-27625Y104666D01*
X-28250Y105667D01*
X-29375Y106333D01*
X-30875Y106667D01*
X-31750Y107333D01*
X-32125Y108500D01*
X-31875Y109667D01*
X-31250Y110500D01*
X-30375Y111000D01*
X-29500D01*
X-28625Y110667D01*
X-27875Y109833D01*
G01X-17250Y110167D02*
X-18000Y110667D01*
X-18875Y111000D01*
X-19875D01*
X-21000Y110500D01*
X-21875Y109667D01*
X-22500Y108667D01*
X-23000Y107000D01*
X-23125Y105500D01*
X-22875Y104000D01*
X-22500Y103000D01*
X-21750Y102000D01*
X-20875Y101333D01*
X-20000Y101000D01*
X-19125D01*
X-18250Y101333D01*
X-17500Y101833D01*
X-16875Y102500D01*
G01X-12500Y101000D02*
Y111000D01*
X-9375D01*
X-8375Y110500D01*
X-7750Y109833D01*
X-7500Y108500D01*
X-7750Y107167D01*
X-8500Y106333D01*
X-9375Y105833D01*
X-12500D01*
G01X-9375D02*
X-7500Y101000D01*
G01X2500D02*
X-2500D01*
Y111000D01*
X2500D01*
G01X500Y106167D02*
X-2500D01*
G01X12500Y101000D02*
X7500D01*
Y111000D01*
X12500D01*
G01X10500Y106167D02*
X7500D01*
G01X17125Y101000D02*
Y111000D01*
X22875Y101000D01*
Y111000D01*
G01X37375Y102333D02*
X38375Y101500D01*
X39500Y101000D01*
X40500D01*
X41500Y101500D01*
X42250Y102333D01*
X42625Y103500D01*
X42375Y104666D01*
X41750Y105667D01*
X40625Y106333D01*
X39125Y106667D01*
X38250Y107333D01*
X37875Y108500D01*
X38125Y109667D01*
X38750Y110500D01*
X39625Y111000D01*
X40500D01*
X41375Y110667D01*
X42125Y109833D01*
G01X52500Y101000D02*
X47500D01*
Y111000D01*
X52500D01*
G01X50500Y106167D02*
X47500D01*
G01X62750Y110167D02*
X62000Y110667D01*
X61125Y111000D01*
X60125D01*
X59000Y110500D01*
X58125Y109667D01*
X57500Y108667D01*
X57000Y107000D01*
X56875Y105500D01*
X57125Y104000D01*
X57500Y103000D01*
X58250Y102000D01*
X59125Y101333D01*
X60000Y101000D01*
X60875D01*
X61750Y101333D01*
X62500Y101833D01*
X63125Y102500D01*
G01X70000Y101000D02*
X69000Y101167D01*
X68125Y101833D01*
X67375Y102833D01*
X66875Y104000D01*
X66625Y105333D01*
Y106667D01*
X66875Y108000D01*
X67375Y109167D01*
X68125Y110167D01*
X69000Y110833D01*
X70000Y111000D01*
X71000Y110833D01*
X71875Y110167D01*
X72625Y109167D01*
X73125Y108000D01*
X73375Y106667D01*
Y105333D01*
X73125Y104000D01*
X72625Y102833D01*
X71875Y101833D01*
X71000Y101167D01*
X70000Y101000D01*
G01X77125D02*
Y111000D01*
X82875Y101000D01*
Y111000D01*
G01X87250Y101000D02*
Y111000D01*
X89750D01*
X90750Y110500D01*
X91500Y109833D01*
X92125Y108833D01*
X92625Y107666D01*
X92750Y106000D01*
X92625Y104333D01*
X92125Y103167D01*
X91500Y102166D01*
X90750Y101500D01*
X89750Y101000D01*
X87250D01*
G01X96875D02*
X100000Y111000D01*
X103125Y101000D01*
G01X102000Y104500D02*
X98000D01*
G01X107500Y101000D02*
Y111000D01*
X110625D01*
X111625Y110500D01*
X112250Y109833D01*
X112500Y108500D01*
X112250Y107167D01*
X111500Y106333D01*
X110625Y105833D01*
X107500D01*
G01X110625D02*
X112500Y101000D01*
G01X120000D02*
Y105500D01*
X117500Y111000D01*
G01X122500D02*
X120000Y105500D01*
G01X-30000Y91000D02*
X-31000Y90667D01*
X-31750Y89833D01*
X-32250Y88833D01*
X-32625Y87500D01*
X-32750Y86000D01*
X-32625Y84500D01*
X-32250Y83167D01*
X-31750Y82166D01*
X-31000Y81333D01*
X-30000Y81000D01*
X-29000Y81333D01*
X-28250Y82166D01*
X-27750Y83167D01*
X-27375Y84500D01*
X-27250Y86000D01*
X-27375Y87500D01*
X-27750Y88833D01*
X-28250Y89833D01*
X-29000Y90667D01*
X-30000Y91000D01*
G01X-20000Y81000D02*
X-19125Y81167D01*
X-18125Y81667D01*
X-17500Y82500D01*
X-17250Y83667D01*
X-17500Y84833D01*
X-18250Y85833D01*
X-19375Y86333D01*
X-20625D01*
X-21375Y86667D01*
X-22000Y87500D01*
X-22250Y88667D01*
X-21875Y89833D01*
X-21000Y90667D01*
X-20000Y91000D01*
X-19000Y90667D01*
X-18125Y89833D01*
X-17750Y88667D01*
X-18000Y87500D01*
X-18625Y86667D01*
X-19375Y86333D01*
X-20625D01*
X-21750Y85833D01*
X-22500Y84833D01*
X-22750Y83667D01*
X-22500Y82500D01*
X-21875Y81667D01*
X-20875Y81167D01*
X-20000Y81000D01*
G01X-11625Y84333D02*
X-8375D01*
G01X58375D02*
X61625D01*
G01X70000Y91000D02*
X69000Y90667D01*
X68250Y89833D01*
X67750Y88833D01*
X67375Y87500D01*
X67250Y86000D01*
X67375Y84500D01*
X67750Y83167D01*
X68250Y82166D01*
X69000Y81333D01*
X70000Y81000D01*
X71000Y81333D01*
X71750Y82166D01*
X72250Y83167D01*
X72625Y84500D01*
X72750Y86000D01*
X72625Y87500D01*
X72250Y88833D01*
X71750Y89833D01*
X71000Y90667D01*
X70000Y91000D01*
G01X77250Y82500D02*
X78000Y81667D01*
X78875Y81167D01*
X80000Y81000D01*
X81125Y81333D01*
X82000Y82000D01*
X82625Y83167D01*
X82750Y84500D01*
X82500Y85833D01*
X81875Y86667D01*
X81000Y87333D01*
X80125Y87500D01*
X79250Y87333D01*
X78125Y86667D01*
X78500Y91000D01*
X81875D01*
G01X2500Y61000D02*
Y71000D01*
X5625D01*
X6625Y70500D01*
X7250Y69833D01*
X7500Y68500D01*
X7250Y67167D01*
X6500Y66333D01*
X5625Y65833D01*
X2500D01*
G01X5625D02*
X7500Y61000D01*
G01X17500D02*
X12500D01*
Y71000D01*
X17500D01*
G01X15500Y66167D02*
X12500D01*
G01X21875Y71000D02*
X25000Y61000D01*
X28125Y71000D01*
G01X46000Y66333D02*
X46500Y66833D01*
X46875Y67666D01*
X47125Y68833D01*
X46875Y69833D01*
X46375Y70500D01*
X45500Y71000D01*
X42125D01*
Y61000D01*
X46250D01*
X47125Y61667D01*
X47625Y62667D01*
X47875Y63833D01*
X47625Y65000D01*
X46875Y66000D01*
X46000Y66333D01*
X42125D01*
G01X0Y91000D02*
X-1000Y90667D01*
X-1750Y89833D01*
X-2250Y88833D01*
X-2625Y87500D01*
X-2750Y86000D01*
X-2625Y84500D01*
X-2250Y83167D01*
X-1750Y82166D01*
X-1000Y81333D01*
X0Y81000D01*
X1000Y81333D01*
X1750Y82166D01*
X2250Y83167D01*
X2625Y84500D01*
X2750Y86000D01*
X2625Y87500D01*
X2250Y88833D01*
X1750Y89833D01*
X1000Y90667D01*
X0Y91000D01*
G01X11500Y81000D02*
Y91000D01*
X6875Y83833D01*
X13125D01*
G01X17250Y83000D02*
X18000Y81833D01*
X19000Y81167D01*
X20125Y81000D01*
X21125Y81167D01*
X22125Y82000D01*
X22750Y83000D01*
X22875Y84000D01*
X22625Y85166D01*
X21750Y86000D01*
X20875Y86333D01*
X19750D01*
G01X20875D02*
X21625Y86833D01*
X22250Y87666D01*
X22500Y88667D01*
X22250Y89667D01*
X21625Y90500D01*
X20500Y91000D01*
X19375Y90833D01*
X18250Y90167D01*
G01X27625Y89333D02*
X28375Y90333D01*
X29250Y90833D01*
X30250Y91000D01*
X31500Y90667D01*
X32375Y89833D01*
X32625Y88833D01*
X32500Y87833D01*
X32000Y87000D01*
X29500Y85333D01*
X28375Y84167D01*
X27625Y82500D01*
X27375Y81000D01*
X32625D01*
G01X40000D02*
Y91000D01*
X38500Y89000D01*
G01Y81000D02*
X41500D01*
G01X49750D02*
X50000Y83167D01*
X50375Y85000D01*
X50875Y86667D01*
X51500Y88500D01*
X52500Y91000D01*
X47500D01*
G54D12*
G01X728Y-7708D02*
X460Y-7347D01*
X230Y-7140D01*
X-77Y-7037D01*
X-345Y-7140D01*
X-537Y-7347D01*
X-690Y-7657D01*
X-728Y-8018D01*
X-690Y-8328D01*
X-537Y-8638D01*
X-307Y-8897D01*
X-38Y-9000D01*
X268Y-8897D01*
X537Y-8587D01*
X690Y-8122D01*
X728Y-7605D01*
X652Y-6933D01*
X537Y-6572D01*
X345Y-6210D01*
X77Y-5952D01*
X-192Y-5900D01*
X-460Y-6003D01*
X-652Y-6262D01*
G01X28817Y-9000D02*
Y-5900D01*
X27897D01*
X27590Y-6055D01*
X27360Y-6417D01*
X27283Y-6830D01*
X27360Y-7243D01*
X27552Y-7553D01*
X27897Y-7708D01*
X28817D01*
G01X24950Y-9000D02*
Y-5900D01*
X25410Y-6520D01*
G01Y-9000D02*
X24490D01*
G01X1550Y15000D02*
Y18100D01*
X2010Y17480D01*
G01Y15000D02*
X1090D01*
G01X-822Y17583D02*
X-1052Y17893D01*
X-1320Y18048D01*
X-1627Y18100D01*
X-2010Y17997D01*
X-2278Y17738D01*
X-2355Y17428D01*
X-2317Y17118D01*
X-2163Y16860D01*
X-1397Y16343D01*
X-1052Y15982D01*
X-822Y15465D01*
X-745Y15000D01*
X-2355D01*
G01X52317Y-7500D02*
Y-4400D01*
X51397D01*
X51090Y-4555D01*
X50860Y-4917D01*
X50783Y-5330D01*
X50860Y-5743D01*
X51052Y-6053D01*
X51397Y-6208D01*
X52317D01*
G01X48450Y-7500D02*
Y-4400D01*
X48910Y-5020D01*
G01Y-7500D02*
X47990D01*
G01X49577Y14500D02*
X49500Y15172D01*
X49385Y15740D01*
X49232Y16257D01*
X49040Y16825D01*
X48733Y17600D01*
X50267D01*
M02*
