G04 ================== begin FILE IDENTIFICATION RECORD ==================*
G04 Layout Name:  C:/tmp/20_043217b/worklib/02_043217b_top/physical/08_043217b.brd*
G04 Film Name:    silk_prm*
G04 File Format:  Gerber RS274X*
G04 File Origin:  Cadence Allegro 16.6-2015-S074*
G04 Origin Date:  Tue Jan 24 04:00:59 2017*
G04 *
G04 Layer:  REF DES/SILKSCREEN_TOP*
G04 Layer:  PACKAGE GEOMETRY/SILKSCREEN_TOP*
G04 Layer:  MANUFACTURING/SILK_DETAIL_TOP*
G04 Layer:  BOARD GEOMETRY/TOOLING_CORNERS*
G04 Layer:  BOARD GEOMETRY/SILKSCREEN_TOP*
G04 Layer:  BOARD GEOMETRY/ROOT_NUMBER*
G04 *
G04 Offset:    (0.00 0.00)*
G04 Mirror:    No*
G04 Mode:      Positive*
G04 Rotation:  0*
G04 FullContactRelief:  No*
G04 UndefLineWidth:     8.00*
G04 ================== end FILE IDENTIFICATION RECORD ====================*
%FSLAX55Y55*MOIN*%
%IR0*IPPOS*OFA0.00000B0.00000*MIA0B0*SFA1.00000B1.00000*%
%ADD10C,.05*%
%ADD11C,.005*%
%ADD12C,.008*%
%ADD13C,.006*%
G75*
%LPD*%
G75*
G36*
G01X36811Y-10752D02*
G03I-1500J0D01*
G37*
G54D10*
G01X-17500Y-56500D02*
X2500D01*
G01X-17500D02*
Y-36500D01*
G01Y28500D02*
Y8500D01*
G01Y28500D02*
X2500D01*
G01X67500Y-56500D02*
X47500D01*
G01X67500Y28500D02*
X47500D01*
G01X67500Y-56500D02*
Y-36500D01*
G01Y28500D02*
Y8500D01*
G54D11*
G01X-9000Y23500D02*
G03X-12010Y23496I-1500J-4000D01*
G01X-12000Y15500D02*
G03X-8985Y15506I1500J4000D01*
G01X-6500Y21000D02*
G02X-6368Y18414I-4000J-1501D01*
G01X-14500Y21000D02*
G03X-14503Y18008I4000J-1500D01*
G01X56000Y-47500D02*
G03X55997Y-50492I4000J-1500D01*
G01X64000Y-47500D02*
G02X64132Y-50086I-4000J-1501D01*
G01X58500Y-53000D02*
G03X61515Y-52994I1500J4000D01*
G01X61500Y-45000D02*
G03X58490Y-45004I-1500J-4000D01*
G54D12*
G01X-62625Y102333D02*
X-61625Y101500D01*
X-60500Y101000D01*
X-59500D01*
X-58500Y101500D01*
X-57750Y102333D01*
X-57375Y103500D01*
X-57625Y104666D01*
X-58250Y105667D01*
X-59375Y106333D01*
X-60875Y106667D01*
X-61750Y107333D01*
X-62125Y108500D01*
X-61875Y109667D01*
X-61250Y110500D01*
X-60375Y111000D01*
X-59500D01*
X-58625Y110667D01*
X-57875Y109833D01*
G01X-51500Y111000D02*
X-48500D01*
G01X-50000D02*
Y101000D01*
G01X-51500D02*
X-48500D01*
G01X-42500Y111000D02*
Y101000D01*
X-37500D01*
G01X-32750D02*
Y111000D01*
G01X-28000D02*
X-32750Y104833D01*
G01X-27250Y101000D02*
X-30625Y107666D01*
G01X-22625Y102333D02*
X-21625Y101500D01*
X-20500Y101000D01*
X-19500D01*
X-18500Y101500D01*
X-17750Y102333D01*
X-17375Y103500D01*
X-17625Y104666D01*
X-18250Y105667D01*
X-19375Y106333D01*
X-20875Y106667D01*
X-21750Y107333D01*
X-22125Y108500D01*
X-21875Y109667D01*
X-21250Y110500D01*
X-20375Y111000D01*
X-19500D01*
X-18625Y110667D01*
X-17875Y109833D01*
G01X-7250Y110167D02*
X-8000Y110667D01*
X-8875Y111000D01*
X-9875D01*
X-11000Y110500D01*
X-11875Y109667D01*
X-12500Y108667D01*
X-13000Y107000D01*
X-13125Y105500D01*
X-12875Y104000D01*
X-12500Y103000D01*
X-11750Y102000D01*
X-10875Y101333D01*
X-10000Y101000D01*
X-9125D01*
X-8250Y101333D01*
X-7500Y101833D01*
X-6875Y102500D01*
G01X-2500Y101000D02*
Y111000D01*
X625D01*
X1625Y110500D01*
X2250Y109833D01*
X2500Y108500D01*
X2250Y107167D01*
X1500Y106333D01*
X625Y105833D01*
X-2500D01*
G01X625D02*
X2500Y101000D01*
G01X12500D02*
X7500D01*
Y111000D01*
X12500D01*
G01X10500Y106167D02*
X7500D01*
G01X22500Y101000D02*
X17500D01*
Y111000D01*
X22500D01*
G01X20500Y106167D02*
X17500D01*
G01X27125Y101000D02*
Y111000D01*
X32875Y101000D01*
Y111000D01*
G01X47500Y101000D02*
Y111000D01*
X50500D01*
X51500Y110500D01*
X52250Y109333D01*
X52500Y108000D01*
X52250Y106667D01*
X51625Y105667D01*
X50500Y105166D01*
X47500D01*
G01X57500Y101000D02*
Y111000D01*
X60625D01*
X61625Y110500D01*
X62250Y109833D01*
X62500Y108500D01*
X62250Y107167D01*
X61500Y106333D01*
X60625Y105833D01*
X57500D01*
G01X60625D02*
X62500Y101000D01*
G01X68500Y111000D02*
X71500D01*
G01X70000D02*
Y101000D01*
G01X68500D02*
X71500D01*
G01X76750D02*
Y111000D01*
X80000Y102667D01*
X83250Y111000D01*
Y101000D01*
G01X86875D02*
X90000Y111000D01*
X93125Y101000D01*
G01X92000Y104500D02*
X88000D01*
G01X97500Y101000D02*
Y111000D01*
X100625D01*
X101625Y110500D01*
X102250Y109833D01*
X102500Y108500D01*
X102250Y107167D01*
X101500Y106333D01*
X100625Y105833D01*
X97500D01*
G01X100625D02*
X102500Y101000D01*
G01X110000D02*
Y105500D01*
X107500Y111000D01*
G01X112500D02*
X110000Y105500D01*
G01X-1250Y27000D02*
X-6000D01*
Y15000D01*
X-1250D01*
G01X-30000Y91000D02*
X-31000Y90667D01*
X-31750Y89833D01*
X-32250Y88833D01*
X-32625Y87500D01*
X-32750Y86000D01*
X-32625Y84500D01*
X-32250Y83167D01*
X-31750Y82166D01*
X-31000Y81333D01*
X-30000Y81000D01*
X-29000Y81333D01*
X-28250Y82166D01*
X-27750Y83167D01*
X-27375Y84500D01*
X-27250Y86000D01*
X-27375Y87500D01*
X-27750Y88833D01*
X-28250Y89833D01*
X-29000Y90667D01*
X-30000Y91000D01*
G01X-20000Y81000D02*
X-19125Y81167D01*
X-18125Y81667D01*
X-17500Y82500D01*
X-17250Y83667D01*
X-17500Y84833D01*
X-18250Y85833D01*
X-19375Y86333D01*
X-20625D01*
X-21375Y86667D01*
X-22000Y87500D01*
X-22250Y88667D01*
X-21875Y89833D01*
X-21000Y90667D01*
X-20000Y91000D01*
X-19000Y90667D01*
X-18125Y89833D01*
X-17750Y88667D01*
X-18000Y87500D01*
X-18625Y86667D01*
X-19375Y86333D01*
X-20625D01*
X-21750Y85833D01*
X-22500Y84833D01*
X-22750Y83667D01*
X-22500Y82500D01*
X-21875Y81667D01*
X-20875Y81167D01*
X-20000Y81000D01*
G01X-11625Y84333D02*
X-8375D01*
G01X58375D02*
X61625D01*
G01X70000Y91000D02*
X69000Y90667D01*
X68250Y89833D01*
X67750Y88833D01*
X67375Y87500D01*
X67250Y86000D01*
X67375Y84500D01*
X67750Y83167D01*
X68250Y82166D01*
X69000Y81333D01*
X70000Y81000D01*
X71000Y81333D01*
X71750Y82166D01*
X72250Y83167D01*
X72625Y84500D01*
X72750Y86000D01*
X72625Y87500D01*
X72250Y88833D01*
X71750Y89833D01*
X71000Y90667D01*
X70000Y91000D01*
G01X77250Y83000D02*
X78000Y81833D01*
X79000Y81167D01*
X80125Y81000D01*
X81125Y81167D01*
X82125Y82000D01*
X82750Y83000D01*
X82875Y84000D01*
X82625Y85166D01*
X81750Y86000D01*
X80875Y86333D01*
X79750D01*
G01X80875D02*
X81625Y86833D01*
X82250Y87666D01*
X82500Y88667D01*
X82250Y89667D01*
X81625Y90500D01*
X80500Y91000D01*
X79375Y90833D01*
X78250Y90167D01*
G01X14900Y-38311D02*
X12189D01*
Y-33100D01*
G01X1400Y-36000D02*
G03I-400J0D01*
G01X25400Y-47500D02*
G03I-400J0D01*
G01X6000Y-43500D02*
Y-43000D01*
X5000D01*
Y-48000D01*
X6000D01*
Y-43000D01*
G01X12189Y-17900D02*
Y-12689D01*
X14900D01*
G01X1400Y-20500D02*
G03I-400J0D01*
G01Y-12500D02*
G03I-400J0D01*
G01X8750Y15000D02*
X1250D01*
G01X18750D02*
X11250D01*
G01X28750D02*
X21250D01*
G01X8750Y27000D02*
X1250D01*
G01X18750D02*
X11250D01*
G01X28750D02*
X21250D01*
G01X2500Y61000D02*
Y71000D01*
X5625D01*
X6625Y70500D01*
X7250Y69833D01*
X7500Y68500D01*
X7250Y67167D01*
X6500Y66333D01*
X5625Y65833D01*
X2500D01*
G01X5625D02*
X7500Y61000D01*
G01X17500D02*
X12500D01*
Y71000D01*
X17500D01*
G01X15500Y66167D02*
X12500D01*
G01X21875Y71000D02*
X25000Y61000D01*
X28125Y71000D01*
G01X46000Y66333D02*
X46500Y66833D01*
X46875Y67666D01*
X47125Y68833D01*
X46875Y69833D01*
X46375Y70500D01*
X45500Y71000D01*
X42125D01*
Y61000D01*
X46250D01*
X47125Y61667D01*
X47625Y62667D01*
X47875Y63833D01*
X47625Y65000D01*
X46875Y66000D01*
X46000Y66333D01*
X42125D01*
G01X0Y91000D02*
X-1000Y90667D01*
X-1750Y89833D01*
X-2250Y88833D01*
X-2625Y87500D01*
X-2750Y86000D01*
X-2625Y84500D01*
X-2250Y83167D01*
X-1750Y82166D01*
X-1000Y81333D01*
X0Y81000D01*
X1000Y81333D01*
X1750Y82166D01*
X2250Y83167D01*
X2625Y84500D01*
X2750Y86000D01*
X2625Y87500D01*
X2250Y88833D01*
X1750Y89833D01*
X1000Y90667D01*
X0Y91000D01*
G01X11500Y81000D02*
Y91000D01*
X6875Y83833D01*
X13125D01*
G01X17250Y83000D02*
X18000Y81833D01*
X19000Y81167D01*
X20125Y81000D01*
X21125Y81167D01*
X22125Y82000D01*
X22750Y83000D01*
X22875Y84000D01*
X22625Y85166D01*
X21750Y86000D01*
X20875Y86333D01*
X19750D01*
G01X20875D02*
X21625Y86833D01*
X22250Y87666D01*
X22500Y88667D01*
X22250Y89667D01*
X21625Y90500D01*
X20500Y91000D01*
X19375Y90833D01*
X18250Y90167D01*
G01X27625Y89333D02*
X28375Y90333D01*
X29250Y90833D01*
X30250Y91000D01*
X31500Y90667D01*
X32375Y89833D01*
X32625Y88833D01*
X32500Y87833D01*
X32000Y87000D01*
X29500Y85333D01*
X28375Y84167D01*
X27625Y82500D01*
X27375Y81000D01*
X32625D01*
G01X40000D02*
Y91000D01*
X38500Y89000D01*
G01Y81000D02*
X41500D01*
G01X49750D02*
X50000Y83167D01*
X50375Y85000D01*
X50875Y86667D01*
X51500Y88500D01*
X52500Y91000D01*
X47500D01*
G01X35100Y-38311D02*
X37811D01*
Y-33100D01*
G01X42900Y-42000D02*
G03I-400J0D01*
G01X50900D02*
G03I-400J0D01*
G01X54500Y-34500D02*
Y-19500D01*
X46500D01*
Y-34500D01*
X54500D01*
G01X35100Y-12689D02*
X37811D01*
Y-17900D01*
G01X43800Y-15000D02*
Y-6000D01*
X38400D01*
Y-15000D01*
X43800D01*
G01X38750Y15000D02*
X31250D01*
G01X48750D02*
X41250D01*
G01X51250D02*
X56000D01*
Y27000D01*
X51250D01*
G01X38750D02*
X31250D01*
G01X48750D02*
X41250D01*
G54D13*
G01X-11000Y-51033D02*
Y-52567D01*
X-14100D01*
Y-51033D01*
G01X-12602Y-51647D02*
Y-52567D01*
G01X-14100Y-49658D02*
X-11000Y-48700D01*
X-14100Y-47742D01*
G01X-11000Y-46558D02*
X-14100Y-45600D01*
X-11000Y-44642D01*
G01X-12085Y-44987D02*
Y-46213D01*
G01X-14100Y-43267D02*
X-11000D01*
Y-41733D01*
G01X-12033Y-39898D02*
Y-38902D01*
G01X-11000Y-37258D02*
X-14100Y-36300D01*
X-11000Y-35342D01*
G01X-12085Y-35687D02*
Y-36913D01*
G01X-11000Y-34043D02*
X-14100D01*
Y-33277D01*
X-13945Y-32970D01*
X-13738Y-32740D01*
X-13428Y-32548D01*
X-13067Y-32395D01*
X-12550Y-32357D01*
X-12033Y-32395D01*
X-11672Y-32548D01*
X-11362Y-32740D01*
X-11155Y-32970D01*
X-11000Y-33277D01*
Y-34043D01*
G01Y-30905D02*
X-14100Y-29295D01*
G01Y-30905D02*
X-11000Y-29295D01*
G01X-14100Y-27767D02*
X-11000D01*
Y-26233D01*
G01X-11620Y-24743D02*
X-11258Y-24513D01*
X-11052Y-24207D01*
X-11000Y-23862D01*
X-11052Y-23555D01*
X-11310Y-23248D01*
X-11620Y-23057D01*
X-11930Y-23018D01*
X-12292Y-23095D01*
X-12550Y-23363D01*
X-12653Y-23632D01*
Y-23977D01*
G01Y-23632D02*
X-12808Y-23402D01*
X-13067Y-23210D01*
X-13377Y-23133D01*
X-13687Y-23210D01*
X-13945Y-23402D01*
X-14100Y-23747D01*
X-14048Y-24092D01*
X-13842Y-24437D01*
G01X-11465Y-21643D02*
X-11207Y-21413D01*
X-11052Y-21145D01*
X-11000Y-20800D01*
X-11103Y-20455D01*
X-11310Y-20187D01*
X-11672Y-19995D01*
X-12085Y-19957D01*
X-12498Y-20033D01*
X-12757Y-20225D01*
X-12963Y-20493D01*
X-13015Y-20762D01*
X-12963Y-21030D01*
X-12757Y-21375D01*
X-14100Y-21260D01*
Y-20225D01*
G01X-11465Y-18543D02*
X-11207Y-18313D01*
X-11052Y-18045D01*
X-11000Y-17700D01*
X-11103Y-17355D01*
X-11310Y-17087D01*
X-11672Y-16895D01*
X-12085Y-16857D01*
X-12498Y-16933D01*
X-12757Y-17125D01*
X-12963Y-17393D01*
X-13015Y-17662D01*
X-12963Y-17930D01*
X-12757Y-18275D01*
X-14100Y-18160D01*
Y-17125D01*
G01X-12033Y-15098D02*
Y-14102D01*
G01X-11000Y-12267D02*
X-14100D01*
Y-11347D01*
X-13945Y-11040D01*
X-13583Y-10810D01*
X-13170Y-10733D01*
X-12757Y-10810D01*
X-12447Y-11002D01*
X-12292Y-11347D01*
Y-12267D01*
G01X-11000Y-9397D02*
X-14100D01*
X-11517Y-8400D01*
X-14100Y-7403D01*
X-11000D01*
G01Y-6143D02*
X-14100D01*
Y-5377D01*
X-13945Y-5070D01*
X-13738Y-4840D01*
X-13428Y-4648D01*
X-13067Y-4495D01*
X-12550Y-4457D01*
X-12033Y-4495D01*
X-11672Y-4648D01*
X-11362Y-4840D01*
X-11155Y-5070D01*
X-11000Y-5377D01*
Y-6143D01*
G01X-14100Y-2928D02*
Y-1472D01*
X-11000Y-2928D01*
Y-1472D01*
G01X-9600Y-51700D02*
X-9497Y-52007D01*
X-9238Y-52237D01*
X-8928Y-52390D01*
X-8515Y-52505D01*
X-8050Y-52543D01*
X-7585Y-52505D01*
X-7172Y-52390D01*
X-6862Y-52237D01*
X-6603Y-52007D01*
X-6500Y-51700D01*
X-6603Y-51393D01*
X-6862Y-51163D01*
X-7172Y-51010D01*
X-7585Y-50895D01*
X-8050Y-50857D01*
X-8515Y-50895D01*
X-8928Y-51010D01*
X-9238Y-51163D01*
X-9497Y-51393D01*
X-9600Y-51700D01*
G01X-6500Y-48600D02*
X-6552Y-48332D01*
X-6707Y-48025D01*
X-6965Y-47833D01*
X-7327Y-47757D01*
X-7688Y-47833D01*
X-7998Y-48063D01*
X-8153Y-48408D01*
Y-48792D01*
X-8257Y-49022D01*
X-8515Y-49213D01*
X-8877Y-49290D01*
X-9238Y-49175D01*
X-9497Y-48907D01*
X-9600Y-48600D01*
X-9497Y-48293D01*
X-9238Y-48025D01*
X-8877Y-47910D01*
X-8515Y-47987D01*
X-8257Y-48178D01*
X-8153Y-48408D01*
Y-48792D01*
X-7998Y-49137D01*
X-7688Y-49367D01*
X-7327Y-49443D01*
X-6965Y-49367D01*
X-6707Y-49175D01*
X-6552Y-48868D01*
X-6500Y-48600D01*
G01X-7533Y-45998D02*
Y-45002D01*
G01X-9600Y-42400D02*
X-9497Y-42707D01*
X-9238Y-42937D01*
X-8928Y-43090D01*
X-8515Y-43205D01*
X-8050Y-43243D01*
X-7585Y-43205D01*
X-7172Y-43090D01*
X-6862Y-42937D01*
X-6603Y-42707D01*
X-6500Y-42400D01*
X-6603Y-42093D01*
X-6862Y-41863D01*
X-7172Y-41710D01*
X-7585Y-41595D01*
X-8050Y-41557D01*
X-8515Y-41595D01*
X-8928Y-41710D01*
X-9238Y-41863D01*
X-9497Y-42093D01*
X-9600Y-42400D01*
G01X-6500Y-38840D02*
X-9600D01*
X-7378Y-40258D01*
Y-38342D01*
G01X-7120Y-37043D02*
X-6758Y-36813D01*
X-6552Y-36507D01*
X-6500Y-36162D01*
X-6552Y-35855D01*
X-6810Y-35548D01*
X-7120Y-35357D01*
X-7430Y-35318D01*
X-7792Y-35395D01*
X-8050Y-35663D01*
X-8153Y-35932D01*
Y-36277D01*
G01Y-35932D02*
X-8308Y-35702D01*
X-8567Y-35510D01*
X-8877Y-35433D01*
X-9187Y-35510D01*
X-9445Y-35702D01*
X-9600Y-36047D01*
X-9548Y-36392D01*
X-9342Y-36737D01*
G01X-9083Y-33828D02*
X-9393Y-33598D01*
X-9548Y-33330D01*
X-9600Y-33023D01*
X-9497Y-32640D01*
X-9238Y-32372D01*
X-8928Y-32295D01*
X-8618Y-32333D01*
X-8360Y-32487D01*
X-7843Y-33253D01*
X-7482Y-33598D01*
X-6965Y-33828D01*
X-6500Y-33905D01*
Y-32295D01*
G01Y-30000D02*
X-9600D01*
X-8980Y-30460D01*
G01X-6500D02*
Y-29540D01*
G01Y-26977D02*
X-7172Y-26900D01*
X-7740Y-26785D01*
X-8257Y-26632D01*
X-8825Y-26440D01*
X-9600Y-26133D01*
Y-27667D01*
G01X-6500Y-21467D02*
X-9600D01*
Y-20508D01*
X-9445Y-20202D01*
X-9238Y-20010D01*
X-8825Y-19933D01*
X-8412Y-20010D01*
X-8153Y-20240D01*
X-7998Y-20508D01*
Y-21467D01*
G01Y-20508D02*
X-6500Y-19933D01*
G01Y-16833D02*
Y-18367D01*
X-9600D01*
Y-16833D01*
G01X-8102Y-17447D02*
Y-18367D01*
G01X-9600Y-15458D02*
X-6500Y-14500D01*
X-9600Y-13542D01*
G01X-8153Y-7993D02*
X-8308Y-7840D01*
X-8567Y-7725D01*
X-8928Y-7648D01*
X-9238Y-7725D01*
X-9445Y-7878D01*
X-9600Y-8147D01*
Y-9182D01*
X-6500D01*
Y-7917D01*
X-6707Y-7648D01*
X-7017Y-7495D01*
X-7378Y-7418D01*
X-7740Y-7495D01*
X-8050Y-7725D01*
X-8153Y-7993D01*
Y-9182D01*
G01X-9050Y8000D02*
Y11100D01*
X-9510Y10480D01*
G01Y8000D02*
X-8590D01*
G01X-6678Y10583D02*
X-6448Y10893D01*
X-6180Y11048D01*
X-5873Y11100D01*
X-5490Y10997D01*
X-5222Y10738D01*
X-5145Y10428D01*
X-5183Y10118D01*
X-5337Y9860D01*
X-6103Y9343D01*
X-6448Y8982D01*
X-6678Y8465D01*
X-6755Y8000D01*
X-5145D01*
G01X-6728Y-708D02*
X-6460Y-347D01*
X-6230Y-140D01*
X-5923Y-37D01*
X-5655Y-140D01*
X-5463Y-347D01*
X-5310Y-657D01*
X-5272Y-1018D01*
X-5310Y-1328D01*
X-5463Y-1638D01*
X-5693Y-1897D01*
X-5962Y-2000D01*
X-6268Y-1897D01*
X-6537Y-1587D01*
X-6690Y-1122D01*
X-6728Y-605D01*
X-6652Y67D01*
X-6537Y428D01*
X-6345Y790D01*
X-6077Y1048D01*
X-5808Y1100D01*
X-5540Y997D01*
X-5348Y738D01*
G01X24607Y-40900D02*
Y-43122D01*
X24760Y-43587D01*
X25067Y-43897D01*
X25450Y-44000D01*
X25833Y-43897D01*
X26140Y-43587D01*
X26293Y-43122D01*
Y-40900D01*
G01X28550Y-44000D02*
Y-40900D01*
X28090Y-41520D01*
G01Y-44000D02*
X29010D01*
G01X-2707Y-39658D02*
X-2937Y-39503D01*
X-3205Y-39400D01*
X-3512D01*
X-3857Y-39555D01*
X-4125Y-39813D01*
X-4317Y-40123D01*
X-4470Y-40640D01*
X-4508Y-41105D01*
X-4432Y-41570D01*
X-4317Y-41880D01*
X-4087Y-42190D01*
X-3818Y-42397D01*
X-3550Y-42500D01*
X-3282D01*
X-3013Y-42397D01*
X-2783Y-42242D01*
X-2592Y-42035D01*
G01X-450Y-42500D02*
Y-39400D01*
X-910Y-40020D01*
G01Y-42500D02*
X10D01*
G01X24293Y-50658D02*
X24063Y-50503D01*
X23795Y-50400D01*
X23488D01*
X23143Y-50555D01*
X22875Y-50813D01*
X22683Y-51123D01*
X22530Y-51640D01*
X22492Y-52105D01*
X22568Y-52570D01*
X22683Y-52880D01*
X22913Y-53190D01*
X23182Y-53397D01*
X23450Y-53500D01*
X23718D01*
X23987Y-53397D01*
X24217Y-53242D01*
X24408Y-53035D01*
G01X25822Y-50917D02*
X26052Y-50607D01*
X26320Y-50452D01*
X26627Y-50400D01*
X27010Y-50503D01*
X27278Y-50762D01*
X27355Y-51072D01*
X27317Y-51382D01*
X27163Y-51640D01*
X26397Y-52157D01*
X26052Y-52518D01*
X25822Y-53035D01*
X25745Y-53500D01*
X27355D01*
G01X4717Y-52000D02*
X3183D01*
Y-48900D01*
X4717D01*
G01X4103Y-50398D02*
X3183D01*
G01X7050Y-52000D02*
Y-48900D01*
X6590Y-49520D01*
G01Y-52000D02*
X7510D01*
G01X2793Y-24158D02*
X2563Y-24003D01*
X2295Y-23900D01*
X1988D01*
X1643Y-24055D01*
X1375Y-24313D01*
X1183Y-24623D01*
X1030Y-25140D01*
X992Y-25605D01*
X1068Y-26070D01*
X1183Y-26380D01*
X1413Y-26690D01*
X1682Y-26897D01*
X1950Y-27000D01*
X2218D01*
X2487Y-26897D01*
X2717Y-26742D01*
X2908Y-26535D01*
G01X4207D02*
X4437Y-26793D01*
X4705Y-26948D01*
X5050Y-27000D01*
X5395Y-26897D01*
X5663Y-26690D01*
X5855Y-26328D01*
X5893Y-25915D01*
X5817Y-25502D01*
X5625Y-25243D01*
X5357Y-25037D01*
X5088Y-24985D01*
X4820Y-25037D01*
X4475Y-25243D01*
X4590Y-23900D01*
X5625D01*
G01X3293Y-6158D02*
X3063Y-6003D01*
X2795Y-5900D01*
X2488D01*
X2143Y-6055D01*
X1875Y-6313D01*
X1683Y-6623D01*
X1530Y-7140D01*
X1492Y-7605D01*
X1568Y-8070D01*
X1683Y-8380D01*
X1913Y-8690D01*
X2182Y-8897D01*
X2450Y-9000D01*
X2718D01*
X2987Y-8897D01*
X3217Y-8742D01*
X3408Y-8535D01*
G01X4822Y-7708D02*
X5090Y-7347D01*
X5320Y-7140D01*
X5627Y-7037D01*
X5895Y-7140D01*
X6087Y-7347D01*
X6240Y-7657D01*
X6278Y-8018D01*
X6240Y-8328D01*
X6087Y-8638D01*
X5857Y-8897D01*
X5588Y-9000D01*
X5282Y-8897D01*
X5013Y-8587D01*
X4860Y-8122D01*
X4822Y-7605D01*
X4898Y-6933D01*
X5013Y-6572D01*
X5205Y-6210D01*
X5473Y-5952D01*
X5742Y-5900D01*
X6010Y-6003D01*
X6202Y-6262D01*
G01X41793Y-49158D02*
X41563Y-49003D01*
X41295Y-48900D01*
X40988D01*
X40643Y-49055D01*
X40375Y-49313D01*
X40183Y-49623D01*
X40030Y-50140D01*
X39992Y-50605D01*
X40068Y-51070D01*
X40183Y-51380D01*
X40413Y-51690D01*
X40682Y-51897D01*
X40950Y-52000D01*
X41218D01*
X41487Y-51897D01*
X41717Y-51742D01*
X41908Y-51535D01*
G01X44510Y-52000D02*
Y-48900D01*
X43092Y-51122D01*
X45008D01*
G01X49793Y-49158D02*
X49563Y-49003D01*
X49295Y-48900D01*
X48988D01*
X48643Y-49055D01*
X48375Y-49313D01*
X48183Y-49623D01*
X48030Y-50140D01*
X47992Y-50605D01*
X48068Y-51070D01*
X48183Y-51380D01*
X48413Y-51690D01*
X48682Y-51897D01*
X48950Y-52000D01*
X49218D01*
X49487Y-51897D01*
X49717Y-51742D01*
X49908Y-51535D01*
G01X51207Y-51380D02*
X51437Y-51742D01*
X51743Y-51948D01*
X52088Y-52000D01*
X52395Y-51948D01*
X52702Y-51690D01*
X52893Y-51380D01*
X52932Y-51070D01*
X52855Y-50708D01*
X52587Y-50450D01*
X52318Y-50347D01*
X51973D01*
G01X52318D02*
X52548Y-50192D01*
X52740Y-49933D01*
X52817Y-49623D01*
X52740Y-49313D01*
X52548Y-49055D01*
X52203Y-48900D01*
X51858Y-48952D01*
X51513Y-49158D01*
G01X47183Y-8000D02*
Y-4900D01*
X48103D01*
X48410Y-5055D01*
X48640Y-5417D01*
X48717Y-5830D01*
X48640Y-6243D01*
X48448Y-6553D01*
X48103Y-6708D01*
X47183D01*
G01X51050Y-8000D02*
Y-4900D01*
X50590Y-5520D01*
G01Y-8000D02*
X51510D01*
G01X47500Y-14817D02*
X44400D01*
Y-13858D01*
X44555Y-13552D01*
X44762Y-13360D01*
X45175Y-13283D01*
X45588Y-13360D01*
X45847Y-13590D01*
X46002Y-13858D01*
Y-14817D01*
G01Y-13858D02*
X47500Y-13283D01*
G01Y-10950D02*
X44400D01*
X45020Y-11410D01*
G01X47500D02*
Y-10490D01*
G01X54183Y-1500D02*
Y1600D01*
X55103D01*
X55410Y1445D01*
X55640Y1083D01*
X55717Y670D01*
X55640Y257D01*
X55448Y-53D01*
X55103Y-208D01*
X54183D01*
G01X58050Y-1500D02*
Y1600D01*
X57590Y980D01*
G01Y-1500D02*
X58510D01*
G01X57217Y-28000D02*
X55683D01*
Y-24900D01*
X57217D01*
G01X56603Y-26398D02*
X55683D01*
G01X58822Y-25417D02*
X59052Y-25107D01*
X59320Y-24952D01*
X59627Y-24900D01*
X60010Y-25003D01*
X60278Y-25262D01*
X60355Y-25572D01*
X60317Y-25882D01*
X60163Y-26140D01*
X59397Y-26657D01*
X59052Y-27018D01*
X58822Y-27535D01*
X58745Y-28000D01*
X60355D01*
G01X56423Y8000D02*
X56500Y8672D01*
X56615Y9240D01*
X56768Y9757D01*
X56960Y10325D01*
X57267Y11100D01*
X55733D01*
M02*
